<?xml version="1.0" encoding="utf-8"?>
<!-- Generator: Adobe Illustrator 18.0.0, SVG Export Plug-In . SVG Version: 6.00 Build 0)  -->
<!DOCTYPE svg PUBLIC "-//W3C//DTD SVG 1.1//EN" "http://www.w3.org/Graphics/SVG/1.1/DTD/svg11.dtd">
<svg version="1.1" xmlns="http://www.w3.org/2000/svg" xmlns:xlink="http://www.w3.org/1999/xlink" x="0px" y="0px"
	 viewBox="0 0 140.7 146" enable-background="new 0 0 140.7 146" xml:space="preserve" width="640" height="480">
<g id="nose">
	<path id="nose12" d="M62.3,111.4c1.5-3.6,3.1-7,4.4-10.5c0.6-1.7,0.6-3.7,0.8-5.5c0.1-0.8,0.3-1.5,0.4-2.3c0-0.2,0-0.5-0.1-0.7
		c-1-2-2-4-2.9-6c-0.9-1.8-1.7-3.7-2.5-5.5c-0.6-1.3,0-2.4,1.4-2.8c3.5-0.9,7.1-1.6,10.7-1.3c1.5,0.2,2.9,0.4,4.4,0.7
		c1.2,0.2,1.4,0.8,1.2,2c-0.1,0.4-0.2,0.9,0,1.2c1.3,1.9,0.1,3.6-0.3,5.5c-0.6,3.1-2.5,5.1-4.8,7c-0.7,0.6-1.1,1.3-0.7,2.3
		c1.5,3.8,2.9,7.7,6.2,10.4c1.2,1,1.7,1,2.6-0.3c0.9-1.3,2.1-2.5,2.5-4.2c0.1-0.7,1.7-1.1,2.5-0.8c0.9,0.4,1.5,0.9,1.2,2.1
		c-0.7,2.8-2.6,4.9-5,6.3c-1.7,1.1-3.7,0.6-5.5-0.4c-2.3-1.4-4-3.3-5.3-5.6c-0.8-1.4-1.5-2.8-2.5-4.4c-0.5,1.6-0.8,3-1.4,4.3
		c-1.3,3.4-2.7,6.7-4.2,10c-1,2.2-3.6,2.5-5.5,0.8c-1.1-1-2.3-1.9-3.4-2.7c-1.7-1.2-2-3.2-2.6-5c0-0.1,0-0.3,0-0.3
		c0.9-0.3,1.8-0.8,2.7-0.9c0.7-0.1,1.3,0.5,1.3,1.4c0,1.5,0.6,2.6,1.9,3.5C60.8,109.9,61.4,110.6,62.3,111.4z M71.6,91
		c0.2,0,0.3,0,0.5,0c1.3-1.5,3-2.6,3.6-4.9c0.5-1.7,1-3.3,0.6-5.1c-0.1-0.7-0.4-1.2-1.1-1.3c-2.6-0.5-5.1-0.2-7.6,0.5
		c-0.8,0.2-1,0.7-0.6,1.5c0.6,1.3,1,2.6,1.6,3.9C69.5,87.3,70.6,89.1,71.6,91z"/>
	<path id="nose11" d="M73.3,95c1.1,1.5,2.1,3.1,3.2,4.6c0.8,1.1,1.8,2,2.7,3c0.9,0.9,1.8,0.6,2.5-0.2c1.4-1.6,3.1-3.1,3.3-5.4
		c0-0.3,0.4-0.6,0.7-0.8c1.4-0.9,2.9-0.7,4.2,0.6c-0.4,0.8-0.8,1.5-1.2,2.3c-1.2,2.3-2.3,4.6-4.6,5.9c-3.1,1.9-7.5,1-9.7-1.9
		c-1.3-1.7-2.6-3.5-4.1-5.4c-0.4,0.7-0.7,1.2-1,1.7c-1.8,3-3.8,5.7-6.9,7.5c-1.5,0.9-2.9,0.8-4.5,0.3c-2.7-1-4.5-2.9-5.9-5.2
		c-0.2-0.3-0.5-0.5-0.6-0.8c-0.3-0.7-0.5-1.4-0.7-2.2c0.7-0.2,1.3-0.5,2-0.5c0.9,0.1,1.7,0.4,2.4,1.3c1,1.5,2.4,2.9,3.6,4.3
		c0.6,0.6,1.2,0.5,1.8,0.1c2.9-2,4.7-4.8,6-8c0.3-0.7,0.4-1.5,0.6-2.6c-1.9-1.4-2.9-3.6-3.7-6.1c-0.5-1.5-1.1-3-1.8-4.4
		c-0.4-0.9-1.1-1.7-1.7-2.6c-0.5-0.7-0.3-1.4,0.6-1.5c1.2-0.2,2.4-0.5,3.5-0.2c4.8,1,9.6,2.1,14.3,3.4c1.5,0.4,2.7,0.2,4-0.1
		c0.5-0.1,1.2-0.1,1.7,0.1c1.4,0.6,1.5,1.3,0.5,2.3c-1.4,1.5-2.9,3-4.4,4.5c-1.6,1.6-3.2,3.1-4.8,4.7C74.7,94.1,74.1,94.5,73.3,95z
		 M65.8,82.5c0.4,1.1,0.7,2,0.9,2.9c0.5,2,1.2,4,2.5,5.7c0.7,1,1.4,0.9,2.3,0.2c1.3-1.1,2.7-2,4-3.2c0.9-0.8,1.7-1.7,2.8-2.9
		C74,84.3,70.1,83.5,65.8,82.5z"/>
	<path id="nose10" d="M83.2,93.7c0.9,0.1,2,0.1,3,0.4c0.4,0.1,0.9,1,0.8,1.4c-0.1,0.9-0.4,2-1,2.7c-1.2,1.5-2.6,2.9-4,4.2
		c-3.1,2.9-6.7,3-10,0.1c-0.5-0.4-0.9-0.9-1.5-1.4c-0.3,1.3-0.7,2.5-0.9,3.6c-0.5,3.1-4.1,5.7-7.6,4.5c-2.9-0.9-5.8-1.9-8.7-2.8
		c-0.3-0.1-0.6-0.2-0.7-0.4c-0.4-0.6-0.8-1.2-1.2-1.8c0.5-0.2,1-0.6,1.6-0.6c1-0.1,2,0,3,0.5c2.1,1,4.3,1.7,6.4,2.6
		c0.8,0.3,1.3,0,1.9-0.6c1.6-2,2.3-4.4,2.7-6.8c0.4-2.2,0.3-4.6,0.5-6.8c0-0.5,0.3-0.9,0.6-1.7c-0.4-0.4-1-1.1-1.7-1.8
		c-2.1-2.1-3.8-4.5-4.7-7.3c-0.2-0.5-0.5-1-0.7-1.5c-0.2-0.6-0.8-1.5-0.6-1.7c0.5-0.5,1.4-1,2.1-1.1c3.1-0.1,6.1-0.1,9.2-0.1
		c1.7,0,3.5-0.2,5.2-0.2c1,0,1.9,0.1,2.8,0.3c0.9,0.2,1.1,0.9,0.6,1.6c-0.5,0.7-1.6,1.3-0.8,2.5c0,0.1-0.1,0.2-0.1,0.3
		c-0.9,2.9-1.9,5.9-2.8,8.8c-0.6,1.8-2.1,2.8-4,2.7c-0.3,1.7,0.4,3.1,1,4.6c0.4,1.1,1,2.1,1.6,3c0.6,0.9,1.5,1,2.3,0.3
		c1.8-1.7,3.5-3.5,5.1-5.3C82.9,95.4,82.9,94.6,83.2,93.7z M72.4,89.3c0.4-3.2,1.9-6,2.4-9.1c-3.2,0-6.1,0-9,0
		C66.2,83.2,69.4,87.7,72.4,89.3z"/>
	<path id="nose9" d="M68.5,104.7c-0.7,1.1-1.2,2.2-2,3c-1.9,1.9-4.2,2.5-6.8,1.4c-1.8-0.7-3.7-1.2-5.4-1.9c-0.5-0.2-0.8-0.9-1.1-1.3
		c0.6-0.3,1.2-1,1.7-0.9c1.1,0.1,2.3,0.6,3.4,1c0.2,0.1,0.4,0.2,0.5,0.3c3.2,1.4,4,1.5,5.8-2.2c0.8-1.6,1.1-3.4,1.6-5.1
		c0.1-0.6,0-1.2,0-1.8c0-0.6,0.1-1.1,0.2-1.6c-1.1-3-2.3-5.9-3.3-8.8c-0.6-1.9-1-3.9-1.5-5.8c-0.2-0.7-0.7-1.5-0.5-2
		c0.2-0.6,1.2-0.9,1.8-1.2c0.4-0.2,0.8-0.3,1.2-0.3c2.7-0.2,5.3-0.5,8-0.6c1.8-0.1,3.7-0.4,5.4,0.5c0.7,0.4,1.4,0.9,1.9,1.5
		c0.6,0.7,0.4,1.7-0.5,2.1c-0.7,0.3-0.9,0.7-0.7,1.3c1,4.7-0.5,8.8-3.3,12.6c-0.9,1.1-1.5,2.4-2.3,3.6c-0.4,0.6-1.3,0.8-1.2,1.9
		c0.2,2.3,1.1,4.2,2.6,5.9c0.6,0.6,1.2,0.7,1.8,0.3c0.9-0.6,1.8-1.4,2.6-2.1c0.1-0.1,0.3-0.3,0.3-0.5c0.1-0.6,0-1.3,0.8-1.3
		c0.9-0.1,1.7-0.2,2.4,0.7c1.5,1.8,1.5,2.1-0.5,3.6c-0.7,0.5-1.4,0.9-2,1.5c-2.9,2.4-6.9,1.2-9-1C69.7,106.4,69.2,105.6,68.5,104.7z
		 M66,80.8c0.7,4.7,1.9,9,4.3,13c3.5-2.2,5.1-8.8,3.4-14.1C71.2,80.1,68.6,80.4,66,80.8z"/>
	<path id="nose8" d="M64.9,105.1c2-1.5,3-3.3,3.4-5.5c0.2-1,0.6-2,0.9-3c0.1,0,0.2,0,0.4,0c-0.2-0.2-0.4-0.4-0.6-0.5
		c-3.5-1.5-5.8-4.4-8-7.4c-0.2-0.3-0.4-0.6-0.6-0.9c-1.1-1.4-1.2-1.6,0.3-2.7c0.5-0.4,1.2-0.7,1.8-0.8c2.1-0.4,4.2-0.7,6.4-0.9
		c3-0.3,6-0.2,8.9,0.5c1.5,0.3,2,1.7,2.7,2.8c0.4,0.7-0.3,1.5-1.3,1.6c-0.3,0-0.6,0-0.8,0c-0.1,1.9-0.2,3.7-0.4,5.6
		c-0.2,2.2-2,3-3.9,3.8c0.9,1.7,1.8,3.2,2.6,4.7c1.5-0.5,2.7-2,2.7-3.4c0-1.2,0.7-1.8,1.9-1.8c2.2,0.1,3.3,2.2,2,4.2
		c-0.8,1.3-2.1,2.3-3.3,3.4c-2.6,2.5-5.6,0.8-7.1-1.4c-0.3-0.5-0.7-1-1.2-1.7c-0.4,0.8-0.8,1.3-1,2c-0.6,1.5-1.7,2.6-3,3.5
		c-2,1.3-4.7,1.2-6-0.8c-0.7-1.1-0.9-2.6-1.1-4c-0.2-1,0-2.1,0-3.1c0-1,0.5-1.3,1.5-1c0.2,0.1,0.4,0.1,0.5,0.1
		c1.1-0.2,1.3,0.4,1.4,1.4c0.1,1.5,0.2,2.9,0.3,4.4C64.5,104.5,64.7,104.7,64.9,105.1z M65,87.1c0,0.2-0.1,0.3-0.1,0.5
		c1.7,2.5,3.4,4.9,6.2,6.2c1.2,0.6,2.2,0.4,2.7-0.8c0.7-1.6,1.3-3.2,1.7-4.9c0.4-1.6,0-2.1-1.7-1.9C70.8,86.4,67.9,86.8,65,87.1z"/>
	<path id="nose7" d="M70.5,96.9c-0.9,2-1.5,3.8-2.4,5.5c-0.7,1.2-1.7,2.3-2.7,3.3c-1.3,1.3-2.6,0.3-3.8-0.2
		c-1.2-0.5-2.3-1.2-3.4-1.9c-0.4-0.3-0.7-0.9-1-1.3c0.4-0.2,0.9-0.4,1.3-0.6c1.4-0.5,2.6-0.4,3.5,1.1c0.4,0.6,0.8,0.6,1.3,0
		c1.5-1.8,2-3.9,2.6-6.1c0.4-1.3,0.1-2.3-0.5-3.5c-1.1-2.1-1.7-4.5-2.6-6.7c-0.1-0.4-0.4-0.7-0.5-1.1c-0.2-0.6-0.2-1,0.6-1.3
		c0.4-0.2,0.7-0.6,1-0.9c0.2-0.2,0.5-0.6,0.8-0.6c0.9-0.1,1.9-0.2,2.9-0.2c1.4,0.1,2.9,0.2,4.3,0.4c2.1,0.3,4.2,0.6,6.3,1
		c0.3,0.1,0.8,0.5,0.8,0.8c0.2,1.9,0.6,3.8-0.7,5.5c-0.5,0.6-0.5,1.5-0.9,2.1c-0.6,0.9-1.5,1.7-2.1,2.6c-0.2,0.3-0.3,1-0.1,1.4
		c1.1,2.4,2.3,4.8,3.5,7.2c1,1.9,1.4,1.9,2.6,0.2c1.1-1.6,2.1-1.9,3.9-1.3c0.8,0.3,1.3,1.1,0.8,1.8c-1,1.3-2,2.4-3.1,3.6
		c-0.7,0.8-1.7,0.8-2.7,0.5c-3.3-0.9-5.2-3.1-6.2-6.2C73.1,100,72,98.4,70.5,96.9z M67,85.7c0.8,2.4,1.6,4.8,2.5,7.1
		c0.3,0.7,1,1,1.6,0.3c1.5-1.7,3.4-3.1,3.6-5.7c0.1-1.3,0-1.7-1.2-1.7C71.5,85.7,69.4,85.7,67,85.7z"/>
	<path id="nose6" d="M72.9,97.6c0.9,1,1.8,2,2.7,3.1c0.3-0.7,0.4-1.5,0.8-1.6c0.6-0.3,1.3-0.2,2-0.2c1.2,0.1,1.5,0.6,1.6,2.2
		c0,0.3,0.1,0.7,0.2,1c0.7,2.2-0.4,3.4-2.6,2.9c-2.1-0.5-4.2-1.4-5.8-2.9c-0.1-0.1-0.3-0.3-0.4-0.4c-1.2-1.1-1.2-1.1-2.2,0.2
		c-0.8,1-1.5,2-2.4,2.8c-1.4,1.4-3.2,1.5-5.3,0.5c-1.4-0.6-2.8-1.2-4.1-1.9c-0.5-0.2-0.8-0.8-1.1-1.2c0.4-0.3,0.8-0.7,1.3-0.9
		c1.6-0.7,2.9,0.1,4.1,1.1c1.1,0.9,1.8,0.8,2.6-0.4c0.9-1.3,1.6-2.7,2.3-4.2c0.2-0.4,0.1-1.2-0.2-1.4c-2.9-1.9-4.4-5-6.2-7.8
		c0-0.1-0.1-0.2-0.1-0.2c-0.3-0.6-1.1-1.4-0.9-1.7c0.4-0.7,1.2-1.4,2-1.8c0.8-0.4,1.8-0.7,2.7-0.8c3.2-0.2,6.3-0.9,9.5-0.4
		c1.1,0.2,2.1,0.5,3.1,0.9c1.1,0.5,1.6,2.4,1.2,3.8C76.6,91.6,75.3,94.9,72.9,97.6z M64.5,87.5c1.2,2.3,2,4.4,3.8,6
		c0.2,0.2,0.5,0.3,0.7,0.5c0.6,0.4,1.3,0.4,1.6-0.3c0.9-1.6,1.8-3.2,2.6-4.9c0.4-1-0.1-1.9-1.2-1.9C69.5,86.9,67.1,87.2,64.5,87.5z"
		/>
	<path id="nose5" d="M66,101.1c0.8-1.5,1.4-3,2.3-4.5c1.3-2.2-0.3-3.5-1.4-5c-1.2-1.7-1.5-3.7-2-5.6c-0.2-0.9,0.8-1.5,2-1.2
		c0.1-1.5,0.2-1.6,1.7-1.6c1,0,2.1-0.1,3.1,0c1.8,0.1,3.5,0.2,5.3,0.5c2.2,0.3,3,1.9,2.3,4c-0.7,2.3-1.4,4.7-3.1,6.5
		c-0.2,0.2-0.2,0.6-0.1,0.7c1,1.1,0.8,2.5,1.2,3.8c0.1,0.4,0.8,0.8,1.1,0.7c0.8-0.2,1.5-0.7,2.2-1.1c0.2-0.1,0.3-0.3,0.4-0.4
		c0.6-0.4,2.6,0.6,3.3,1.5c0.6,0.9,0.2,1.6-0.4,2.2c-1.9,1.6-5.6,2.7-8.3,0.2c-1.2-1.2-1.9-2.8-2.9-4.3c-0.3,0.6-0.9,1.3-1.1,2
		c-0.8,2.3-2.3,4.2-4.2,5.7c-1.1,0.9-2.7,0.8-3.7-0.2c-1.1-1.1-2.1-2.3-1.8-4.1c0.1-0.5-0.3-1-0.4-1.5c-0.1-0.4-0.1-1,0.2-1.2
		c0.2-0.2,0.9-0.2,1.2,0c1,0.7,2.8,0.7,2.6,2.8C65.7,101.1,65.9,101.1,66,101.1z M75.7,87.1c-1.9,0.2-3.5,0.4-5.2,0.6
		c-0.2,0-0.3,0.2-0.4,0.3c-0.6,1,0.1,3.6,1.2,4.2c0.2,0.1,0.6,0.1,0.8,0C73.6,90.9,75.1,89.6,75.7,87.1z"/>
	<path id="nose4" d="M71.3,102.1c-0.7,0.8-1.2,1.6-1.8,2.3c-1.1,1.3-2.6,1.5-4.2,1.2c-1.8-0.4-3.4-1.3-4.8-2.6
		c-0.7-0.7-0.9-1.4-0.4-2.1c0.4-0.6,1.2-1.1,1.9-1.4c0.3-0.2,0.8,0,1.2,0c1.3,0,1.7,0.4,1.4,1.6c-0.2,0.9,0.2,1.4,0.9,1.6
		c0.4,0.1,1.1-0.3,1.3-0.6c1-1.8,1.8-3.6,2.7-5.6c-3.2-1.6-4.4-4.6-5.9-7.4c-0.3-0.6-0.4-1.1,0.3-1.6c0.7-0.4,1.2-1.3,1.9-1.6
		c0.7-0.3,1.6-0.1,2.5-0.1c1.4,0,2.7-0.1,4.1,0c1.4,0.2,2.8,0.6,4.1,0.9c0.3,0.1,0.7,0.5,0.7,0.7c0.1,1.5,0.9,2.9,0.1,4.4
		c-0.4,0.7-0.6,1.5-0.7,2.3c-0.1,1-0.7,1.7-1.5,2.1c-0.8,0.4-1.3,0.9-0.7,1.9c0.3,0.4,0.3,1,0.4,1.5c0.3,1.6,1.4,2.3,2.8,2.9
		c0.2,0.1,0.7-0.2,0.8-0.4c0.5-1.1,1-2.2,1.2-3.3c0.3-1.2,1.4-2,3.1-1.6c1.1,0.3,1.1,1.1,0.9,2.1c-0.5,1.8-0.7,3.8-2.1,5.2
		c-1.1,1.1-2.4,1.4-3.8,1.2C75.1,105.1,73,103.9,71.3,102.1z M70.8,88.7c-0.5,0-1.1-0.1-1.5,0c-0.3,0.1-0.8,0.7-0.8,0.9
		c0.6,1.3,1.3,2.6,2.1,3.7c0.6,0.8,1.4,0.4,1.7-0.5c0.1-0.5,0.2-0.9,0.3-1.4C73.6,88.9,73.4,88.6,70.8,88.7z"/>
	<path id="nose3" d="M69.3,86.1c1.5,0.1,3.1,0.2,4.7,0.4c1.4,0.2,1.9,1.5,2.5,2.5c0.2,0.4-0.6,1.5-1,2.2c-0.9,1.7-2,3.3-2.8,5.1
		c-0.4,0.9,0.4,1.8,1.7,2.3c1,0.3,1.5-0.3,1.8-1.1c0.2-0.5,0.3-1.1,0.5-1.6c0.1-0.3,0.4-0.9,0.6-0.9c1,0.1,2,0.2,2.8,0.7
		c0.4,0.2,0.6,1.3,0.5,1.9c-0.6,4-4.4,5.5-8.2,3.3c-0.4-0.3-0.9-0.4-1.4-0.7c-0.8-0.4-1.1,0.1-1.6,0.6c-0.7,0.8-1.5,1.6-2.3,2.3
		c-0.9,0.7-1.9,1.4-2.9,1.9c-0.4,0.2-1,0.2-1.4,0.1c-1.9-0.6-2.9-2.1-3.5-3.9c-0.1-0.2,0.4-0.7,0.7-0.7c1.1,0,2.2,0.4,3.2,0.2
		c0.9-0.2,1.8-0.8,2.4-1.5c1.1-1.3,0.9-1.7-0.5-2.6c-2.8-1.9-5.6-3.8-8.5-5.8c-1.1-0.7-1.1-1.8,0-2.5c0.8-0.4,1.7-0.7,2.5-0.8
		c1.8-0.4,3.7-0.7,5.5-0.9C66.2,86.2,67.8,86.2,69.3,86.1z M62.3,90.5c2.1,1.5,4,2.9,6,4.4c1.1-1.8,2.2-3.5,3.3-5.4
		C68.3,89.2,65.5,89.6,62.3,90.5z"/>
	<path id="nose2" d="M65.6,100.6c1-1.9,1.1-3.6,0.9-5.4c-0.1-0.6,0.5-1.4,0.9-2.3c-1.6-1.4-2.3-3.7-3.1-5.9
		c-0.3-0.7-0.7-1.5-0.8-2.2c0-0.5,0.3-1.1,0.7-1.5c1.7-1.6,3.7-1.1,5.6-0.9c1.9,0.2,3.8,0.5,5.7,0.8c0.8,0.1,1.6,0.2,1.7,1.1
		c0.2,1-0.6,1.1-1.3,1.4c-0.2,0.1-0.3,0.2-0.5,0.3c1.4,1.9,1.3,3.3-0.3,5.1c-0.1,0.1-0.1,0.2-0.2,0.3c-1.9,1.1-1.7,2.7-1,4.4
		c0.5,1.2,0.9,2.4,1.3,3.6c0.3,0.8,0.7,1.2,1.6,1.1c0.8,0,1.9,1.1,1.9,1.9c0,0.8-1.1,1.7-2.1,1.7c-2.3-0.1-4-1.2-5-3.3
		c-0.2-0.4-0.5-0.8-0.9-1.4c-0.4,0.8-0.7,1.4-1,2c-1.2,2.1-3.4,2.8-5.7,1.7c-1-0.5-1.9-1-2.8-1.6c-1-0.6-0.9-1.6,0.1-2.2
		c1.1-0.6,2.3-0.5,3.2,0.4C64.8,99.9,65.2,100.2,65.6,100.6z M68,85.2c0.7,2,1.3,3.6,2,5.5c1.7-1.4,2.3-3,2.9-4.8
		C71.3,85.7,69.9,85.5,68,85.2z"/>
	<path id="nose1" d="M71.5,99.5c-1.1,1.8-2.1,3.5-3.1,5.1c-0.7,1.1-1.2,1.3-2.3,0.8c-0.3-0.2-0.6-0.3-1-0.5
		c-0.7-0.3-0.9-0.9-0.6-1.6c0.9-1.9,1.9-3.8,2.9-5.6c0.5-0.9,0.8-1.6-0.1-2.4c-0.4-0.4-0.5-1-0.7-1.6c-0.8-1.8-1.5-3.7-2.4-5.5
		c-0.7-1.4-0.7-1.3,0.6-2c2.1-1.2,4.5-0.9,6.7-1.2c1.4-0.2,2.9-0.1,4.4-0.1c2.5,0,3.7,1.8,2.8,4.1c-0.4,1-0.6,2.1-0.7,3.1
		c-0.1,1.6-1.2,2.6-2.2,3.7c-1.1,1.3-1.2,1.5-0.3,3c0.5,0.9,1.1,1.8,1.6,2.7c0.3,0.6,0.4,1.3,0.4,1.9c0,1.5-0.7,1.8-2.1,1.3
		c-1.2-0.4-1.8-0.9-2.2-2.2C73.1,101.6,72.2,100.7,71.5,99.5z M74.7,88.1c-1.9,0.2-3.7,0.4-5.5,0.7c0.6,1.7,1,3,1.5,4.3
		c0.1,0.3,0.8,0.8,1,0.7c0.7-0.3,1.7-0.7,2-1.3C74.2,91.1,74.3,89.7,74.7,88.1z"/>
</g>
<g id="eyes">
	<g id="eyes12">
		<path d="M96.4,69.7c-0.1,0.6-0.2,1.7-0.6,2.8c-1.1,3.5-2.3,7-5.5,9.2c-1.6,1.1-3.1,1.7-5.1,0.9c-2.6-1-4.1-2.9-4.9-5.4
			c-0.8-2.7-1.5-5.5-2-8.3c-0.2-0.9,0.4-2,0.6-3c0.5-2,1.1-4.1,2.9-5.5c1.5-1.2,2.8-2.7,5-2.3c0.2,0,0.5-0.1,0.7-0.3
			c1.7-1.3,3.1-1.1,4.9,0.1c2.2,1.5,2.9,3.7,3.2,6.2C95.8,65.8,96.1,67.5,96.4,69.7z M83.9,64.2c-0.4,1.6-1.1,3.3-1,5
			c0.1,2.4,0.9,4.8,1.5,7.2c0.2,0.9,0.7,1.8,1.2,2.6c0.3,0.6,0.9,0.8,1.5,0.3c2-1.7,3.4-3.7,4.3-6.2c0.9-2.6,0.7-5.1,0.5-7.7
			c-0.1-1.5,0-3.1-1-4.7c-0.7,1.4-1.4,2.7-1.9,4c-0.4,1-1.2,1.4-2.1,1.1C85.8,65.5,85,64.9,83.9,64.2z"/>
		<path d="M53.7,71.4c0-0.7,0.1-1.5,0-2.1c-0.7-3.4,0.9-6.1,2.4-8.8c0.6-1,1.8-1.7,2.8-2.5c0.2-0.1,0.6-0.2,0.8-0.1
			c0.9,0.6,1.6,0.1,2.3-0.3c1.8-1.1,3.7-0.9,5.5-0.2c0.8,0.3,1.5,1.1,1.9,1.8c1.1,2.1,2.2,4.3,2,6.6c-0.5,3.9-0.9,7.9-2.8,11.5
			c-0.6,1.2-1.6,1.8-2.8,2.1c-1.5,0.4-3.1,0.5-4.6,0.8c-2.6,0.5-6.5-2-7.1-4.2c-0.4-1.5-0.4-3.1-0.5-4.6
			C53.6,71.4,53.7,71.4,53.7,71.4z M58.6,63.1c-0.4,1.3-0.9,2.3-1,3.5c-0.2,1.6-0.1,3.2-0.2,4.7c0,1-0.1,2,0,3
			c0.2,1.5,1.2,2.7,2.3,2.9c2.7,0.5,5.2-0.7,6-3.3c1.3-4.2,2.6-8.5,1-12.9c-0.3-0.9-0.8-1.4-1.7-0.9c-1.4,0.8-2.7,1.7-3.9,2.7
			C60.5,63.3,59.8,63.8,58.6,63.1z"/>
		<path d="M86.7,68c0.4,0,0.8,0,1.1,0.1c0.7,0.4,1.6,0.7,1.9,1.3c0.2,0.4-0.1,1.5-0.5,1.9c-0.5,0.4-1.4,0.4-2.1,0.3
			c-0.7-0.1-1.5-0.5-2-1.1c-0.4-0.4-0.6-1.4-0.4-1.8c0.3-0.5,1.2-0.7,1.8-1C86.6,67.9,86.6,67.9,86.7,68z"/>
		<path d="M61.5,65.8c2.3,0.3,3.3,1.6,2.4,3.2c-0.2,0.3-0.8,0.8-1,0.7c-1-0.4-2-0.8-2.8-1.5c-0.4-0.3-0.6-1.3-0.4-1.5
			C60.1,66.2,60.9,66,61.5,65.8z"/>
	</g>
	<g id="eyes11">
		<path d="M94.6,70.9c-0.1,3-0.3,6.2-2.2,9.1c-1,1.5-2.2,2.1-3.9,1.8c-2.4-0.4-4.5-1.1-6.2-3c-1.1-1.3-2.5-2.3-3.8-3.4
			c-2.1-1.9-2.9-4.2-3.3-6.9c-0.3-2.3-0.7-4.7-0.1-7c0.3-1.2,0.6-2.5,1.3-3.4c1-1.3,2.4-2.3,4.2-2.2c2.9,0.1,5.5,1.3,7.8,2.7
			c1.3,0.8,2.1,2.6,3.1,4c0.2,0.2,0.2,0.5,0.4,0.7C94.1,65.2,94.5,67.8,94.6,70.9z M78.7,65.2c-0.1,0-0.2,0-0.3,0
			C78.9,67.5,79,70,80,72c1.4,2.8,3.9,4.7,6.5,6.4c1.2,0.8,2.1,0.5,2.6-0.9c0.7-2.2,1.1-4.6,1.5-6.9c0.1-0.8-0.1-1.6-0.2-2.4
			c-0.4-3.1-2.9-5-4.1-7.6c-0.1-0.3-0.5-0.5-0.9-0.6c-0.9-0.4-1.8-0.9-2.8-1.1c-0.5-0.1-1.4,0.1-1.7,0.5
			C79.6,61.2,78.5,62.9,78.7,65.2z"/>
		<path d="M69.4,64.7c-0.6,1.9-1.2,3.8-1.9,5.7c-0.8,2.2-1.5,4.4-3,6.3c-1.8,2.3-4.1,2.9-6.8,2.4c-2.9-0.6-5.3-2.1-6.9-4.6
			c-2.2-3.5-2.8-7.4-1.1-11.5c1-2.4,2.6-4,4.5-5.4c1.9-1.4,4.3-2.3,6.7-2.1c2,0.1,4,0.7,5.9,1.4c0.8,0.3,1.5,1.6,1.7,2.5
			c0.4,1.7,0.4,3.4,0.5,5.1C69.2,64.7,69.3,64.7,69.4,64.7z M65.2,64.6c-0.1,0-0.2-0.1-0.2-0.1c-0.1-1.3-0.1-2.5-0.3-3.8
			c-0.1-0.5-0.3-1.5-0.5-1.5c-0.7-0.1-1.6-0.1-2.1,0.4c-1,0.9-1.9,0.6-3,0.4c-0.4-0.1-1-0.1-1.3,0c-3,1.6-4.7,4.1-5.3,7.5
			c-0.3,1.8,0.3,3.3,0.9,4.9c1.1,2.7,2.6,3.9,5.5,3.7c1.3-0.1,2.3-0.6,2.9-1.8c0.8-1.9,1.6-3.7,2.3-5.6C64.6,67.4,64.8,66,65.2,64.6
			z"/>
		<path d="M83.3,66.1c3.1,0.1,4.3,2.4,2.8,5.4c-0.8,1.5-1.7,1.9-3.3,1.3c-1.8-0.6-2.4-1.6-2.1-3.2c0.1-0.6,0.3-1.2,0.4-1.9
			C81.2,66.4,82,65.9,83.3,66.1z"/>
		<path d="M58.7,64.4c0.7,0.1,1.1,0.1,1.5,0.2c1.8,0.6,2.1,1.1,1.8,2.9c-0.1,0.5-0.1,1-0.3,1.5c-0.3,1-0.6,2.1-2,2.2
			c-0.9,0.1-2.7-0.7-3.2-1.4c-0.8-1.4-0.2-4.1,1.2-5C58,64.5,58.5,64.5,58.7,64.4z"/>
	</g>
	<g id="eyes10">
		<path d="M88.5,57.4c3.4,0,5.3,2,6.8,4.6c0.9,1.5,1.8,3,2.3,4.7c1.5,4.7,0.6,9-2.6,12.7c-1.2,1.4-2.5,2.7-3.8,3.9
			c-1.4,1.3-3.1,1.8-4.9,1.2c-2.7-1-5.4-2.1-6.9-4.8c-1.2-2.1-1.9-4.4-1.6-6.9c0.1-0.7,0-1.5,0-2.3c-0.2-1.9,0.9-3.4,1.7-5
			c0.4-0.8,0.8-1.6,1.2-2.5c0.2-0.4,0.4-0.8,0.7-1.1c1.6-1.3,3.1-2.6,4.8-3.7C86.7,57.8,87.6,57.7,88.5,57.4z M91,61.5
			c-0.8,0.3-1.2,0.6-1.6,0.5c-2.4-0.2-4,1.1-5.1,3c-0.9,1.5-1.9,3-2.3,4.6c-0.4,1.9-0.3,3.9-0.1,5.8c0.2,3,1.8,5.1,4.7,6
			c0.4,0.1,1,0,1.3-0.3c1.2-1.1,2.3-2.3,3.5-3.4c2.6-2.6,3.7-5.8,2.8-9.3C93.4,66.1,92,63.8,91,61.5z"/>
		<path d="M62.2,66c-0.6,4-0.4,7.8-2.5,11.2c-0.5,0.9-0.9,1.8-1.4,2.7c-1.3,2.1-3.4,3-5.5,3.7c-2.2,0.7-4-0.4-5.6-1.9
			c-1.1-1-2.2-2.1-3.1-3.3c-0.6-0.9-1-2.1-1.2-3.3c-0.3-1.6-0.5-3.3-0.7-5c-0.1-0.9-0.1-1.9,0-2.8c0.1-0.9,0.2-1.9,0.3-2.8
			c0.2-2.2,1.6-3.9,2.7-5.7c0.3-0.6,1.5-0.7,2.3-0.9c0.9-0.2,1.8-0.3,2.7-0.5c0.4-0.1,0.9-0.2,1.3-0.1c3,1,6,1.8,7.8,4.9
			c0.5,1,1.4,1.7,2,2.6C61.6,65.2,62,65.7,62.2,66z M46,63.6c-0.1,1.6-0.5,3.2-0.3,4.8c0.2,2.6,0.7,5.1,1.2,7.7
			c0.1,0.4,0.3,0.9,0.6,1.2c0.9,1,1.8,2,2.8,2.9c0.3,0.3,0.9,0.5,1.3,0.4c1.4-0.5,2.8-1.1,3.5-2.5c1.4-2.7,2.5-5.4,2.9-8.4
			c0.2-1.4,0.8-2.9-0.2-4.3c-1.1-1.4-2.2-2.9-3.5-4.2c-0.6-0.6-1.6-0.9-2.5-1.1c-1.3-0.3-2.4,0.5-2.8,1.7
			C48.1,63.7,48.1,63.7,46,63.6z"/>
		<path d="M84,69.8c0-1.3,0.5-1.8,2-1.8c1.2-0.1,2.4,0.9,2.5,1.9c0,0.4,0,0.9,0.2,1.3c0.7,1-0.1,1.3-0.7,1.6
			C86.2,73.5,83.9,71.8,84,69.8z"/>
		<path d="M49.5,68.1c2.1,0.2,3.2,1.9,2.5,3.9c-0.1,0.2-0.3,0.5-0.5,0.5c-1-0.2-2.1-0.2-3-0.7c-0.7-0.4-0.9-2.6-0.4-3.1
			C48.5,68.3,49.1,68.3,49.5,68.1z"/>
	</g>
	<g id="eyes9">
		<path d="M92,83.5c-1.4,0-2.8,0.1-4.2,0c-2.7-0.3-4.6-1.9-6.7-3.4c-1.5-1.1-2.9-2.3-3.3-4.1c-0.6-2.4-0.9-4.8-1.1-7.3
			c-0.2-2.7,1.1-4.9,2.4-7.1c0.1-0.2,0.2-0.5,0.3-0.8c0.3-1,0.3-2.1,1.5-2.6c1.9-0.8,4-1.8,5.8-0.3c1.4,1.1,2.8,1.1,4.3,1.5
			c1.4,0.3,2.6,0.9,3.4,2.1c1.1,1.7,2.2,3.4,3.3,5.1c1.2,1.6,0.8,3.4,0.7,5.2c-0.1,1.9-0.2,3.8-0.3,5.7C97.9,80.4,96.3,83.9,92,83.5
			z M94.8,70c-0.4-0.9-0.8-2-1.3-3c-0.6-1.1-1.4-2.1-2-3.3c-0.9-1.7-3-2.6-4.8-2.1c-0.9,0.2-1.9,0.2-2.9,0.3c-0.3,0-0.7,0.1-0.8,0.3
			c-0.7,1.6-1.6,3.2-2,4.9c-0.7,2.3,0,4.7,0.4,7c0.1,0.8,0.4,1.6,0.9,2.2c2.3,2.6,4.8,5,8.8,4.3c1.2-0.2,2.1-0.5,2.3-1.7
			C93.9,76.1,94.3,73.2,94.8,70z"/>
		<path d="M59.7,56.4c1.2,0.2,2.7,0.2,4.1,0.7c3.3,1.3,5.6,3.4,6.1,7.2c0.3,2.4,0.5,4.8,0,7.1c-0.3,1.3-0.9,2.6-1.8,3.5
			c-1.8,1.9-3.7,3.8-5.8,5.2c-2,1.4-4.4,1.7-6.8,1.1c-1.4-0.3-2.8-1.1-4.2-1.7c-2-0.9-2.6-2.9-3.1-4.7c-0.8-2.8-0.5-5.8,0.5-8.4
			c0.7-1.7,1.2-3.4,1.5-5.2c0.3-2,2.9-4.3,4.9-4.5C56.5,56.6,58,56.5,59.7,56.4z M51.4,72.4c0.5,1.5,1,3.1,1.6,4.7
			c0.1,0.3,0.5,0.6,0.8,0.8c2,1.3,4.4,1.1,6.3-0.5c1.3-1.2,2.7-2.4,3.9-3.6c0.5-0.5,1.1-1.2,1.2-1.9c0.3-1.4,0.5-2.9,0.6-4.3
			c0.2-2.9-0.1-5.6-2.6-7.7c-0.9-0.7-1.6-1.2-2.8-1.2c-3-0.1-4.7,0.7-5.9,3.5c-0.8,1.7-1.3,3.6-1.8,5.4
			C52.2,69.1,51.9,70.7,51.4,72.4z"/>
		<path d="M86.8,69.6c1.7,0,3.4,1.2,3.4,2.6c0,1.6-0.6,2.7-1.7,2.7c-2.3,0-4-1.3-4.1-3.1C84.3,70.3,85.2,69.6,86.8,69.6z"/>
		<path d="M59,74.2c-1.8,0-2.4-0.5-2.6-2.1c-0.2-1.6,0.3-2.8,1.5-3.8c1.1-0.9,2.2-0.4,3.1,0.1c0.4,0.3,0.6,1.3,0.5,2
			c-0.1,0.9-0.5,1.7-0.8,2.6C60.4,74,59.7,74.3,59,74.2z"/>
	</g>
	<g id="eyes8">
		<path d="M48.4,68.5c-0.1-1.3,0-2.6-0.2-3.9c-0.5-2.7,0.1-5.4,1.3-7.6c1.2-2.2,2.6-4.7,5.2-5.7c1.9-0.7,3.9-1.1,5.9-0.5
			c2.8,0.7,4.3,2.9,5.4,5.3c1.1,2.3,2,4.6,3.2,6.8c1.1,1.9,1.2,4,1.4,6.1c0.2,2.7-0.2,5.3-0.5,7.9c0,0.3-0.1,0.6-0.2,0.9
			c-0.6,1.2-1.3,2.4-1.8,3.7c-1,2.5-3.1,3.3-5.5,3.9c-4.8,1.3-10.1-1.6-12-5.7c-0.7-1.6-1.1-3.4-1.4-5.1c-0.4-2-0.8-4-1.1-6.1
			C48.2,68.5,48.3,68.5,48.4,68.5z M51.9,65.8c0.7,4,1.3,8.4,2.2,12.6c0.6,2.8,2.6,4.4,5.5,4.3c1.6,0,3.1-0.4,4.1-2
			c1.7-2.7,2.5-5.7,2.9-8.8c0.3-2.3,0.6-4.7-0.4-6.8c-1.3-3.1-2.9-6.2-4.3-9.3c-1.3-2.8-5-2.2-6.5-0.6c-1.1,1.2-1.9,2.7-2.4,4.2
			C52.4,61.3,52.3,63.4,51.9,65.8z"/>
		<path d="M80.5,64.8c0.5-2.4,0.9-4.8,1.6-7.1c0.4-1.3,1.4-2.4,2.1-3.6c0.8-1.3,2-1.6,3.4-1.5c0.4,0,0.8,0.2,1.2,0.1
			c3-0.5,5.2,0.9,7.3,2.8c0.7,0.6,1.6,1.2,2.4,1.7c2.3,1.4,3.5,3.4,3.5,6.1c0,0.6,0,1.1,0.2,1.7c1.5,5.9-0.4,11.1-3.8,15.6
			c-1.9,2.5-5,3.5-8.3,3c-1.9-0.3-3-1.7-3.8-3.3c-1.3-2.7-2.7-5.4-3.8-8.2c-0.9-2.3-1.9-4.6-1.5-7.1C80.7,64.8,80.6,64.8,80.5,64.8z
			 M84.5,65.5c0.1,0,0.2,0,0.3,0.1c0,0.4,0,0.7,0.1,1.1c0.6,5,3.5,9.2,5.5,13.6c0.1,0.2,0.8,0.4,1,0.3c1.2-0.7,2.5-1.2,3.3-2.2
			c1.2-1.5,2.2-3.2,2.9-5c0.7-1.9,1.5-3.9,1-6.1c-0.3-1.6-0.5-3.2-0.8-4.8c-0.2-0.9-0.5-2-1.1-2.5c-1.4-1.3-3.1-2.5-4.7-3.7
			c-0.8-0.6-2.9-0.8-3.5-0.2c-0.9,0.9-2,1.9-2.4,3C85.3,61.1,85,63.4,84.5,65.5z"/>
		<path d="M59.7,71.7c0.1,0.1,0.4,0.4,0.7,0.4c0.9,0.2,0.7,0.8,0.5,1.4c-0.5,1.1-2.1,1.5-3.1,0.7c-0.3-0.2-0.7-0.4-1-0.7
			c-1.8-1.1-2.1-2.7-0.8-4.4c0.7-1,4-0.6,4.3,0.5C60.4,70.3,59.9,70.9,59.7,71.7z"/>
		<path d="M92.1,71.8c-1.7,0-3-1.2-2.9-2.4c0.1-1.5,1.3-2.5,2.8-2.3c0.9,0.1,1.9,0.1,2.5,1c0.6,0.7,0.4,1.1-0.3,1.6
			c-0.4,0.3-0.7,0.8-1,1.2C92.8,71.4,92.3,71.7,92.1,71.8z"/>
	</g>
	<g id="eyes7">
		<path d="M103.3,75.1c-0.4,2.9-0.7,5.9-1.2,8.7c-0.2,1.1-1,2.2-1.7,3.1c-1.3,1.7-2.6,3.4-4.4,4.6c-2.9,2.1-7.5,2.1-10.5-0.2
			c-4.2-3.4-5.9-8-6.7-13.1c-0.1-0.6-0.2-1.3-0.3-1.9c-0.6-3.2-1.3-6.4-1.9-9.6c-0.1-0.7-0.1-1.5,0-2.1c0.4-2,0.8-3.9,1.5-5.8
			c0.3-0.9,1.1-1.6,1.6-2.5c0.5-0.8,1.1-1.6,1.6-2.5c0.5-0.9,1.1-1.6,2.2-1.7c0.5-0.1,1-0.5,1.4-0.9c2.8-3.3,7.1-2.4,9.1,0.1
			c0.4,0.6,1.1,1.2,1.7,1.5c2.4,1.2,3.5,3.3,4.1,5.7c1.2,4.9,2.2,9.9,3.3,14.9c0.1,0.5,0.1,1.1,0.1,1.7
			C103.2,75.1,103.3,75.1,103.3,75.1z M91.5,54.1c-0.7,1-1.7,1.3-2.8,0.9c-0.9-0.3-1.5-0.2-2.2,0.6c-0.8,0.9-2.2,1.4-2.9,2.4
			c-1.9,2.8-3,6.1-2.6,9.5c0.4,3.8,1.3,7.5,2,11.3c0.3,1.5,0.6,3,1.1,4.4c0.8,2.7,2.3,5,4.6,6.6c0.3,0.2,0.9,0.5,1.2,0.4
			c1.4-0.5,2.9-0.9,4-1.9c4.5-3.9,5.4-9.2,4.9-14.8c-0.2-2-0.7-3.9-1.1-5.8c-0.5-2.6-1.1-5.1-1.5-7.7C95.7,57.1,94.4,55.1,91.5,54.1
			z"/>
		<path d="M40.7,65.4c-0.8-1.5,0.6-2.5,1.4-3.7c1.1-1.6,2.1-3.4,3.6-4.5c2.3-1.6,4.3-3.8,7.2-4.5c2.1-0.4,4.1-0.6,6.1-0.2
			c0.2,0.1,0.5,0.3,0.6,0.5c0.5,0.5,0.9,1.2,1.5,1.6c2.3,1.3,3.4,3.5,4.3,5.9c1,2.8,0.3,5.4-0.7,8c-0.7,2-1.2,4.1-1.8,6.2
			c-0.2,0.8-0.5,1.7-1,2.4c-1.7,2.4-3.5,4.9-5.5,7.1c-0.9,1-2.4,1.8-3.7,2.2c-2.4,0.8-4.7-0.1-6.7-1.6c-1.4-1-2.2-2.5-2.9-4
			c-0.4-1-1.1-1.8-1.7-2.7c-1.1-1.6-0.9-3.5-1.2-5.3c-0.2-0.9-0.3-1.8-0.2-2.6C40.2,68.7,40.5,67.2,40.7,65.4z M44.6,74.5
			c0.3,0.9,0.5,1.7,0.8,2.4c0.5,1.1,1.2,2.3,1.8,3.3c0.5,0.9,1,1.7,1.7,2.5c1,1.2,2,1.2,3.1,0.2c0.9-0.8,1.9-1.7,2.6-2.6
			c1.4-1.8,2.9-3.7,3.8-5.7c1.1-2.6,1.8-5.4,2.5-8.1c0.6-2.1,1.1-4.3,0.1-6.5c-0.5-1.1-1.2-2.2-2-3c-1.3-1.4-3.5-1.2-4.9,0.1
			c-0.7,0.7-1.6,1-2.5,1.5c-0.7,0.4-1.7,0.5-2.3,1c-3.2,2.6-4.8,6-4.8,10.1C44.6,71.2,44.6,72.9,44.6,74.5z"/>
		<path d="M87,77.3c0-0.2-0.1-0.5,0-0.7c0.2-0.8,0.3-1.9,0.8-2.2c1.4-0.7,2.9-0.8,4.3,0.2c0.2,0.1,0.3,0.4,0.4,0.6
			c0.5,1-0.3,4.2-1.2,4.9c-0.2,0.2-0.5,0.3-0.8,0.4C88.5,80.7,86.9,79.2,87,77.3z"/>
		<path d="M48.2,74.5c0-0.5,0.1-1.2,0.2-1.8c0-0.1,0-0.2,0.1-0.3c0.7-1.2,3.3-2.2,4.8-1.8c1.4,0.3,2.1,1.1,2,2.5
			c-0.1,2-1.1,4.3-2.9,4.8C50.3,78.3,48.1,76.7,48.2,74.5z"/>
	</g>
	<g id="eyes6">
		<path d="M60.1,62.1c0.3,0.1,0.7,0.1,1,0.2c2.4,0.3,3.6,1.9,3,4.2c-0.5,2-1,4-1.8,5.9c-0.7,1.8-1.9,3.6-4.2,3.6
			c-2.5,0-6.5-2-6.3-5.3c0.1-2.1,0.8-4.2,1.4-6.2c0.5-1.7,1.7-2.8,3.5-3.2c0.7-0.2,1.6,0.2,2.2-0.7c0.1-0.2,1.3,0.4,1.9,0.6
			c0.1,0,0.1,0.5,0.1,0.5c-0.3,0.1-0.5,0.2-0.8,0.2C60.2,61.9,60.2,62,60.1,62.1z M57,64.8c-0.4,2.1-0.9,4.1-1.2,6.1
			c-0.1,0.5,0.3,1.1,0.6,1.6c0.4,0.5,0.8,0.5,1.2-0.1c1.1-1.6,2.2-3.3,2.7-5.3c0.2-0.9,0.3-1.5-0.9-1.7C58.7,65.5,58,65.1,57,64.8z"
			/>
		<path d="M89,61.4c0.4,0,0.6,0,0.8,0c3.5,0.1,4.4,1.3,4.6,5c0.1,1.5-0.1,2.9-0.1,4.4c-0.1,2.2-2.2,4.3-4.5,4.4
			c-3.8,0.3-7.6-3.6-7.5-7c0-2,0.4-4.1,2.5-5.4C86.2,61.9,87.5,61.1,89,61.4z M90.7,67.3c-0.3-1.1-0.3-2.6-0.9-2.9
			c-1.2-0.6-1.7,0.8-2.4,1.6c-1.7,1.9-1.3,3.4,0.4,5.5c0.6,0.8,1.3,0.7,1.7-0.2C90,70.1,90.3,68.7,90.7,67.3z"/>
	</g>
	<g id="eyes5">
		<path d="M82.6,60.5c1.7-0.1,2.7,0.8,3.2,2.4c0.6,1.7,1.3,3.4,1.8,5.2c0.4,1.6,0,3.2-1.1,4.5c-1,1.1-2.1,2.2-3.3,3.1
			c-2.7,2.2-6.2,0.8-7.3-2.2c-0.4-1-0.6-2-0.6-3c0-1,0.2-2,0.6-3c0.5-1.4,1.1-2.8,1.7-4.2c0.1-0.1,0.1-0.4,0.2-0.4
			C79.4,62.3,80.6,60.6,82.6,60.5z M82.2,65c-2,1.2-3,5.4-2,7.7C83.4,71.2,84.1,68.4,82.2,65z"/>
		<path d="M61.5,59.2c3.9-0.3,5.6,3.9,4.7,6.9c-0.5,1.8-1,3.5-1.6,5.3c-0.2,0.7-0.5,1.5-1,2.2c-1.1,1.5-1.8,2-3.5,1.3
			c-0.2-0.1-0.4-0.1-0.6-0.1c-3.6,0-5-3-5.7-5.7c-0.5-2.1,0.7-3.5,1.2-5.2c0.7-2.2,2.5-3.1,4.2-4.1C59.9,59.2,60.8,59.3,61.5,59.2z
			 M62.3,63.2c-0.9,0.3-1.4,0.5-2,0.7c-0.2,0.1-0.5,0.2-0.6,0.4c-1.2,1.8-2.3,3.6-1.2,5.8c0.2,0.4,0.7,0.8,1,1.1
			c0.3-0.3,0.8-0.6,1-1c0.6-1.5,1.1-3,1.6-4.5C62.2,65,62.2,64.1,62.3,63.2z"/>
	</g>
	<g id="eyes4">
		<path d="M62.2,56.3c4-0.4,6.5,1.8,8.6,4.7c1.5,2.1,1.3,4.7,1.2,7.2c-0.3,4.4-2.6,7.9-5.4,11.2c-0.2,0.2-0.4,0.3-0.7,0.5
			c-1.2,0.5-2.3,1-3.5,1.6c-2.1,1.1-4,0.4-5.7-0.7c-1.8-1.1-2.9-2.8-3.6-4.8c-0.3-0.7-0.2-1.6-0.3-2.4c-0.1-1.1-0.1-2.2-0.4-3.2
			C51.7,68.1,52,66,53,64c0.7-1.4,1.3-2.8,2-4.2c0.5-1,1.2-1.9,2.4-2.2C59,57.2,60.6,56.7,62.2,56.3z M67.9,65.6
			c-0.2-1.1-0.3-2.3-0.5-3.4c-0.4-2-2.8-2.9-4.5-1.6c-0.8,0.6-1.6,1.5-2.8,0.8c-0.8-0.5-1.1,0-1.4,0.7c-0.6,1.4-1.3,2.7-2,4.1
			c-0.7,1.3-0.6,2.7-0.3,4.1c0.2,1,0.4,2,0.3,3c-0.1,1.8,0.5,3.3,1.6,4.6c0.2,0.3,0.9,0.7,1.1,0.6c1.6-0.8,3.6-1.5,4.8-2.8
			C66.5,72.7,67.9,69.4,67.9,65.6z"/>
		<path d="M85.5,54c2.4-0.1,3.4,1.3,4.2,3.2c1,2.5,2.1,5,3.1,7.5c0.3,0.7,0.5,1.4,0.5,2.1c0,3.6-0.4,7-1.7,10.4
			c-0.6,1.7-2,2.3-3.5,2.7c-2.3,0.6-4.3-0.2-6-1.7C77.5,74.2,76,69,77.4,63c0.2-0.9,0.5-1.9,0.6-2.8c0.3-3.4,3.3-4.4,5.6-6
			C84.1,53.9,84.9,54,85.5,54z M85.5,57.7c-1.5,0.8-2.3,2-2.8,3.5c-0.3,0.9-0.4,1.8-0.8,2.6c-1.9,4.5-0.5,8.4,2.3,12
			c1.2,1.5,2.5,1.2,3.4-0.5c0.2-0.3,0.3-0.7,0.4-1c0.4-2.1,0.9-4.3,1.2-6.4c0.1-0.7,0-1.6-0.3-2.3C87.9,63,86.8,60.4,85.5,57.7z"/>
		<path d="M62.4,65.9c1.3,0,2.9,1.4,2.8,2.6c0,1.5-1.2,3.4-2,3.3c-1.3,0-3.1-1.4-3.1-2.2C60.2,66.3,60.5,65.8,62.4,65.9z"/>
		<path d="M82.5,68.3c0-1.6,0.5-2.2,1.8-2.4c1.6-0.3,3,0.4,3.4,1.7c0.2,0.6-0.6,2.3-1.2,2.6c-1.2,0.6-2.1-0.2-3.1-0.8
			C82.9,69,82.7,68.5,82.5,68.3z"/>
	</g>
	<g id="eyes3">
		<path d="M61.6,71.8c-0.6-0.4-1.7-1.1-2.7-1.9c-0.2-0.1-0.2-0.5-0.2-0.8c-0.1-1.8,1.7-4.3,3.5-4.6c1.3-0.2,2.6,0.3,3.5,1.3
			c0.3,0.4,0.2,1.3,0.1,1.9C65.6,69.6,64,72.1,61.6,71.8z"/>
		<path d="M78,67.9c0.1-2.3,1.7-3.4,3.8-2.9c0.3,0.1,0.7,0.1,1,0.2c1.1,0.2,1.6,1.1,1.1,2.1c-0.5,1-1.2,1.9-1.9,2.9
			c-0.1,0.2-0.3,0.3-0.5,0.4C80.5,70.9,78,69.1,78,67.9z"/>
	</g>
	<g id="eyes2">
		<path d="M63.4,67.1c-0.5,2.4-1.6,4.3-3.4,5.7c-1.4,1-2.1,0.9-4.1-0.7c-2.1-1.7-1.8-4.6,0.4-6.2c0.5-0.3,0.8-1,1.3-1.3
			c1.2-0.7,4.4-0.1,5.2,1C63.2,66,63.3,66.6,63.4,67.1z"/>
		<path d="M85,66.8c1.3,0.2,2.4,0.2,3.4,0.6c2.2,0.8,2.7,2.5,1.3,4.4c-0.4,0.6-0.9,1.1-1.3,1.7c-1.6,1.9-3.5,1.9-5.2,0.1
			c-0.4-0.4-0.7-0.8-1-1.3c-1.4-2.1-1.4-2.4,0.4-4.6C83,66.9,84.3,67,85,66.8z"/>
	</g>
	<g id="eyes1">
		<path d="M95.8,66.8c-0.6,2.1-1,4.4-1.9,6.4c-0.6,1.4-2,2.4-3.2,3.5c-0.9,0.8-2,1.2-3,1.9c-4.4,3.1-10.8,0-12.5-4.9
			c-1.2-3.6-1.9-7.2-2.5-10.9c-0.1-0.6-0.1-1.4,0.2-2c0.9-2.2,1.9-4.3,3-6.4c0.3-0.5,1-1.1,1.6-1.1c2.2-0.2,4.4-1.2,6.6-0.3
			c1.4,0.6,2.8,1.3,4.2,2.1c3.6,2.1,5.2,5.7,6.8,9.2C95.5,65.2,95.6,65.9,95.8,66.8z M80.6,68c-0.8,0.2-1.5,0.4-2.2,0.7
			c-0.3,0.1-0.7,0.7-0.6,0.9c0.3,1.4,0.6,2.9,1.1,4.3c0.5,1.5,1.8,2.1,3.4,2.1c3.4,0,8.4-3.8,9.1-8.1c0.1-0.3-0.2-0.7-0.4-0.9
			c-1.3-1.2-2.8-0.5-3.9-0.4c0,1.1,0.3,2.2-0.1,2.9c-0.4,0.9-1.1,1.7-1.9,2.2c-1.3,0.9-2.7,0.5-3.4-1C81.4,69.9,81.1,69.1,80.6,68z
			 M90.4,62c-1.1-3-2.5-3.2-4.3-3.1c-0.7,0.1-1.4,0.5-2.2,0.7c-1.3,0.4-2.1,0-2.6-1.2c-0.6-1.4-1.4-1.6-2.2-0.3
			c-1,1.5-1.7,3.2-2.4,4.9c-0.4,1.1-0.1,1.5,1.1,1.3c0.7-0.1,1.3-0.3,2-0.4C83.4,63.4,86.9,62.7,90.4,62z"/>
		<path d="M50.1,69.6c0.7-2.7,1.3-5.1,1.9-7.5c0.8-3.2,2.7-5.6,5.5-7.2c0.9-0.6,2.2-0.9,3.2-0.9c2.7,0,5,1.4,6.7,3.4
			c1.1,1.3,1.7,3,2.3,4.6c0.3,0.8,0.8,1.3,1.5,1.7c1.7,0.8,1.8,1.4,0.8,2.9c-0.2,0.4-0.4,1-0.2,1.3c1.3,2.1,0.6,3.9-0.5,5.7
			c-0.6,1.1-0.8,2.3-1.5,3.3c-0.7,1.1-1.7,2-2.8,2.9c-1.7,1.4-3.8,1.4-5.9,1.3c-4.3-0.3-7.4-2.3-9.4-6
			C50.9,73.4,50.6,71.3,50.1,69.6z M64.8,68.6c0.2,0.9,0.6,1.8,0.5,2.5c-0.1,0.8-0.7,1.6-1.3,2.2c-0.6,0.6-1.4,1-2.1,1.2
			c-0.5,0.1-1.3-0.1-1.6-0.5c-1-1.2-1.9-2.5-1.2-4.3c-1.5,0.1-2.9,0.1-4.3,0.3c-0.2,0-0.6,0.4-0.6,0.7c-0.4,2.2,1.2,5,2.7,5.9
			c2,1.2,4.1,1.1,6.2,0.6c1.4-0.4,2.5-1.2,3.1-2.6c0.5-1.2,1.2-2.5,1.9-3.6c0.9-1.2,0.5-2.2-0.2-3.3C66.8,67.9,65.8,68.2,64.8,68.6z
			 M66.6,63.7c-0.2-2.7-2.2-3.9-3.9-5.3c-0.6-0.5-1.2-0.6-1.9-0.2c-1,0.6-2,1.2-2.8,2c-1.5,1.5-2.2,3.4-2.8,5.6
			C59.3,65.9,63.1,65.5,66.6,63.7z"/>
	</g>
</g>
<g id="head">
	<path id="head8" d="M108.3,68c-1-14.7-8.9-23.1-23.5-25.4L79,41.5c-2.8-0.4-5.5-0.8-8.3-1.1c-1.9-0.2-3.7-0.2-5.6-0.4
		c-2.9-0.2-5.8-0.4-8.7-0.7c-0.5,0-1-0.4-1.5-0.5l-7.2,1.6c-2.6,1-4.9,1.9-7.2,2.8c-2.7,1-5.1,2.5-7.1,4.6c-2,2.2-3.8,4.6-5.3,7.1
		c-1.3,2.2-2,4.7-2.9,7.2c-0.9,2.4-1.6,4.9-2.5,7.7l0.6,5.4c0.1,0.7,0.1,1.3,0.1,2c0.4,3.7,0.8,7.4,1.3,11c0.3,2,1.1,3.8,1.5,5.8
		c0.8,4.5,2.4,8.7,4.8,12.6c2.8,4.5,6.2,8.5,9.8,12.3c1.7,1.7,3.6,3.1,5.4,4.7c3.5,3.2,7.3,6.1,12.1,7.1c2.6,0.6,5.2,1.4,7.9,1.9
		c2.7,0.4,5.4,0.5,8.1,0.7c2.7,0.2,5.4-0.3,8-1.1c2.9-0.9,5.4-2.6,7.5-4.9c2.6-2.8,5.4-5.4,7.1-8.9c1.4-2.8,2.8-5.7,3.9-8.6
		c0.9-2.4,1.4-5,2.2-7.4c0.6-1.8,1.4-3.5,2-5.3c0.5-1.6,0.8-3.2,1.1-4.8c0.6-3.1,1.1-6.1,1.6-9.2c0.3-2,0.3-4,0.5-6L108.3,68z
		 M103.3,80.5c-0.3,2.7-0.5,5.4-1,8.1c-0.5,2.5-1.1,5-1.8,7.4c-1.2,4.2-2.5,8.4-4,12.5c-1.6,4.6-3.4,9.2-6.8,12.8
		c-2.2,2.4-4.5,4.6-7,6.6c-2,1.6-4.6,2.1-7.3,1.9c-3.3-0.2-6.5-0.3-9.7-0.8c-3-0.5-6-1.2-8.9-2.3c-1.8-0.6-3.6-1.8-5.1-3
		c-2.6-2-5.2-4.1-7.5-6.4c-2.2-2.2-4.5-4.4-6.2-6.9c-2.4-3.6-5.2-7-6.3-11.3c-0.5-1.9-0.8-3.8-1.4-5.6c-2.1-6.3-2.3-12.9-2.9-18.4
		c-0.1-5.7,1-10,3.2-14.1c1-1.9,1.7-3.9,2.8-5.7c2.8-4.7,6.9-7.8,12.2-9.5c0.2,0,0.3-0.1,0.5-0.1c2.2,1,3.9-0.8,5.7-1.4
		c2.5-0.9,5-1.4,7.6-1.2c4.5,0.3,9,0.4,13.5,1c4.1,0.5,8.2,1.4,12.2,2.3c2.6,0.6,5.2,1.3,7.7,2.2c2.8,1.1,5.2,2.9,6.7,5.7
		c0.7,1.3,1.9,2.5,2.4,3.9c1.2,3.1,1.8,6.4,1.8,9.8c0,2.1,0.4,4.3,0.3,6.4C103.8,76.3,103.5,78.4,103.3,80.5z"/>
	<path id="head7" d="M107.9,59c-0.4-1.7-0.8-3.4-1.1-5.1c-0.6-3.2-2-5.9-4.2-8.3c-1.5-1.6-2.8-3.4-4.5-4.9c-1.3-1.1-2.8-2-4.4-2.5
		c-2.4-0.7-4.9-1-7.4-1.4l-9.5-0.9c-0.2-0.1-0.5-0.1-0.7-0.1c-1.5-0.1-3.1,0-4.6-0.2c-4.1-0.4-8.2-0.7-12.3-0.1
		c-1.2,0.2-2.3,0.1-3.5,0.4l-5.6,1c-0.8,0.3-1.5,0.6-2.2,0.7c-3.7,0.7-6.4,2.7-8.7,5.6c-4.3,5.3-5.8,11.4-6.7,17.9
		c-0.1,0.5-0.3,1-0.5,1.5l-1,7.9c-0.2,3.3-0.7,6.7-0.5,10c0.4,6.5,1.4,13,3.3,19.3c1.8,6,3.6,12.1,6.9,17.5c2.1,3.5,4.8,6.6,8.6,8.4
		c3.2,1.5,6.4,3,9.8,4.1c3,1,6.3,1.4,9.4,2.1c4.1,0.9,8.1,1,12.2,0.3c1.1-0.2,2.3-0.3,3.4-0.6c2.1-0.6,4.2-1.2,6.2-2
		c2.3-0.9,3.8-2.9,5.6-4.5c1.6-1.5,2.9-3.3,3.8-5.2c1.1-2.3,1.8-4.7,2.4-7.2c0.8-3.5,2.4-6.8,2.7-10.5c0.2-2.8,1.2-5.5,1.3-8.5
		c0-3,0.6-6,0.9-9c0.3-3.6,0.3-7.2,0.6-10.7L107.9,59z M102.8,75.3c-0.3,3.6-0.3,7.3-0.5,11c-0.1,2.1-0.6,4.2-0.9,6.3
		c-0.1,0.7-0.1,1.5-0.2,2.3c-0.1,1-0.2,2-0.4,3c-0.5,2.9-1.1,5.9-1.7,8.8c-0.6,2.5-1.4,5-2,7.5c-0.2,0.6-0.3,1.4-0.6,1.9
		c-1.1,2-2.2,4.1-3.6,5.9c-1.8,2.3-3.6,4.6-6.4,5.8c-1.2,0.5-2.4,1-3.7,1.3c-1.5,0.4-3,0.8-4.6,0.8c-3.2,0-6.4,0.2-9.6-0.7
		c-1.9-0.5-4.1-0.4-6-1.1c-4-1.4-8-2.8-11.7-4.8c-3.1-1.7-5.3-4.6-6.9-7.8c-2.1-4-3.8-8.2-5.1-12.6c-1.3-4.5-2.6-9.1-3.3-13.8
		c-0.5-3.6-0.9-7.2-0.7-10.8c-0.1,0-0.2,0-0.3,0c0.7-5.3,1.3-10.7,2.1-16c0.3-2.2,0.7-4.4,1.4-6.6c1.2-3.8,2.6-7.6,5.4-10.6
		c2.3-2.5,5.1-4.1,8.5-4.8c3.2-0.6,6.4-1.3,9.7-1.6c2.6-0.3,5.1-0.5,7.7,0.1c1.5,0.3,3.2,0.1,4.8,0.2c2.1,0.1,4.3,0.4,6.4,0.6
		c2.2,0.2,4.3,0.5,6.5,0.7c2.6,0.2,5.3,0.2,7.4,2.2c1.4,1.3,2.9,2.7,4,4.2c1.5,2.2,3.1,4.4,3.6,7.1c0.5,3,1.6,5.9,1.1,9.1
		c-0.2,1.2-0.1,2.5,0.1,3.7C103.5,69.4,103,72.3,102.8,75.3z"/>
	<path id="head6" d="M55.4,43.6c0,0.1,0,0.2,0,0.2c-1.3,0-2.6,0-4,0c-3.6-0.1-6.9,0.7-9.8,2.9c-3.1,2.4-5.6,5.2-7.2,8.9
		c-1.1,2.7-1.3,5.4-1.4,8.3c-0.2,5,0.6,9.8,1.8,14.5c0.8,3.2,1.7,6.4,2.6,9.6c1.3,4.4,2.2,8.9,4.6,12.9c0.4,0.6,0.6,1.3,0.9,2
		c1.2,3,3,5.7,5.1,8.1c2.7,3.2,5.9,5.8,9.6,7.8c1.8,1,3.6,1.9,5.5,2.6c1.3,0.5,2.7,0.7,4.1,1c0.6,0.1,1.3,0.2,2,0
		c1.6-0.3,3.1-0.6,4.7-0.9c0.8-0.2,1.7-0.2,2.4-0.6c3.2-1.9,6.5-3.9,9.6-5.9c2.8-1.8,4.5-4.8,6.2-7.5c2.3-3.8,4.2-7.9,6.3-11.8
		c2.7-5.2,5-10.6,6.3-16.3c0.5-2.3,1.4-4.6,1.2-7c-0.1-1.5,0.4-3.1,0.6-4.6c0.2-1.1,0.7-2.3,0.5-3.3c-0.7-3.1-0.3-6.5-2.4-9.2
		c-0.7-0.9-1.3-1.9-1.9-2.9c-0.2-0.3-0.2-0.6-0.4-0.8c-0.2-0.4-0.5-1-0.8-1.1c-1.5-0.6-3-1.2-4.5-1.4c-5.2-0.9-10.4-1.7-15.6-2.5
		c-3.7-0.6-7.4-1.3-11.1-1.6C65.3,44.2,60.4,44,55.4,43.6z M111.1,72.5c-0.8,3.6-1.5,7.1-2.5,10.7c-0.5,1.9-1.4,3.8-2.2,5.7
		c-1.5,3.3-3,6.7-4.6,10c-0.7,1.4-1.6,2.8-2.3,4.2c-1,1.9-1.9,3.9-3,5.7c-1.9,2.9-3.8,6-6.7,8.1c-2.4,1.8-5,3.2-7.6,4.7
		c-1.9,1.1-3.9,2-5.9,2.9c-0.6,0.3-1.3,0.3-2,0.4c-1.2,0.2-2.5,0.4-3.7,0.8c-2.6,0.7-5-0.1-7.4-0.6c-3.2-0.7-6.1-2.1-9-3.8
		c-4.6-2.8-8.7-6.1-11.9-10.5c-1.5-2.1-2.6-4.6-3.8-7c-1.1-2.2-2.1-4.5-2.9-6.8c-0.9-2.5-1.5-5.1-2.2-7.7C32.2,84,30.8,79,29.6,73.8
		c-0.6-2.6-0.5-5.4-0.8-8.1l1.5-11.8c0.7-2.9,2.8-4.8,4.7-6.7c2.2-2.2,4.9-3.8,7.5-5.5c1-0.6,2.3-0.7,3.5-0.8c1.6-0.1,3.2,0,5.2,0
		l5.4-0.2c4.6-0.1,9.2,0.2,13.7,0.8c2.2,0.3,4.4,0.3,6.7,0.6c1.5,0.2,2.9,0.5,4.4,0.8l4.9,0.7c3.6,0.6,7.2,1.3,10.8,1.9
		c4.4,0.7,8.2,2.5,11.1,6c0.3,0.4,0.7,0.9,0.7,1.3c0,1.4,0.6,2.5,1.4,3.6c0.2,0.4,0.5,0.8,0.5,1.2c0.3,2.1,0.5,4.1,0.7,6.2
		L111.1,72.5z"/>
	<path id="head5" d="M112.3,63c-0.7-1-1.4-1.7-1.9-2.6c-3.5-5.7-8.3-10-13.6-13.9c-2.1-1.6-4-3.4-6.5-4.3L84,39.7
		c-4-0.3-8-1.2-12.1-0.6c-2.7,0.4-5.2,1.1-7.9,2.7c0.6-0.1,0.9-0.1,1.3-0.2c0,0.1,0,0.2,0.1,0.3c-0.7,0.2-1.4,0.5-2.1,0.7
		c-3.6,0.9-7.4,0.9-10.8,2.7l-4.1,1.2c-1.3,0.8-2.4,1.5-3.5,2.1c-0.8,0.4-1.6,0.8-2.4,1.2c-4.1,2-7.9,4.5-11,7.8
		c-2.4,2.6-4.2,5.7-6.3,8.5c-0.6,0.8-1.1,1.6-1.8,2.7L21.2,74c-1,2.6-2.2,5.1-3,7.8c-0.8,2.7-1.4,5.5-0.7,8.4
		c0.8,3.1,1.9,6.2,3.7,8.9c2.1,3.3,4.8,6.2,8.1,8.3c2,1.3,4.2,2.2,6.2,3.5c3.7,2.4,7.6,4.4,11.9,5.7c3,0.9,6,2,9,2.5
		c4.1,0.7,8.3,0.8,12.5,0.3c3.7-0.4,7.4-0.5,11-1.7c5.6-1.8,11.4-2.9,16.9-5.2c3.5-1.5,6.8-3.5,9.9-5.7c2-1.4,3.8-3,5.7-4.5
		c1-0.9,2.1-1.9,2.8-3.1c1.1-2,1.8-4.1,2.7-6.2c0.3-0.7,0.7-1.4,0.7-2.1c-0.2-3.8,0.8-7.6,0.1-11.4c-0.4-2-0.8-3.9-1.4-5.8
		c-0.6-1.9-1.4-3.8-2.1-5.6L112.3,63z M114.9,82.3c-0.2,1.3-0.4,2.7-0.2,4c0.2,2.4-0.8,4.5-1.6,6.6c-2,5.6-6.9,8.3-11.4,11.3
		c-6.6,4.4-14.2,6.8-21.9,8.6c-1.4,0.3-2.7,0.9-4.1,1.2c-1.8,0.3-3.7,0.5-5.5,0.7c-2.3,0.3-4.7,0.7-7,0.6c-4.3-0.1-8.5-0.3-12.6-1.6
		c-4.7-1.5-9.3-3.2-13.6-5.9c-2.1-1.3-4.6-2.3-6.6-3.7c-3.4-2.3-5.6-5.5-7.5-9.2c-2.6-5.2-1.2-9.9,0.5-14.7c0.9-2.6,2-5.1,3.2-7.6
		c1-2,2.2-3.8,3.4-5.6c1.2-1.8,2.4-3.7,3.9-5.2c2.2-2.2,4.6-4.3,7.1-6.2c4.5-3.2,9.6-5.4,14.9-7.2c3-1,6.1-1.4,9.2-2.1
		c1.5-0.3,3-0.8,4.5-1.1c2.6-0.6,5.1,0,7.6,0.7c0.5,0.1,1.2-0.2,1.7-0.5c0.3-0.2,0.2-0.8,0.3-1.2c0-0.2-0.1-0.4-0.2-0.9
		c2.3,0.4,4.4,0.5,6.4,1.1c2.2,0.6,4.3,1.5,6.2,2.6c1.8,1,3.5,2.3,5.1,3.7c2.5,2.1,5,4.3,7.3,6.7c1.5,1.6,2.8,3.4,3.9,5.2
		c1.8,2.8,3.6,5.6,5,8.6C114.7,74.8,115.5,78.5,114.9,82.3z"/>
	<path id="head4" d="M113.9,76.8c0-0.3,0-0.6,0.2-0.7c0,0,0-0.1,0-0.1c0-0.1,0-0.2,0-0.4c0,0,0,0,0,0c-0.1-0.3-0.1-0.5-0.2-0.8
		c0,0,0,0,0-0.1c0-0.1-0.1-0.1-0.1-0.2c-0.1-0.2-0.2-0.4-0.3-0.5c-0.3-0.6-0.4-1.2-0.3-1.8c-0.1,0-0.1,0-0.2,0
		c-0.5-1.7-0.9-3.5-1.4-5.2c-0.8-2.5-1.4-5.2-2.6-7.6c-1.3-2.5-3-4.8-4.9-6.8c-2.9-3-6.1-5.7-9.2-8.5c0,0-0.1-0.1-0.1-0.1
		c-0.3,0-0.7-0.2-1-0.4c-1.1-0.7-2.2-1.3-3.3-1.8c-0.5-0.2-0.8-0.6-1-1c-0.5-0.1-1.2-0.3-2.2-0.7c-0.4-0.2-0.7-0.4-1.1-0.5
		c-1.9-0.6-3.8-1.1-5.8-0.7c-2.1,0.5-4.3,0.8-6.5,1.2c-2.7,0.5-5.4,0.5-7.9,1.8c-2.1,1.2-4.4,2.1-6.6,3.1c-0.2,0.1-0.5,0.1-0.7,0.1
		c-0.9,0.7-2,1.2-3.1,1.4c-0.3,0-0.6,0.1-0.9,0.1c-2,1.5-4,2.9-5.9,4.4c-0.8,0.6-1.7,1.2-2.6,1.7c-2.1,1.4-3.4,3.6-4.7,5.7
		c-0.3,0.5-0.7,1-1.1,1.4c-2.3,2-3.8,4.6-4.7,7.6c-0.1,0.4-0.4,0.8-0.7,1.3c-0.5,1.8-1.3,3.5-2.3,5.1c0,0.2,0,0.3,0,0.6
		c-1,4.6-1.8,9.1-1.8,13.9c0.4,2.7,0.6,5.5,1.3,8.1c0.8,2.9,2,5.8,3.1,8.6c0.8,2,1.9,3.9,3.6,5.4c1.9,1.6,3.9,3.3,5.7,5
		c2.9,2.6,6.1,4.6,9.7,5.9c3.4,1.2,6.7,2.3,10.1,3.3c1.9,0.6,4,1,6,1.1c3.7,0.1,7.5,0,11.2-0.4c4.6-0.5,8.8-2.1,12.6-4.7
		c0.6-0.4,1.2-0.7,1.8-1.1c1.8-1.4,3.7-2.7,5.3-4.3c1.8-1.8,3.2-3.9,4.8-5.8c0.9-1.1,1.9-2.1,2.5-3.3c1.8-3.6,3.6-7.3,4.3-11.3
		c0.2-1.1,0.5-2.3,0.8-3.4c1-3.5,1.3-7.1,0.9-10.7C114.1,79.3,114.1,78,113.9,76.8z M108.5,94.6c-1.1,3.2-2.6,6.3-4,9.4
		c-0.4,0.9-1.2,1.6-1.8,2.3c-2.6,3-5,6.2-8.2,8.6c-4.2,3.1-8.8,5.6-14.1,6.2c-4,0.4-8.1,0.7-12.1,0.4c-2.9-0.2-5.7-1.3-8.5-2.1
		c-3.7-1.1-7.4-2.2-10.5-4.5c-3.1-2.3-6-5-8.9-7.6c-0.7-0.7-1.3-1.6-1.7-2.6c-1.3-3.3-2.6-6.5-3.6-9.9c-0.6-2.2-0.6-4.6-0.8-6.8
		c0.8-5.1,0.9-10.3,3-15.2c1.8-4.3,4.3-8.2,7.5-11.7c1.4-1.5,2.5-3.3,4.1-4.7c1.8-1.6,3.7-3,5.8-4.1c3.9-2,7.9-3.8,11.9-5.6
		c4.6-2.1,9.6-3.1,14.6-3.2c5.1-0.1,9.7,1.6,13.6,5c3,2.7,6,5.4,8.6,8.4c1.9,2.1,3,4.9,3.8,7.7c0.8,2.8,1.6,5.6,2.5,8.3
		c0.9,3.1,1.2,6.2,1.2,9.4C110.9,86.6,109.8,90.6,108.5,94.6z"/>
	<path id="head3" d="M33.3,71c0,3.1,0,6.3,0,9.4c0.1,4.5,0.7,8.8,3.5,12.5c1.7,2.3,3.1,4.8,4.9,7.1c1.4,1.7,3,3.2,4.7,4.6
		c2,1.8,3.9,3.8,6.3,5.1c3.9,2.2,8,3.9,12.1,5.6c2,0.8,4.2,1,6.3,1.4c3.6,0.8,7.3,1,10.9-0.2c3.4-1.1,6.4-2.9,9.3-5
		c5-3.7,9.1-8.2,12.5-13.4c3.5-5.3,4.9-11.3,6.1-17.4c0.6-3,0.2-6.1,0.1-9.2c0-0.3,0-0.5,0-0.8c-0.8-2.1-1.1-4.4-0.8-6.5
		c-0.1,0-0.1,0-0.2,0c-0.1-0.6-0.2-1.2-0.2-1.8c-0.4-3.7-1.9-7.1-3.6-10.3c-0.7-1.4-2.1-2.4-3-3.7c-2.4-3.1-5.5-5.6-9-7.4
		c-2.3-1.2-4.8-2.3-7.2-3.3c-1.7-0.2-3.4-0.5-5-1.1c0,0-0.1,0.1-0.2,0.3c-8.1-1.6-16.1-2-23.3,3.1l-5,3.4c-3.7,2.3-7,5.1-10.3,8
		c-1.6,1.5-2.8,3.2-3.7,5.1c-1.2,2.5-2.4,5-3.7,7.7L33.3,71z M105.4,77.8c-0.3,6-2.5,11.5-5.1,16.9c-1.7,3.5-3.8,6.7-6.6,9.5
		c-3.5,3.4-7.2,6.6-11.7,8.7c-2,0.9-4,1.8-6.3,1.5c-5.3-0.3-10.4-1.4-15.1-3.9c-1.6-0.8-3.3-1.4-4.8-2.4c-2.1-1.4-3.9-3.1-5.8-4.7
		c-1.2-1-2.2-2.3-3.4-3.3c-3.7-3.3-5.8-7.7-8-12c-0.7-1.4-0.8-3.1-0.9-4.6c-0.2-3.2-0.6-6.5-0.4-9.7c0.3-4.1,1.7-8.1,3.2-11.9
		c2.1-5.5,6.1-9.4,10.6-12.8C55,46.1,59,43.6,63,41c0.6-0.4,1.4-0.4,2.1-0.5c1.2-0.2,2.5,0,3.5-0.4c2.1-0.8,4.2-0.7,6.3-0.5
		c2.6,0.3,5.2,0.5,7.8,1c4.5,0.8,8.7,2.7,12.2,5.7c2.2,1.9,4.3,4,5.9,6.4c2.2,3.2,3.3,6.9,3.7,10.8c0.1,1.6,0.6,3.1,0.7,4.7
		C105.5,71.5,105.6,74.6,105.4,77.8z"/>
	<path id="head2" d="M114.2,88c-0.1-1.2-0.1-2.4-0.1-3.7c0-1.3,0.1-2.5-0.1-3.8c-0.5-2.6-1.1-5.2-1.8-7.8c-1-3.6-2.3-7.1-4.7-10.1
		c-0.1-0.1-0.1-0.2-0.2-0.2c-0.3-0.3-0.7-0.6-1-1c-1.4-1.6-2.3-3.4-3.6-5c0-0.1-0.1-0.1-0.1-0.2c-3.2-2.6-6.2-5.3-9.5-7.6
		c-3.2-2.2-6.6-4.1-10.2-6.2c-1.7-0.3-3.4-1.1-5.1-1c-0.7,0-1.3-0.2-1.7-0.5c-0.3-0.1-0.7-0.1-1-0.2c-4-0.3-8.1-0.8-12.1-0.9
		c-4-0.1-8.1,0.1-11.9,1.8c-1.7,1-3.4,1.9-5.1,2.6c-0.4,0.2-0.8,0.3-1.2,0.4c-2.7,2.4-5.9,4.7-8.4,7.6c-2.3,2.6-4,5.6-5.9,8.5
		c-0.7,2.4-1.6,4.7-2.8,6.7c-0.1,0.3-0.2,0.6-0.4,1c-0.2,0.3-0.3,0.6-0.4,0.9c-2.6,6.7-2.8,13.6-1.6,20.5c1,5.9,3.5,11.3,6.8,16.2
		c2.1,3.1,4.8,6,7.5,8.6c4.1,4.1,9.1,6.9,14.5,8.8c2.4,0.8,5,1.2,7.6,1.8c1,0.2,2.1,0.6,3.2,0.6c3.1,0.1,6.3,0,9.4,0
		c2.6-0.1,5.3-0.1,7.9-0.3c4.7-0.4,9.1-2.1,13.4-4c2.2-1,4.5-1.8,6-3.9c0.8-1.1,2.1-1.8,3.2-2.7c1.2-1,2.4-2,3.4-3.2
		c3.4-4.1,4.8-9,5.5-14.1c0.1-0.8,0.1-1.6,0.3-2.4C114.8,92.9,114.5,90.4,114.2,88z M109.1,101.1c-1.3,5.1-4.5,8.8-8.7,11.9
		c-2.5,1.9-4.9,3.8-7.9,4.9c-5.4,2-10.8,3.6-16.6,3.5c-3.3-0.1-6.6,0.1-9.9,0.1c-1.1,0-2.2-0.2-3.3-0.4c-3.6-0.7-7.3-1-10.7-2.7
		c-1.7-0.8-3.5-1.8-5.1-2.8c-1.9-1.3-4-2.6-5.6-4.2c-2.6-2.5-5-5.3-7-8.4c-3.3-5.2-5.7-10.7-6-16.9c-0.3-5.1,0.3-10.2,2.3-15
		c0.2-0.5,0.7-1,1.2-1.3c0.7-0.4,0.8-0.8,0.6-1.5c-0.1-0.4-0.3-1-0.1-1.3c1.8-4.1,3.8-8.1,7.1-11.2c2.8-2.6,5.7-5.1,8.9-7.2
		c4.6-3,9.9-4,15.3-3.9c1.2,0,2.5-0.1,3.7-0.1c0.9,0,1.9,0.1,2.8,0.2c0,2.1,0.3,2.3,2.3,2.2c2.4-0.1,4.8-0.1,7.2-0.1
		c2.5,0,4.1,1.1,6,2c1.9,0.9,3.8,2,5.6,3.2c2.3,1.6,4.6,3.3,6.6,5.3c1.9,1.8,3.4,3.9,5.1,5.9c0.5,0.5,1,1,1.4,1.5
		c0.7,0.8,1.4,1.7,1.9,2.6c0.9,1.9,2,3.9,2.5,5.9c1,3.9,2.3,7.7,1.8,11.8c-0.1,0.9,0.1,1.9,0.2,2.9
		C111.4,92.4,110.3,96.8,109.1,101.1z"/>
	<path id="head1" d="M116,94.1c-0.3-3.4-0.8-6.8-2.2-10c-1-2.3-2.3-4.4-3.5-6.6c-1.6-2.9-3.3-5.8-4.8-8.8c-0.1-0.1-0.1-0.3-0.1-0.5
		c-0.7-0.8-1.5-1.5-2.1-2.4c-0.6-0.8-0.7-1.9-1.4-2.5c-0.1-0.1-0.2-0.2-0.3-0.3c0,0,0,0,0,0c-5.5-6.3-10.7-12.5-16.1-18.7
		c0,0,0,0,0,0c-1-0.6-2-1.1-2.9-1.8c-0.4-0.3-0.7-0.7-1-1c-0.1-0.2-0.3-0.2-0.3-0.3c-0.3-0.1-0.6-0.2-0.9-0.3
		c-0.4-0.1-0.7-0.3-1.2-0.6c-2.1-1.3-4.3-2.7-7.1-2.5c-1.9,0.1-3.8,1.1-5.7,0.3c-0.2-0.1-0.4,0-0.6,0.1c-1.1,0.6-2.4,1.2-3.4,1.9
		c-1.2,0.9-2.1,2-3.2,3c-0.2,0.1-0.4,0.2-0.7,0.2c0,0,0,0-0.1,0.1c-0.6,0.4-1.1,0.8-1.5,1.1c-0.3,0.4-0.6,0.8-1.1,1.2
		c-5.1,6-10.1,11.8-14.2,18.4c-0.1,0.2-0.1,0.4-0.2,0.5c0,0.1-0.1,0.1-0.1,0.1c0,0,0,0.1,0,0.1c-0.1,0.2-0.2,0.5-0.2,0.7
		c-0.1,0.4-0.2,0.8-0.3,1.2c-0.3,0.9-0.6,1.7-1.1,2.4c0,0.1-0.1,0.3-0.1,0.4c-2.7,6.1-3.8,12.6-3.7,19.2c0,4.4,1.2,8.5,3.1,12.4
		c1.3,2.6,2.7,5.2,4.3,7.7c1.8,2.8,3.7,5.6,6,8c2.2,2.2,4.8,4,7.4,5.9c4.3,3,8.8,5.5,14.1,6.1c2.1,0.2,4.2,0.6,6.3,0.5
		c2.1,0,4.2-0.4,6.2-0.7c3.1,0.1,6.4-0.3,10.6-2.3c1.1-0.5,2.4-0.7,3.4-1.2c1.7-0.9,3.3-2,4.8-3.2c1.5-1.2,2.7-2.9,4.1-4.2
		c2.9-2.6,4.9-5.7,6.8-9c0.5-0.8,0.8-1.7,1.1-2.5c0.6-1.4,1.3-2.8,1.6-4.3C116,99.3,116.3,96.8,116,94.1z M111.9,97.5
		c-0.3,3.2-1.5,6.2-3,9c-2.9,5.3-6.9,9.7-11.8,13.1c-3.1,2.1-6.5,3.7-10.2,4.5c-2.2,0.5-4.4,0.9-6.7,1.3c0-0.1,0-0.3-0.1-0.4
		c-1.6,0.2-3.2,0.4-4.9,0.5c-3.2,0.1-6.4-0.3-9.5-1.6c-1.5-0.6-3.1-1.1-4.5-1.9c-2.7-1.7-5.4-3.5-7.9-5.6
		c-5.4-4.5-8.8-10.5-11.5-16.8C40,95,39.1,90.2,40,85.3c0.2-1.4,0.1-2.8,0.4-4.1c0.6-2.6,1.4-5.1,2.2-7.7c0.3-1,0.7-2,1-2.9
		c2.1-5.5,5.7-9.9,9.4-14.3c1.1-1.3,2.1-2.6,3.2-3.9c1.5-1.5,3-2.9,4.6-4.4c0.8-0.8,1.8-1.5,2.6-2.3c0.6-0.5,1.1-1.2,2.1-0.9
		c0.4,0.1,0.9-0.3,1.3-0.6c3.4-2.1,6.8-2.7,10.5-0.6c4.4,2.6,8.2,5.9,11.4,9.9c2.8,3.4,5.7,6.6,8.5,10c0.9,1.1,1.7,2.4,2.5,3.6
		c2.4,3.2,4.8,6.5,6.6,10.2c1.1,2.1,2.4,4.1,3.4,6.3C111.7,88,112.4,92.7,111.9,97.5z"/>
</g>
<g id="ears_right">
	<path id="rightEar8" d="M73.3,41.9c0.2,0.3,0.4,0.4,1,0.7c0.2,0.1,0.6,0.2,0.9,0.4c0.8,0.1,1.7,0,2.6-0.3c-0.1-0.1-0.2-0.1-0.3-0.2
		c3-2.4,6-4.8,8.9-7.3c1.3-1.2,2.3-2.7,3.7-3.9c3.2-2.9,6.5-5.7,10.7-7.2c1.2-0.4,1.5-0.2,1.4,1c-0.2,2.6-0.5,5.2-0.8,7.8
		c-0.4,3.8-0.7,7.6-1.2,11.4c-0.3,2.8-0.8,5.7-1.2,8.5c-0.2,1.5-0.4,3.1-0.6,4.5c0,0-0.1-0.1-0.1-0.1c0,0.3,0,0.6,0,0.9
		c-0.4,2-0.1,4.1,2.5,3.9c0.4,0,0.9-0.3,1.3-0.7c0.1-1.7,0.4-3.3,0.6-5c0.4-3.7,0.8-7.5,1.3-11.2c0.5-4.8,1.1-9.7,1.6-14.5
		c0.3-3.2,0.4-6.4-1.3-9.3c-0.6-1-1.5-1.8-2.5-2.4c-0.3-0.2-1.2,0.2-1.7,0.5c-2,1-4,2-5.9,3.2c-1.2,0.7-2.1,1.8-3.2,2.7
		c-0.3,0.3-0.6,0.5-0.9,0.8c-2.6,2.5-5.1,5-7.8,7.5c-1.2,1.1-2.6,1.8-3.9,2.7c-1.5,1.2-2.9,2.5-4.4,3.7
		C73.4,40.3,72.8,40.8,73.3,41.9C73.3,41.9,73.3,41.9,73.3,41.9z"/>
	<path id="rightEar7" d="M121.3,32.2c0-0.2-0.1-0.6-0.2-1.1c-0.3-1.7-0.6-3.4-0.9-5.1c-0.4-1.9-0.7-3.7-1.4-5.5
		c-0.6-1.7-1.6-3.3-2.4-4.9c-0.8-1.6-3.8-3.4-5.6-3.2c-0.7,0.1-1.3,0.7-2,1.2c-1.5,0.9-3,1.7-4.3,2.8c-5.6,4.8-11,9.7-16.5,14.5
		c-3.3,2.8-6.2,5.9-8.4,9.7c0.2,1.1,0.6,2.4,1.9,2.2c0.9-0.1,1.8-0.5,2.7-1c0.2-0.3,0.3-0.6,0.5-0.8c1.1-1.9,2.5-3.5,4.2-4.9
		c2.2-1.8,4-4,6.1-5.8c4.1-3.6,8.2-7.2,12.5-10.6c1.3-1.1,2.9-1.7,4.4-2.6c0.5-0.3,0.8-0.1,1.2,0.4c1.8,2.9,2.3,6.2,2.7,9.4
		c0.5,3.4,0.7,6.8,0.7,10.2c0,3,0.1,6-0.8,9c-0.7,2.3-0.9,4.9-1.6,7.2c-1,3.3-2.2,6.5-3.5,9.6c-0.6,1.5-1.6,2.8-2.5,4.2
		c-0.2,0.3-0.5,0.5-0.9,0.8c0-0.1,0-0.2,0-0.2c-1.3,1.6-2.4,4.3-0.7,6c0.4,0.4,0.8,0.7,1.3,0.8c0.3-0.3,0.6-0.5,1.2-0.6
		c0.1,0,0.1-0.1,0.2-0.2c1-1.3,2.2-2.5,3-3.8c1.3-2.1,2.6-4.2,3.6-6.4c0.8-1.6,1.1-3.5,1.7-5.2c1.4-3.5,2.6-7.1,2.9-10.9
		c0.2-2.2,0.6-4.4,0.7-6.6C121.4,38,121.3,35.2,121.3,32.2z"/>
	<path id="rightEar6" d="M126.9,14.1c-0.4-1.4-1.3-3-3-3.3c-1.4-0.2-2.9-0.3-4.2,0.2c-3.5,1.1-7.1,2.1-10.2,3.9
		c-5.6,3.3-11.1,7-16.3,10.8c-3,2.2-5.6,4.8-8.3,7.4c-0.2,0.4-0.6,0.8-1.1,1.1c-0.1,0.1-0.1,0.1-0.2,0.2c-0.3,0.3-0.7,0.6-1,0.8
		c-0.5,1.2-0.8,2.2,1,2.5c1.5,0.2,3-0.2,4.5-0.8c-0.1,0-0.2,0-0.3,0c0.1-0.2,0.3-0.5,0.5-0.7c2.7-2.5,5.3-5.3,8.2-7.5
		c4.5-3.4,9.2-6.6,13.9-9.7c3.1-2,6.5-3.2,10.1-4c0.1,0,0.2,0,0.4-0.1c2-0.4,2-0.4,2.4,1.6c0.5,3.1,0.2,6.2-0.4,9.4
		c-0.7,4.4-1.6,8.7-3.1,12.9c-2.2,6.4-4.9,12.5-8.7,18.1c-0.3,0.5-0.6,0.9-0.8,1.4c-0.1,0.4-0.2,0.7-0.3,1.1c-0.5,1-2.4,4-0.7,4.8
		c0.8,0.4,1.8,0.3,2.9,0.1c0.8-1.5,1.5-3,2.4-4.4c3.5-5.4,6.4-11,8.5-17c1.2-3.4,2.4-6.8,3.2-10.4c0.8-3.9,1.2-7.8,1.7-11.4
		C127.5,18.5,127.5,16.2,126.9,14.1z"/>
	<path id="rightEar5" d="M127,22.7c-0.2-1.2-0.5-2.5-1.3-3.4c-1.4-1.6-3.4-2.2-5.5-2c-2.2,0.2-4.5,0.7-6.5,1.9
		c-1.1,0.7-2.4,1.1-3.6,1.6c-1.3,0.5-2.8,0.8-4,1.5c-3.9,2.2-7.8,4.4-11.5,6.8c-3.6,2.4-7,5-10.4,7.6c-1.3,1-2.2,2.4-3.4,3.5
		c-0.2,0.2-0.4,0.4-0.5,0.6c0.2,0.2,0.3,0.4,0.4,0.7c0.7,1.6,1.5,2.1,3.2,1.7c0.5-0.2,1-0.3,1.5-0.5c2.2-2.9,4.7-5.3,7.8-7.3
		c5-3.2,10-6.4,15.1-9.5c1.4-0.8,3.1-1.1,4.7-1.7c1.8-0.7,3.5-1.6,5.3-2.2c1-0.4,2.1-0.6,3.2-0.8c0.6-0.1,1.1,0.1,1.1,0.9
		c-0.1,1.8,0,3.7-0.2,5.5c-0.4,3.5-0.9,7-1.6,10.5c-0.5,2.6-1.3,5.1-2.1,7.6c-1,3-2.1,5.9-3.3,8.8c-1,2.5-2.1,4.9-3.2,7.4
		c-0.2,0.9-0.5,1.8-0.8,2.8c-0.5,1.7-1.3,3-2,4.6c-0.9,2.1,0.8,2.7,2.4,2.9c0.5-0.3,0.7-0.7,1.2-1.9c0.3-0.8,0.8-1.4,1.2-2.2
		c1.2-2.3,2.6-4.5,3.6-6.9c1.7-4.1,3.3-8.4,4.8-12.6c1-2.9,1.9-5.9,2.5-8.9c0.7-3.2,0.8-6.5,1.4-9.7C127,27.5,127.3,25.1,127,22.7z"
		/>
	<path id="rightEar4" d="M122.4,22.6c-0.1-1.9-1.3-3.3-2.6-4.4c-1.4-1.2-3-1.8-4.9-1.2c-1.4,0.4-2.7,0.8-4.1,1.3
		c-1.2,0.4-2.6,0.7-3.7,1.4c-3.1,2.1-6,4.3-9,6.5c-2.3,1.7-4.6,3.6-6.9,5.4c-0.3,0.2-0.7,0.4-1,0.6c-1.6,1.5-3.1,3.1-4.7,4.6
		c0,0,0,0,0,0c-0.7,1.1-2,4-0.6,4.5c1.3,0.4,2.6-0.4,3.5-1.5c0.4-0.5,0.9-0.8,1.4-0.9c2.8-3.5,6.2-6.4,9.9-8.9
		c2.7-1.8,5.3-3.7,7.9-5.6c1.8-1.2,3.6-2.2,5.8-2.5c0.9-0.1,1.8-0.5,2.7-0.8c0.9-0.4,1.4-0.1,1.5,0.8c0.7,3.8,1,7.6,0,11.5
		c-1.2,5.2-2.4,10.4-3.5,15.6c-0.7,3.4-1.3,6.9-1.9,10.3c-0.1,0.4-0.2,0.8-0.4,1.4c0,0,0,0-0.1-0.1c-0.1,0.8-0.3,1.7-0.5,2.5
		c-0.1,0.3,0.7,2.1,0.7,2.1c1.3,0.8,2.8,0.4,3.7-0.9c0.5-1.5,1-3.1,1.3-4.6c0.8-4.3,1.4-8.6,2.2-12.8c0.5-2.7,1.1-5.4,1.8-8
		c0.5-2.3,1.5-4.6,1.6-6.9C123,28.8,122.6,25.7,122.4,22.6z"/>
	<path id="rightEar3" d="M130.4,22.7c-0.6-3-4.6-5-7.3-3.7c-1.7,0.8-3.4,1.8-5.2,2.6c-4.6,2.3-8.7,5.4-13,8.2
		c-1.6,1-3.1,2.1-4.7,3.2c-2.9,1.9-5.8,3.6-8.6,5.6c-1.4,1-2,1.5-2.8,1.5c-0.7,1-1.1,2.4-0.6,3.5c0.7,1.6,4.3-0.3,5.1-0.8
		c0.1-0.1,0.2-0.1,0.3-0.1c1.7-1.2,3.2-2.5,4.9-3.6c5.2-3.4,10.4-6.9,15.7-10.2c3.5-2.2,7.1-4.5,11-5.9c0.2-0.1,0.5-0.1,1-0.2
		c0,0.7,0.1,1.3,0,1.9c-0.3,3.2-0.5,6.3-1,9.5c-0.6,4-1.4,8-2.4,11.9c-0.6,2.3-1.6,4.6-2.4,6.9c-1.3,3.3-2.7,6.6-4,9.9
		c-1,2.4-2,4.9-3,7.3c-0.2,0.4-0.5,0.8-0.8,1.2c-0.3,0.7-0.5,1.5-0.4,2.3c0,0.1,0.2,0.5,0.4,0.6c0.6,0.3,1.2,0.6,1.9,0.8
		c0.4-0.1,0.9-0.3,1.2-0.6c0.9-1,1.9-2.1,2.5-3.3c1.6-3.6,3.1-7.2,4.6-10.8c0.8-2.1,1.6-4.3,2.4-6.4c0.6-1.6,1.4-3.1,1.8-4.7
		c0.7-2.7,1.2-5.5,1.7-8.3c0.5-2.5,0.9-5.1,1.4-7.6C130.7,29.8,131.1,26.3,130.4,22.7z"/>
	<path id="rightEar2" d="M113.5,67.2c0.4-0.7,0.7-1.6,1-2.4c1.6-4.1,3.2-8.2,4.6-12.4c0.9-2.8,1.5-5.8,2.3-8.7
		c1.2-4.1,1.8-8.3,1.7-12.6c-0.1-1.9,0-3.8-0.2-5.7c-0.2-2.1-0.9-4.3-2.8-5.5c-2.1-1.4-4.6-1.8-7-1.2c-2.5,0.7-4.9,1.8-7.2,3
		c-4.6,2.2-9.2,4.4-13.6,6.9c-3.8,2.1-7.3,4.7-11,7.1c-1.1,0.7-1.6,1.4-0.8,2.7c0,0,0,0,0,0c0.1,0.1,0,0.1,0,0c0,0,0,0,0,0
		c0.4,0.2,1.7,0.9,1.3,0.8c0.2,0.1,0.4,0.1,0.6,0.2c0.7-0.4,1.4-0.6,2-0.6c0.7-0.6,1.5-1.3,2.3-1.9c3.3-2.2,6.6-4.5,10.1-6.4
		c3.3-1.8,6.7-3.4,10.1-4.9c2.9-1.2,5.8-2.3,8.8-3.3c1.5-0.5,2,0,2.3,1.5c0.1,0.5,0.2,1,0.2,1.4c-0.1,3.3,0.6,6.7-0.1,10
		c-0.9,4.2-1.4,8.6-2.6,12.7c-1.1,4-2.8,7.9-4.3,11.8c-0.7,1.8-1.4,3.6-2.1,5.4c-0.1,0.3-0.2,0.6-0.4,0.8c0,0,0.6,1.7,1.7,2.1
		C111.5,68.4,113.1,67.4,113.5,67.2z"/>
	<path id="rightEar1" d="M75.5,41.6c0.2,0.3,0.4,0.4,1,0.7c0.2,0.1,0.6,0.2,0.9,0.4c0.8,0.1,1.7,0,2.6-0.3c-0.1-0.1-0.2-0.1-0.3-0.2
		c3-2.4,6-4.8,8.9-7.3c1.3-1.2,2.3-2.7,3.7-3.9c3.2-2.9,6.5-5.7,10.7-7.2c1.2-0.4,1.5-0.2,1.4,1c-0.2,2.6-0.5,5.2-0.8,7.8
		c-0.4,3.8-0.7,7.6-1.2,11.4c-0.3,2.8-0.8,5.7-1.2,8.5c-0.2,1.5-0.4,3.1-0.6,4.5c0,0-0.1-0.1-0.1-0.1c0,0.3,0,0.6,0,0.9
		c-0.4,2-0.1,4.1,2.5,3.9c0.4,0,0.9-0.3,1.3-0.7c0.1-1.7,0.4-3.3,0.6-5c0.4-3.7,0.8-7.5,1.3-11.2c0.5-4.8,1.1-9.7,1.6-14.5
		c0.3-3.2,0.4-6.4-1.3-9.3c-0.6-1-1.5-1.8-2.5-2.4c-0.3-0.2-1.2,0.2-1.7,0.5c-2,1-4,2-5.9,3.2c-1.2,0.7-2.1,1.8-3.2,2.7
		c-0.3,0.3-0.6,0.5-0.9,0.8c-2.6,2.5-5.1,5-7.8,7.5c-1.2,1.1-2.6,1.8-3.9,2.7c-1.5,1.2-2.9,2.5-4.4,3.7C75.6,39.9,75,40.4,75.5,41.6
		C75.5,41.6,75.5,41.6,75.5,41.6z"/>
</g>
<g id="ears_left">
	<path id="leftEar8" d="M35.7,66.1c0.4,0.8,0.6,1.4,0.6,2.1c0.6,1.1,1.6,3.2,3,3.7c0.3-0.4,0.6-0.7,1-0.9c0.7-0.4,0.8-0.8,0.6-1.5
		c-0.1-0.3-0.2-0.6-0.2-1c-1.3-1.4-2-3.2-2.6-5.1c0,0,0,0,0,0c-0.1-0.3-0.2-0.7-0.3-1c0,0,0-0.1,0-0.1c0,0,0,0,0,0
		c-2.3-9.2-5.6-18.4-5-28.1c6.9,3.8,14,7.7,20.8,11.5c-0.1,0.1-0.1,0.1-0.2,0.2c1.4,1.3,3.8,1.5,5.5,0.9c2-0.7,1-2.3-0.2-3.5
		c-0.2,0-0.5-0.1-0.7-0.1c-1.8-0.7-3.7-1.3-5.5-2.1c-4.6-2-9.1-4.4-13.3-7.2c-2.8-1.8-5.6-3.6-8.5-5.3c-0.6-0.3-1.7-0.6-1.9-0.3
		c-0.4,0.5-0.6,1.4-0.6,2.2c0.3,3.2,0.6,6.5,1,9.7c0.4,3.4,0.9,6.8,1.6,10.1c0.6,2.8,1.3,5.7,2.1,8.4C33.9,61.1,34.6,63.7,35.7,66.1
		z"/>
	<path id="leftEar7" d="M24.8,65.1c0.4,0.8,0.6,1.4,0.6,2.1c0.6,1.1,1.6,3.2,3,3.7c0.3-0.4,0.6-0.7,1-0.9c0.7-0.4,0.8-0.8,0.6-1.5
		c-0.1-0.3-0.2-0.6-0.2-1c-1.3-1.4-2-3.2-2.6-5.1c0,0,0,0,0,0c-0.1-0.3-0.2-0.7-0.3-1c0,0,0-0.1,0-0.1c0,0,0,0,0,0
		c-2.3-9.2-5.6-18.4-5-28.1c6.9,3.8,14,7.7,20.8,11.5c-0.1,0.1-0.1,0.1-0.2,0.2c1.4,1.3,3.8,1.5,5.5,0.9c2-0.7,1-2.3-0.2-3.5
		c-0.2,0-0.5-0.1-0.7-0.1c-1.8-0.7-3.7-1.3-5.5-2.1c-4.6-2-9.1-4.4-13.3-7.2c-2.8-1.8-5.6-3.6-8.5-5.3c-0.6-0.3-1.7-0.6-1.9-0.3
		c-0.4,0.5-0.6,1.4-0.6,2.2c0.3,3.2,0.6,6.5,1,9.7c0.4,3.4,0.9,6.8,1.6,10.1c0.6,2.8,1.3,5.7,2.1,8.4C23,60.2,23.7,62.8,24.8,65.1z"
		/>
	<path id="leftEar6" d="M21.3,74.5c1-0.3,1.9-0.8,2.2-1.5c0.5-1.1-0.8-2.7-1.6-3.7c-0.1,0.2-0.1,0.3-0.2,0.5
		c-0.9-1.9-1.9-3.5-2.6-5.3c-0.9-2.5-1.5-5.1-2.3-7.7c-0.3-1-0.5-1.9-0.8-2.9c-1.3-4.7-1.6-9.5-2-14.3c-0.6-6.2,0.5-12.1,1.7-18.1
		c0.1-0.4,0.3-0.7,0.4-1.1c0.8-2.3,1.3-2.7,3.5-1.6c3.3,1.7,6.6,3.3,9.2,6c0.8,0.8,1.8,1.4,2.8,2.1c3.8,2.4,7.4,5,10.5,8.2
		c1.1,1.1,2.1,2.4,3.2,3.7c0.5,0.1,0.9,0.4,1.3,0.8c0.8,0.9,1.4,1.9,2.3,2.7c0.6,0.5,0.9,0.2,1.7-0.3c0.4-0.3,0.2-0.8,0.1-1.4
		c-0.1-0.4-0.2-0.8-0.3-1.2c-0.2-0.2-0.4-0.4-0.7-0.8c-1.7-2-3.3-4.1-5.2-5.7c-3.3-2.8-6.8-5.2-10.3-7.8c-0.7-0.5-1.5-1.1-2.1-1.7
		c-3.5-3-7.4-5.5-11.5-7.4c-1.1-0.5-2.4-0.8-3.6-1.2c-1.4-0.4-3.9,0.1-4.4,1.5c-1.5,4.5-2.4,9.1-2.9,13.8c-0.3,3.3-0.3,6.6,0,9.9
		c0.3,3.3,0.6,6.7,1.2,10c0.7,4,1.6,8,2.8,11.9c0.9,3.1,2.2,6,3.6,8.9C18.1,72.4,19.3,74,21.3,74.5z"/>
	<path id="leftEar5" d="M31.6,67.7c0.2,0.1,0.3,0.3,0.5,0.4c0.6,0.2,1.2,0.4,1.8,0.6c0.6-0.3,1.2-0.8,1.6-1.3
		c0.9-1.6-0.1-2.4-1.2-3.7c-0.3-0.3-0.5-0.7-0.7-1c0,0,0,0,0,0c-0.1,0-0.3,0-0.4,0c-0.2-0.4-0.5-0.8-0.7-1.2
		c-0.7-1.5-1.2-3.1-2.1-4.4c-2.1-2.7-2.9-5.9-4.2-8.9c-1.4-3.3-1.9-6.9-2.6-10.4c-0.6-3.2-1.4-6.5-2.1-9.7c-0.5-2.7-0.9-5.4-0.7-8.4
		c1.7,0.5,3.2,0.9,4.7,1.5c2,0.8,4.1,1.6,6.1,2.5c1.9,0.9,3.7,2.1,5.4,3.2c4.6,3.1,8.8,6.8,13.8,9.4c0.3,0.1,0.5,0.4,0.9,0.7
		c0,0-0.1,0-0.1,0c1.4,0.6,2.8,1.8,4.4,1.4c1.7-0.5,0.7-1.6-0.1-2.4c-0.3-0.1-0.5-0.3-0.7-0.5c-0.2-0.3-0.5-0.5-0.8-0.7
		c-2.9-2-5.9-3.9-8.8-5.9c-3-2.1-5.7-4.5-8.9-6.3c-3.5-1.9-7.3-3.3-11-4.8c-2.3-0.9-4.6-1.7-7.1-1.6c-1.3,0-3,1.3-2.8,2.9
		c0.6,3.2,0.9,6.5,1.5,9.8c0.5,2.9,1.3,5.8,1.9,8.6c0.2,1,0.3,2,0.5,2.9c0.4,2.1,0.8,4.1,1.4,6.1c0.8,2.5,1.7,5,2.6,7.5
		c0.3,0.9,0.7,1.9,1.3,2.6c1.7,1.8,2.5,4.1,3.6,6.3C29.3,64.7,30.2,66.6,31.6,67.7z"/>
	<path id="leftEar4" d="M21.2,49.1c0.6,2.4,1.4,4.7,2.1,7c0.7,2.2,1.6,4.2,2.7,6.1c0.1,0.1,0.2,0.1,0.2,0.2c0.5,0.4,4.9,3.5,4.7,0.9
		c-0.2-2.6-2.3-4.8-2.8-7.4c0,0,0-0.1,0-0.1c0,0-0.1,0.1-0.1,0.1c-0.4-1.4-1-2.8-1.3-4.3c-1.3-5.5-2.7-11.1-3.9-16.6
		c-0.7-3.3-0.9-6.8-1.6-10.2c-0.6-3,0.4-5.6,1-8.3c0.1-0.6,1.1-1.2,1.7-1.4c3-0.6,5.6,0.3,7.7,2.6c1.3,1.5,2.5,3.1,3.8,4.6
		c0.4,0.5,1,0.9,1.4,1.4c1.4,1.6,2.8,3.3,4.3,4.9c1,1.1,2,2.1,3,3c2.1,1.8,3.1,4.2,4.5,6.4c0.3,0.4,0.5,0.8,0.7,1.3
		c0.4,0.3,0.7,0.8,0.9,1.3c-0.1-0.4,0.2,0.4,0.2,0.4c0,0,0.3,0.4,0.3,0.4c0,0,0.1,0.1,0.1,0.1c1,0.6,2,0.8,2.9,0.3
		c0.8-0.5,1-1.2,1-1.9c0,0,0,0,0,0c-0.9-1.5-1.6-3.1-2.6-4.6c-2.1-3-4.5-5.7-7.2-8.3c-0.8-0.8-1.5-1.8-2.2-2.6
		c-2-2.3-4.1-4.6-6.1-6.8C35.2,16,34.2,14,32,13.3c-1.5-0.5-2.9-1.3-4.4-1.5c-2-0.2-4.1,0-6.1,0.1c-1.6,0.1-3.1,0.7-3.6,2.3
		c-1.2,3.1-1.9,6.4-1.4,9.7c0.8,5.9,2.1,11.7,3.3,17.5C20.2,43.9,20.6,46.5,21.2,49.1z"/>
	<path id="leftEar3" d="M53.8,46.1c-0.2-0.3-0.4-0.5-0.6-0.8c-0.3-0.4-0.5-0.7-0.7-1.1c-0.3-0.5-0.7-1-1.2-1.4
		c-0.1,0-0.2-0.1-0.3-0.2c-1.5-1.1-2.8-2.4-4.3-3.4c-3.1-1.8-6.2-3.4-9-5.7c-1.9-1.6-4.4-2.5-6.4-3.9c-2.4-1.6-4.7-3.4-7.5-4.4
		c-1.8-0.6-3.6-1.2-5.5-0.2c-0.3,0.2-0.7,0.6-0.7,0.9c-0.2,1.3-0.4,2.7-0.6,4c-0.3,2.5-0.5,5.1-0.8,7.6c-0.2,1.7-0.5,3.4-0.6,5.1
		c-0.1,2,0,4,0,6.1c0.1,2.8-0.1,5.6,0.4,8.3c0.5,2.8,1.4,5.5,2.4,8.2c0.6,1.7,1.4,3.3,2.4,4.9c0.1,0.1,0.2,0.3,0.2,0.4
		c0.5,0,1.1,0.3,1.6,0.7c0.1,0.1,0.3,0.3,0.4,0.4c0.5,0,1,0.1,1.4,0.3c0.1,0,0.3-0.1,0.4-0.1c0.1-0.2,0.2-0.5,0.3-0.6
		c0.1-0.2,0.3-0.4,0.4-0.6c0-0.1,0.1-0.3,0.1-0.4c0-0.1,0-0.2-0.1-0.3c-0.4-1.1-1.1-2-1.8-2.8c-0.2-0.3-0.4-0.6-0.5-0.9
		c0,0-0.1,0.1-0.1,0.1c-1.6-3.5-2.9-6.9-3-10.5c-0.1-3.7,0.1-7.5,0.1-11.2c-0.1-5,1-10,1.6-14.9c0.1-1.2,0.8-1.4,1.7-1
		c1.3,0.7,2.6,1.4,3.9,2.2c0.7,0.4,1.2,1,1.9,1.2c2.6,1,4.9,2.6,7.2,4.2c2.7,1.9,5.6,3.5,8.4,5.2c1,0.6,1.9,1.4,3.1,2.3
		c0.6,0,1.2,0.2,1.8,0.7C50.9,45.6,52.5,47.2,53.8,46.1C53.8,46.2,53.8,46.1,53.8,46.1z"/>
	<path id="leftEar2" d="M24.1,41c-0.4,3.2-0.1,6.3,0.4,9.4c1.1,6.8,2.1,13.6,5.1,19.9c0,0.1,0.1,0.1,0.1,0.2
		c0.4,0.6,0.9,1.1,1.5,1.5c0.8,0.5,2.5,1.5,3.5,0.9c1.2-0.7-0.3-3.4-1-4.1c-0.2-0.2-0.3-0.3-0.4-0.5l-0.1,0
		c-0.6-1.6-1.2-3.1-1.6-4.8c-0.9-3.4-1.8-6.8-2.4-10.2c-0.7-4.3-1.2-8.7-0.7-13.1c0.2-1.7-0.2-3.5-0.1-5.2c0.1-2.1,0.4-4.2,0.6-6.2
		c3.6,0,23.2,13.6,24.9,17c0.3,0.4,0.7,0.8,1,1.1c0.9,0.6,1.8,1.2,2.8,1.5c2.4,0.6,0.7-2.7-0.2-3.9c-0.2,0-0.5-0.1-0.6-0.2
		c-2.5-2-4.9-4-7.3-6.2c-3.6-3.3-7.6-5.9-11.8-8.4c-3.3-1.9-6.6-3.7-10.1-5.2c-0.9-0.4-2.3,0.1-3.4,0.2c-0.1,0-0.3,0.3-0.3,0.4
		c-0.1,2.7-0.2,5.5-0.2,8.2C23.9,35.8,24.4,38.4,24.1,41z"/>
	<path id="leftEar1" d="M32,67.2c-0.4-0.7-0.7-1.6-1-2.4c-1.6-4.1-3.2-8.2-4.6-12.4c-0.9-2.8-1.5-5.8-2.3-8.7
		c-1.2-4.1-1.8-8.3-1.7-12.6c0.1-1.9,0-3.8,0.2-5.7c0.2-2.1,0.9-4.3,2.8-5.5c2.1-1.4,4.6-1.8,7-1.2c2.5,0.7,4.9,1.8,7.2,3
		c4.6,2.2,9.2,4.4,13.6,6.9c3.8,2.1,7.3,4.7,11,7.1c1.1,0.7,1.6,1.4,0.8,2.7c0,0,0,0,0,0c-0.1,0.1,0,0.1,0,0c0,0,0,0,0,0
		c-0.4,0.2-1.7,0.9-1.3,0.8c-0.2,0.1-0.4,0.1-0.6,0.2c-0.7-0.4-1.4-0.6-2-0.6c-0.7-0.6-1.5-1.3-2.3-1.9c-3.3-2.2-6.6-4.5-10.1-6.4
		c-3.3-1.8-6.7-3.4-10.1-4.9c-2.9-1.2-5.8-2.3-8.8-3.3c-1.5-0.5-2,0-2.3,1.5c-0.1,0.5-0.2,1-0.2,1.4c0.1,3.3-0.6,6.7,0.1,10
		c0.9,4.2,1.4,8.6,2.6,12.7c1.1,4,2.8,7.9,4.3,11.8c0.7,1.8,1.4,3.6,2.1,5.4c0.1,0.3,0.2,0.6,0.4,0.8c0,0-0.6,1.7-1.7,2.1
		C34,68.4,32.3,67.4,32,67.2z"/>
</g>
</svg>
