<?xml version="1.0" encoding="utf-8"?>
<!-- Generator: Adobe Illustrator 18.1.1, SVG Export Plug-In . SVG Version: 6.00 Build 0)  -->
<!DOCTYPE svg PUBLIC "-//W3C//DTD SVG 1.1//EN" "http://www.w3.org/Graphics/SVG/1.1/DTD/svg11.dtd">
<svg version="1.1" id="Layer_Group" xmlns="http://www.w3.org/2000/svg" xmlns:xlink="http://www.w3.org/1999/xlink" x="0px"
	 y="0px" viewBox="0 0 512 512" enable-background="new 0 0 512 512" xml:space="preserve">
<g id="Layer_0">
	<g id="fill_0">
		<path fill="#E8E8E8" d="M211.5,108.4c-0.6-0.9-1.3-1.3-2.1-1.6c-1.2-3.6-5.9-7.2-7.9-10c-4.5-6-8-12.4-13.6-17.7
			c-6.1-5.7-13.1-10.7-19.7-16.1c-2.8-2.2-5.6-4.5-8.5-6.5c-3.1-2.1-6.6-3.2-9.7-5.2c-5.4-3.3-11.5-7.7-16.7-1.4
			c-4.5,5.5-4.6,15.2-5,22c-0.6,8.7,0.2,17.2,1.8,25.8c0.7,4.1,5.1,22.4-2.8,21.6c-4.5-0.5-6.3,5.7-3.5,8.6c3.4,3.6,4.8,7.4,6,12.1
			c0.7,2.5,2,4.8,4,6.2c-0.9,0.3-1.9,0.4-2.9,0.3c-4.5-0.2-6.4,5.6-3.5,8.6c1.2,1.3,1.5,4.4,2.2,6c0.6,1.5,1.3,2.9,2,4.3
			c2.1,4.1,4.2,8.2,6.3,12.2c3.5,6.9,6.2,12.7,14.2,14.8c6.9,1.6,14,4.1,21.1,2.7c7.8-1.5,16.4-4.1,23.6-7.4
			c13.6-6.1,19.9-21,22.1-34.8C221.5,137.5,221.4,121.2,211.5,108.4z"/>
		<path fill="#E8E8E8" d="M389.1,44.8c-2.8-2.4-6.4-1.4-9.4-0.4c-7.9,2.5-15.3,8-22.3,12.3c-7.4,4.7-14.8,9.6-21.7,15.1
			c-13.7,10.6-26.1,23-35.6,37.6c-0.6,1-0.9,2-0.8,2.9c-1.7,1.6-3.3,3.3-4.8,5c-0.1,0-0.1,0.1-0.2,0.1c-12,8.5-15.6,28.4-9.4,41
			c6.6,13.4,19.7,23.2,33.2,28.9c15,6.3,31.3,6.2,43.5-5.2c11.4-10.5,19-24.1,23.1-38.9c1.1-4.1-3.7-6.2-7-5.4
			c0.2-0.3,0.3-0.7,0.5-1c1.8-3.7,4.5-6.9,7.6-9.5c1.9-1.6,2.8-4.9,0.9-7c-1.1-1.2-2.1-2.1-3.7-2.7c-0.6-0.2-3-1.1-3.5-0.5
			c0-1.4,1-3.5,1.2-4.4c0.6-2.2,1-4.5,1.2-6.9c0.2-2.1-0.4-4.4-0.2-6.4c0.2-2.2,1.3-3.4,2.4-5.5c1.8-3.7,2.6-7.9,3-12
			c0.7-9.4-0.6-18.5,2.8-27.7C390.9,51.3,392.4,47.5,389.1,44.8z"/>
	</g>
	<g id="line_0">
		<path d="M393,65.4c-1.1,1.6-1.3,3.5-1.6,5.5c-0.6,5-1.3,10.2-1.9,15.2c-0.1,0.9-0.2,1.9,0.3,2.7c1.2,2,4.3,0.9,6.4-0.3
			c5.6-3.1,12.2-4.2,18.6-3.2c2,0.3,1.8,3.5,0.1,4.5c-1.7,1-4,0.6-5.8,0.4c-12.4-1.3-25,8.9-25.9,21.3c-0.1,0.9,0,2.1,0.7,2.6
			c0.9,0.7,2.2,0.3,3.3-0.2c7.9-3.3,16.9-4.3,25.4-2.9c0.8,0.1,1.6,0.3,2.1,0.9c1,1.1,0.1,3.1-1.2,3.7c-1.4,0.6-3,0.4-4.5,0.2
			c-4.8-0.6-9.6-0.5-14.5,0.3c-1.3,0.2-2.8,0.7-2.9,2c-0.9,7-4.3,13.5-9.5,18.2c3-1.4,6.5,1.6,7.1,4.8c0.4,3.2-1.1,6.3-2.7,9.2
			c-7.1,13.2-14.6,26.7-26.9,35.1c-1.6,0.2-2.6-1.8-2.2-3.3s1.7-2.6,2.9-3.6c10.4-8.8,18.3-20.1,22.9-33c0.2-0.7,0.5-1.5,0.2-2.1
			c-1-2.4-6-0.2-6.6-2.6c3.1-5.9,6.1-11.8,9.2-17.7c-4.3-3.2-10.5-2.6-15.4-0.5c-5,2-9.4,5.4-14.6,7.1c-1.8,0.6-4.7,0.2-4.4-1.7
			c5.7-4.6,13.3-6.3,19.8-9.9c6.5-3.5,12.5-10.2,11-17.4c-0.1-0.5-0.3-1-0.6-1.4c-0.9-1-2.6-0.5-3.9,0.1c-10.6,4.9-21,10.5-31,16.8
			c-1.1,0.7-2.6-0.9-2.4-2.1c0.2-1.3,1.4-2.2,2.5-2.9c9.7-6.5,20.1-12,31.2-16.1c8.6-3.2,10-14.5,9.9-23.6c0-0.6,0-1.2-0.4-1.6
			c-0.7-0.7-1.9-0.3-2.8,0.1c-19.3,10-35.9,25-47.4,43.2c-0.6,0.9-2.2,0.3-2.5-0.7c-0.3-1.1,0.3-2.2,0.7-3.1
			c8.1-14.1,20-26.4,34.1-34.8c4.6-2.8,9.6-5.4,13.6-9.1c4-3.9,6.9-9.2,5.8-14.6c-0.5-2.6-2.4-5.4-4.9-5.6c-1.3-0.2-2.7,0.3-4,0.9
			c-16.2,6.6-28.9,19.7-38.1,34.5s-15.2,31.2-21.1,47.5c5.6-1,10.8-3.7,15-7.6c1.1-1.1,3.1,0,3.5,1.5c0.3,1.5-0.4,3-1.1,4.3
			c-2.4,4.4-4.7,8.9-7.1,13.4c-0.9-4,0-8.2,2.4-11.6c-5.8,2.4-11.2,5.8-15.7,10.2c-2.1-1.3-1.8-4.4-1.1-6.9
			c6.1-22.4,16-43.7,28.8-63.1c-20.2,15-37.8,33.5-51.6,54.5c-1.6,2.5-5.8,4.9-6.9,2.1c22.9-35,55.1-64.1,92.4-83.2
			c1.8-0.9,3.7-1.8,5.7-1.8c3.5,0.1,6.3,3.1,7.3,6.4c0.9,3.3,0.3,6.9-0.6,10.2c1.9,2.6,6,1.2,8.9-0.3c9-4.7,18.5-8.4,28.4-10.8
			c2.5-0.6,6.6,0.3,5.7,2.7c-0.4,1.2-1.9,1.6-3.2,1.9c-11.9,2.4-23.4,6.6-34,12.5C395.7,62.9,394,63.9,393,65.4z"/>
		<path d="M146.9,109.2c5,1.6,9.9,4,14,7c2.4,1.7,4.6,5.6,2,7.1c-7.3-5.2-15.3-9.4-23.8-12.4c-2.4-0.9-6-0.7-6.1,1.8
			c-0.1,4.3-4.1,8.2-8.6,8.1c-1.7,3.6,1.5,8,5.5,9.1c3.9,1.2,7.9,0.1,12-0.6c4-0.9,8.4-1.2,11.8,1c-4.7,7.1-18.1,0.3-23.5,6.9
			c1.9,2.4,3.9,4.8,4.1,7.7c0.3,2.9-1.8,6.3-4.8,6.1c-2.1-0.1-2.2,3.1-1.5,5c2.9,7.6,7,15,12,21.4c2.9,3.7,6.2,8.6,4.1,12.6
			c-9.4-8.7-14.7-20.8-19.7-32.6c-1.1-2.7-2.4-5.6-1.8-8.5c0.5-2.9,3.5-5.6,6.2-4.5c0.6-4.2-3.9-7.7-8.1-7.9
			c-4.3-0.2-8.4,1.8-12.2,3.5c-4,1.6-8.6,2.9-12.4,1.2c6.6-5.1,14.9-8.2,23.2-8.6c3.6-0.2,3.2-5.7,1.5-8.9c-1.7-3.2-2.5-8.7,1.1-9.1
			c1.7-0.2,3.4,1.1,5.1,0.9c2.2-0.4,2.9-3.5,1.7-5.5c-1.2-1.9-3.4-2.8-5.6-3.5c-9.2-3-19-4.2-28.7-3.5c-1.9,0.1-2.5-3.1-1-4.3
			c1.5-1.2,3.7-1,5.6-0.7c9.5,1.4,19.1,2.8,28.6,4.3c0.4-7.7-0.1-17.1-7-20.9c-10.2-5.6-21.2-9.5-32.7-11.7
			c-1.3-0.2-1.4-2.4-0.4-3.1c1-0.9,2.5-0.9,3.7-0.7c9.5,1,18.7,4.5,26.6,10.1c2.7,2,6.9-0.3,8.1-3.4c1.3-3.1,0.9-6.6,0.7-10.1
			c-0.2-4.2,0.4-8.7,2.6-12.2c2.2-3.6,6.4-6.2,10.5-5.7c2.2,0.3,4.2,1.4,6.2,2.5c26.1,14.8,49.1,35,67.1,59
			c2.8,3.7,5.5,9.1,2.2,12.5c-16.1-26-38.5-47.8-64.7-63.6c14.6,21.6,25.7,45.6,32.9,70.6c1,3.5,1.4,8.4-1.8,10
			c-2.9,1.4-6.1-0.9-9.1-1.8s-7.7,1.3-6.2,4.1c2.2,4.1,2.9,10.9-1.7,12.1c-1.9,0.5-3.9-0.4-5.8-0.7c-1.9-0.3-4.4,0.3-4.8,2.2
			c1.9,2.6,3.9,5.4,5.7,7.9c2,2.8,0,7.2-3.2,8.6c-3.1,1.5-6.9,1-10.3,0.5c-1.9-0.5-0.6-3.7,1.3-4.2c2-0.5,4.3-0.1,5.7-1.5
			c1.9-2,0.2-5.2-1.7-7.2c-2-1.9-4.4-4.1-3.9-6.9c0.5-2.4,3.3-3.6,5.8-3.7c2.5-0.1,5,0.2,7.3-0.7c2.4-0.9,4-4.1,2.2-5.9
			c-2.2-2.4-2.1-6.5,0.2-8.8c2.4-2.4,6.4-2.4,8.8-0.3c2.5,2.2,7.3,0.7,7.9-2.6c0.6-3.3-3.1-6.6-6.2-5.6
			c-10.4-13.5-24-24.6-39.3-32.2c-0.9-0.5-2-0.9-2.9-0.6c-1.7,0.6-1.8,3-1.5,4.8c0.5,3.2,1.1,6.5,3,9.1
			C136,106.4,141.8,107.6,146.9,109.2 M166.5,106.5c2.6,2.7,5.1,5.6,8.5,7.2c-6.6-20.8-16.6-40.4-29.5-58c-2.4-3.3-6.1-7-10-5.6
			c-3,1.1-4.1,4.6-4.8,7.7c-0.7,3.5-1.4,7.1-1.9,10.5c-0.6,4-1,8.1,1.1,11.6c2,3.3,5.7,4.9,9.1,6.6
			C149.3,91.8,158.6,98.4,166.5,106.5z"/>
		<path d="M354,156.5c-2.4-1.3-5.6-1-7.7,0.7c-1.8,1.5-4.8,0.3-5.8-1.8c-0.9-2.1-0.3-4.6,0.9-6.6c0.9-1.7,2.2-3.7,1.2-5.4
			c-0.9-1.4-3-1.4-4.6-0.9c-1.5,0.6-2.9,1.8-4.5,2.1c-1.6,0.4-3.9-0.5-3.9-2.2c5-3.3,10.7-5.6,16.7-6.5c0.5-0.1,1.1-0.2,1.6,0
			c1.9,0.6,1.4,3.5,0.5,5.4c-1.7,3.3-3.3,6.6-5,10c-0.5,1,1.3,1.5,2.4,1.2c3.6-0.9,7.3-1.8,10.8-2.8c1.8-0.5,3,2.2,2.1,3.9
			c-0.9,1.6-2.9,2.2-4.7,2.7c1.1,0.9,1.2,2.4,0.8,3.7c-0.4,1.4-1.2,2.5-1.4,3.9c-0.2,1.1,0.1,2.2-0.3,3.2c-0.3,1-1.6,1.9-2.5,1.3
			c-0.4-0.3-0.6-0.9-0.7-1.3C349.2,163,350.8,158.7,354,156.5z"/>
	</g>
</g>
<g id="Layer_1">
	<g id="fill_1">
		<path fill="#E8E8E8" d="M118.6,84.4c1.1,7.3,2.4,14.8,4.1,22.1c3,14.1,7.3,28,13,41.1c4.7,11,9.6,24.4,20.5,30.9
			c22.9,13.5,53.1,3.9,68.4-16.8c16.6-22.5,3.7-50.1-14.6-66.7c-0.9-0.9-2-1.3-3-1.3c-18.5-18-41.1-33.9-65.4-42.1
			c-5.4-1.8-12.2-3.6-17.4-0.5c-4.5,2.7-6.6,8.2-7.2,13.2C115.9,70.9,117.5,77.8,118.6,84.4z"/>
		<path fill="#E8E8E8" d="M395.1,64.3c-0.6-5-2.7-10.5-7.3-13.2c-5.1-3.1-12.1-1.3-17.4,0.5c-24.2,8.2-46.8,24.1-65.4,42.1
			c-1,0.1-2,0.5-3,1.3c-18.4,16.6-31.2,44.2-14.6,66.7c15.1,20.6,45.4,30.1,68.4,16.8c10.8-6.4,15.7-19.8,20.5-30.9
			c5.7-13.3,10-27,13-41.1c1.6-7.3,2.8-14.7,4.1-22.1C394.4,77.8,395.9,70.9,395.1,64.3z"/>
	</g>
	<g id="line_1">
		<path d="M118.6,72.7c4.1,34.1,10.4,69.7,32.5,95.9c2.5,3,5.4,6.1,5.8,10c-11.7-5.1-18.4-17.2-23.4-29
			c-10.6-25.3-17.1-52.3-19.1-79.6c-0.6-9.1,0.9-20.7,9.4-23.6c4.9-1.7,10.3,0.2,15.1,2.2c33,13.7,65.2,32.9,86,62
			c1.5,2.1,2.4,6.1-0.3,6.6c-22-29.5-52.9-52.1-87.6-64c-4-1.3-8.2-2.5-12-0.9C118,55.4,117.6,65.2,118.6,72.7z"/>
		<path d="M173.3,120.8c-2.5-4.1-5-8-7.5-12c-0.5-0.9-1-1.7-0.9-2.6c0.3-2.1,3.4-2.2,5.5-1.4c5.5,1.9,10.5,4.9,14.6,8.8
			c1.1,1,2.6,2.1,3.9,1.3c-10.7-19.3-25.8-36.2-43.9-49.1c-2.2-1.6-4.5-5-2.2-6.4c22.7,13.6,40.8,34.7,50.6,59.2
			c0.6,1.6,1.2,3.3,0.6,4.9s-3,2.4-4.1,1.1c-4.6-6-10.8-10.8-18-13.6c2.9,3.7,4.2,8.8,3.5,13.5c-0.1,0.6-0.2,1.3-0.6,1.7
			c-2.7,3.5-8.9-5.6-11.7-2.1c4.4,5.1,7.5,11.4,9.3,17.9c0.6,2.4,0.2,5.9-2.4,5.9c-5.5-3.7-3-12.5-6.7-17.9c-1.4-2-3.5-3.4-5-5.4
			c-1.5-1.9-2.1-5-0.3-6.6C162,114.4,168.4,123.8,173.3,120.8z"/>
		<path d="M386.9,52.5c-3.9-1.6-8.1-0.4-12,0.9c-34.7,12-65.7,34.6-87.6,64c-2.6-0.4-1.8-4.4-0.3-6.6c20.9-29.1,53-48.3,86-62
			c4.8-2,10.2-4,15.1-2.2c8.7,3,10.1,14.5,9.4,23.6c-1.9,27.3-8.4,54.2-19.1,79.5c-5,11.8-11.8,23.9-23.4,29c0.5-4,3.3-7.1,5.8-10
			c22.1-26.2,28.3-61.9,32.5-95.9C394.2,65.2,394,55.4,386.9,52.5z"/>
		<path d="M353.9,118.1c1.8,1.7,1.2,4.7-0.3,6.6s-3.7,3.3-5,5.4c-3.7,5.4-1.3,14.2-6.7,17.9c-2.4,0.1-2.9-3.5-2.4-5.9
			c1.7-6.5,4.9-12.6,9.3-17.9c-2.7-3.5-8.9,5.6-11.7,2.1c-0.4-0.5-0.5-1.1-0.6-1.7c-0.7-4.7,0.6-9.7,3.5-13.5
			c-7.2,2.7-13.5,7.4-18,13.6c-1,1.3-3.4,0.5-4.1-1.1c-0.6-1.6,0-3.3,0.6-4.9c9.7-24.6,27.9-45.9,50.6-59.2c2.4,1.4,0,4.9-2.2,6.4
			c-18,12.9-33,29.8-43.9,49.1c1.2,0.9,2.7-0.3,3.9-1.3c4.2-4,9.1-7,14.6-8.9c2-0.7,5.1-0.7,5.5,1.4c0.1,0.9-0.4,1.8-0.9,2.6
			c-2.5,4.1-5,8-7.5,12C343.4,123.8,349.8,114.4,353.9,118.1z"/>
	</g>
</g>
<g id="Layer_2">
	<g id="fill_2">
		<path fill="#E8E8E8" d="M383.9,71c-0.4-4.5-1.8-9.3-5.6-12.1c-0.7-1.9-2.7-3.4-5.4-2.8c-17.9,4.3-31.9,17.1-45,28.4
			c-9.5,8.3-18.5,17.4-24.3,28c-1.9,1.3-3.7,2.7-5.2,4.3c-0.5,0.7-1,1.4-1,2.1c-4.4,6.8-8.8,14.7-9.8,22.4c-1.1,8,4.8,15.1,8.8,21.9
			c4.4,7.5,11.8,9.7,20.1,12.1c8.8,2.6,17.9,4.4,26.9,2.4c9.5-2.2,14.9-8.1,19.4-15.5c4.8-7.7,9.4-16,12.2-24.6
			c0.3-0.9,0.6-2,0.8-2.9c6-10.6,7.2-23.2,8.1-35.5C384.5,89.8,384.6,80.3,383.9,71z"/>
		<path fill="#E8E8E8" d="M127,96.7c0.7,12.3,1.9,24.9,8,35.5c0.3,1,0.6,2,0.8,2.9c2.8,8.5,7.4,16.8,12.2,24.6
			c4.5,7.3,9.9,13.5,19.4,15.5c9,2.1,18.2,0.4,26.9-2.3c8.3-2.5,15.7-4.7,20.2-12.1c4.1-6.7,10-13.9,8.8-21.9
			c-1.1-7.8-5.3-15.7-9.7-22.4c-0.1-0.7-0.4-1.4-1-2.1c-1.6-1.6-3.3-3.1-5.2-4.3c-5.8-10.7-14.7-19.8-24.2-28.1
			c-13.1-11.3-27-24.2-44.9-28.5c-2.7-0.6-4.8,0.9-5.4,2.8c-3.7,2.8-5.2,7.7-5.6,12.1C126.3,77.8,126.4,87.3,127,96.7z"/>
	</g>
	<g id="line_2">
		<path d="M352.4,175c-0.4-0.7-0.9-1.2-1.3-1.8c13.9-12.6,22.4-29.4,26.7-46.7c4.5-17.3,4.9-35.2,4.6-53c-0.1-5.6-1.1-12.6-6.8-14.9
			c-4.9-2-10.4,0.5-14.9,3.1c-28.7,16.4-52.2,39.9-67.2,67.4c-0.7,1.1-2.7,0.6-3-0.6c-0.4-1.1,0.2-2.4,0.8-3.4
			c15.5-27,39-49.9,67.4-66.2c6.1-3.6,14.2-6.7,20.4-3.4c5.9,3.2,7,10.4,7.2,16.6c1.1,31.2-2.6,63.7-20.2,90.8
			C362.8,167.8,358.6,172.9,352.4,175z"/>
		<path d="M145.6,161.9c-17.5-27-21-59.6-19.9-90.9c0.2-6.2,1.3-13.5,7.3-16.6c6.4-3.3,14.2-0.1,20.3,3.4
			c28.3,16.2,51.8,39.4,67.2,66.4c0.7,1,1.2,2.3,0.8,3.4s-2.4,1.7-3,0.6c-15-27.4-38.5-51.1-67-67.5c-4.5-2.5-10-5.1-14.9-3.1
			c-5.8,2.3-6.8,9.1-6.9,14.9c-0.4,17.9,0.2,35.7,4.5,53c4.4,17.3,12.7,34.2,26.6,46.8c-0.4,0.7-0.9,1.2-1.3,1.8
			C153,172.2,149,167,145.6,161.9z"/>
		<path d="M339.3,118.2c0.5,5.5,0.2,11-1,16.3c4-2.6,8.5-4.4,13.3-5.3c-3.3,6.4-5.4,13.4-6.1,20.6c-2.8,0-3.8-3.6-2.8-6.1
			c0.9-2.4,2.5-5,1.5-7.4c-2.7,1.2-5.3,2.7-7.5,4.6c-1.9-3.4-2.2-7.6-0.8-11.1c0.8-2-3-3.2-4.9-2c-2,1.2-3.1,3.4-4.9,4.7
			c-1.9,1.2-5.8,0.2-5.1-1.9c4.2-13.6,10.7-26.4,17.8-38.9c5.5-9.6,12-19.8,22.8-24.3c1.7,0.8,0.3,3.1-1.1,4.4
			c-17.2,14.4-26.2,34.8-34.7,54.5c-0.7,0.6,1,0.9,1.7,0.4C331.4,123.6,335.3,120.9,339.3,118.2z"/>
		<path d="M158.8,149.5c-1.9-2-3.6-3.8-5.4-5.8c-1.3-1.5-2.8-3.3-2-5c1.7-3.7,8.9-0.4,11.9-3.4c-2.2-4-4.4-8-6.6-12
			c-0.3-0.6-0.7-1.2-0.6-1.9c0.2-2.4,4.2-2.2,6.6-1.2c5.6,2.2,11.1,4.5,16.7,6.8c-2.2-20.8-11.9-40.8-27.2-56.5
			c-0.5-0.5-1-1.1-0.7-1.7c0.4-1,2.1-0.6,3,0c6.4,3.9,10.7,10,14.2,16.3c7.1,12.3,12,25.9,14.3,39.7c0.3,2,0.6,4.3-0.9,5.9
			c-2.6,2.6-7.3,0.6-10.2-1.6c-2.9-2.3-6.8-5-10.1-3.4c2.5,3.2,4.2,6.8,5.2,10.6c0.4,1.5,0.5,3.2-0.8,4.2c-2.4,1.8-7.1-1.2-8.9,1.1
			c2,2.9,3.9,5.9,5.9,8.7C162.9,151.8,160.1,150.7,158.8,149.5z"/>
	</g>
</g>
<g id="Layer_3">
	<g id="fill_3">
		<path fill="#E8E8E8" d="M197.7,92c-8-8.2-16.2-16.1-25.5-23c-7.4-5.4-18.9-14.9-29-10.9c-2.2,0-4.3,1.1-4.5,3.6
			c-2.1,17.8-2.2,36.1-0.4,54.1c0,0.1,0.1,0.1,0.1,0.2c0.3,7.3,1.6,14.6,3,22c2,10.1,4,20.2,7.5,30.1c2.9,8.5,11,15,20.3,19.6
			c9.5,4.7,19.7,5.5,29.4,2.2c9.9-3.4,17.4-8.4,22-17.1c4.4-8.3,6-18.4,6.1-27.6C226.4,123.6,212.6,107.3,197.7,92z"/>
		<path fill="#E8E8E8" d="M386.3,96.9c0.5-12.3,1.6-25.3-2.4-37.2c-1.5-4.4-4.2-8.7-10.2-7.2c-6,1.4-12.1,6.5-17,9.7
			c-18.3,11.8-35,26.1-45.6,43.6c-7.4,8.4-10.5,18.9-11.3,29.4c-0.8,10.8-1,23.2,5.6,32.6c6.3,8.9,17.6,13.9,29,15.7
			c12.6,2.2,23.3-2.5,29.8-12.3c3.3-4.9,5-10.1,6.9-15.5c2.6-6.9,6-13.5,8.5-20.4C384.5,122.9,385.8,110,386.3,96.9z"/>
	</g>
	<g id="line_3">
		<path d="M212.7,104.8c-15.3-17.4-31.2-35.2-52.7-46.3c-4.2-2.2-8.9-4.2-14-4c-5.1,0.2-10.1,3.2-10.7,7.6
			c-3.6,28.6-1.8,57.7,4.9,85.9c2.8,11.8,4.7,19.3,9.5,26.7c0.1,0.1,0.2,0.2,0.2,0.3c0.3,0.4,0.6,0.8,0.9,1.3c0.8,0.7,2,1.3,2.8,1.5
			c2,0.4,1.9-1.6,1.6-2.9c0-0.1-0.1-0.1-0.1-0.2c-2.5-3.6-4.3-7.8-5.8-12c-10.9-30-14.5-62.1-10.5-93.5c0.5-4,1.8-8.7,6.2-10
			c1.9-0.6,4-0.2,5.9,0.3c11.5,3,20.7,10.5,29.2,18.1c11.5,10.4,22.3,21.2,32.6,32.6C215.1,109.8,214.1,106.5,212.7,104.8z"/>
		<path d="M357.2,178.9c-1.3-2.4,0.7-5.1,2.4-7.2c18-21.7,22.2-49.9,24.7-76.6c1.1-12.2,2-25-3.5-36.2c-1.1-2-2.3-3.9-4.7-4.4
			c-2-0.3-3.8,0.7-5.4,1.6c-25.7,14.9-47.5,35.1-63.2,58.5c-0.5,0.9-2,0.4-2.5-0.4c-0.4-0.8-0.1-1.7,0.3-2.5
			c5.8-13.9,18.3-24.6,30.3-34.9c10.4-8.9,20.8-17.7,33-24.5c3.7-2,8.3-3.9,11.9-2c3.2,1.5,4.2,5.2,4.8,8.5
			c6.2,34,1.7,69.5-13.1,101.4C369.2,167.4,365,174.9,357.2,178.9z"/>
		<path d="M159.7,138c-0.2-1,0.5-2.1,0.7-3c0.3-1,0.1-2.3-1-2.7c-2.8-0.8-4.2-4-3-6.4c1.2-2.4,4.5-3.6,7.4-3.3c2,0.2,2.6-2.5,1.5-4
			c-1.1-1.5-2.9-2.8-3.2-4.5c-0.3-2.7,3.6-4.3,6.8-3.7c3,0.4,5.7,2.2,8.6,2.7c-5.2-15.9-14.2-30.9-26.2-43.7c-0.8-1,0.5-2.3,1.7-2.2
			s2.2,1,3,1.9c11.3,12.1,20,26.5,24.9,41.6c1.1,3.4,2,7.7-1,10.2c-3.6-2.5-7.9-4.3-12.6-5.2c1.1,3.3,2.4,6.8,3.5,10.1
			c-1.5,1.3-4,0.8-6.1,1c-2.1,0.2-4.4,2.3-2.8,3.7c1.5,1.2,3,2.6,3.6,4.4c0.6,1.8,0.3,3.9-1.3,4.9C163,140.5,160.1,139.9,159.7,138z
			"/>
		<path d="M336.6,102.4c0.9-6.6,4.9-12.4,8.8-18c5.1-7.2,10.4-14.6,18.2-19.8c1.7,1.4,0.2,3.9-1.3,5.5
			c-9.6,10.4-17.7,22.1-23.8,34.6c1.5,0.5,3.2-0.1,4.5-0.9c1.4-0.7,2.8-1.5,4.4-1.4c1.6,0.1,3,1.9,2,3c-1.7,1.8-3.5,4-2.9,6.3
			c0.5,2.3,4.7,3.5,5.8,1.4c1.6,1.1,1.3,3.2,1,5c-0.7,3.8-1.5,7.7-2.2,11.4c-0.3,1.5-1.2,3.6-2.9,3.2c-2.6-2.8-2.6-7-0.3-9.9
			c0.8-1-0.4-2.5-1.7-2.6c-1.3-0.1-2.6,0.5-3.9,1.3c-1.9-1-1.8-3.5-0.8-5.3c1-1.8,2.5-3.5,2.3-5.5c-0.3-1.9-3.8-3.3-4.6-1.4
			c-0.5,1.3-2.5,1.9-3.9,1.2c-1.3-0.7-1.5-2.5-0.5-3.6C336.4,105.9,336.4,104,336.6,102.4z"/>
	</g>
</g>
<g id="Layer_4">
	<g id="fill_4">
		<path fill="#E8E8E8" d="M286.7,165.7c5.2,21.5,25.5,45.3,49.3,44.5c12.6-0.4,21.6-9,28.1-19.2c7.3-11.6,12.3-24.5,16.6-37.5
			c8.9-27.2,13.5-55.5,13.6-84c0-0.5-0.1-0.9-0.1-1.3c0.5-3.1-1.4-6.4-5.2-5.6c-0.4,0.1-0.8,0.2-1.1,0.3l-0.1-0.1
			c-1-0.9-2.4-1.2-3.7-1.1c-1.4,0.1-2.5,0.9-3.3,1.8c-0.4,0.4-0.6,0.9-0.9,1.5c-23.6,6.4-45.9,17.4-65,32.6
			c-10.7,8.5-19.6,17.1-23.8,30.5C287,140,283.6,153,286.7,165.7z"/>
		<path fill="#E8E8E8" d="M219.7,129.3c-4-13.5-12.5-22.3-23.1-31.1c-18.9-15.6-40.8-27-64.2-34.1c-0.2-0.6-0.4-1.1-0.9-1.5
			c-0.9-1-2-1.8-3.3-1.9c-1.3-0.1-2.7,0.1-3.7,1l-0.1,0.1c-0.4-0.1-0.7-0.2-1.1-0.3c-3.9-0.9-5.7,2.4-5.4,5.5
			c-0.1,0.4-0.2,0.9-0.2,1.3c-0.5,28.6,3.3,57,11.6,84.3c4,13.1,8.8,26.1,15.6,37.8c6.1,10.4,14.9,19.2,27.5,19.9
			c23.7,1.3,44.6-22,50.4-43.4C226.4,154.5,223.2,141.5,219.7,129.3z"/>
	</g>
	<g id="line_4">
		<path d="M396.8,69.6c0.2,24.3-4.5,48.3-10.5,71.8c-5.7,22.4-13.3,45.2-28.9,62.1c-1.5,1.7-3.9,3.4-5.8,2.5
			c26.6-38.7,41.1-85.4,41.5-132.4c0-2.6-0.2-5.6-2.4-7.1c-1.7-1.1-4.1-0.7-6-0.2c-31.4,7.4-60.6,24.1-82.9,47.4
			c-1.5-0.1-2.4-1.8-2.1-3.2c0.3-1.4,1.4-2.5,2.4-3.6c23.1-22.5,52.4-38.6,83.8-45.9c2.9-0.7,6.3-1.2,8.7,0.9
			C396.5,63.7,396.8,66.9,396.8,69.6z"/>
		<path d="M347.2,135.1c1.1-3.5,4.2-6.1,7.2-8.5c-3.5-4.8-10.9-3.2-16.5-1.1c-1.5,0.6-3.1-0.9-3.3-2.5c-0.2-1.6,0.6-3.1,1.3-4.5
			c9.3-16.9,22.6-31.9,38.2-43.3c0.9-0.6,1.7-1.2,2.7-1.1s1.8,1.4,1.1,2.2c-10.5,10.7-21,21.5-31.4,32.2c-1.6,1.7-3.4,3.5-3.7,5.9
			c-0.3,2.4,1.8,5,4.1,4.4c3-0.9,6.1-1.6,9.1-0.9s5.6,3.9,4.7,6.9c-1.1,3.9-7,5.4-6.9,9.2c0,2.2,2,4,4.1,4.8c2,0.9,4.3,1.5,5.9,3
			s2.4,4.4,0.5,5.8c-5.1,4.1-10.5,7.8-15.9,11.5c0.2-5.6,3.7-10.8,8.8-13.3c0.4-1.1-0.9-2.2-2-2.4c-1.2-0.2-2.4,0.2-3.6,0.1
			C348,143.4,346,138.7,347.2,135.1z"/>
		<path d="M158.4,143.7c-1.2,0.1-2.4-0.3-3.6-0.2c-1.2,0.2-2.4,1.2-2.1,2.4c4.9,2.5,8.2,7.8,8.4,13.5c-5.4-3.7-10.5-7.7-15.5-11.9
			c-1.7-1.4-1-4.4,0.7-5.8c1.7-1.4,4.1-1.9,6-2.8c2-0.9,4.1-2.5,4.1-4.7c0.1-4-5.7-5.7-6.6-9.4c-0.9-3,1.9-6,4.9-6.7s6.1,0.2,9,1.1
			c2.4,0.7,4.4-2,4.1-4.3c-0.2-2.4-1.9-4.2-3.5-6c-10.2-11-20.4-22-30.6-33c-0.7-0.7,0.1-2,1.1-2.1s1.9,0.5,2.7,1.1
			c15.4,11.8,28.3,27,37.3,44.1c0.7,1.4,1.5,2.9,1.2,4.5c-0.2,1.6-1.9,3-3.3,2.4c-5.6-2.2-12.9-4.1-16.5,0.7c2.9,2.4,5.9,4.9,7,8.6
			C164.2,138.8,162.2,143.5,158.4,143.7z"/>
		<path d="M117.7,60.9c2.4-1.9,5.8-1.3,8.8-0.6c31.3,8,60.2,24.9,82.7,47.9c1,1,2.1,2.2,2.4,3.6s-0.7,3.2-2.1,3.2
			c-21.7-23.8-50.6-41.1-81.9-49.3c-2-0.5-4.2-1-6,0.1c-2.2,1.3-2.5,4.4-2.6,7.1c-0.9,46.9,12.7,94,38.4,133.3
			c-2.1,0.9-4.3-0.9-5.8-2.6c-15.2-17.4-22.2-40.4-27.5-62.9c-5.6-23.6-9.6-47.8-8.8-72C115.1,65.8,115.6,62.7,117.7,60.9z"/>
	</g>
</g>
<g id="Layer_5">
	<g id="fill_5">
		<path fill="#E8E8E8" d="M293.9,139.2c0,10.1,3.1,22.5,8.4,31.3c10,16.8,34.4,22,52.2,18.2c4.9-1.1,10.5-2.4,15-4.9
			c4.1-2.4,6-6.1,7.4-10.5c3.5-10.8,5.6-22.4,6.5-33.7c1-11.7,0.7-23.4-0.7-34.8c-1.4-10.6-3-22.4-8.1-32c-1.3-2.4-3.6-2.9-5.6-2.2
			c-0.4,0-0.9,0.1-1.3,0.2c-12,4-22.2,13.2-32.4,20.5c-9.7,7.1-20.4,13.6-29.1,21.9C298.6,119.8,293.8,128.7,293.9,139.2z"/>
		<path fill="#E8E8E8" d="M205.5,112.8c-8.8-8.2-19.4-14.9-29.1-21.9c-10.2-7.3-20.2-16.6-32.4-20.5c-0.4-0.1-0.9-0.2-1.3-0.2
			c-2-0.7-4.3-0.2-5.7,2.2c-5,9.6-6.7,21.4-8.1,32c-1.5,11.6-1.7,23.2-0.7,34.8c1,11.4,3,22.9,6.5,33.7c1.4,4.3,3.3,8.1,7.4,10.4
			c4.4,2.5,10.1,3.9,15,4.9c17.8,3.9,42.2-1.4,52.2-18.2c5.1-8.7,8.2-21.2,8.4-31.3C217.8,128.7,213.1,119.8,205.5,112.8z"/>
	</g>
	<g id="line_5">
		<path d="M304.5,112.5c18.4-17.9,39.3-33,61.9-45c2.5-1.3,5.8-0.3,7.8,1.8c2,2,3,4.8,4,7.5c8.7,26.6,10.5,55.4,5.1,82.7
			c-1.6,8.6-4.3,17.5-11.1,22.8c-0.7-3.7,1.1-7.3,2.6-10.8c12.3-27.7,6.7-59.8,0.4-89.4c-0.7-3.5-2.1-7.7-5.6-8.7
			c-2.4-0.6-4.6,0.5-6.7,1.7c-22,11.9-42.1,27.2-59.1,45.4C300.2,119.8,302,114.8,304.5,112.5z"/>
		<path d="M351.6,123.3c-1.9-2.4-5.8-0.7-8.5,0.9c-2.6,1.6-6.9,2.7-8.2-0.1c-0.6-1.2-0.2-2.6,0.1-3.9c4.6-16.4,15.3-31.1,29.7-40.4
			c1.2,0.5,1.5,2.2,1,3.4c-0.5,1.2-1.6,2-2.6,2.9c-9.3,7.5-16.9,17.5-21.7,28.5c-0.5,1.1-0.7,2.5,0.1,3.3c0.4,0.4,1,0.4,1.6,0.4
			c2.8,0,5.5-1.3,8.1-1.6c2.7-0.3,6.1,1,6.5,3.7c0.4,2.4-1.5,4.3-3.1,6s-3,4.3-1.8,6.3c1.8,3,7,1.1,9.5,3.4c2.6,2.4,0.9,6.6-1.2,9.5
			c-1.2,1.7-2.4,3.4-3.5,5c-2.1,0.6-3.3-2.7-2.4-4.8c1-2,2.9-3.7,3-5.9c-3-0.6-6-1.1-9-1.7c-1.4-0.3-2.9-0.6-3.6-1.9
			c-0.6-1.1-0.2-2.5,0.2-3.7C347.3,129.3,349.3,126,351.6,123.3z"/>
		<path d="M208.2,120.7c-17.1-18.2-37.2-33.5-59.1-45.4c-2.1-1.1-4.4-2.2-6.7-1.7c-3.5,0.9-4.9,5.1-5.7,8.7
			c-6.4,29.7-12,61.7,0.4,89.4c1.5,3.4,3.4,7.2,2.6,10.8c-6.9-5.4-9.5-14.4-11.1-22.8c-5.4-27.4-3.5-56.1,5.1-82.7
			c0.9-2.7,1.9-5.6,4-7.5c2-1.9,5.2-3.1,7.8-1.8c22.6,12,43.6,27.1,61.9,45C209.6,114.8,211.4,119.8,208.2,120.7z"/>
		<path d="M165.7,132.8c0.5,1.2,0.9,2.6,0.2,3.7c-0.7,1.2-2.2,1.6-3.6,1.9c-3,0.6-6,1.1-9,1.7c0,2.2,2,4,3,5.9s-0.2,5.5-2.4,4.8
			c-1.2-1.7-2.4-3.4-3.5-5c-2-2.9-4-7.3-1.2-9.5c2.6-2.4,7.7-0.4,9.5-3.4c1.2-2-0.3-4.5-1.8-6.3c-1.6-1.7-3.5-3.7-3.1-6
			c0.4-2.7,3.9-4.1,6.5-3.7s5.5,1.5,8.1,1.6c0.6,0,1.2-0.1,1.6-0.4c0.9-0.9,0.5-2.2,0.1-3.3c-4.8-11-12.3-20.9-21.7-28.5
			c-1-0.9-2.1-1.7-2.6-2.9c-0.5-1.2-0.2-2.9,1-3.4c14.2,9.3,24.9,24,29.7,40.4c0.4,1.3,0.7,2.7,0.1,3.9c-1.3,2.8-5.6,1.7-8.2,0.1
			c-2.6-1.6-6.4-3.3-8.5-0.9C162.3,126,164.4,129.3,165.7,132.8z"/>
	</g>
</g>
<g id="Layer_6">
	<g id="fill_6">
		<path fill="#E8E8E8" d="M286.4,133.9c-0.6,11.8,1.3,26,7.3,36.2c11.1,19.3,35.9,33.2,58.2,26.6c11.6-3.5,17.7-10.9,21.6-22
			c4.5-12.4,6.4-25.7,7.8-38.8c1.3-12.5,2.6-25,1.7-37.7c-0.9-13-4.1-25.6-8.7-37.7c-1.2-3-4.1-3.4-6.3-2.4
			c-2.8-0.4-4.9,0.7-7.3,2.2c-2.9,1.8-5.8,2.9-9,4.1c-6.5,2.5-12.2,6.6-17.7,10.9c-11.4,8.9-23.8,17.6-34,28
			C291.8,112,287,122.1,286.4,133.9z"/>
		<path fill="#E8E8E8" d="M211.9,103.5c-10.2-10.4-22.6-18.9-34-28c-5.5-4.3-11.1-8.6-17.7-10.9c-3.2-1.2-6.1-2.2-9-4.1
			c-2.4-1.5-4.4-2.6-7.3-2.2c-2.4-1.1-5.1-0.7-6.3,2.4c-4.7,12-7.7,24.7-8.7,37.7c-0.9,12.5,0.4,25.1,1.7,37.7
			c1.4,13.1,3.3,26.4,7.8,38.8c4.1,11,10.2,18.4,21.7,22c22.3,6.7,46.9-7.3,58.2-26.6c5.9-10.3,7.8-24.6,7.3-36.2
			C225.1,122.1,220.3,112,211.9,103.5z"/>
	</g>
	<g id="line_6">
		<path d="M376.6,110.1c4.8-1.7,5.5-8.4,4.9-13.5c-1-10.2-2.8-20.2-5.4-30.1c-0.4-1.4-0.9-3-2.4-3.4c-1.4-0.4-2.7,0.7-3.7,1.7
			c-22,22.4-32.7,53.4-42.6,83.1c-1.5,1-2.4-1.8-2-3.5c7.9-30.7,22.4-59.9,42.2-84.6c-27.6,13.7-52.9,32-74.6,54.1
			c-2-4.1,1.6-8.4,4.9-11.4c19.4-17.2,40.7-32.5,63.3-45.2c4.3-2.4,9.6-4.7,13.8-2.4c3.7,2.2,4.7,7.2,5.4,11.5
			c1.5,11.2,3.1,22.4,4.6,33.6c0.4,2.7,2.4,6.3,4.7,5c7.1-3.6,15.1-5.1,22.9-4.5c0.4,3.3-4.1,4.7-7.4,4.9
			c-5.9,0.4-12.1,1.2-16.8,4.8c-4.6,3.6-6.9,11-3,15.5c0.4,0.5,1,1,1.6,0.9c7.7-1.4,15.6-1.5,23.4-0.2c1.4,0.2,3,0.6,4.1,1.6
			c1,1.1,1.1,3.1-0.2,3.9c-0.7,0.4-1.8,0.2-2.6,0c-4.8-1.2-9.7-1.9-14.7-2.1c-4.8-0.2-10.4,0.4-13.5,4.1s-0.7,11.2,4.1,10.6
			c7-0.9,14.1,0.7,20.1,4.4c1.2,0.9,2.6,2.1,2,3.5s-2.6,1.2-4.1,0.7c-4.8-1.7-9.4-4.3-14.6-4.7c-5.1-0.4-11,2.4-11.9,7.3
			c-1.9,11.9-4.2,24.7-12.9,33c4-13,7.9-25.8,11.9-38.8c-8.8-1.5-18.1-0.3-26.2,3.4c-1.3-1-1-3.2,0.2-4.4c1.2-1.1,2.9-1.5,4.5-1.8
			c4.4-0.9,8.8-1.7,13.3-2.5c2.6-0.5,5.5-1.1,7.4-2.9c2-1.8,2.5-5.5,0.5-7.2c-1.9-1.6-4.8-0.7-7.2,0.2c-7.3,2.8-14.5,5.7-21.7,8.5
			c1.5-6.9,9.6-9.4,16.5-10.8s15-4.1,16.4-10.9c0.6-2.7-0.7-6.2-3.5-6.6c-1.2-0.2-2.4,0.3-3.4,0.7c-11.9,4.6-22.8,11.7-31.9,20.6
			c-2-1.9,0-5.2,2-7.2C354.1,120.9,364.9,114.4,376.6,110.1z"/>
		<path d="M166.9,129.4c2,1.9,4.1,5.2,2,7.2c-9.1-8.8-20.1-15.9-31.9-20.6c-1.1-0.4-2.4-0.9-3.4-0.7c-2.8,0.4-4.1,4-3.5,6.6
			c1.5,6.9,9.5,9.4,16.4,10.9c6.9,1.4,15,4.1,16.5,10.8c-7.3-2.8-14.5-5.6-21.7-8.5c-2.4-0.9-5.2-1.7-7.2-0.2
			c-2.1,1.7-1.5,5.2,0.5,7.2c2,1.8,4.7,2.4,7.4,2.9c4.4,0.9,8.8,1.7,13.3,2.5c1.6,0.3,3.4,0.7,4.5,1.8c1.2,1.1,1.5,3.4,0.2,4.4
			c-8.1-3.7-17.4-4.8-26.2-3.4c4,13,7.9,25.8,11.9,38.8c-8.7-8.5-10.9-21.2-12.9-33c-0.9-5.1-6.7-7.8-11.9-7.3
			c-5.1,0.4-9.7,3.1-14.6,4.7c-1.4,0.5-3.5,0.7-4.1-0.7c-0.6-1.3,0.7-2.7,2-3.5c5.9-3.7,13.2-5.2,20.1-4.4c4.8,0.6,7.2-6.9,4.1-10.6
			c-3.1-3.7-8.6-4.3-13.5-4.1s-9.9,0.9-14.7,2.1c-0.9,0.2-1.8,0.4-2.6,0c-1.3-0.7-1.2-2.7-0.2-3.9s2.5-1.4,4.1-1.6
			c7.7-1.3,15.7-1.2,23.4,0.2c0.6,0.1,1.2-0.4,1.6-0.9c3.9-4.5,1.6-12-3-15.5c-4.6-3.6-10.8-4.5-16.8-4.8c-3.3-0.2-7.8-1.6-7.4-4.9
			c7.8-0.6,15.9,0.9,22.9,4.5c2.4,1.2,4.3-2.4,4.7-5c1.5-11.2,3.1-22.4,4.6-33.6c0.6-4.3,1.6-9.2,5.4-11.5c4.2-2.5,9.5-0.1,13.8,2.4
			c22.6,12.7,43.9,28,63.3,45.2c3.3,2.9,7,7.3,4.9,11.4c-21.4-22.2-46.7-40.6-74.5-54.3c19.8,24.9,34.3,53.9,42.2,84.6
			c0.4,1.7-0.5,4.5-2,3.5c-10.1-29.8-20.7-60.6-42.6-83.1c-1-1-2.4-2.1-3.7-1.7c-1.4,0.4-1.9,2-2.4,3.4c-2.5,9.9-4.3,20-5.4,30.1
			c-0.5,5.1,0,11.8,4.9,13.5C147.2,114.4,157.9,120.9,166.9,129.4z"/>
	</g>
</g>
<g id="Layer_7">
	<g id="fill_7">
		<path fill="#E8E8E8" d="M290.1,158.5c3.9,8.9,11.7,18.3,20.1,23.2c8.2,4.7,20.2,2.6,28.9,0.1c9.2-2.6,17.6-7.7,23.4-15.5
			c6.3-8.8,9.2-20.1,11-30.6c4.1-22.8,1.8-46-4-68.2c1.1-3.1-0.4-7-4.4-6.5c-12.5,1.4-23.4,6.1-33.3,13.8
			c-10.3,7.9-20.1,16.9-28.8,26.6c-7,7.5-14.4,16.1-16.7,26.4C284.1,137.7,286,149.2,290.1,158.5z"/>
		<path fill="#E8E8E8" d="M225.5,127.6c-2.4-10.3-9.7-18.7-16.7-26.4c-8.8-9.5-18.5-18.4-28.8-26.6c-10-7.7-20.8-12.4-33.3-13.8
			c-4.1-0.5-5.6,3.4-4.4,6.5c-5.7,22.3-7.8,45.5-4,68.2c1.8,10.5,4.7,21.7,11,30.6c5.7,7.8,14,13,23.2,15.5
			c8.7,2.4,20.7,4.6,28.9-0.1c8.6-4.9,16.4-14.2,20.1-23.2C225.8,149.2,227.8,137.7,225.5,127.6z"/>
	</g>
	<g id="line_7">
		<path d="M363.4,62.7c-21,5.1-38.1,20-53,35.6c-7.3,7.6-14.2,15.5-20.9,23.8c-2.4-1.4-1-5,0.7-7.3c11.7-15.2,25.3-29,40.6-40.8
			c9.2-7.2,19.4-13.7,31-15.5c2.7-0.4,5.7-0.5,7.8,1.3c1.7,1.4,2.4,3.9,2.8,5.9c5.7,24.9,6,50.8,0.7,75.6c-2,9.7-5.1,19.8-12,27.1
			s-18.1,11.2-27.1,7c-9.1-4.4-13-15.4-13.8-25.6c-1.2-12.5,0.7-25.4,5.5-37.1C333.4,93.4,348.5,77.7,363.4,62.7 M360.6,160.8
			c8-12.7,11.7-27.9,12.5-42.9c0.9-15-0.7-30-2.7-45c-0.3-1.9-0.7-4.2-2.5-5.1c-2.2-1.1-4.7,0.9-6.4,2.7c-10.4,11-20.5,22.4-28,35.6
			c-7.4,13.2-11.9,28.5-9.7,43.5c0.9,5.9,2.7,12,6.6,16.5s10.2,7.4,16.1,6.2C352.7,171.1,357.2,165.9,360.6,160.8z"/>
		<path d="M343.4,136.5c-1,1.2-2.9,2.6-4.1,1.5c-0.1-4,2.9-7.3,5.6-10.1c0.9-0.9,1.6-1.6,2.7-1.9c1.1-0.2,2.5,0.4,2.5,1.6
			c0,0.7-0.5,1.3-0.9,1.9C347.3,131.8,345.3,134.2,343.4,136.5z"/>
		<path d="M337.5,127.9c-0.6,0.9-1.9,1.6-2.5,0.9c0.1-5.5,3.2-10.8,8-13.5c1.4-0.9,4-0.6,3.7,0.9c0,0.4-0.3,0.9-0.6,1.2
			C343.2,120.8,340.4,124.3,337.5,127.9z"/>
		<path d="M346.5,147.4c0.2-1.6,3.2-1.2,3.4,0.5c0.2,1.7-1.1,3.1-2.6,3.9c-1.1,0.5-2.4,0.9-3.6,0.4c0.6-1.6,1.1-3.2,1.7-4.8
			L346.5,147.4L346.5,147.4z"/>
		<path d="M166.4,147.1c0.6,1.6,1.1,3.2,1.7,4.8c-1.1,0.5-2.5,0.2-3.6-0.4c-1.5-0.7-2.9-2.2-2.6-3.9s3.2-2.1,3.4-0.5L166.4,147.1
			L166.4,147.1z"/>
		<path d="M165.7,117.4c-0.3-0.3-0.6-0.7-0.6-1.2c-0.2-1.6,2.4-1.7,3.7-0.9c4.8,2.6,7.9,7.9,8,13.5c-0.6,0.9-1.9,0-2.5-0.9
			C171.5,124.3,168.7,120.8,165.7,117.4z"/>
		<path d="M162.6,129.5c-0.5-0.5-0.9-1.2-0.9-1.9c0-1.1,1.4-1.8,2.5-1.6c1.1,0.2,1.9,1.1,2.7,1.9c2.7,2.8,5.7,6.1,5.6,10.1
			c-1.2,1.1-3-0.2-4.1-1.5C166.5,134.2,164.5,131.8,162.6,129.5z"/>
		<path d="M148.5,62.7c14.8,15,29.9,30.5,37.8,50.1c4.7,11.8,6.5,24.5,5.5,37.1c-0.9,10.2-4.7,21.2-13.8,25.6
			c-9,4.3-20.2,0.4-27.1-7c-6.9-7.3-9.9-17.2-12-27.1c-5.2-25-4.9-50.9,0.9-75.6c0.5-2.2,1.1-4.5,2.8-5.9c2.1-1.8,5.1-1.7,7.8-1.3
			c11.6,1.8,21.7,8.4,31,15.5c15.2,11.8,28.8,25.5,40.6,40.8c1.7,2.2,3.1,5.8,0.7,7.3c-6.6-8.2-13.6-16.2-20.9-23.8
			C186.6,82.8,169.5,67.9,148.5,62.7 M165.5,172.3c5.9,1.2,12.1-1.7,16.1-6.2s5.8-10.5,6.6-16.5c2-15-2.4-30.2-9.7-43.5
			c-7.4-13.3-17.7-24.6-28-35.7c-1.7-1.8-4.1-3.9-6.4-2.7c-1.8,0.9-2.4,3.1-2.5,5.1c-1.9,14.9-3.6,29.9-2.7,45
			c0.9,15.1,4.5,30.1,12.5,42.9C154.6,165.9,159.3,171.1,165.5,172.3z"/>
	</g>
</g>
<g id="Layer_8">
	<g id="fill_8">
		<path fill="#E8E8E8" d="M302.5,129.4c-7.3,19.6-7.3,45.7,7,60.7c14.7,15.5,47,25.9,62.7,6.7c1-1.2,1.2-2.4,1-3.4
			c5.6-6.3,9.3-14,11.8-22.2c4.5-14.9,6.7-30.7,8-46.2c1.3-15,1.6-30.1,0.3-45.2c-0.5-5.8-3.2-10.5-9.5-11.1
			c-5.4-0.5-10.2,2.6-15.2,3.9c-1,1-2.1,1.8-3.3,2.6c-4.1,2.5-8.5,4.1-12.3,6.9c-8.5,5.7-16.5,12-23.9,19c-7.2,6.6-15.1,12-20.9,20
			C305.8,123.6,304.1,126.5,302.5,129.4z"/>
		<path fill="#E8E8E8" d="M204.8,119.4c-6.2-7.7-14.2-12.9-21.7-19.2c-7.6-6.6-16-12.6-24.6-18.1c-4.1-2.5-8.6-4-12.5-6.3
			c-1.2-0.7-2.4-1.5-3.4-2.5c-5.1-1-10.1-4.1-15.3-3.2c-6.3,0.9-8.9,5.7-9.1,11.6c-0.7,15,0.1,30.2,2,45.1
			c1.9,15.3,4.6,31.3,9.7,45.9c2.8,8,6.9,15.6,12.5,21.7c-0.2,1.1,0.1,2.4,1.1,3.4c16.4,18.5,48.3,7.1,62.4-9
			c13.7-15.5,12.6-41.6,4.7-61C208.9,125,207,122.2,204.8,119.4z"/>
	</g>
	<g id="line_8">
		<path d="M353.5,136.9c-5.7-2.5-12.6-2.4-18.2,0.6c-0.9-6.5,2.6-12.7,6-18.4c10.5-17,22.6-33.2,36.3-47.8
			c-25.2,9.4-47.7,26.1-64.1,47.5c-3.1-0.5-1.9-5.5,0.2-7.7c18.7-21.6,43.4-38.2,70.5-47.4c1.8-0.6,3.9-1.2,5.6-0.5
			c2.5,1,3.5,4.1,4.1,6.7c3.6,18.7,2.2,38.2,0.3,57.2c-2.6,26.1-6.9,53.7-23.6,73.7c-0.9,0.9-1.7,1.8-2.8,1.9
			c-1.1,0.1-2.4-1.3-1.7-2.2c12.2-16.4,19.2-36.3,22.6-56.7c3.5-20.1,3.7-40.8,4.1-61.4c0-3,0-6.3-1.7-8.8s-5.7-3.9-7.8-1.6
			c-15.7,16.3-29.7,34.5-41.1,53.9c-1.1,1.8-1.1,5.5,1,4.9c3.6-0.9,7.4-1.6,10.8-0.4c3.4,1.2,6.1,5.5,4.4,8.7
			c-1.3,2.5-4.5,3.4-6.6,5.4s-2.2,6.5,0.7,6.5c3.6,0,7.5,0.1,10.4,2.2c2.9,2.1,3.9,7.3,0.9,9.2c-2.6,1.7-5.5,3.9-6.1,7
			c-0.8,3.1,2.6,6.9,5.5,5.4c-1,3.6-6,5.5-9.1,3.2c-3.2-2.2-3.4-7.2-1.5-10.5c1.9-3.4,5.2-5.6,8.5-7.8c-0.7-2.6-3.9-3.9-6.5-4.1
			c-2.7-0.3-5.6-0.1-8-1.3s-4.1-4.6-2.4-6.6C347.1,144.3,350.3,140.6,353.5,136.9z"/>
		<path d="M169.9,147.8c1.9,2,0.3,5.5-2,6.7c-2.4,1.3-5.2,1.2-7.9,1.5c-2.7,0.4-5.7,1.7-6.3,4.3c3.3,2,6.7,4.1,8.8,7.5
			s1.9,8.2-1.2,10.5c-3,2.4-8,0.7-9.2-2.9c2.8,1.4,5.9-2.5,5.2-5.6c-0.9-3.1-3.6-5-6.3-6.7c-3.1-1.9-2.4-7,0.5-9.2
			c2.8-2.4,6.7-2.5,10.4-2.6c2.8-0.1,2.6-4.8,0.4-6.5c-2.2-1.8-5.5-2.5-6.9-5c-1.8-3.2,0.7-7.4,4.1-8.8c3.4-1.4,7.3-0.7,10.8,0
			c2.1,0.4,2-3.1,0.9-4.9C159,107,144.5,89.3,128.1,73.7c-2.2-2.1-6.1-0.7-7.7,1.9c-1.6,2.6-1.5,5.8-1.3,8.9c1,20.5,2,41,6.2,61.2
			c4.2,20.1,11.8,39.7,24.6,55.7c0.7,0.9-0.4,2.4-1.6,2.4c-1.2,0-2.1-1-2.9-1.8c-17.5-19.6-22.7-47-26.3-73
			c-2.6-19-4.7-38.4-1.8-57.2c0.4-2.7,1.2-5.8,3.7-6.9c1.7-0.9,3.9-0.2,5.6,0.3c27.4,8.2,52.6,23.9,72.2,44.9
			c2.2,2.4,3.6,7.2,0.5,7.7c-17.1-20.8-40.2-36.5-65.8-45.1c14.2,14,26.9,29.8,38,46.4c3.6,5.5,7.3,11.6,6.7,18.1
			c-5.6-2.7-12.5-2.6-18.2,0.1C163.1,140.7,166.6,144.3,169.9,147.8z"/>
	</g>
</g>
<g id="Layer_9">
	<g id="fill_9">
		<path fill="#E8E8E8" d="M380.7,98.3c1-1.3,1.3-2.5,1.4-3.9c2.9-8.7-1.8-17.6-3.6-26.3c-1.4-6.6-0.9-24.5-11.3-23.4
			c-4.6,0.5-8.6,5.2-12,8.1c-4.5,3.7-9.2,7.4-13.7,11.3c-4.6,3.8-9.4,7.5-13.7,11.8c-1.3,0-2.5,0.5-3.7,1.5
			c-14.9,13.4-33.9,28.7-38.8,49.2c-4.5,18.8,1.4,42.7,18.1,53.7c8,5.4,17.1,7.7,26.4,9.5c9.2,1.8,19.6,2.9,28.3-1.5
			c9.4-4.8,11.7-12.8,13.5-22.6l3.4-17.9c1.1-5.7,3.2-12.1,3.2-17.9c-0.1-4.6-2.5-6.6-6.3-8.6c-3.9-1.9-6.8-8.8-4.1-13.1
			C370.5,104.1,377.4,102.5,380.7,98.3z"/>
		<path fill="#E8E8E8" d="M210.1,103.1c-9.7-11.3-19.1-22.7-29.3-33.5c-9.6-10.1-21.3-17.5-33.1-24.6c-1.3-0.8-2.6-1-3.7-0.8
			c-3.9-1.6-9.3,0.6-8.7,6c0.2,1.9,0.3,3.9,0.6,5.9c-0.4,0.7-0.8,1.4-1,2.4c-2.5,13.2-2.4,26.5-1.8,39.9c0.2,4.8-0.2,10.2,2.9,14.1
			c3.8,4.9,9.7,7.9,7.5,15.3c-1.4,4.7-6.5,6.6-8.7,10.9c-2.6,5-1.8,10.6-0.4,15.7c1.6,6.1,3.4,12.2,6,17.9c1.9,4.5,3.4,9.3,8.2,11.5
			c21.9,9.8,47-4.9,61.6-20.6c7.7-8.2,13.6-18.7,13.8-30.3C224.2,121,217.4,111.8,210.1,103.1z"/>
	</g>
	<g id="line_9">
		<path d="M370.5,40.6c2.9,0.8,4.4,3.9,5.4,6.6c5.5,14.8,8.8,30.5,9.7,46.4c0.2,3.9-0.8,9.5-4.9,9.7c-4.6,0.3-9.6,1.9-11.8,6
			c-2.2,4,1.3,10.5,5.8,9.2c2.2-0.7,4.5,1,5.3,3.2c0.8,2,0.6,4.5,0.4,6.7c-1.9,17-5,33.9-9.5,50.5c-2.9-1.7-2.5-5.9-1.8-9.1
			c2.4-11.8,4.5-23.6,6.9-35.4c0.4-2.2,0.8-4.5-0.1-6.6c-1.5-3.1-5.2-4-8.1-6c-3.6-2.5-5.5-7.4-4.7-11.8c0.8-4.4,4.6-8.1,8.9-9
			c5-1.1,8.4-6.2,9.1-11.3c0.7-5.1-0.8-10.2-2.1-15.3c-2.2-7.7-4.4-15.5-6.6-23.3c-0.4-1.3-0.8-2.7-1.8-3.6c-2.3-2-5.9-0.3-8.6,1.5
			c-26.5,18.6-50.1,41.5-69.4,67.3c-3.4-0.2-2.4-5.5-0.2-8.1c20.2-24.8,43.8-46.8,69.9-65.2C364.8,41.5,367.7,39.7,370.5,40.6z"/>
		<path d="M136.3,40.7c2.4-2.4,6.5-0.8,9.5,0.8c28.6,16.9,53.2,40.6,71,68.6c-6.3-2.1-10.8-7.4-15-12.4
			c-16.5-19.6-33.8-40.1-57.3-50.6c-1-0.5-2.4-0.9-3.4-0.8c-2.5,0.5-3.5,3.7-3.8,6.1c-2,15.8-3,31.7-3.1,47.5
			c0,4.1,0.4,8.9,4.1,10.7c8.8,4.7,10.2,19.1,2.4,25.4c-5.5,4.4-4.9,13.1-2.6,19.8c2.1,6.7,5.3,13.9,2.8,20.7
			c-5.1-11-8.1-23-8.6-35.1c-0.2-3.4,0.5-7.8,3.7-9c3.7-1.3,6.2-5.1,6-9.1c-0.3-3.9-3.3-7.5-7.1-8.4c-3.4-0.8-4.2-5.2-4.3-8.7
			c-0.4-20.6,0.8-41.2,4-61.5C134.7,43.7,135,41.9,136.3,40.7z"/>
		<path d="M153.7,117.3c0.6-4,7.8-4,8.3-8.1c0.3-2.9-3.4-5.7-1.8-8.2c2.2-3.3,8.2,2.4,11.1-0.3c1.3-1.3,0.9-3.5,0.3-5.4
			c-1.6-5-3.2-10.1-4.9-15.1c-0.8-2.6-1.3-6.3,1.2-7.6c4.9,10.9,7.8,22.5,8.7,34.4c0.2,2.1-3.1,2.2-4.7,0.9
			c-1.7-1.2-3.9-2.7-5.5-1.3c-2.5,2.2,2.7,6.6,0.8,9.5c-1,1.3-2.9,1.3-4.7,1.5c-1.8,0.3-3.4,2.4-2,3.5c2,1.8,2.9,4.8,2.2,7.3
			c-0.8,2.5-3.2,4.6-5.9,5c-1.3-0.5-1.4-2.2-0.9-3.6c0.5-1.3,1.3-2.5,1.3-3.9C157.6,122.8,153.1,120.6,153.7,117.3z"/>
		<path d="M349,109.8c1.3-0.8,3,0.8,2.9,2.4c-0.2,1.6-1.1,3-1.5,4.5c-0.6,2.2,0.3,4.7,1.9,6.1c1.6,1.3,4.1,2.1,4.2,4.2
			c0.1,2.9-4.8,2.9-6.7,5.3c-1.3,1.5-3.9,0.4-4.5-1.5c-0.8-1.8-0.1-3.9,0.6-5.6c0.7-1.8,1.3-3.9,0.7-5.6c-0.6-1.8-3.2-3-4.5-1.6
			c-0.9,1-2.9,0.2-3.2-1.3c-0.4-1.4,0.3-2.9,0.8-4.1c0.5-1.3,1-2.9,0.3-4.2c-0.8-1.4-2.7-1.9-4.2-1.6s-2.9,1.5-4.2,2.5
			c-0.8,0.6-2,0-2.3-0.9c-0.3-0.9,0-1.8,0.3-2.8c3.5-10.2,8.5-20.1,14.4-29.1c1.1-1.6,3-3.6,4.8-2.9c0.3,3.7-2.2,7.1-4.3,10.2
			c-2.9,4.4-5.5,8.8-7.4,13.6c-0.3,0.8-0.7,1.8-0.3,2.7c0.5,1.2,2.3,1.3,3.5,0.8c1.3-0.5,2.4-1.3,3.7-1.3s2.8,1.3,2.2,2.4
			c-1,1.7-1.8,3.7-1.4,5.5C345,109.3,347.4,110.9,349,109.8z"/>
	</g>
</g>
<g id="Layer_10">
	<g id="fill_10">
		<path fill="#E8E8E8" d="M392.8,60c-2.9-5.7-9.4-6-15.1-5c-12.6,2.5-24.6,12.2-34.6,19.9c-11.7,8.9-22.4,19-31.5,30.5
			c-2.5,3.2-5.1,6.5-7.5,10c-0.9,0-1.6,0.3-2.4,1c-10.7,8.1-11.9,21.3-8.8,33.6c3.1,13,9.1,24.7,20.1,32.5
			c10.5,7.3,24.2,9.4,36.5,6.1c5.4-1.4,10.8-3.7,14.2-8.1c4.4-5.8,7.3-13.4,10.4-20c11.5-25.7,18.4-53.2,20.5-81.3
			C394.9,73,395.6,65.7,392.8,60z"/>
		<path fill="#E8E8E8" d="M117.4,79.1c2.1,28.1,9,55.6,20.5,81.3c2.9,6.6,5.9,14.1,10.4,20c3.4,4.4,8.9,6.7,14.2,8.1
			c12.3,3.3,26,1.2,36.5-6.1c11.1-7.7,17-19.5,20.1-32.5c3-12.3,1.9-25.5-8.8-33.6c-0.9-0.6-1.7-0.9-2.4-1c-2.4-3.4-5-6.7-7.5-10
			c-9.1-11.5-19.9-21.6-31.5-30.5c-10-7.6-22-17.6-34.6-19.9c-5.7-1.1-12.2-0.7-15.1,5C116.3,65.7,116.9,73,117.4,79.1z"/>
	</g>
	<g id="line_10">
		<path d="M338.6,128.2c-1.9,1.5-5.2,2.9-6.3,0.9c11-11.9,25.3-20.8,40.8-25.7c5.4-1.7,11-3,15.3-6.6s6.4-10.5,2.8-14.9
			c-1-1.2-2.9-0.6-4.4,0c-21,9.6-43.2,20.4-55,40.2c-4.4,7.4-7.1,15.7-9.6,24c-2.6-0.6-2.4-4.3-1.7-6.9
			c8.7-27.7,24.6-53.1,45.7-73.1c1-1,1.9-2.9,0.6-3.4c-25.7,16.8-49.1,37.4-68.8,60.9c-1,0.6-2.4-0.6-2.4-1.7s0.8-2.1,1.4-3.1
			c19.7-25.4,44.7-46.7,73-62c4.2-2.4,8.7-4.5,13.5-4.6c4.8-0.2,10,2.2,11.6,6.7c1,2.7,0.5,5.8,1.2,8.8c0.7,2.8,3.7,5.6,6.3,4.4
			c7.4-3.5,15.7-5.1,23.9-4.6c1,0.1,2,0.2,2.6,0.9c1.7,2-1.9,4.2-4.6,4.3c-7,0.3-14.1,0-20.4,2.8c-6.3,2.9-11.2,10.3-8.8,16.7
			c7.8,5.9,19.1-2.8,28.7-0.5c1.3,0.3,2.6,0.9,3.2,2.1s-0.1,3-1.4,3c-3.1,0.1-6.2,0.2-9.2,0.2c-5.5,0.1-11,0.3-16,2.4
			s-9.4,6.6-9.7,12c-0.3,4.3,3.6,9.2,7.6,7.8c7.8-2.6,17-0.1,22.5,6.1c-6-0.5-12-1-18.1-1.5c-6.2-0.5-14.5,0.3-16,6.4
			c-3.5,14.6-8.8,28.6-15.6,42c-2.4,4.6-5.2,9.3-10.1,11.5c7.6-17.6,15.2-35,22.9-52.6c0.5-1.1,0.9-2.4,0.4-3.4
			c-0.7-1.3-2.6-1.4-4.1-1.3c-14.4,1.3-28.5,5.7-41,12.6c-2.4,1.3-6.9,1.7-6.7-1c14.5-9,31.1-14.8,48-16.5c6.3-0.7,8.4-8.8,8.8-15.2
			c0.1-1,0-2.4-0.9-2.8c-0.6-0.3-1.2-0.1-1.8,0C369.2,108,352.6,116.6,338.6,128.2 M362.9,75.2c-6.7,8.1-13.6,16.2-20.2,24.3
			c-0.6,0.7-1.2,1.4-1.2,2.4s0.9,1.8,1.7,1.5C355,91.9,369.8,84.2,385,78.1c3.2-1.3,6.7-2.9,7.8-6.1c0.6-1.8,0.3-3.9-0.1-5.6
			c-0.8-3.5-2.2-7.4-5.6-8.6c-2.4-0.7-5,0.3-7.3,1.6C372.9,63.2,367.7,69.3,362.9,75.2z"/>
		<path d="M173.3,128.2c-14-11.6-30.6-20.1-48.2-24.9c-0.6-0.2-1.2-0.3-1.8,0c-0.9,0.4-1,1.7-0.9,2.8c0.4,6.3,2.4,14.6,8.8,15.2
			c16.9,1.8,33.5,7.4,48,16.5c0.1,2.8-4.3,2.4-6.7,1c-12.6-7-26.7-11.2-41-12.6c-1.5-0.1-3.4-0.1-4.1,1.3c-0.5,1-0.1,2.4,0.4,3.4
			c7.6,17.6,15.2,35,22.9,52.6c-4.7-2-7.6-6.9-10.1-11.5c-7-13.3-12.1-27.4-15.6-42c-1.5-6.1-9.7-7-16-6.4c-6,0.5-12,1-18.1,1.5
			c5.5-6.2,14.8-8.8,22.5-6.1c4.1,1.4,7.9-3.5,7.6-7.8c-0.3-5.5-4.7-10-9.7-12c-5-2.1-10.5-2.4-16-2.4c-3.1-0.1-6.2-0.2-9.2-0.2
			c-1.3,0-2-1.8-1.4-3s1.9-1.8,3.2-2.1c9.5-2.4,20.9,6.4,28.7,0.5c2.5-6.4-2.5-13.7-8.8-16.7c-6.3-2.9-13.5-2.6-20.4-2.8
			c-2.6-0.1-6.3-2.4-4.6-4.3c0.6-0.7,1.7-0.9,2.6-0.9c8.2-0.4,16.5,1.2,23.9,4.6c2.6,1.2,5.6-1.5,6.3-4.4c0.7-2.8,0.3-5.9,1.2-8.8
			c1.6-4.5,6.9-7,11.6-6.7c4.8,0.2,9.2,2.4,13.5,4.6c28.2,15.3,53.2,36.6,73,62c0.7,0.9,1.4,1.9,1.4,3.1c0,1.1-1.3,2.4-2.4,1.7
			c-19.8-23.5-43-44.1-68.8-60.9c-1.3,0.5-0.4,2.5,0.6,3.4c21.1,19.9,37,45.3,45.7,73.1c0.9,2.5,0.9,6.2-1.7,6.9
			c-2.6-8.2-5.2-16.6-9.6-24c-11.8-19.9-34-30.6-55-40.2c-1.4-0.7-3.3-1.2-4.4,0c-3.6,4.3-1.5,11.2,2.8,14.9
			c4.3,3.6,10,4.9,15.3,6.6c15.4,4.8,29.8,13.7,40.8,25.7C178.5,131.1,175.2,129.7,173.3,128.2 M132.2,59.3
			c-2.2-1.3-4.8-2.4-7.3-1.6c-3.4,1-4.9,5-5.6,8.6c-0.4,1.9-0.7,3.9-0.1,5.6c1.1,3.2,4.6,4.8,7.8,6.1c15.2,6.1,30,13.8,41.8,25.3
			c0.9,0.3,1.7-0.6,1.7-1.5s-0.6-1.6-1.2-2.4c-6.7-8.1-13.6-16.2-20.2-24.3C144.1,69.3,139,63.2,132.2,59.3z"/>
	</g>
</g>
</svg>
