<?xml version="1.0" encoding="utf-8"?>
<!-- Generator: Adobe Illustrator 18.1.1, SVG Export Plug-In . SVG Version: 6.00 Build 0)  -->
<!DOCTYPE svg PUBLIC "-//W3C//DTD SVG 1.1//EN" "http://www.w3.org/Graphics/SVG/1.1/DTD/svg11.dtd">
<svg version="1.1" xmlns="http://www.w3.org/2000/svg" xmlns:xlink="http://www.w3.org/1999/xlink" x="0px" y="0px"
	 viewBox="0 0 512 512" enable-background="new 0 0 512 512" xml:space="preserve">
<g id="guide">
</g>
<g id="Layer_0">
	<g id="fill_0">
		<path fill="#E8E8E8" d="M209.1,116.5c-0.6-0.8-1.3-1.3-2.1-1.6c-1.2-3.6-5.9-7.1-7.9-9.9c-4.5-6-8-12.4-13.5-17.6
			c-6.1-5.7-13-10.7-19.6-16c-2.8-2.2-5.5-4.5-8.4-6.5c-3.1-2.1-6.6-3.2-9.7-5.2c-5.3-3.3-11.4-7.7-16.6-1.4
			c-4.5,5.4-4.6,15.2-5,21.9c-0.6,8.6,0.2,17.2,1.8,25.7c0.7,4,5.1,22.3-2.8,21.5c-4.5-0.5-6.3,5.7-3.5,8.5c3.4,3.6,4.8,7.4,6,12.1
			c0.7,2.5,2,4.8,3.9,6.2c-0.9,0.3-1.9,0.4-2.9,0.3c-4.5-0.2-6.4,5.5-3.5,8.5c1.2,1.3,1.5,4.4,2.2,6c0.6,1.5,1.3,2.9,2,4.3
			c2.1,4.1,4.2,8.2,6.3,12.2c3.5,6.8,6.2,12.7,14.2,14.7c6.8,1.6,14,4.1,21,2.7c7.8-1.5,16.3-4.1,23.5-7.4
			c13.5-6.1,19.8-20.9,22-34.7C219,145.5,218.9,129.3,209.1,116.5z"/>
		<path fill="#E8E8E8" d="M395.8,53.2c-2.8-2.3-6.4-1.4-9.4-0.4c-7.8,2.5-15.2,8-22.1,12.3c-7.4,4.7-14.7,9.6-21.7,15
			c-13.7,10.6-26,22.9-35.4,37.4c-0.6,1-0.9,2-0.8,2.9c-1.7,1.6-3.3,3.3-4.8,5c-0.1,0-0.1,0.1-0.2,0.1c-11.9,8.4-15.6,28.3-9.4,40.9
			c6.6,13.3,19.6,23.1,33.1,28.8c14.9,6.3,31.1,6.2,43.3-5.2c11.3-10.5,18.9-24,23-38.7c1.1-4-3.7-6.2-6.9-5.3
			c0.2-0.3,0.3-0.7,0.5-1c1.8-3.7,4.5-6.8,7.6-9.5c1.9-1.6,2.8-4.9,0.9-6.9c-1.1-1.2-2.1-2.1-3.7-2.7c-0.6-0.2-3-1.1-3.5-0.5
			c0-1.4,1-3.5,1.2-4.4c0.6-2.2,1-4.5,1.2-6.8c0.2-2.1-0.4-4.4-0.2-6.4c0.2-2.2,1.3-3.4,2.3-5.4c1.8-3.7,2.6-7.9,3-12
			c0.8-9.4-0.6-18.5,2.8-27.6C397.7,59.6,399.1,55.9,395.8,53.2z"/>
	</g>
	<g id="line_0">
		<path d="M399.7,73.7c-1.1,1.6-1.3,3.5-1.6,5.4c-0.6,5-1.3,10.1-1.9,15.1c-0.1,0.9-0.2,1.9,0.3,2.7c1.2,2,4.3,0.8,6.4-0.3
			c5.6-3.1,12.2-4.2,18.6-3.2c2,0.3,1.8,3.5,0.1,4.5s-3.9,0.6-5.8,0.4c-12.4-1.3-24.9,8.9-25.8,21.2c-0.1,0.9,0,2.1,0.7,2.6
			c0.9,0.7,2.2,0.3,3.3-0.2c7.9-3.3,16.8-4.3,25.3-2.9c0.8,0.1,1.6,0.3,2.1,0.9c1,1.1,0.1,3.1-1.2,3.7c-1.4,0.6-3,0.4-4.5,0.2
			c-4.8-0.6-9.6-0.5-14.4,0.3c-1.3,0.2-2.8,0.7-2.9,2c-0.9,6.9-4.3,13.4-9.5,18.1c3-1.4,6.5,1.6,7,4.8c0.4,3.2-1.1,6.3-2.7,9.2
			c-7,13.1-14.5,26.6-26.8,35c-1.6,0.2-2.6-1.8-2.2-3.3c0.4-1.5,1.7-2.6,2.9-3.6c10.3-8.7,18.2-20.1,22.8-32.8
			c0.2-0.7,0.5-1.5,0.2-2.1c-1-2.3-6-0.2-6.6-2.6c3.1-5.9,6.1-11.7,9.2-17.6c-4.3-3.2-10.5-2.6-15.4-0.5c-5,2-9.4,5.3-14.5,7
			c-1.8,0.6-4.7,0.2-4.4-1.7c5.7-4.6,13.2-6.3,19.7-9.8c6.5-3.5,12.5-10.1,11-17.3c-0.1-0.5-0.3-1-0.6-1.4c-0.9-1-2.6-0.5-3.8,0.1
			c-10.6,4.9-20.9,10.5-30.8,16.7c-1.1,0.7-2.6-0.8-2.4-2.1s1.4-2.2,2.5-2.9c9.7-6.5,20.1-11.9,31-16c8.5-3.2,9.9-14.4,9.8-23.5
			c0-0.6,0-1.2-0.4-1.6c-0.7-0.7-1.9-0.3-2.8,0.1c-19.2,9.9-35.7,24.9-47.2,43c-0.6,0.9-2.2,0.3-2.5-0.7c-0.3-1.1,0.3-2.2,0.8-3.1
			c8.1-14.1,19.9-26.2,33.9-34.7c4.6-2.8,9.6-5.3,13.5-9.1c3.9-3.8,6.8-9.2,5.8-14.5c-0.5-2.6-2.3-5.3-4.9-5.6
			c-1.3-0.2-2.7,0.3-3.9,0.8c-16.1,6.6-28.8,19.6-38,34.3c-9.2,14.7-15.1,31-21,47.2c5.6-1,10.8-3.7,14.9-7.6c1.1-1.1,3.1,0,3.5,1.5
			c0.3,1.5-0.4,3-1.1,4.3c-2.3,4.4-4.7,8.8-7,13.3c-0.9-3.9,0-8.2,2.3-11.5c-5.8,2.4-11.2,5.8-15.7,10.1c-2.1-1.3-1.8-4.4-1.1-6.8
			c6.1-22.3,15.9-43.5,28.7-62.8c-20.2,14.9-37.7,33.4-51.4,54.3c-1.6,2.5-5.8,4.9-6.8,2.1c22.8-34.9,54.8-63.8,92-82.9
			c1.8-0.9,3.7-1.8,5.7-1.8c3.5,0.1,6.3,3.1,7.2,6.4c0.9,3.3,0.3,6.8-0.6,10.1c1.9,2.6,6,1.2,8.9-0.3c9-4.7,18.5-8.3,28.3-10.8
			c2.5-0.6,6.6,0.3,5.7,2.7c-0.4,1.2-1.9,1.6-3.2,1.9c-11.8,2.3-23.3,6.6-33.8,12.5C402.3,71.2,400.7,72.2,399.7,73.7z"/>
		<path d="M144.7,117.3c5,1.6,9.8,3.9,14,6.9c2.4,1.7,4.6,5.6,2,7c-7.3-5.2-15.3-9.4-23.7-12.4c-2.3-0.8-6-0.7-6.1,1.8
			c-0.1,4.3-4.1,8.2-8.5,8.1c-1.7,3.6,1.5,8,5.4,9.1c3.8,1.2,7.9,0.1,11.9-0.6c3.9-0.8,8.3-1.2,11.7,1c-4.7,7-18,0.3-23.4,6.8
			c1.9,2.3,3.8,4.8,4.1,7.7c0.3,2.9-1.8,6.3-4.8,6.1c-2.1-0.1-2.2,3.1-1.5,5c2.9,7.6,6.9,14.9,11.9,21.3c2.9,3.7,6.2,8.5,4.1,12.6
			c-9.4-8.6-14.6-20.7-19.6-32.4c-1.1-2.7-2.3-5.5-1.8-8.4s3.5-5.5,6.2-4.5c0.6-4.2-3.8-7.7-8.1-7.9c-4.3-0.2-8.3,1.8-12.2,3.5
			c-3.9,1.6-8.5,2.9-12.4,1.2c6.6-5.1,14.8-8.2,23.1-8.5c3.6-0.2,3.2-5.7,1.5-8.9s-2.5-8.6,1.1-9.1c1.7-0.2,3.4,1.1,5.1,0.8
			c2.2-0.4,2.9-3.5,1.7-5.4c-1.2-1.9-3.4-2.8-5.5-3.5c-9.2-3-18.9-4.2-28.6-3.5c-1.9,0.1-2.5-3.1-1-4.3s3.7-1,5.6-0.7
			c9.5,1.4,19,2.8,28.5,4.3c0.4-7.7-0.1-17.1-6.9-20.8c-10.1-5.6-21.1-9.5-32.5-11.6c-1.3-0.2-1.4-2.3-0.4-3.1
			c1-0.8,2.4-0.8,3.7-0.7c9.5,1,18.7,4.5,26.4,10c2.7,2,6.8-0.3,8.1-3.4c1.3-3.1,0.8-6.6,0.7-10c-0.2-4.2,0.4-8.6,2.6-12.2
			s6.4-6.2,10.5-5.7c2.2,0.3,4.2,1.4,6.2,2.5c26,14.7,48.9,34.9,66.8,58.8c2.8,3.7,5.4,9.1,2.2,12.5c-16.2-25.8-38.5-47.6-64.6-63.3
			c14.5,21.5,25.6,45.4,32.7,70.3c1,3.5,1.4,8.3-1.8,9.9c-2.9,1.4-6.1-0.8-9.1-1.8c-3-1-7.7,1.3-6.2,4.1c2.2,4.1,2.9,10.9-1.7,12.1
			c-1.9,0.5-3.8-0.4-5.8-0.7c-1.9-0.3-4.4,0.3-4.8,2.2c1.9,2.6,3.8,5.3,5.7,7.9c2,2.8,0,7.1-3.2,8.5c-3.1,1.5-6.8,1-10.2,0.5
			c-1.9-0.5-0.6-3.7,1.3-4.2c2-0.5,4.3-0.1,5.7-1.5c1.9-2,0.2-5.2-1.7-7.1c-2-1.9-4.4-4.1-3.8-6.8c0.5-2.4,3.3-3.6,5.8-3.7
			s5,0.2,7.3-0.7c2.3-0.9,3.9-4.1,2.2-5.9c-2.2-2.4-2.1-6.5,0.2-8.8c2.3-2.3,6.4-2.4,8.8-0.3c2.5,2.2,7.2,0.7,7.9-2.6
			c0.7-3.3-3.1-6.6-6.2-5.5c-10.4-13.4-23.9-24.5-39.1-32.1c-0.9-0.5-2-0.9-2.9-0.6c-1.7,0.6-1.8,3-1.5,4.8c0.5,3.2,1.1,6.5,3,9.1
			C133.9,114.6,139.6,115.7,144.7,117.3 M164.3,114.7c2.6,2.7,5.1,5.5,8.4,7.2c-6.6-20.7-16.5-40.2-29.3-57.7
			c-2.4-3.3-6.1-6.9-9.9-5.5c-3,1.1-4.1,4.6-4.8,7.7c-0.7,3.5-1.4,7-1.9,10.5c-0.6,3.9-1,8.1,1.1,11.5c2,3.3,5.7,4.9,9.1,6.6
			C147.1,99.9,156.4,106.6,164.3,114.7z"/>
		<path d="M360.9,164.4c-2.4-1.3-5.6-1-7.7,0.7c-1.8,1.5-4.8,0.3-5.8-1.8c-0.9-2.1-0.3-4.6,0.9-6.6c0.9-1.7,2.2-3.7,1.2-5.3
			c-0.9-1.4-3-1.4-4.6-0.8c-1.5,0.6-2.9,1.8-4.5,2.1c-1.6,0.4-3.8-0.5-3.8-2.2c5-3.3,10.7-5.6,16.6-6.5c0.5-0.1,1.1-0.2,1.6,0
			c1.9,0.6,1.4,3.5,0.5,5.3c-1.7,3.3-3.3,6.6-5,9.9c-0.5,1,1.3,1.5,2.4,1.2c3.6-0.9,7.2-1.8,10.8-2.8c1.8-0.5,3,2.2,2.1,3.8
			s-2.9,2.2-4.7,2.7c1.1,0.8,1.2,2.4,0.7,3.7s-1.2,2.5-1.4,3.8c-0.2,1.1,0.1,2.2-0.3,3.2c-0.3,1-1.6,1.9-2.5,1.3
			c-0.4-0.3-0.6-0.8-0.7-1.3C356,170.9,357.7,166.6,360.9,164.4z"/>
	</g>
</g>
<g id="Layer_1">
	<g id="fill_1">
		<path fill="#E8E8E8" d="M119.2,92.6c1.1,7.3,2.4,14.7,4,22c3,14.1,7.3,27.8,12.9,41c4.7,11,9.6,24.3,20.4,30.7
			c22.8,13.4,52.9,3.8,68-16.7c16.5-22.4,3.7-49.9-14.5-66.5c-0.9-0.8-2-1.3-3-1.3c-18.5-17.9-41-33.7-65.1-41.9
			c-5.3-1.8-12.2-3.6-17.3-0.5c-4.5,2.7-6.6,8.2-7.2,13.1C116.6,79.2,118.2,86.1,119.2,92.6z"/>
		<path fill="#E8E8E8" d="M394.6,72.6c-0.6-5-2.7-10.4-7.2-13.1c-5.1-3.1-12.1-1.3-17.3,0.5c-24.1,8.2-46.6,24-65.1,41.9
			c-1,0.1-2,0.5-3,1.3c-18.3,16.5-31,44.1-14.5,66.5c15,20.5,45.2,30,68,16.7c10.8-6.4,15.7-19.7,20.4-30.7
			c5.7-13.2,9.9-26.9,12.9-41c1.6-7.3,2.8-14.6,4-22C393.8,86.1,395.3,79.2,394.6,72.6z"/>
	</g>
	<g id="line_1">
		<path d="M119.2,81c4.1,33.9,10.3,69.4,32.3,95.5c2.5,3,5.3,6.1,5.8,9.9c-11.6-5.1-18.3-17.2-23.3-28.9
			c-10.6-25.1-17.1-51.9-19-79.1c-0.6-9.1,0.8-20.6,9.4-23.5c4.9-1.7,10.2,0.2,15,2.2c32.9,13.7,65,32.8,85.7,61.8
			c1.5,2.1,2.3,6.1-0.3,6.6c-21.9-29.3-52.7-51.8-87.3-63.7c-3.9-1.3-8.2-2.5-12-0.9C118.6,63.8,118.3,73.5,119.2,81z"/>
		<path d="M173.6,128.9c-2.5-4-5-8-7.5-11.9c-0.5-0.8-1-1.7-0.9-2.6c0.3-2.1,3.4-2.2,5.4-1.4c5.4,1.9,10.4,4.9,14.5,8.8
			c1.1,1,2.6,2.1,3.8,1.3c-10.7-19.2-25.7-36.1-43.7-48.9c-2.2-1.6-4.5-5-2.2-6.4c22.6,13.5,40.6,34.6,50.3,59
			c0.6,1.6,1.2,3.3,0.6,4.9c-0.6,1.6-3,2.4-4,1.1c-4.6-6-10.8-10.8-17.9-13.5c2.9,3.7,4.2,8.7,3.5,13.4c-0.1,0.6-0.2,1.3-0.6,1.7
			c-2.7,3.5-8.9-5.5-11.6-2.1c4.4,5.1,7.5,11.3,9.3,17.8c0.6,2.4,0.2,5.9-2.3,5.9c-5.4-3.7-3-12.5-6.7-17.8c-1.4-2-3.5-3.4-5-5.3
			c-1.5-1.9-2.1-5-0.3-6.6C162.5,122.5,168.9,131.8,173.6,128.9z"/>
		<path d="M386.4,60.9c-3.8-1.6-8.1-0.4-12,0.9c-34.6,11.9-65.4,34.4-87.3,63.7c-2.6-0.4-1.8-4.4-0.3-6.6
			c20.8-29,52.8-48.1,85.7-61.8c4.8-2,10.1-3.9,15-2.2c8.6,3,10,14.4,9.4,23.5c-1.9,27.2-8.3,54-19,79.1
			c-5,11.7-11.7,23.8-23.3,28.9c0.5-3.9,3.3-7,5.8-9.9c22-26.1,28.2-61.7,32.3-95.5C393.6,73.5,393.4,63.8,386.4,60.9z"/>
		<path d="M353.5,126.2c1.8,1.7,1.2,4.7-0.3,6.6c-1.5,1.9-3.7,3.3-5,5.3c-3.7,5.3-1.3,14.2-6.7,17.8c-2.4,0.1-2.9-3.5-2.3-5.9
			c1.7-6.5,4.9-12.6,9.3-17.8c-2.7-3.5-8.9,5.5-11.6,2.1c-0.4-0.5-0.5-1.1-0.6-1.7c-0.7-4.7,0.6-9.7,3.5-13.4
			c-7.1,2.7-13.4,7.4-17.9,13.5c-1,1.3-3.4,0.5-4-1.1c-0.6-1.6,0-3.3,0.6-4.9c9.7-24.5,27.7-45.6,50.3-59c2.3,1.4,0,4.9-2.2,6.4
			c-17.9,12.8-32.9,29.6-43.7,48.9c1.2,0.8,2.7-0.3,3.8-1.3c4.2-3.9,9.1-6.9,14.5-8.8c2-0.7,5.1-0.7,5.4,1.4
			c0.1,0.9-0.4,1.8-0.9,2.6c-2.5,4-5,8-7.5,11.9C343,131.8,349.4,122.5,353.5,126.2z"/>
	</g>
</g>
<g id="Layer_2">
	<g id="fill_2">
		<path fill="#E8E8E8" d="M412.8,62.6c0-5.9-1.2-12.4-5.3-16.3c-0.6-2.5-2.9-4.7-6.1-4.1c-21.6,3.9-39.3,19.5-55.8,33
			c-12.1,9.9-23.5,21-31.4,34.4c-2.4,1.5-4.6,3.2-6.6,5.2c-0.8,0.8-1.3,1.7-1.4,2.6c-5.9,8.4-11.7,18.3-13.8,28.3
			c-2.1,10.4,4.2,20.2,8.2,29.3c4.4,10.1,12.9,13.6,22.5,17.6c10,4.2,20.6,7.2,31.5,5.4c11.4-2,18.3-9.3,24.4-18.5
			c6.4-9.7,12.7-20,16.9-30.9c0.5-1.2,0.9-2.5,1.2-3.7c8.2-13.3,10.8-29.5,13-45.5C411.7,87.2,412.8,74.8,412.8,62.6z"/>
		<path fill="#E8E8E8" d="M103.5,96.3c2.1,16,4.8,32.2,13,45.5c0.4,1.3,0.8,2.5,1.2,3.7c4.2,10.9,10.5,21.2,16.9,30.9
			c6.1,9.2,13,16.6,24.4,18.5c10.9,1.9,21.5-1.2,31.5-5.4c9.6-4,18-7.6,22.5-17.6c4.1-9.2,10.4-19,8.2-29.3
			c-2.1-10-7.9-19.9-13.8-28.3c-0.2-0.9-0.6-1.8-1.4-2.6c-2-2-4.2-3.7-6.6-5.2c-7.9-13.4-19.3-24.4-31.4-34.4
			c-16.5-13.5-34.2-29.1-55.8-33c-3.2-0.6-5.5,1.6-6.1,4.1c-4.1,3.9-5.3,10.4-5.3,16.3C100.7,71.8,101.9,84.2,103.5,96.3z"/>
	</g>
	<g id="line_2">
		<path d="M365.5,195.4c-0.4-0.8-0.9-1.7-1.3-2.5c17.6-15.2,29.2-36.4,36.1-58.6c6.9-22.2,9.3-45.5,10.7-68.7
			c0.5-7.4,0-16.5-6.6-20.1c-5.5-3-12.3-0.3-17.8,2.7c-35.3,18.8-65.4,47.4-85.8,81.8c-0.8,1.4-3.2,0.5-3.5-1.1
			c-0.4-1.5,0.5-3.1,1.3-4.4c20.9-33.7,50.8-61.7,85.9-80.3c7.6-4,17.3-7.5,24.3-2.6c6.7,4.7,7.2,14.2,6.8,22.3
			c-1.8,40.9-9.4,82.9-32.7,116.6C378.4,186.9,373,193.3,365.5,195.4z"/>
		<path d="M132.1,179.5c-23.3-33.6-30.8-75.7-32.7-116.6c-0.4-8.1,0.1-17.7,6.8-22.3c7.1-4.9,16.7-1.4,24.3,2.6
			c35,18.6,65,46.6,85.9,80.3c0.8,1.3,1.7,2.9,1.3,4.4c-0.4,1.5-2.7,2.4-3.5,1.1c-20.4-34.4-50.5-63-85.8-81.8
			c-5.5-2.9-12.3-5.7-17.8-2.7c-6.6,3.6-7,12.6-6.6,20.1c1.4,23.2,3.8,46.5,10.7,68.7c6.9,22.2,18.5,43.4,36.1,58.6
			c-0.4,0.8-0.9,1.7-1.3,2.5C141.9,192.3,136.5,185.9,132.1,179.5z"/>
		<path d="M355.7,120.2c0.1,7.2-0.9,14.3-2.8,21.2c5-3,10.5-5,16.2-5.8c-4.5,8.1-7.7,17-9.3,26.2c-3.3-0.3-4-5.1-2.7-8.2
			c1.3-3.1,3.5-6.3,2.5-9.5c-3.3,1.3-6.5,3.1-9.3,5.3c-1.9-4.6-1.9-10,0.1-14.5c1.1-2.6-3.2-4.5-5.6-3.1c-2.5,1.4-3.9,4.2-6.3,5.6
			s-6.8-0.3-5.8-2.9c6.3-17.3,15.3-33.5,24.8-49.2c7.4-12.1,16-24.7,29.2-29.7c1.9,1.2,0.1,4.1-1.7,5.5
			c-21.5,17.4-34.1,43.1-46.1,68c-0.8,0.7,1.1,1.3,2,0.7C345.9,126.6,350.8,123.4,355.7,120.2z"/>
		<path d="M146.3,162.2c-2.3-2.3-4.6-4.7-6.9-7c-1.7-1.8-3.6-4.1-2.9-6.4c1.6-5,10.5-1.4,13.7-5.5c-3-5-6-10-9-15
			c-0.4-0.7-0.9-1.5-0.9-2.4c0-3.2,4.7-3.3,7.7-2.2c6.8,2.4,13.5,4.8,20.3,7.2c-4.7-26.9-18.1-52.1-37.8-71.1
			c-0.6-0.6-1.3-1.3-1-2.1c0.4-1.3,2.3-1,3.5-0.3c8,4.5,13.7,12.1,18.5,19.9c9.6,15.5,16.7,32.6,20.9,50.4c0.6,2.6,1.1,5.6-0.5,7.8
			c-2.8,3.6-8.5,1.5-12.2-1.2c-3.6-2.7-8.4-5.9-12.3-3.5c3.3,3.9,5.7,8.4,7.2,13.3c0.6,1.9,0.9,4.1-0.5,5.5
			c-2.6,2.6-8.4-0.9-10.4,2.2c2.6,3.6,5.2,7.2,7.9,10.9C151.2,164.8,147.9,163.7,146.3,162.2z"/>
	</g>
</g>
<g id="Layer_3">
	<g id="fill_3">
		<path fill="#E8E8E8" d="M181.3,101.6c-9.8-7-19.9-13.9-30.7-19.2c-8.5-4.2-22.2-11.8-30.9-5.2c-2.1,0.5-3.8,2.2-3.4,5
			c2.7,20.1,7.4,40,13.9,59.2c0,0.1,0.1,0.1,0.1,0.2c2.2,8,5.3,15.7,8.6,23.4c4.6,10.6,9.2,21.2,15.1,31.1
			c5.1,8.6,12,17.9,22.1,20.7c10.4,2.9,21.9-1.7,30.4-7.6c8.6-6,15.9-14.2,18.1-24.7c2.1-10.1,1-21.6-1.4-31.6
			C217.5,129.6,199.9,114.9,181.3,101.6z"/>
		<path fill="#E8E8E8" d="M381.7,116.2c2.1-13.7,4.9-28.1,2.4-41.9c-0.9-5.1-3-10.2-9.2-9.3c-6.1,0.9-12.8,5.9-18,8.9
			c-19.7,11.1-38.1,25.1-50.8,43.4c-8.3,8.5-12.8,20-14.9,31.6c-2.2,11.9-3.9,25.8,1.4,37c5.1,10.7,15.7,17.5,26.7,20.9
			c12.2,3.8,23.4-0.1,31-10.3c3.8-5.1,6.3-10.8,8.9-16.5c3.5-7.4,7.7-14.4,11.1-21.8C376.5,145,379.5,130.7,381.7,116.2z"/>
	</g>
	<g id="line_3">
		<path d="M200.8,118c-12.9-10-26.2-19.4-40.1-28.1c-10.2-6.4-21.1-12.5-33.1-13c-2-0.1-4.1,0-5.8,1.1c-3.9,2.3-3.9,7.9-3.4,12.4
			c4.4,35.2,16.3,69.5,34.8,99.8c2.5,4.2,5.3,8.3,8.8,11.7c2.8,2.6,6,4.6,8.5,7.5s4.3,6.7,3.2,10.4c-15.3-10.4-25.3-26.9-33.3-43.6
			c-14-29.2-23.3-60.6-27.4-92.8c-0.6-4.9,3.5-9.4,8.3-10.8c4.8-1.4,9.9-0.3,14.6,1.1c23.8,7.2,43.8,23,63.3,38.4
			C201.1,113.7,202.9,117,200.8,118z"/>
		<path d="M342.4,204.5c-1-2.8,1.3-5.6,3.3-7.8c20.6-22.2,28.4-53.2,34.4-82.9c2.7-13.5,5.2-27.7,1.2-40.9c-0.7-2.3-1.8-4.7-4.1-5.4
			c-1.9-0.6-3.8,0.3-5.6,1.2c-27.4,13.8-51.5,33.8-70.1,58.2c-0.6,0.8-2,0.2-2.3-0.7c-0.3-0.9,0.1-1.9,0.6-2.8
			c7.6-14.8,21.3-25.4,34.5-35.5c11.4-8.7,22.9-17.4,35.8-23.6c3.8-1.8,8.6-3.4,12.1-0.9c3,2.1,3.5,6.3,3.7,10
			c1.8,38.7-7.3,77.9-26,111.9C355.7,193,350.5,200.9,342.4,204.5z"/>
		<path d="M156.7,160.9c-0.5-1.1-0.1-2.3-0.1-3.5c0-1.2-0.5-2.6-1.7-2.7c-2.9-0.2-5.1-3.4-4.6-6.3c0.5-2.9,3.4-5,6.3-5.3
			c2-0.2,1.9-3.4,0.4-4.8c-1.5-1.4-3.6-2.3-4.3-4.2c-1-2.9,2.4-5.5,5.5-5.7c3-0.2,6.1,1.1,9.1,0.8c-9.3-16.2-21.9-30.5-36.8-41.7
			c-1-0.8-0.1-2.6,1.1-2.8c1.2-0.2,2.4,0.6,3.4,1.4c14.2,10.7,26.2,24.3,35.1,39.7c2,3.5,3.9,8,1.7,11.4c-4.2-1.9-8.8-2.9-13.5-2.8
			c2,3.4,4.1,6.8,6.1,10.2c-1.1,1.8-3.7,1.8-5.7,2.5c-2,0.7-3.7,3.6-1.8,4.7c1.8,1,3.6,2.2,4.7,3.9s1.3,4.2,0,5.7
			C160.5,162.8,157.5,162.8,156.7,160.9z"/>
		<path d="M331.8,116.6c1.7-7.2,6.5-13.3,11.1-19.1c6-7.5,12.2-15.1,20.5-20c1.5,1.8-0.3,4.4-2,6c-10.9,10.6-20.3,22.7-27.9,35.9
			c1.4,0.7,3.2,0.2,4.6-0.5c1.5-0.6,3-1.4,4.6-1.1c1.6,0.3,2.7,2.5,1.6,3.6c-1.9,1.8-3.9,4.1-3.7,6.7c0.2,2.6,4.2,4.5,5.5,2.2
			c1.4,1.4,0.9,3.7,0.4,5.6c-1.2,4.2-2.5,8.4-3.7,12.6c-0.5,1.7-1.7,3.8-3.3,3.3c-2.2-3.4-1.7-8.2,1-11.1c0.9-1-0.1-2.8-1.4-3.1
			c-1.3-0.3-2.7,0.3-3.9,1c-1.8-1.3-1.3-4.1-0.1-6c1.2-1.9,2.9-3.6,3-5.9c0-2.2-3.4-4-4.4-2.1c-0.7,1.4-2.7,1.8-3.9,0.9
			c-1.2-0.9-1.2-3,0-4C331.1,120.5,331.4,118.4,331.8,116.6z"/>
	</g>
</g>
<g id="Layer_4">
	<g id="fill_4">
		<path fill="#E8E8E8" d="M287.5,173.5c5.2,21.4,25.4,45.1,49.1,44.3c12.6-0.4,21.5-9,27.9-19.1c7.2-11.5,12.3-24.4,16.5-37.3
			c8.9-27.1,13.4-55.2,13.5-83.6c0-0.5-0.1-0.9-0.1-1.3c0.5-3.1-1.4-6.4-5.2-5.5c-0.4,0.1-0.7,0.2-1.1,0.3c0,0-0.1-0.1-0.1-0.1
			c-1-0.9-2.4-1.2-3.7-1.1c-1.3,0.1-2.5,0.8-3.3,1.8c-0.4,0.4-0.6,0.9-0.8,1.5c-23.5,6.4-45.6,17.3-64.7,32.4
			c-10.7,8.4-19.5,17.1-23.7,30.4C287.8,147.9,284.4,161,287.5,173.5z"/>
		<path fill="#E8E8E8" d="M220.8,137.3c-3.9-13.4-12.5-22.2-23-30.9c-18.8-15.6-40.6-26.9-63.9-33.9c-0.2-0.6-0.4-1.1-0.8-1.5
			c-0.8-1-2-1.8-3.3-1.9c-1.3-0.1-2.7,0.1-3.7,1c0,0-0.1,0.1-0.1,0.1c-0.4-0.1-0.7-0.2-1.1-0.3c-3.8-0.9-5.7,2.3-5.3,5.4
			c-0.1,0.4-0.2,0.8-0.2,1.3c-0.5,28.5,3.3,56.7,11.5,83.9c3.9,13,8.7,26,15.6,37.7c6.1,10.3,14.8,19.1,27.4,19.8
			c23.6,1.3,44.4-21.9,50.1-43.2C227.4,162.5,224.3,149.4,220.8,137.3z"/>
	</g>
	<g id="line_4">
		<path d="M397.1,77.9c0.2,24.2-4.5,48.1-10.5,71.5c-5.7,22.3-13.2,45-28.8,61.9c-1.5,1.7-3.8,3.4-5.8,2.5
			c26.4-38.5,41-85,41.3-131.8c0-2.6-0.2-5.6-2.4-7c-1.7-1.1-4-0.7-6-0.2c-31.3,7.4-60.4,24-82.6,47.2c-1.5-0.1-2.3-1.8-2.1-3.2
			c0.3-1.4,1.4-2.5,2.4-3.6c23-22.4,52.2-38.4,83.4-45.7c2.9-0.7,6.3-1.2,8.6,0.8C396.8,72,397.1,75.2,397.1,77.9z"/>
		<path d="M347.7,143.1c1.1-3.5,4.2-6.1,7.1-8.4c-3.5-4.8-10.9-3.2-16.4-1.1c-1.5,0.6-3.1-0.9-3.3-2.5c-0.2-1.6,0.6-3.1,1.3-4.5
			c9.3-16.9,22.5-31.8,38.1-43.1c0.8-0.6,1.7-1.2,2.7-1.1s1.8,1.4,1.1,2.2c-10.4,10.7-20.9,21.4-31.3,32.1c-1.6,1.7-3.4,3.5-3.7,5.9
			c-0.3,2.3,1.8,5,4,4.4c3-0.8,6.1-1.6,9.1-0.8s5.6,3.8,4.7,6.8c-1.1,3.8-6.9,5.3-6.8,9.2c0,2.2,2,3.9,4,4.8s4.3,1.5,5.9,3
			c1.6,1.5,2.3,4.4,0.5,5.8c-5.1,4-10.4,7.8-15.8,11.4c0.2-5.5,3.7-10.8,8.7-13.2c0.4-1.1-0.9-2.2-2-2.4c-1.2-0.2-2.4,0.2-3.6,0.1
			C348.5,151.4,346.6,146.7,347.7,143.1z"/>
		<path d="M159.8,151.7c-1.2,0.1-2.4-0.3-3.6-0.2c-1.2,0.2-2.4,1.2-2.1,2.4c4.9,2.5,8.2,7.8,8.3,13.4c-5.3-3.7-10.5-7.7-15.5-11.8
			c-1.7-1.4-1-4.4,0.7-5.8c1.7-1.4,4-1.9,6-2.8s4.1-2.5,4.1-4.7c0.1-3.9-5.6-5.6-6.6-9.4c-0.8-3,1.9-6,4.9-6.7s6.1,0.2,9,1.1
			c2.3,0.7,4.4-2,4.1-4.3c-0.2-2.3-1.9-4.2-3.5-6C155.5,105.9,145.3,95,135.1,84c-0.7-0.7,0.1-2,1.1-2.1c1-0.1,1.9,0.5,2.7,1.1
			c15.4,11.7,28.2,26.9,37.1,44c0.7,1.4,1.5,2.9,1.2,4.5c-0.2,1.6-1.9,3-3.3,2.4c-5.5-2.2-12.8-4-16.4,0.7c2.9,2.4,5.9,4.9,6.9,8.5
			C165.5,146.8,163.5,151.5,159.8,151.7z"/>
		<path d="M119.2,69.2c2.3-1.9,5.8-1.3,8.7-0.6c31.1,8,59.9,24.7,82.3,47.7c1,1,2.1,2.2,2.3,3.6c0.3,1.4-0.7,3.2-2.1,3.2
			c-21.7-23.7-50.4-41-81.5-49.1c-2-0.5-4.2-1-6,0.1c-2.2,1.3-2.5,4.4-2.6,7c-0.8,46.7,12.7,93.5,38.2,132.7
			c-2.1,0.9-4.3-0.9-5.8-2.6c-15.2-17.3-22.1-40.2-27.4-62.6c-5.5-23.5-9.6-47.6-8.8-71.7C116.7,74.1,117.1,71,119.2,69.2z"/>
	</g>
</g>
<g id="Layer_5">
	<g id="fill_5">
		<path fill="#E8E8E8" d="M293.9,147.2c0,10,3.1,22.4,8.3,31.1c9.9,16.7,34.2,21.9,51.9,18.1c4.9-1.1,10.5-2.4,14.9-4.9
			c4.1-2.3,6-6.1,7.4-10.4c3.5-10.8,5.5-22.3,6.5-33.6c1-11.6,0.8-23.2-0.7-34.7c-1.4-10.6-3-22.3-8.1-31.9
			c-1.3-2.4-3.6-2.9-5.6-2.2c-0.4,0-0.8,0.1-1.3,0.2c-12,3.9-22.1,13.1-32.2,20.4c-9.7,7-20.3,13.5-29,21.8
			C298.6,127.9,293.8,136.8,293.9,147.2z"/>
		<path fill="#E8E8E8" d="M205.9,120.9c-8.7-8.2-19.3-14.8-29-21.8c-10.1-7.3-20.2-16.5-32.2-20.4c-0.4-0.1-0.9-0.2-1.3-0.2
			c-2-0.7-4.3-0.2-5.6,2.2c-5,9.6-6.7,21.3-8.1,31.9c-1.5,11.5-1.7,23.2-0.7,34.7c1,11.3,3,22.8,6.5,33.6c1.4,4.3,3.3,8.1,7.4,10.4
			c4.4,2.5,10,3.8,14.9,4.9c17.7,3.8,42-1.4,51.9-18.1c5.1-8.6,8.2-21.1,8.3-31.1C218.1,136.8,213.4,127.9,205.9,120.9z"/>
	</g>
	<g id="line_5">
		<path d="M304.4,120.6c18.3-17.8,39.1-32.9,61.6-44.8c2.5-1.3,5.8-0.3,7.8,1.8c2,2,3,4.8,3.9,7.5c8.6,26.4,10.4,55.1,5.1,82.4
			c-1.6,8.5-4.3,17.4-11.1,22.7c-0.7-3.7,1.1-7.3,2.6-10.8c12.3-27.6,6.7-59.5,0.4-89c-0.8-3.5-2.1-7.7-5.6-8.6
			c-2.3-0.6-4.6,0.5-6.7,1.7c-21.9,11.8-41.9,27.1-58.9,45.2C300.2,127.9,302,122.9,304.4,120.6z"/>
		<path d="M351.4,131.3c-1.9-2.4-5.8-0.7-8.4,0.9c-2.6,1.6-6.8,2.7-8.2-0.1c-0.6-1.2-0.2-2.6,0.1-3.8c4.6-16.3,15.3-30.9,29.5-40.2
			c1.2,0.5,1.5,2.2,1,3.4c-0.5,1.2-1.6,2-2.6,2.9c-9.3,7.5-16.8,17.4-21.6,28.4c-0.5,1.1-0.8,2.5,0.1,3.3c0.4,0.4,1,0.4,1.6,0.4
			c2.8,0,5.4-1.3,8.1-1.6c2.7-0.3,6.1,1,6.5,3.7c0.4,2.3-1.5,4.3-3.1,6c-1.6,1.7-3,4.3-1.8,6.3c1.8,3,6.9,1.1,9.5,3.4
			c2.6,2.3,0.8,6.6-1.2,9.5c-1.2,1.7-2.3,3.4-3.5,5c-2.1,0.6-3.3-2.7-2.3-4.8c1-2,2.9-3.7,3-5.9c-3-0.6-6-1.1-9-1.7
			c-1.4-0.3-2.9-0.6-3.6-1.9c-0.6-1.1-0.2-2.5,0.2-3.7C347,137.3,349,134.1,351.4,131.3z"/>
		<path d="M208.5,128.7c-17.1-18.1-37-33.4-58.9-45.2c-2.1-1.1-4.4-2.2-6.7-1.7c-3.5,0.9-4.9,5.1-5.6,8.6c-6.4,29.5-12,61.4,0.4,89
			c1.5,3.4,3.4,7.1,2.6,10.8c-6.8-5.3-9.5-14.3-11.1-22.7c-5.3-27.3-3.5-55.9,5.1-82.4c0.9-2.7,1.9-5.5,3.9-7.5c2-2,5.2-3.1,7.8-1.8
			c22.5,11.9,43.4,27,61.6,44.8C209.9,122.9,211.7,127.9,208.5,128.7z"/>
		<path d="M166.2,140.8c0.5,1.2,0.8,2.6,0.2,3.7c-0.7,1.2-2.2,1.6-3.6,1.9c-3,0.6-6,1.1-9,1.7c0,2.2,2,3.9,3,5.9
			c1,2-0.2,5.4-2.3,4.8c-1.2-1.7-2.3-3.4-3.5-5c-2-2.9-3.9-7.2-1.2-9.5c2.6-2.3,7.7-0.4,9.5-3.4c1.2-2-0.3-4.5-1.8-6.3
			c-1.6-1.7-3.5-3.7-3.1-6c0.4-2.7,3.8-4,6.5-3.7c2.7,0.3,5.4,1.5,8.1,1.6c0.6,0,1.2-0.1,1.6-0.4c0.9-0.8,0.5-2.2,0.1-3.3
			c-4.8-11-12.3-20.8-21.6-28.4c-1-0.8-2.1-1.7-2.6-2.9c-0.5-1.2-0.2-2.9,1-3.4c14.2,9.3,24.8,23.9,29.5,40.2
			c0.4,1.3,0.7,2.7,0.1,3.8c-1.3,2.8-5.5,1.7-8.2,0.1c-2.6-1.6-6.4-3.3-8.4-0.9C162.9,134.1,164.9,137.3,166.2,140.8z"/>
	</g>
</g>
<g id="Layer_6">
	<g id="fill_6">
		<path fill="#E8E8E8" d="M286.2,141.9c-0.6,11.7,1.3,25.9,7.2,36.1c11.1,19.2,35.7,33.1,57.9,26.5c11.5-3.5,17.6-10.9,21.6-21.9
			c4.5-12.4,6.4-25.6,7.8-38.6c1.3-12.5,2.6-24.9,1.7-37.5c-0.9-12.9-4-25.5-8.6-37.5c-1.2-3-4-3.4-6.3-2.3
			c-2.8-0.4-4.9,0.7-7.2,2.2c-2.9,1.8-5.8,2.9-9,4.1c-6.5,2.5-12.2,6.6-17.6,10.9c-11.3,8.9-23.7,17.5-33.8,27.8
			C291.6,120.1,286.8,130.1,286.2,141.9z"/>
		<path fill="#E8E8E8" d="M212.1,111.7c-10.1-10.3-22.5-18.8-33.8-27.8c-5.4-4.3-11.1-8.5-17.6-10.9c-3.2-1.2-6.1-2.2-9-4.1
			c-2.3-1.5-4.4-2.6-7.2-2.2c-2.3-1.1-5.1-0.7-6.3,2.3c-4.7,12-7.7,24.6-8.6,37.5c-0.9,12.5,0.4,25,1.7,37.5
			c1.4,13,3.3,26.2,7.8,38.6c4,11,10.1,18.4,21.6,21.9c22.2,6.7,46.7-7.2,57.9-26.5c5.9-10.2,7.8-24.5,7.2-36.1
			C225.1,130.1,220.4,120.1,212.1,111.7z"/>
	</g>
	<g id="line_6">
		<path d="M376,118.2c4.8-1.7,5.4-8.3,4.9-13.4c-1-10.1-2.8-20.2-5.3-30c-0.4-1.4-0.9-3-2.3-3.4c-1.4-0.4-2.7,0.7-3.7,1.7
			c-21.9,22.3-32.5,53.1-42.5,82.8c-1.5,1-2.4-1.8-2-3.5c7.9-30.6,22.3-59.6,42-84.3c-27.5,13.6-52.7,31.9-74.2,53.9
			c-2-4,1.6-8.3,4.9-11.3c19.3-17.2,40.5-32.3,63-45c4.3-2.4,9.6-4.7,13.8-2.3c3.7,2.2,4.7,7.1,5.3,11.4c1.5,11.2,3.1,22.3,4.6,33.5
			c0.4,2.7,2.3,6.3,4.7,5c7-3.6,15-5.1,22.8-4.5c0.4,3.3-4.1,4.7-7.4,4.9c-5.9,0.4-12.1,1.2-16.7,4.8c-4.6,3.6-6.8,11-3,15.5
			c0.4,0.5,1,1,1.6,0.9c7.7-1.4,15.6-1.5,23.3-0.2c1.4,0.2,3,0.6,4,1.6c1,1.1,1.1,3.1-0.2,3.8c-0.8,0.4-1.8,0.2-2.6,0
			c-4.8-1.2-9.7-1.9-14.6-2.1c-4.8-0.2-10.3,0.4-13.4,4.1c-3.1,3.7-0.7,11.2,4.1,10.6c6.9-0.8,14.1,0.7,20,4.4
			c1.2,0.8,2.6,2.1,2,3.5c-0.6,1.4-2.6,1.2-4.1,0.7c-4.8-1.7-9.4-4.3-14.5-4.7c-5.1-0.4-11,2.3-11.8,7.3
			c-1.9,11.8-4.2,24.6-12.8,32.9c3.9-12.9,7.9-25.7,11.8-38.6c-8.8-1.5-18-0.3-26.1,3.4c-1.3-1-1-3.2,0.2-4.4
			c1.2-1.1,2.9-1.5,4.5-1.8c4.4-0.8,8.8-1.7,13.2-2.5c2.6-0.5,5.4-1.1,7.4-2.9c2-1.8,2.5-5.4,0.5-7.1c-1.9-1.6-4.8-0.7-7.1,0.2
			c-7.2,2.8-14.4,5.6-21.7,8.4c1.5-6.8,9.6-9.4,16.4-10.8c6.8-1.4,14.9-4.1,16.3-10.9c0.6-2.7-0.7-6.2-3.5-6.6
			c-1.2-0.2-2.3,0.3-3.4,0.7c-11.8,4.6-22.7,11.6-31.8,20.5c-2-1.9,0-5.2,2-7.1C353.6,129,364.4,122.4,376,118.2z"/>
		<path d="M167.3,137.4c2,1.9,4,5.2,2,7.1c-9.1-8.8-20-15.8-31.8-20.5c-1.1-0.4-2.3-0.9-3.4-0.7c-2.8,0.4-4.1,3.9-3.5,6.6
			c1.5,6.8,9.5,9.4,16.3,10.9c6.8,1.4,14.9,4,16.4,10.8c-7.2-2.8-14.4-5.6-21.7-8.4c-2.3-0.9-5.2-1.7-7.1-0.2
			c-2.1,1.7-1.5,5.2,0.5,7.1c2,1.8,4.7,2.4,7.4,2.9c4.4,0.8,8.8,1.7,13.2,2.5c1.6,0.3,3.4,0.7,4.5,1.8c1.2,1.1,1.5,3.4,0.2,4.4
			c-8.1-3.7-17.3-4.8-26.1-3.4c3.9,12.9,7.9,25.7,11.8,38.6c-8.6-8.4-10.9-21.1-12.8-32.9c-0.8-5.1-6.7-7.8-11.8-7.3
			c-5.1,0.4-9.7,3.1-14.5,4.7c-1.4,0.5-3.5,0.7-4.1-0.7c-0.6-1.3,0.7-2.7,2-3.5c5.9-3.7,13.1-5.2,20-4.4c4.8,0.6,7.1-6.8,4.1-10.6
			c-3.1-3.7-8.5-4.3-13.4-4.1c-4.9,0.2-9.8,0.9-14.6,2.1c-0.9,0.2-1.8,0.4-2.6,0c-1.3-0.7-1.2-2.7-0.2-3.8c1-1.1,2.5-1.4,4-1.6
			c7.7-1.3,15.7-1.2,23.3,0.2c0.6,0.1,1.2-0.4,1.6-0.9c3.8-4.5,1.6-11.9-3-15.5c-4.6-3.6-10.8-4.5-16.7-4.8
			c-3.3-0.2-7.8-1.6-7.4-4.9c7.8-0.6,15.8,0.9,22.8,4.5c2.4,1.2,4.3-2.4,4.7-5c1.5-11.2,3.1-22.3,4.6-33.5c0.6-4.3,1.6-9.2,5.3-11.4
			c4.2-2.5,9.5-0.1,13.8,2.3c22.5,12.7,43.7,27.8,63,45c3.3,2.9,6.9,7.3,4.9,11.3c-21.4-22-46.6-40.3-74.2-53.9
			c19.7,24.7,34.1,53.7,42,84.3c0.4,1.7-0.5,4.5-2,3.5c-10-29.7-20.6-60.4-42.5-82.8c-1-1-2.3-2.1-3.7-1.7c-1.4,0.4-1.9,2-2.3,3.4
			c-2.5,9.8-4.3,19.9-5.3,30c-0.5,5.1,0,11.7,4.9,13.4C147.5,122.4,158.3,129,167.3,137.4z"/>
	</g>
</g>
<g id="Layer_7">
	<g id="fill_7">
		<path fill="#E8E8E8" d="M299.9,166.4c3.8,8.9,11.6,18.2,20.1,23.1c8.2,4.7,20.2,2.6,28.8,0.1c9.2-2.6,17.5-7.7,23.2-15.5
			c6.3-8.7,9.2-20,11-30.5c4-22.7,1.8-45.8-3.9-67.9c1.1-3.1-0.4-6.9-4.4-6.5c-12.5,1.4-23.3,6.1-33.2,13.8
			c-10.2,7.9-20,16.9-28.7,26.4c-6.9,7.5-14.3,16-16.6,26.2C294,145.7,295.9,157.1,299.9,166.4z"/>
		<path fill="#E8E8E8" d="M215.7,135.7c-2.3-10.2-9.7-18.7-16.6-26.2c-8.8-9.5-18.5-18.4-28.7-26.4c-9.9-7.7-20.7-12.4-33.2-13.8
			c-4.1-0.5-5.5,3.4-4.4,6.5c-5.7,22.2-7.8,45.3-3.9,67.9c1.8,10.5,4.7,21.7,11,30.5c5.7,7.8,14,12.9,23.2,15.5
			c8.6,2.4,20.6,4.6,28.8-0.1c8.5-4.9,16.3-14.2,20.1-23.1C216,157.1,218,145.7,215.7,135.7z"/>
	</g>
	<g id="line_7">
		<path d="M372.9,71c-20.9,5.2-38,20-52.8,35.5c-7.2,7.6-14.2,15.5-20.8,23.7c-2.4-1.4-1-5,0.7-7.2c11.6-15.2,25.2-28.9,40.4-40.6
			c9.2-7.1,19.3-13.7,30.8-15.5c2.7-0.4,5.7-0.5,7.8,1.3c1.7,1.4,2.3,3.8,2.8,5.9c5.7,24.7,6,50.6,0.8,75.3c-2,9.7-5.1,19.7-11.9,27
			c-6.8,7.3-18,11.2-27,6.9c-9.1-4.4-12.9-15.4-13.8-25.5c-1.2-12.5,0.7-25.3,5.4-36.9C343,101.5,358.1,86,372.9,71 M370.1,168.6
			c8-12.7,11.6-27.7,12.5-42.7s-0.8-29.9-2.7-44.8c-0.3-1.9-0.7-4.2-2.5-5.1c-2.2-1.1-4.7,0.9-6.4,2.7c-10.3,11-20.4,22.3-27.8,35.4
			s-11.8,28.4-9.7,43.3c0.8,5.9,2.7,11.9,6.6,16.4c3.9,4.5,10.1,7.4,16,6.2C362.2,179,366.7,173.8,370.1,168.6z"/>
		<path d="M353,144.5c-1,1.2-2.9,2.6-4.1,1.5c-0.1-3.9,2.9-7.2,5.6-10c0.8-0.8,1.6-1.6,2.7-1.9c1.1-0.2,2.5,0.4,2.5,1.6
			c0,0.7-0.5,1.3-0.9,1.9C356.9,139.8,354.9,142.2,353,144.5z"/>
		<path d="M347.1,135.9c-0.6,0.8-1.9,1.6-2.5,0.8c0.1-5.4,3.2-10.8,8-13.4c1.4-0.8,3.9-0.6,3.7,0.9c0,0.4-0.3,0.8-0.6,1.2
			C352.8,128.9,350,132.4,347.1,135.9z"/>
		<path d="M356.1,155.3c0.2-1.6,3.2-1.2,3.4,0.5s-1.1,3.1-2.6,3.8c-1.1,0.5-2.4,0.8-3.6,0.4c0.6-1.6,1.1-3.2,1.7-4.8L356.1,155.3z"
			/>
		<path d="M156.9,155.1c0.6,1.6,1.1,3.2,1.7,4.8c-1.1,0.5-2.5,0.2-3.6-0.4c-1.5-0.7-2.9-2.2-2.6-3.8c0.3-1.6,3.2-2.1,3.4-0.5
			L156.9,155.1z"/>
		<path d="M156.2,125.4c-0.3-0.3-0.6-0.7-0.6-1.2c-0.2-1.6,2.3-1.7,3.7-0.9c4.8,2.6,7.9,7.9,8,13.4c-0.6,0.8-1.9,0-2.5-0.8
			C161.9,132.4,159.1,128.9,156.2,125.4z"/>
		<path d="M153.1,137.5c-0.5-0.5-0.9-1.2-0.9-1.9c0-1.1,1.4-1.8,2.5-1.6c1.1,0.2,1.9,1.1,2.7,1.9c2.7,2.8,5.7,6.1,5.6,10
			c-1.2,1.1-3-0.2-4.1-1.5C157,142.2,155,139.8,153.1,137.5z"/>
		<path d="M139.1,71c14.7,14.9,29.8,30.4,37.6,49.9c4.7,11.7,6.5,24.4,5.4,36.9c-0.9,10.1-4.7,21.1-13.8,25.5
			c-9,4.3-20.2,0.4-27-6.9s-9.8-17.2-11.9-27c-5.2-24.8-4.9-50.7,0.8-75.3c0.5-2.2,1.1-4.5,2.8-5.9c2.1-1.8,5.1-1.7,7.8-1.3
			c11.5,1.8,21.6,8.3,30.8,15.5c15.1,11.7,28.7,25.4,40.4,40.6c1.7,2.2,3.1,5.8,0.7,7.2c-6.6-8.2-13.5-16.1-20.8-23.7
			C177,91,160,76.2,139.1,71 M155.9,180.2c5.9,1.2,12.1-1.7,16-6.2s5.8-10.5,6.6-16.4c2-14.9-2.4-30.1-9.7-43.3S151.2,89.8,141,78.8
			c-1.7-1.8-4.1-3.8-6.4-2.7c-1.8,0.8-2.3,3.1-2.5,5.1c-1.9,14.8-3.6,29.8-2.7,44.8s4.5,30,12.5,42.7
			C145.2,173.8,149.8,179,155.9,180.2z"/>
	</g>
</g>
<g id="Layer_8">
	<g id="fill_8">
		<path fill="#E8E8E8" d="M301.7,137.4c-7.3,19.5-7.3,45.5,6.9,60.5c14.6,15.5,46.8,25.8,62.4,6.7c1-1.2,1.2-2.4,1-3.4
			c5.5-6.3,9.3-14,11.7-22.1c4.5-14.8,6.7-30.6,8-46c1.3-14.9,1.6-30,0.3-45c-0.5-5.8-3.2-10.5-9.5-11.1c-5.3-0.5-10.1,2.6-15.2,3.8
			c-1,1-2.1,1.8-3.3,2.6c-4,2.5-8.4,4.1-12.3,6.8c-8.4,5.7-16.4,12-23.8,18.9c-7.1,6.6-15,12-20.8,19.9
			C305,131.6,303.3,134.5,301.7,137.4z"/>
		<path fill="#E8E8E8" d="M204.4,127.5c-6.2-7.7-14.2-12.8-21.6-19.1c-7.6-6.6-15.9-12.6-24.5-18c-4-2.5-8.5-3.9-12.5-6.3
			c-1.2-0.7-2.4-1.5-3.4-2.5c-5.1-1-10-4-15.3-3.2c-6.3,0.9-8.9,5.7-9.1,11.5c-0.7,14.9,0.1,30.1,2,44.9c1.9,15.3,4.6,31.1,9.7,45.7
			c2.8,8,6.8,15.6,12.5,21.7c-0.2,1.1,0.1,2.3,1.1,3.4c16.3,18.5,48.1,7,62.1-9c13.6-15.5,12.6-41.4,4.7-60.7
			C208.4,133,206.5,130.2,204.4,127.5z"/>
	</g>
	<g id="line_8">
		<path d="M352.4,144.9c-5.7-2.5-12.6-2.3-18.1,0.6c-0.8-6.5,2.6-12.7,6-18.3c10.5-17,22.5-33.1,36.2-47.6
			c-25.1,9.4-47.5,26-63.8,47.3c-3.1-0.5-1.9-5.4,0.2-7.7c18.7-21.6,43.2-38.1,70.2-47.2c1.8-0.6,3.8-1.2,5.6-0.5c2.5,1,3.5,4,4,6.7
			c3.6,18.7,2.2,38.1,0.3,57c-2.6,26-6.8,53.4-23.5,73.4c-0.8,0.9-1.7,1.8-2.8,1.9s-2.4-1.3-1.7-2.2c12.2-16.3,19.1-36.2,22.5-56.4
			c3.5-20.1,3.7-40.6,4-61.1c0-3,0-6.3-1.7-8.8s-5.7-3.8-7.8-1.6c-15.7,16.2-29.5,34.3-41,53.7c-1.1,1.8-1.1,5.4,1,4.9
			c3.6-0.8,7.4-1.6,10.8-0.4c3.4,1.2,6.1,5.4,4.4,8.6c-1.3,2.5-4.5,3.4-6.6,5.3c-2.1,1.9-2.2,6.5,0.7,6.5c3.6,0,7.5,0.1,10.4,2.2
			s3.8,7.2,0.8,9.2c-2.6,1.7-5.4,3.8-6.1,6.9s2.6,6.8,5.4,5.3c-1,3.6-6,5.4-9.1,3.2c-3.2-2.2-3.4-7.1-1.5-10.5
			c1.9-3.4,5.2-5.6,8.4-7.8c-0.8-2.6-3.8-3.8-6.5-4.1c-2.7-0.3-5.5-0.1-8-1.3c-2.4-1.2-4.1-4.6-2.3-6.6
			C346,152.2,349.2,148.6,352.4,144.9z"/>
		<path d="M169.6,155.7c1.9,2,0.3,5.4-2,6.7c-2.4,1.3-5.2,1.2-7.9,1.5c-2.7,0.4-5.6,1.7-6.3,4.3c3.3,2,6.7,4.1,8.7,7.5
			s1.9,8.2-1.2,10.5c-3,2.3-8,0.7-9.2-2.9c2.8,1.4,5.9-2.5,5.2-5.5c-0.8-3.1-3.6-5-6.3-6.7c-3.1-1.9-2.3-6.9,0.5-9.2
			s6.7-2.5,10.3-2.6c2.8-0.1,2.6-4.8,0.4-6.5c-2.2-1.8-5.4-2.5-6.8-5c-1.8-3.2,0.7-7.4,4.1-8.8c3.4-1.4,7.2-0.7,10.8,0
			c2.1,0.4,2-3.1,0.8-4.9c-12.2-19-26.6-36.6-42.9-52.2c-2.2-2.1-6.1-0.7-7.7,1.9c-1.6,2.6-1.5,5.8-1.3,8.9c1,20.4,2,40.9,6.2,60.9
			c4.2,20,11.7,39.6,24.5,55.5c0.7,0.9-0.4,2.3-1.6,2.3s-2.1-1-2.9-1.8c-17.5-19.4-22.6-46.7-26.2-72.5c-2.6-18.9-4.7-38.2-1.8-57
			c0.4-2.7,1.2-5.8,3.7-6.8c1.7-0.8,3.8-0.2,5.6,0.3c27.3,8.2,52.4,23.8,71.9,44.7c2.2,2.3,3.6,7.1,0.5,7.7
			c-17.1-20.7-40-36.4-65.5-44.9c14.2,14,26.8,29.7,37.9,46.2c3.6,5.4,7.3,11.5,6.7,18c-5.6-2.7-12.5-2.6-18.1,0.1
			C162.9,148.7,166.3,152.2,169.6,155.7z"/>
	</g>
</g>
<g id="Layer_9">
	<g id="fill_9">
		<path fill="#E8E8E8" d="M210.8,117.9c-7.4-10.4-15.9-19.9-25.5-28.4c-9.5-8.3-20.3-17.2-32.2-21.6c-2.8-1-4.9,0.5-5.7,2.6
			c-7.7,6.5-12,15.9-14.3,25.5c-2.6,10.7-4.4,23.2-0.7,33.8c1.5,4.4,3.9,8.6,7.2,11.8c1.6,1.6,3.5,3,5.5,4.1
			c0.9,0.5,2.3,0.7,3.1,1.3c0.4,0.4,0.7,0.4,0.8,0c-0.1,1.1-0.1,2.1-0.1,3.2c0,10.8,3.3,21.7,10.3,30.2
			c13.6,16.5,37.8,17.7,52.5,2.3c8.5-8.9,10.1-20.7,10.5-32.7C222.7,137.6,217.9,127.8,210.8,117.9z"/>
		<path fill="#E8E8E8" d="M385.4,75.4c-3.5-11.7-16.2-10.2-25-5.8c-6.3,3.1-11.9,7.7-17.5,11.8c-5.3,4-10.6,7.9-15.7,12.2
			c-7.9,6.6-15.3,14-20.9,22.6c-0.7,0.2-1.4,0.7-2.1,1.5c-7.4,9.4-16,20.1-16.4,32.6c-0.4,10.4,3.3,21,10,29
			c7.1,8.4,17.8,13.5,28.8,13.8c11.2,0.3,22.2-5.3,30.9-12c4.9-3.8,7.8-8.9,11-14.2c3.5-5.8,6.9-11.7,10.2-17.6
			c5.9-10.6,11.3-20.7,11.4-33.1C390.2,103.1,389.2,88.1,385.4,75.4z"/>
	</g>
	<g id="line_9">
		<path d="M388.2,118.5c0.8-8.6-0.8-17.3-2.5-25.8c-0.8-4.2-1.6-8.5-2.5-12.7c-0.9-4.7-2.5-10.3-7.1-11.9c-3.3-1.1-6.8,0.3-10,1.8
			c-27.6,13.3-51.4,34.4-67.9,60.3c-0.7,1.2-1.5,2.4-2.8,2.9c-1.3,0.6-3.1,0-3.3-1.3c17.1-29.2,43.4-53,74.2-67.1
			c3.3-1.5,6.8-2.9,10.3-2.2c7.1,1.4,9.7,9.9,10.9,17c1.5,9.1,2.8,18.2,3.8,27.4c0.7,5.8,1.2,11.7,0.2,17.4
			c-1.2,6.6-4.3,12.7-7.6,18.6c-4.8,8.6-10,17.1-15.4,25.4c-3.3,5-6.9,10.1-12.3,12.6c-0.6-1.7,0.4-3.6,1.3-5.2
			C369.3,157.2,386.2,140.3,388.2,118.5z"/>
		<path d="M217.1,131.6c-16.4-23.7-37.5-44.1-61.7-59.8c-1.7-1.1-3.7-2.3-5.8-1.9c-1.8,0.3-3.1,1.8-4.2,3.2
			c-13.5,16.7-16.4,41.1-7.4,60.5c1.1,2.4,2.5,4.8,4.7,6.4c2.2,1.5,4.9,2,7.2,3.3c2.3,1.3,4.1,4.2,2.9,6.6
			c-4.5,8.2,1.6,18.1,7.7,25.2c2.3,2.7,4.6,7.1,1.8,9.3c-4.5-4.5-9.2-9.1-12.2-14.7c-3.1-5.6-4.4-12.5-2-18.4c0.6-1.5-2-2-3.6-2.2
			c-2.2-0.3-3.8-2-5.2-3.7c-8-10-11.2-23.3-10.5-36.1c0.8-12.8,5.2-25.1,11.1-36.5c1.4-2.7,3-5.4,5.7-6.8c4.9-2.6,10.8,0.5,15.4,3.6
			c21.4,14.7,40.3,33.1,55.6,54.1C218.3,126,219.8,130.2,217.1,131.6z"/>
		<path d="M352.5,148.1c-3.2,2.8-4.7,7.5-3.7,11.6c0.5,2.1-2.8,3.7-4.5,2.3c-1.7-1.4-1.7-4.2-0.5-6c1-1.6,2.3-4,0.7-4.8
			c-3.5,2.8-7.6,4.9-11.9,6.2c0.5-5.3,1.5-10.6,2.8-15.7c-4,0.1-7.9,1.9-10.5,4.8c-0.8,0.9-1.5,1.9-2.6,2.4s-2.6,0.3-3-0.8
			c-0.2-0.4-0.1-0.8-0.1-1.2c0.9-20.2,13.8-37.6,26.2-53.7c5-6.4,10.1-13,17.1-17.2c1.8,1.9-0.2,4.9-2.1,6.8
			c-15,14.8-27.2,32.5-35.9,51.7c-0.7,1.6-1.1,4,0.5,4.7c0.9,0.3,1.8-0.1,2.7-0.5c4.6-2.4,9.1-4.7,13.7-7.1c2.3,1.1,2,4.5,0.5,6.6
			c-1.4,2.1-3.6,3.7-4.3,6.2c-0.7,2.4,1.7,5.7,3.9,4.4c1.6-1,3.3-1.9,4.9-2.9c1.4-0.8,3-1.7,4.6-1.4
			C352.6,144.8,353.7,147,352.5,148.1z"/>
		<path d="M173.5,171.8c-3.8-0.2-7-4-6.5-7.8c0.5-3.8,4.5-6.7,8.2-5.9c2.7,0.6,4.3-3.3,3.3-5.9c-1-2.5-3.4-4.3-4.7-6.8
			c-1.3-2.4-0.6-6.4,2.2-6.6c1.7-0.1,3.3,1.3,4.9,1c3.1-0.5,2.6-5.1,1.3-7.9c-8-16.9-17.2-33.3-27.4-49c-0.5-0.8-1-1.7-0.7-2.6
			c0.7-2.1,3.9-0.4,5.2,1.4c11.5,16.6,21.2,34.5,28.6,53.3c0.8,2,1.6,4.2,1.2,6.3c-0.4,2.1-2.6,4.1-4.7,3.5
			c-1.9-0.6-3.7,1.8-3.4,3.8c0.3,2,1.8,3.6,3,5.2s2.3,3.6,1.7,5.6c-1.6,5-10.4,1.6-13.9,5.6C173.5,166.8,174.2,169.5,173.5,171.8z"
			/>
	</g>
</g>
<g id="Layer_10">
	<g id="fill_10">
		<path fill="#E8E8E8" d="M392.2,68.4c-2.9-5.7-9.4-6-15-5c-12.6,2.4-24.5,12.2-34.5,19.8c-11.6,8.9-22.3,18.9-31.4,30.4
			c-2.5,3.2-5.1,6.5-7.5,9.9c-0.8,0-1.6,0.3-2.4,1c-10.7,8.1-11.8,21.2-8.8,33.5c3.1,12.9,9.1,24.6,20.1,32.3
			c10.5,7.3,24.1,9.4,36.4,6.1c5.3-1.4,10.8-3.7,14.2-8.1c4.4-5.8,7.3-13.3,10.3-19.9c11.4-25.6,18.4-53,20.4-81
			C394.3,81.3,395,74,392.2,68.4z"/>
		<path fill="#E8E8E8" d="M118.1,87.4c2.1,28,9,55.4,20.4,81c2.9,6.6,5.9,14.1,10.3,19.9c3.4,4.4,8.9,6.7,14.2,8.1
			c12.3,3.3,25.9,1.2,36.4-6.1c11.1-7.7,17-19.4,20.1-32.3c3-12.3,1.9-25.4-8.8-33.5c-0.8-0.6-1.7-0.9-2.4-1c-2.4-3.4-5-6.7-7.5-9.9
			c-9.1-11.4-19.8-21.5-31.4-30.4c-9.9-7.6-21.9-17.5-34.5-19.8c-5.6-1.1-12.2-0.7-15,5C116.9,74,117.6,81.3,118.1,87.4z"/>
	</g>
	<g id="line_10">
		<path d="M338.2,136.2c-1.9,1.5-5.2,2.9-6.3,0.8c11-11.8,25.2-20.7,40.6-25.6c5.3-1.7,11-3,15.3-6.6c4.3-3.6,6.4-10.5,2.8-14.8
			c-1-1.2-2.9-0.6-4.4,0c-20.9,9.6-43,20.3-54.7,40c-4.4,7.4-7,15.7-9.6,23.9c-2.6-0.6-2.4-4.3-1.7-6.8
			c8.6-27.6,24.5-52.9,45.5-72.7c1-1,1.9-2.9,0.6-3.4c-25.6,16.7-48.8,37.2-68.5,60.6c-1,0.6-2.3-0.6-2.3-1.7s0.7-2.1,1.4-3.1
			c19.6-25.3,44.5-46.5,72.6-61.8c4.2-2.3,8.6-4.5,13.4-4.6c4.8-0.2,9.9,2.2,11.5,6.7c1,2.7,0.5,5.8,1.2,8.7
			c0.7,2.8,3.7,5.6,6.3,4.4c7.4-3.5,15.7-5.1,23.8-4.6c1,0.1,2,0.2,2.6,0.9c1.7,2-1.9,4.2-4.6,4.3c-6.9,0.3-14.1,0-20.3,2.8
			c-6.3,2.9-11.2,10.2-8.7,16.6c7.8,5.9,19-2.8,28.6-0.5c1.3,0.3,2.6,0.9,3.2,2.1c0.6,1.2-0.1,3-1.4,3c-3.1,0.1-6.2,0.2-9.2,0.2
			c-5.4,0.1-11,0.3-15.9,2.4s-9.4,6.6-9.7,12c-0.3,4.3,3.6,9.2,7.6,7.8c7.8-2.6,17-0.1,22.4,6.1c-6-0.5-12-1-18-1.5
			c-6.2-0.5-14.4,0.3-15.9,6.4c-3.5,14.5-8.7,28.5-15.6,41.8c-2.4,4.6-5.2,9.3-10,11.4c7.6-17.5,15.2-34.9,22.8-52.4
			c0.5-1.1,0.9-2.3,0.4-3.4c-0.7-1.3-2.6-1.4-4.1-1.3c-14.3,1.3-28.4,5.6-40.9,12.6c-2.4,1.3-6.8,1.7-6.7-1
			c14.4-9,30.9-14.7,47.8-16.4c6.3-0.7,8.3-8.8,8.7-15.1c0.1-1,0-2.3-0.9-2.8c-0.6-0.3-1.2-0.1-1.8,0
			C368.7,116.2,352.2,124.7,338.2,136.2 M362.4,83.4c-6.7,8.1-13.5,16.1-20.2,24.2c-0.6,0.7-1.2,1.4-1.2,2.3c0,0.9,0.8,1.8,1.7,1.5
			c11.7-11.4,26.5-19.1,41.6-25.2c3.2-1.3,6.7-2.9,7.8-6.1c0.6-1.8,0.3-3.8-0.1-5.6c-0.7-3.5-2.2-7.4-5.6-8.5
			c-2.4-0.7-5,0.3-7.2,1.6C372.4,71.5,367.3,77.5,362.4,83.4z"/>
		<path d="M173.7,136.2c-14-11.5-30.5-20-48-24.7c-0.6-0.2-1.2-0.3-1.8,0c-0.9,0.4-1,1.7-0.9,2.8c0.4,6.3,2.4,14.5,8.7,15.1
			c16.9,1.8,33.4,7.4,47.8,16.4c0.1,2.8-4.3,2.4-6.7,1c-12.6-6.9-26.6-11.2-40.9-12.6c-1.5-0.1-3.4-0.1-4.1,1.3
			c-0.5,1-0.1,2.3,0.4,3.4c7.6,17.5,15.2,34.9,22.8,52.4c-4.7-2-7.6-6.8-10-11.4c-6.9-13.2-12.1-27.3-15.6-41.8
			c-1.5-6.1-9.7-6.9-15.9-6.4c-6,0.5-12,1-18,1.5c5.4-6.2,14.7-8.7,22.4-6.1c4.1,1.4,7.9-3.5,7.6-7.8c-0.3-5.4-4.7-9.9-9.7-12
			c-5-2.1-10.5-2.3-15.9-2.4c-3.1-0.1-6.2-0.2-9.2-0.2c-1.3,0-2-1.8-1.4-3c0.6-1.2,1.9-1.8,3.2-2.1c9.5-2.3,20.8,6.4,28.6,0.5
			c2.5-6.4-2.5-13.7-8.7-16.6c-6.3-2.9-13.4-2.6-20.3-2.8c-2.6-0.1-6.3-2.3-4.6-4.3c0.6-0.7,1.7-0.9,2.6-0.9
			c8.2-0.4,16.4,1.2,23.8,4.6c2.6,1.2,5.6-1.5,6.3-4.4c0.7-2.8,0.3-5.9,1.2-8.7c1.6-4.5,6.8-6.9,11.5-6.7c4.8,0.2,9.2,2.4,13.4,4.6
			c28.1,15.3,53,36.5,72.6,61.8c0.7,0.9,1.4,1.9,1.4,3.1c0,1.1-1.3,2.3-2.3,1.7c-19.7-23.4-42.8-43.9-68.5-60.6
			c-1.3,0.5-0.4,2.5,0.6,3.4c21,19.8,36.8,45.1,45.5,72.7c0.8,2.5,0.9,6.2-1.7,6.8c-2.6-8.2-5.2-16.5-9.6-23.9
			c-11.7-19.8-33.8-30.5-54.7-40c-1.4-0.7-3.3-1.2-4.4,0c-3.6,4.3-1.5,11.2,2.8,14.8c4.3,3.6,9.9,4.9,15.3,6.6
			c15.4,4.8,29.6,13.7,40.6,25.6C178.9,139.1,175.6,137.7,173.7,136.2 M132.8,67.6c-2.2-1.3-4.8-2.3-7.2-1.6c-3.4,1-4.9,5-5.6,8.5
			c-0.4,1.9-0.7,3.8-0.1,5.6c1.1,3.2,4.6,4.8,7.8,6.1c15.1,6.1,29.9,13.8,41.6,25.2c0.8,0.3,1.7-0.6,1.7-1.5c0-0.9-0.6-1.6-1.2-2.3
			c-6.7-8.1-13.5-16.1-20.2-24.2C144.6,77.5,139.5,71.5,132.8,67.6z"/>
	</g>
</g>
</svg>
