<?xml version="1.0" encoding="utf-8"?>
<!-- Generator: Adobe Illustrator 18.1.1, SVG Export Plug-In . SVG Version: 6.00 Build 0)  -->
<!DOCTYPE svg PUBLIC "-//W3C//DTD SVG 1.1//EN" "http://www.w3.org/Graphics/SVG/1.1/DTD/svg11.dtd">
<svg version="1.1" id="Layer_group" xmlns="http://www.w3.org/2000/svg" xmlns:xlink="http://www.w3.org/1999/xlink" x="0px"
	 y="0px" viewBox="0 0 640 480" enable-background="new 0 0 640 480" xml:space="preserve">
<g id="Layer_0">
	<g id="line_0">
		<path d="M369.6,145.1c2.1,0,4.2,0.3,6.1,1.3c5.1,2.6,6.4,9.1,6.5,14.9c0,9.7-2.1,19.2-6.1,27.9c-1.6,3.4-3.5,6.8-6.4,9.3
			c-2,1.7-4.3,2.9-6.7,3.9c-6,2.5-12.7,3.7-18.9,2.1c-6.3-1.7-11.9-6.7-13-12.9c-0.8-3.9,0.1-7.8,1-11.7c1-4.8,2.2-9.5,4.3-14
			C342.1,153.2,355.8,144.7,369.6,145.1"/>
		<path d="M301.1,168.6c3.1,9.4,2.3,20.5-3.4,28.6s-17,12.5-26.2,9c-8.4-3.1-13.7-11.7-15.4-20.5s-0.4-17.9,0.9-26.6
			c0.4-2.5,0.8-5,2.2-7c3.7-5.2,11.6-4.4,17.9-2.9c5,1.2,10,2.5,14.2,5.5C296.2,157.7,299.3,163.1,301.1,168.6"/>
	</g>
	<g id="fill_0">
		<path fill="#FFFFFF" d="M372.9,152.6c-3.8-2.7-9-2.2-13.4-0.8c-13.2,4.4-22.8,17.5-23.9,31.4c-0.1,1.7-0.1,3.4,0.3,5.1
			c0.4,1.3,1,2.6,1.8,3.8c5.5,7.8,17.9,8.2,25.7,2.7c7.8-5.5,11.9-15,13.7-24.5C378.2,164.1,378.2,156.4,372.9,152.6z M356,183.7
			c-2,1.3-5.1-0.3-5.2-2.6c-0.1-2.3,2.7-4.3,4.8-3.1C357.9,179,358,182.4,356,183.7z"/>
		<path fill="#FFFFFF" d="M292.5,164.3c-5.3-6.7-14.1-10.3-22.7-10c-1.6,0-3.3,0.3-4.7,0.9c-3.8,2-4.8,6.8-5.2,11.1
			c-0.8,10.7,0.5,22.6,8.1,30.1c2,2.1,4.6,3.8,7.3,4.2c8.5,1.2,17.2-4.2,20.7-12.1C299.7,180.6,298,170.9,292.5,164.3z M278.4,186
			c-2.1,0.1-3.8-2.5-2.7-4.3c0.9-1.8,4-2,5.2-0.3C281.9,183.3,280.5,186,278.4,186z"/>
	</g>
</g>
<g id="Layer_1">
	<g id="line_1">
		<path d="M286,207.6c-2.2,1.8-5,3.5-7.8,3.4c-1.7-0.1-3.3-0.8-4.7-1.6c-7.4-4.2-12-12.4-13.6-20.7c-1.6-8.4-0.5-17.1,0.8-25.4
			c0.7-3.8-3.4-6.8-7.2-7c-3.8-0.3-7.4,1-11.2,1.2c-3.8,0.1-8.2-1.6-8.9-5.3c9-2.7,18.7-2,28.1-1.2c12.7,1,25.2,2.2,37.8,3.3
			c1.6,0.1,3.1,0.3,4.3,1.2c2.2,1.7,2,5.2,1.4,8C302.3,179.4,298.6,197,286,207.6"/>
		<path d="M397.5,154.3c-2.6,0.1-5.3,0.3-8,0.4c-3,0.1-6,0.3-8.6,1.6c-2.6,1.3-4.7,4.2-4.2,7c2.5,14-1.6,29.1-10.8,39.8
			c-4.2,4.8-12.1,4.4-17.2,0.7s-7.7-10-9.3-16.2c-1.6-6.3-2.1-12.7-2.7-19c-0.4-4.3-0.7-9.4,2.5-12.5c2.5-2.5,6.3-3,9.7-3.4
			c6.4-0.7,12.8-1.4,19.2-2.1c10.3-1.2,20.7-2.2,31.1-3.4c1.8-0.3,4.2-0.3,5.2,1.3c0.9,1.6,0,3.7-1.4,4.6
			C401.2,154.1,399.2,154.2,397.5,154.3"/>
	</g>
	<g id="fill_1">
		<path fill="#FFFFFF" d="M298,159.4c-2-2.6-6.8-2.2-8.4,0.7c-0.8,1.6-0.8,3.4-0.7,5.1c0.1,3.9,0.3,8.1-2,11.2
			c-2.2,3.1-7.6,4.3-9.8,1.2c-1.2-1.7-1.2-3.9-0.9-5.9c0.4-3.8,1.2-7.7-0.1-11.2c-1.3-3.5-6.3-5.9-9-3.3c-1.6,1.4-1.8,3.7-2.1,5.6
			c-0.8,7.7-1.6,15.5,0.5,22.8c2.1,7.4,8.1,16.7,14.9,16c5.5-0.4,12-11.2,14.9-18.8c2-5.1,2.7-10.4,3.7-15.9
			C299.3,164.5,299.5,161.6,298,159.4z"/>
		<path fill="#FFFFFF" d="M373,168.8c0.3-2.2,0.4-4.6-0.3-6.8s-2.3-4.2-4.6-4.4c-4.4-0.7-6.9,5-7.2,9.3c-0.3,4.4-0.4,9.8-4.3,11.9
			c-0.5,0.3-1.2,0.4-1.6,0.1c-4.7-3.5-7-9.9-5.7-15.7c0.5-2.2-2.1-4.2-4.3-3.7c-2.2,0.5-3.7,2.7-3.9,5c-0.4,2.2,0.1,4.4,0.5,6.7
			c0.9,5,1,10,2.5,15c1.3,4.8,3.9,9.7,8.2,12.3c1.8,1,4,1.8,6.1,1.3c1-0.3,2.1-0.9,3-1.6C370.3,191.8,372.1,179.7,373,168.8z"/>
	</g>
</g>
<g id="Layer_2">
	<g id="line_2">
		<path d="M336.3,194.4c-4.3-5-6-12-4.6-18.4c1.4-6.4,6.1-12,12.3-14.5c2.6-1,5.6-1.7,8.2-0.5c6.4,2.9,9.9,10.4,9.3,17.5
			c-0.7,7-5.2,13.2-11.1,17.2c-2.6,1.7-5.6,3.1-8.6,2.5C339.6,197.5,337.8,196.1,336.3,194.4"/>
		<path d="M276.7,175.1c1.2-6.1,5.3-11.6,11.1-14.4c1.3-0.7,2.9-1.2,4.3-0.9c2.6,0.5,4.3,3.3,5.2,5.7c2.1,5.2,3.4,11,2,16.4
			c-1.6,5.3-6.5,10-12.1,9.7C279.7,191.3,275.3,182.4,276.7,175.1"/>
	</g>
	<g id="fill_2">
		<path fill="#FFFFFF" d="M339.1,188c0.8,1.2,1.8,2.3,3.3,2.9c2.7,0.9,5.5-0.9,7.7-2.7c3.7-3.1,7.4-7.2,7-12
			c-0.4-4.6-4.7-8.2-9.1-8.4c-4.4-0.1-8.7,3.1-10.4,7.3C335.8,179.3,336.5,184.3,339.1,188z"/>
		<path fill="#FFFFFF" d="M286.9,168.8c-2.9,2.5-5.3,5.9-5.2,9.7c0.1,3.8,3.8,7.6,7.4,6.7c2.7-0.7,4.6-3.5,5.3-6.3
			c0.8-2.7,1-5.7-0.4-8.2C292.6,168.2,289.1,167,286.9,168.8z"/>
	</g>
</g>
<g id="Layer_3">
	<g id="line_3">
		<path d="M386.3,142.9c4.4,1,9.1,3.7,10.3,8.1c5.1,20-4.8,41.6-20.6,54.9c-4.3,3.7-9,6.8-14.5,7.8c-12,2.3-23.5-6.3-30.5-16.2
			c-1.7-2.3-3.3-5.1-3.7-8c-0.3-2.3,0.4-4.8,1.2-7c5.2-15.1,16.6-28.1,30.8-35.2C367.7,143,377.2,140.8,386.3,142.9"/>
		<path d="M292.2,214.1c-2.9,1.2-6,2-9.1,1.8c-3.4-0.1-6.5-1.4-9.5-2.9c-10.7-4.8-21.4-11.2-27.1-21.3c-5.2-9.1-5.9-20.1-6.4-30.5
			c-0.1-2.1-0.1-4.3,0.9-6c1.3-2.1,3.9-3,6.3-3.8c9-2.9,18.8-5.7,27.8-3c3.8,1.2,7.3,3.3,10.6,5.5c10.2,7.2,18.7,16.6,24.7,27.4
			c1.2,2.2,2.3,4.4,2.6,6.9c0.4,3.3-0.9,6.5-2.5,9.5C306.5,205.1,299.9,211,292.2,214.1"/>
	</g>
	<g id="fill_3">
		<path fill="#FFFFFF" d="M288.2,208.4c4.6-0.8,8.5-3.5,12-6.5c2.2-2,4.3-4,5.3-6.7c1.6-3.8,1-8.2-0.7-12s-4.4-6.9-7.2-9.9
			c-4.6-5.1-9.4-10.2-15.1-14c-5.7-3.8-12.5-6.3-19.4-5.7c-5,0.4-9.7,2.2-14.4,4c-1.3,0.5-2.6,1-3.4,2.2c-0.5,0.8-0.7,1.8-0.7,2.7
			c-0.7,10.6,2.7,21.3,9.3,29.6c6.5,8.4,16.2,14.1,26.6,15.9C283.1,208.5,285.7,208.7,288.2,208.4z M290.8,188.8
			c-0.9,2.5-3.3,4.3-5.9,4.6c-2.6,0.3-5.3-1.4-6-3.9c-1.3-4.3,1.3-9.5,5.6-11C289.1,179,292.4,184.5,290.8,188.8z"/>
		<path fill="#FFFFFF" d="M393.6,160.2c0.1-1.7,0-3.5-0.8-5.1c-0.9-1.8-2.9-3.1-4.8-3.9c-10-4.4-22-2-31.2,4.2
			c-9.1,6.1-15.9,15.1-21.7,24.4c-1,1.6-2,3.3-2.3,5.1c-1,4.8,2.1,9.7,5.6,13c3.4,3.1,7.2,5.9,11.4,7.8c2.2,1,4.7,2,7.2,2.1
			c3.9,0.1,7.8-1.6,11.2-3.7C382.9,194.8,392.8,177.8,393.6,160.2z M359,177.2c0.7,0,1.2,0,1.7,0.4c1,0.7,1.3,1.8,1.4,3
			c0.5,4,0.8,9-2.6,11.4c-3.4,2.3-8.6-0.3-9.4-4.3c-0.9-3.9,2-8.2,5.7-9.7C356.8,177.6,357.9,177.3,359,177.2z"/>
	</g>
</g>
<g id="Layer_4">
	<g id="line_4">
		<path d="M340.4,204.8c-6.7-5.3-10.6-14-11.2-22.4c-0.5-7.2,1-14.6,5.2-20.4c5.3-7.3,14.1-11.1,22.4-14.5c3.9-1.6,8.4,0.3,12.1,2.2
			c2.9,1.4,5.7,2.9,8.6,4.3c5.6,2.7,11.6,5.9,14.5,11.5c2.5,4.7,2.2,10.3,1.2,15.4c-2.5,11.4-9.8,21.8-20.1,26.9
			C362.7,212.9,349.4,212.1,340.4,204.8"/>
		<path d="M251.9,203.8c-9.4-9.4-10-25.1-4.2-36.9c5.7-11.7,17.9-20.5,30.9-20.5c13.7,0.1,26.6,10.7,29.4,24.1
			c2.9,14-5.1,28.8-17.4,36.1C278.7,213.8,261.8,213.6,251.9,203.8"/>
	</g>
	<g id="fill_4">
		<path fill="#FFFFFF" d="M335,172.1c-3.4,8.9-0.3,19.6,7,25.8s17.9,7.7,26.7,4.6c8.9-3.3,15.9-10.8,19-19.8c1.6-4.6,2.1-9.9-0.5-14
			c-1.3-2.1-3.4-3.5-5.3-4.8c-3.4-2.2-6.8-4.3-10.4-6.1c-4.2-2.2-8.9-4.2-13.6-3.7c-3,0.3-5.9,1.4-8.5,3
			C343.3,160.3,337.5,165.4,335,172.1z M357.5,175.1c0.8-0.3,1.7-0.4,2.5-0.3c2,0.5,2.6,3.1,2.5,5.2c-0.3,2.6-1.2,5.2-3.1,7
			c-2,1.7-5.1,2.2-7.3,0.8c-2.3-1.7-2.7-5.2-1.4-7.8C352,177.4,354.7,175.9,357.5,175.1z"/>
		<path fill="#FFFFFF" d="M251.9,170c-5.7,8.9-3.4,21.8,4.6,28.8c8,7,20.4,8.1,29.7,3.4c9.5-4.7,15.9-14.6,17.6-25.1
			c1.4-9.4-6.3-18-15-21.5c-8.6-3.5-19.3-3.4-26.7,2.2C257.8,161,254.8,165.6,251.9,170z M275.9,189.4c-3.4-0.1-5.9-3.8-5.6-7.2
			c0.3-2.5,1.7-5,4-6c2.2-1,5.2-0.7,7,1c2.6,2.6,2.1,7.2-0.4,9.8C279.6,188.5,277.8,189.6,275.9,189.4z"/>
	</g>
</g>
<g id="Layer_5">
	<g id="line_5">
		<path d="M247.1,165.2c2.3-5.3,6.9-9.4,11.9-12.3c13-7.4,30-7.4,42.9,0.1c1.2,0.7,2.3,1.4,3,2.6c0.8,1.3,1,2.9,1.2,4.3
			c1.3,17.9-8.1,36-23.4,45.3c-6.5,3.9-15.1,3.1-21.5-0.9s-10.8-10.7-13.4-17.7C245.3,179.7,244.2,171.8,247.1,165.2"/>
		<path d="M329.9,175.3c-1.4-5.3-2-11.2,0.8-16c2.1-3.7,5.7-6.3,9.5-8.1c10.8-5,23.2-4.6,35-2.7c3.3,0.5,6.7,1.2,9,3.4
			c3.1,2.7,3.9,7.3,4.3,11.5c0.9,9.8,0.1,20.1-4.6,28.7c-4.7,8.6-14.4,15-24,13.8c-4.7-0.5-9-2.7-12.8-5.5
			C338.9,194.3,332.7,185.3,329.9,175.3"/>
	</g>
	<g id="fill_5">
		<path fill="#FFFFFF" d="M333.9,170.9c3.4,8,7.3,15.9,13.8,21.4c6.5,5.5,16.2,8.2,23.9,4.3c8.9-4.4,11.9-15.5,12.8-25.4
			c0.3-3.3,0.4-6.8-1.2-9.7c-3-5.7-10.7-6.7-17.2-6.9c-9.9-0.4-21-0.4-28.6,6.1C334.6,163.3,332.4,167.4,333.9,170.9z M353.3,167.3
			c1.3-1.2,3-2.2,4.8-2c2.2,0.3,4,2.2,4.4,4.4c0.5,2.2,0,4.4-0.9,6.5c-0.7,1.6-1.6,3.3-3,4.2c-3,2-7.4-0.3-8.5-3.7
			C349.1,173.5,350.7,169.7,353.3,167.3z"/>
		<path fill="#FFFFFF" d="M266.1,199.6c3.4,1.8,7.7,3.1,11.2,1.4c14.1-6.8,23.9-21.9,24.3-37.6c0-2.9-2.6-4.8-5.1-6.1
			c-13.4-6.8-31.2-3.8-41.8,7c-1.6,1.7-3.1,3.5-3.9,5.6c-1.4,3.7-0.9,7.8,0.3,11.6C253.6,189.2,259.1,195.7,266.1,199.6z
			 M281.3,182.4c-0.7,1.4-2,2.7-3.4,2.6c-0.7-0.1-1.3-0.5-1.8-1c-3.3-2.6-6.1-7.6-3.3-10.7c2-2.2,6-1.8,8,0.5
			C282.6,176.1,282.6,179.7,281.3,182.4z"/>
	</g>
</g>
<g id="Layer_6">
	<g id="line_6">
		<path d="M276.7,195.8c-5.1-7.6-6.8-17.5-3.4-26c3.4-8.5,11.7-14.9,20.9-15c5.7-0.1,11,3.8,13.6,8.7s3,11,2.3,16.6
			c-0.8,6.9-3.4,13.8-8.6,18.5s-13.3,6.4-19.3,2.7C280,200,278.2,197.9,276.7,195.8"/>
		<path d="M330.3,179.1c0.4-6.5,2.2-13.2,6.7-17.9s12.1-6.8,17.6-3.4c2.1,1.3,3.8,3.3,5.2,5.3c5.5,7.8,8.5,18.1,5.2,27.1
			c-3.3,9-14,15.4-22.8,11.9c-2.5-1-4.7-2.7-6.5-4.7c-2.2-2.5-3.8-5.5-4.7-8.7C330.2,185.7,330.1,182.4,330.3,179.1"/>
	</g>
	<g id="fill_6">
		<path fill="#FFFFFF" d="M302,165.8c-3.9-4.4-11.1-5.5-16.4-2.9c-5.3,2.6-8.9,8.5-9.1,14.5s2.3,11.9,6.5,16.2
			c1.2,1.2,2.3,2.2,3.9,2.7c2,0.7,4,0.5,6-0.1c9.7-2.9,15.3-14.6,12.4-24.3C304.6,169.7,303.6,167.6,302,165.8z M287.7,183.4
			c-0.7-2.2,1.4-4.6,3.8-4.4c2.2,0,4.2,2.2,4.3,4.4c0.1,2.5-1.8,5-4.3,5C289,188.5,286.9,185.8,287.7,183.4L287.7,183.4z"/>
		<path fill="#FFFFFF" d="M339.7,191.5c2.1,2.5,4.8,4.7,8.1,5.1c2.9,0.4,5.9-0.9,8.2-2.5c1.7-1.2,3.1-2.5,4.2-4.3
			c3.7-6.1,0-13.8-3.5-20c-1.2-2.1-2.5-4.2-4.6-5.5c-2.7-1.6-6.1-1.2-8.9,0.3c-4.6,2.3-7.6,7.3-8.1,12.4
			C334.6,182.3,336.5,187.5,339.7,191.5z M348.1,183.8c-0.7,1-2,1.7-3.1,1.6c-2.1-1-3.4-3.7-2.6-5.9c0.8-2.2,3.8-3.4,5.7-2.1
			s2,4.8-0.3,5.9L348.1,183.8z"/>
	</g>
</g>
<g id="Layer_7">
	<g id="line_7">
		<path d="M360.1,212.4c-5.6,1.2-11.9,1-16.8-2c-2.6-1.6-4.8-3.9-6.8-6.3c-2.3-2.7-4.6-6-5-9.7c-0.1-2.2,0.4-4.4,1-6.5
			c3.8-12.1,11-23.1,20.7-31.1c9.9-7.8,22.4-12.4,35.1-12.1c1.8,0,3.8,0.3,5.3,1.3c2.3,1.6,3,4.6,3.5,7.3c1.8,12.7-0.4,26.1-7,37.1
			C383.7,201.4,372.6,209.9,360.1,212.4"/>
		<path d="M277.9,212.4c-12.5-2.5-23.6-11-30.3-21.9c-6.5-11-8.7-24.4-7-37.1c0.4-2.7,1.2-5.7,3.5-7.3c1.6-1,3.5-1.2,5.3-1.3
			c12.7-0.3,25.2,4.3,35.1,12.1c9.9,7.8,17.1,18.9,20.7,31.1c0.7,2.1,1.2,4.3,1,6.5c-0.3,3.7-2.6,6.8-5,9.7c-2,2.3-4.2,4.7-6.8,6.3
			C289.8,213.4,283.6,213.6,277.9,212.4"/>
	</g>
	<g id="fill_7">
		<path fill="#FFFFFF" d="M368.3,202.9c15-7.4,25.2-23.7,25.3-40.4c0-2-0.1-4-0.9-5.9c-1.4-3-4.6-4.8-7.8-5.2
			c-3.3-0.4-6.5,0.3-9.7,1.3c-14.1,4.4-26.4,14.2-33.9,27c-2.5,4.3-4.6,9.4-3.7,14.4c1.2,6.1,6.7,10.7,12.8,12
			C356.4,207.2,362.8,205.6,368.3,202.9z M357.3,193.6c-0.9,0.3-1.8,0.4-2.9,0.3c-4.6-0.7-6.8-7.4-3.4-10.6c2.5-2.3,7-2,9.1,0.7
			c1.6,2,1.7,5.1,0.3,7.2C359.8,192.3,358.7,193.2,357.3,193.6z"/>
		<path fill="#FFFFFF" d="M287.7,205.9c6-1.3,11.6-5.9,12.8-12c0.9-5-1.2-9.9-3.7-14.4c-7.4-12.8-19.8-22.6-33.9-27
			c-3.1-1-6.4-1.7-9.7-1.3c-3.3,0.4-6.5,2.2-7.8,5.2c-0.9,1.8-1,3.9-0.9,5.9c0.1,16.7,10.3,33,25.3,40.4
			C275.2,205.6,281.5,207.2,287.7,205.9z M277.5,191.1c-1.4-2.1-1.3-5.2,0.3-7.2c2.1-2.7,6.7-3,9.1-0.7c3.4,3.1,1.2,10-3.4,10.6
			c-0.9,0.1-2,0-2.9-0.3C279.3,193.2,278.2,192.3,277.5,191.1z"/>
	</g>
</g>
<g id="Layer_8">
	<g id="line_8">
		<path d="M306.2,192.6c-0.8,6.1-5.7,11-11,14.4c-7.6,4.8-16.7,7.7-25.6,5.9c-11.1-2.2-19.8-11.5-23.7-22.2
			c-3.9-10.6-3.5-22.3-1.6-33.5c0.3-1.7,0.7-3.4,1.6-4.8c1.2-1.8,3.1-2.9,5.1-3.7c7.4-3.3,15.8-4.8,23.9-3.7
			c8.1,1.3,15.8,5.5,20.4,12.3c2.5,3.7,4,7.8,5.5,12c1.6,4.7,3,9.5,4.2,14.4C305.9,186.6,306.6,189.6,306.2,192.6"/>
		<path d="M331.8,192.6c-0.4-3,0.3-6,1-9c1.2-4.8,2.6-9.7,4.2-14.4c1.4-4.2,3-8.4,5.5-12c4.7-6.7,12.4-11,20.4-12.3
			c8.1-1.3,16.4,0.3,23.9,3.7c2,0.9,3.9,2,5.1,3.7c0.9,1.4,1.3,3.1,1.6,4.8c2,11.1,2.3,22.8-1.6,33.5c-3.9,10.6-12.7,20-23.7,22.2
			c-8.7,1.7-18-1-25.6-5.9C337.5,203.5,332.6,198.7,331.8,192.6"/>
	</g>
	<g id="fill_8">
		<path fill="#FFFFFF" d="M249.2,160.7c-2.6,9.3-2.2,19.4,1.8,28.2c4.2,8.6,12.3,15.5,21.8,17.2c9.4,1.7,20-2.2,25.2-10.2
			c3.7-5.5,2-12.7,0.1-18.9c-1.6-5.1-3.1-10.3-6.3-14.6c-8.2-11.4-25.4-13.8-38-7.4c-1.2,0.5-2.2,1.3-3.1,2.2
			C250,158.1,249.6,159.4,249.2,160.7z M278.4,181.5c0.7-0.7,1.3-1.3,2.2-1.6c3-0.8,4.8,3.4,4.4,6.5c-0.4,3.9-3.4,8.4-7,7.4
			c-2.5-0.7-3.8-3.5-3.4-6S276.7,183.3,278.4,181.5z"/>
		<path fill="#FFFFFF" d="M387.1,157.1c-0.8-1-2-1.7-3.1-2.2c-12.5-6.4-29.7-3.9-38,7.4c-3.1,4.3-4.8,9.5-6.3,14.6
			c-1.8,6.3-3.5,13.4,0.1,18.9c5.3,8.1,15.8,12,25.2,10.2c9.4-1.7,17.6-8.6,21.8-17.2s4.4-18.9,1.8-28.2
			C388.4,159.4,388,158.1,387.1,157.1z M363.3,187.9c0.4,2.5-0.9,5.3-3.4,6c-3.8,1-6.7-3.5-7-7.4c-0.3-3.1,1.4-7.3,4.4-6.5
			c0.9,0.3,1.6,0.9,2.2,1.6C361.3,183.3,363,185.4,363.3,187.9z"/>
	</g>
</g>
<g id="Layer_9">
	<g id="line_9">
		<path d="M302.4,185.9c-5.1,10.2-13.3,19.3-24.1,23.4c-10.7,3.9-24.1,1.7-31.3-7.3c-4.8-5.9-6.4-13.8-6.8-21.4
			c-0.4-8.2,0.5-16.6,2.6-24.5c1-4,3.3-8.7,7.4-9.1c2.1-0.3,4.2,0.8,6.1,1.8c14.2,7.6,28.4,15,42.7,22.6c1.6,0.8,3.1,1.7,4.2,3.1
			C305.7,177.7,304.2,182.3,302.4,185.9"/>
		<path d="M334,194.7c-3.3-3.1-6.8-7.3-5.7-11.7c1-4.3,5.6-6.4,9.7-8.2c12.5-5.5,24.5-12.5,35.4-20.9c2.2-1.7,4.6-3.5,7.3-4.6
			c2.7-0.9,6-0.9,8.2,0.9c1.4,1.2,2.3,3,3.1,4.7c2.2,5,4.4,10,5.5,15.4c2.1,11.5-2.5,24-11.5,31.6c-9,7.6-22,9.8-33.1,5.7
			C345.6,205,339.6,200,334,194.7"/>
	</g>
	<g id="fill_9">
		<path fill="#FFFFFF" d="M297.7,180.3c-0.5-1.4-1.8-2.3-3-3.4c-11.7-9.1-25.8-15-39.5-20.7c-1.3-0.5-2.7-1.2-4.3-0.9
			c-3.5,0.5-4.8,5-5.2,8.5c-0.8,6.8-1.6,13.7-0.4,20.5c1.2,6.8,4.4,13.4,10.2,17.2c6.3,4,14.6,4,21.5,1.3
			c6.9-2.7,12.7-7.8,17.6-13.4C296.8,186.7,299,183.4,297.7,180.3z M279.6,182c0.7,2.5,1,5.2,0.3,7.7c-0.8,2.5-2.9,4.7-5.5,4.8
			c-3.8,0.3-6.7-4.3-5.7-8s4.6-6.3,8.4-6.9C278.3,179.1,279.2,180.7,279.6,182z"/>
		<path fill="#FFFFFF" d="M335.3,184.9c-0.1,0.8,0.3,1.6,0.7,2.2c6.1,9.1,16.6,15.5,27.5,15.9c11,0.4,22.2-5.7,27-15.7
			c4.7-9.4,3.1-21.5-3.8-29.5c-0.8-0.9-1.7-1.8-2.9-1.7c-0.8,0-1.4,0.4-2.1,0.8c-15,8.7-29.9,17.5-44.9,26.2
			C336.2,183.6,335.4,184,335.3,184.9z M364.4,192.4c-1.3,0.4-2.7,0.1-3.9-0.4c-3-1.6-3.9-6.1-1.6-8.6c2.3-2.5,7-2,8.7,0.9
			C369.5,187.2,367.8,191.5,364.4,192.4z"/>
	</g>
</g>
<g id="Layer_10">
	<g id="line_10">
		<path d="M271.6,211.9c-2-0.5-3.8-1.2-5.5-2.1c-6-3.3-9.5-9.7-11-16.3s-0.9-13.4-0.4-20.2c0.4-5,0.8-9.9,1.2-14.9
			c0.3-3.8,0.9-8.2,4-10.2c1.7-1,3.8-1.3,5.7-1.4c5.9-0.5,11.7-0.9,17.6-1.4c7.2-0.5,13.7,5.1,16.4,11.7s2.6,14.1,2.5,21.3
			c-0.1,6.1-0.3,12.4-0.5,18.5c-0.1,4.7-0.5,9.9-4,13c-2,1.7-4.6,2.5-7.2,2.9C284.3,213.7,277.8,213.4,271.6,211.9"/>
		<path d="M380,195.2c-5.5,10.4-18.5,14-30.1,16.2c-3.1,0.7-6.4,1.3-9.5,0.8c-3.1-0.5-6.4-2.3-7.4-5.5c-0.5-1.4-0.5-2.9-0.5-4.4
			c-0.1-5.6-0.3-11.1-0.4-16.7c-0.1-5.9-0.3-11.9,1.3-17.6c2.9-10.6,11.7-19.4,22.4-22c6.4-1.7,13.2-1.2,19.8-0.8
			c1.8,0.1,3.9,0.4,5.1,1.8c0.8,0.9,0.9,2,1.2,3.1c2.2,11,2.6,22.2,1.4,33.1C382.7,187.3,382,191.4,380,195.2"/>
	</g>
	<g id="fill_10">
		<path fill="#FFFFFF" d="M261.7,156.6c-1.2,1.7-1.4,3.8-1.6,5.9c-0.3,2.3-0.5,4.8-0.7,7.2c-0.7,6.4-1.3,12.8,0,19
			c1.3,6.3,4.7,12.4,10.3,15.4c4.6,2.5,9.9,2.6,15.1,2.5c2.5,0,5.1-0.1,7.3-1.4c4.4-2.6,5.1-8.6,5.2-13.7c0.1-3.8,0.3-7.7,0.3-11.5
			c0.1-5,0.3-9.9-0.9-14.7c-1.2-4.8-3.9-9.4-8.2-11.9c-5.6-3.1-12.5-1.8-18.8-0.5C266.7,153.3,263.4,154.1,261.7,156.6z
			 M274.5,188.3c-1.6-3-2.2-6.9-0.1-9.5c2-2.7,7.2-2.7,8.2,0.5c0.4,1.2,0.3,2.3,0,3.5c-0.4,2.1-0.9,4.4-2.5,5.9
			C278.5,190.1,275.5,190.2,274.5,188.3z"/>
		<path fill="#FFFFFF" d="M337.8,201.4c1.3,2.6,4.2,4,7.2,4.3c2.9,0.3,5.7-0.5,8.6-1.2c6.4-1.7,13.2-3.4,18-8c4.7-4.3,7-10.7,7.8-17
			c0.8-6.4,0-12.8-0.8-19c-0.3-2.5-0.7-5.1-2.2-6.9c-2.3-2.9-6.4-3.3-10-3c-11.7,0.7-24.3,6.8-27.9,18c-1.3,4.2-1.4,8.6-1.4,13
			c0,4.7,0,9.4,0,14.2C337,197.7,337,199.7,337.8,201.4z M349.6,183.4c0.8-2.5,2.1-5.1,4.4-6.3c2.3-1.2,5.9-0.3,6.7,2.2
			c0.3,1,0.1,2.2-0.1,3.3c-0.5,2.5-1.3,5.2-3.1,6.9c-1.8,1.8-5.2,2.3-7,0.5C348.7,188.4,349,185.7,349.6,183.4z"/>
	</g>
</g>
</svg>
