<?xml version="1.0" encoding="utf-8"?>
<!-- Generator: Adobe Illustrator 18.1.1, SVG Export Plug-In . SVG Version: 6.00 Build 0)  -->
<!DOCTYPE svg PUBLIC "-//W3C//DTD SVG 1.1//EN" "http://www.w3.org/Graphics/SVG/1.1/DTD/svg11.dtd">
<svg version="1.1" xmlns="http://www.w3.org/2000/svg" xmlns:xlink="http://www.w3.org/1999/xlink" x="0px" y="0px"
	 viewBox="0 0 640 480" enable-background="new 0 0 640 480" xml:space="preserve">
<g id="Layer_0">
	<g id="line_0">
		<path d="M357.8,153c1.6,0,3.2,0.2,4.7,1c3.9,2,4.9,7,5,11.4c0,7.4-1.6,14.7-4.7,21.4c-1.2,2.6-2.7,5.2-4.9,7.1
			c-1.5,1.3-3.3,2.2-5.1,3c-4.6,1.9-9.7,2.8-14.5,1.6c-4.8-1.3-9.1-5.1-10-9.9c-0.6-3,0.1-6,0.8-9c0.8-3.7,1.7-7.3,3.3-10.7
			C336.7,159.2,347.2,152.7,357.8,153"/>
		<path d="M305.3,171c2.4,7.2,1.8,15.7-2.6,21.9c-4.4,6.2-13,9.6-20.1,6.9c-6.4-2.4-10.5-9-11.8-15.7c-1.3-6.7-0.3-13.7,0.7-20.4
			c0.3-1.9,0.6-3.8,1.7-5.4c2.8-4,8.9-3.4,13.7-2.2c3.8,0.9,7.7,1.9,10.9,4.2C301.5,162.7,303.9,166.8,305.3,171"/>
	</g>
	<g id="fill_0">
		<path fill="#FFFFFF" d="M360.3,158.8c-2.9-2.1-6.9-1.7-10.3-0.6c-10.1,3.4-17.5,13.4-18.3,24.1c-0.1,1.3-0.1,2.6,0.2,3.9
			c0.3,1,0.8,2,1.4,2.9c4.2,6,13.7,6.3,19.7,2.1c6-4.2,9.1-11.5,10.5-18.8C364.4,167.6,364.4,161.7,360.3,158.8z M347.4,182.6
			c-1.5,1-3.9-0.2-4-2c-0.1-1.8,2.1-3.3,3.7-2.4C348.8,179,348.9,181.6,347.4,182.6z"/>
		<path fill="#FFFFFF" d="M298.7,167.7c-4.1-5.1-10.8-7.9-17.4-7.7c-1.2,0-2.5,0.2-3.6,0.7c-2.9,1.5-3.7,5.2-4,8.5
			c-0.6,8.2,0.4,17.3,6.2,23.1c1.5,1.6,3.5,2.9,5.6,3.2c6.5,0.9,13.2-3.2,15.9-9.3C304.2,180.2,302.9,172.8,298.7,167.7z
			 M287.9,184.4c-1.6,0.1-2.9-1.9-2.1-3.3c0.7-1.4,3.1-1.5,4-0.2C290.6,182.3,289.5,184.4,287.9,184.4z"/>
	</g>
</g>
<g id="Layer_1">
	<g id="line_1">
		<path d="M293.7,200.9c-1.7,1.4-3.8,2.7-6,2.6c-1.3-0.1-2.5-0.6-3.6-1.2c-5.7-3.2-9.2-9.5-10.4-15.9c-1.2-6.4-0.4-13.1,0.6-19.5
			c0.5-2.9-2.6-5.2-5.5-5.4c-2.9-0.2-5.7,0.8-8.6,0.9c-2.9,0.1-6.3-1.2-6.8-4.1c6.9-2.1,14.3-1.5,21.5-0.9c9.7,0.8,19.3,1.7,29,2.5
			c1.2,0.1,2.4,0.2,3.3,0.9c1.7,1.3,1.5,4,1.1,6.1C306.2,179.3,303.4,192.8,293.7,200.9"/>
		<path d="M379.2,160.1c-2,0.1-4.1,0.2-6.1,0.3c-2.3,0.1-4.6,0.2-6.6,1.2c-2,1-3.6,3.2-3.2,5.4c1.9,10.7-1.2,22.3-8.3,30.5
			c-3.2,3.7-9.3,3.4-13.2,0.5s-5.9-7.7-7.1-12.4c-1.2-4.8-1.6-9.7-2.1-14.6c-0.3-3.3-0.5-7.2,1.9-9.6c1.9-1.9,4.8-2.3,7.4-2.6
			c4.9-0.5,9.8-1.1,14.7-1.6c7.9-0.9,15.9-1.7,23.8-2.6c1.4-0.2,3.2-0.2,4,1c0.7,1.2,0,2.8-1.1,3.5C382,159.9,380.5,160,379.2,160.1
			"/>
	</g>
	<g id="fill_1">
		<path fill="#FFFFFF" d="M302.9,164c-1.5-2-5.2-1.7-6.4,0.5c-0.6,1.2-0.6,2.6-0.5,3.9c0.1,3,0.2,6.2-1.5,8.6s-5.8,3.3-7.5,0.9
			c-0.9-1.3-0.9-3-0.7-4.5c0.3-2.9,0.9-5.9-0.1-8.6s-4.8-4.5-6.9-2.5c-1.2,1.1-1.4,2.8-1.6,4.3c-0.6,5.9-1.2,11.9,0.4,17.5
			c1.6,5.7,6.2,12.8,11.4,12.3c4.2-0.3,9.2-8.6,11.4-14.4c1.5-3.9,2.1-8,2.8-12.2C303.9,167.9,304.1,165.7,302.9,164z"/>
		<path fill="#FFFFFF" d="M360.4,171.2c0.2-1.7,0.3-3.5-0.2-5.2c-0.5-1.7-1.8-3.2-3.5-3.4c-3.4-0.5-5.3,3.8-5.5,7.1
			c-0.2,3.4-0.3,7.5-3.3,9.1c-0.4,0.2-0.9,0.3-1.2,0.1c-3.6-2.7-5.4-7.6-4.4-12c0.4-1.7-1.6-3.2-3.3-2.8c-1.7,0.4-2.8,2.1-3,3.8
			c-0.3,1.7,0.1,3.4,0.4,5.1c0.7,3.8,0.8,7.7,1.9,11.5c1,3.7,3,7.4,6.3,9.4c1.4,0.8,3.1,1.4,4.7,1c0.8-0.2,1.6-0.7,2.3-1.2
			C358.3,188.8,359.7,179.5,360.4,171.2z"/>
	</g>
</g>
<g id="Layer_2">
	<g id="line_2">
		<path d="M332.3,190.8c-3.3-3.8-4.6-9.2-3.5-14.1c1.1-4.9,4.7-9.2,9.4-11.1c2-0.8,4.3-1.3,6.3-0.4c4.9,2.2,7.6,8,7.1,13.4
			s-4,10.1-8.5,13.2c-2,1.3-4.3,2.4-6.6,1.9C334.8,193.2,333.4,192.1,332.3,190.8"/>
		<path d="M286.6,176c0.9-4.7,4.1-8.9,8.5-11c1-0.5,2.2-0.9,3.3-0.7c2,0.4,3.3,2.5,4,4.4c1.6,4,2.6,8.4,1.5,12.6
			c-1.2,4.1-5,7.7-9.3,7.4C288.9,188.4,285.5,181.6,286.6,176"/>
	</g>
	<g id="fill_2">
		<path fill="#FFFFFF" d="M334.4,185.9c0.6,0.9,1.4,1.8,2.5,2.2c2.1,0.7,4.2-0.7,5.9-2.1c2.8-2.4,5.7-5.5,5.4-9.2
			c-0.3-3.5-3.6-6.3-7-6.4s-6.7,2.4-8,5.6S332.4,183.1,334.4,185.9z"/>
		<path fill="#FFFFFF" d="M294.4,171.2c-2.2,1.9-4.1,4.5-4,7.4c0.1,2.9,2.9,5.8,5.7,5.1c2.1-0.5,3.5-2.7,4.1-4.8
			c0.6-2.1,0.8-4.4-0.3-6.3C298.8,170.7,296.1,169.8,294.4,171.2z"/>
	</g>
</g>
<g id="Layer_3">
	<g id="line_3">
		<path d="M370.6,151.3c3.4,0.8,7,2.8,7.9,6.2c3.9,15.3-3.7,31.9-15.8,42.1c-3.3,2.8-6.9,5.2-11.1,6c-9.2,1.8-18-4.8-23.4-12.4
			c-1.3-1.8-2.5-3.9-2.8-6.1c-0.2-1.8,0.3-3.7,0.9-5.4c4-11.6,12.7-21.5,23.6-27C356.3,151.4,363.6,149.7,370.6,151.3"/>
		<path d="M298.5,205.9c-2.2,0.9-4.6,1.5-7,1.4c-2.6-0.1-5-1.1-7.3-2.2c-8.2-3.7-16.4-8.6-20.8-16.3c-4-7-4.5-15.4-4.9-23.4
			c-0.1-1.6-0.1-3.3,0.7-4.6c1-1.6,3-2.3,4.8-2.9c6.9-2.2,14.4-4.4,21.3-2.3c2.9,0.9,5.6,2.5,8.1,4.2c7.8,5.5,14.3,12.7,18.9,21
			c0.9,1.7,1.8,3.4,2,5.3c0.3,2.5-0.7,5-1.9,7.3C309.4,199,304.4,203.5,298.5,205.9"/>
	</g>
	<g id="fill_3">
		<path fill="#FFFFFF" d="M295.4,201.5c3.5-0.6,6.5-2.7,9.2-5c1.7-1.5,3.3-3.1,4.1-5.1c1.2-2.9,0.8-6.3-0.5-9.2
			c-1.3-2.9-3.4-5.3-5.5-7.6c-3.5-3.9-7.2-7.8-11.6-10.7c-4.4-2.9-9.6-4.8-14.9-4.4c-3.8,0.3-7.4,1.7-11,3.1c-1,0.4-2,0.8-2.6,1.7
			c-0.4,0.6-0.5,1.4-0.5,2.1c-0.5,8.1,2.1,16.3,7.1,22.7c5,6.4,12.4,10.8,20.4,12.2C291.5,201.6,293.5,201.8,295.4,201.5z
			 M297.4,186.5c-0.7,1.9-2.5,3.3-4.5,3.5s-4.1-1.1-4.6-3c-1-3.3,1-7.3,4.3-8.4C296.1,179,298.6,183.2,297.4,186.5z"/>
		<path fill="#FFFFFF" d="M376.2,164.6c0.1-1.3,0-2.7-0.6-3.9c-0.7-1.4-2.2-2.4-3.7-3c-7.7-3.4-16.9-1.5-23.9,3.2
			s-12.2,11.6-16.6,18.7c-0.8,1.2-1.5,2.5-1.8,3.9c-0.8,3.7,1.6,7.4,4.3,10c2.6,2.4,5.5,4.5,8.7,6c1.7,0.8,3.6,1.5,5.5,1.6
			c3,0.1,6-1.2,8.6-2.8C368,191.1,375.6,178.1,376.2,164.6z M349.7,177.6c0.5,0,0.9,0,1.3,0.3c0.8,0.5,1,1.4,1.1,2.3
			c0.4,3.1,0.6,6.9-2,8.7c-2.6,1.8-6.6-0.2-7.2-3.3c-0.7-3,1.5-6.3,4.4-7.4C348,177.9,348.8,177.7,349.7,177.6z"/>
	</g>
</g>
<g id="Layer_4">
	<g id="line_4">
		<path d="M335.4,198.8c-5.1-4.1-8.1-10.7-8.6-17.2c-0.4-5.5,0.8-11.2,4-15.6c4.1-5.6,10.8-8.5,17.2-11.1c3-1.2,6.4,0.2,9.3,1.7
			c2.2,1.1,4.4,2.2,6.6,3.3c4.3,2.1,8.9,4.5,11.1,8.8c1.9,3.6,1.7,7.9,0.9,11.8c-1.9,8.7-7.5,16.7-15.4,20.6
			C352.5,205,342.3,204.4,335.4,198.8"/>
		<path d="M267.6,198c-7.2-7.2-7.7-19.2-3.2-28.3c4.4-9,13.7-15.7,23.7-15.7c10.5,0.1,20.4,8.2,22.5,18.5
			c2.2,10.7-3.9,22.1-13.3,27.7C288.1,205.7,275.2,205.5,267.6,198"/>
	</g>
	<g id="fill_4">
		<path fill="#FFFFFF" d="M331.3,173.7c-2.6,6.8-0.2,15,5.4,19.8s13.7,5.9,20.5,3.5c6.8-2.5,12.2-8.3,14.6-15.2
			c1.2-3.5,1.6-7.6-0.4-10.7c-1-1.6-2.6-2.7-4.1-3.7c-2.6-1.7-5.2-3.3-8-4.7c-3.2-1.7-6.8-3.2-10.4-2.8c-2.3,0.2-4.5,1.1-6.5,2.3
			C337.6,164.7,333.2,168.6,331.3,173.7z M348.5,176c0.6-0.2,1.3-0.3,1.9-0.2c1.5,0.4,2,2.4,1.9,4c-0.2,2-0.9,4-2.4,5.4
			c-1.5,1.3-3.9,1.7-5.6,0.6c-1.8-1.3-2.1-4-1.1-6C344.3,177.8,346.4,176.6,348.5,176z"/>
		<path fill="#FFFFFF" d="M267.6,172.1c-4.4,6.8-2.6,16.7,3.5,22.1c6.1,5.4,15.6,6.2,22.8,2.6c7.3-3.6,12.2-11.2,13.5-19.2
			c1.1-7.2-4.8-13.8-11.5-16.5c-6.6-2.7-14.8-2.6-20.5,1.7C272.1,165.2,269.8,168.7,267.6,172.1z M286,187c-2.6-0.1-4.5-2.9-4.3-5.5
			c0.2-1.9,1.3-3.8,3.1-4.6c1.7-0.8,4-0.5,5.4,0.8c2,2,1.6,5.5-0.3,7.5C288.8,186.3,287.4,187.1,286,187z"/>
	</g>
</g>
<g id="Layer_5">
	<g id="line_5">
		<path d="M263.9,168.4c1.8-4.1,5.3-7.2,9.1-9.4c10-5.7,23-5.7,32.9,0.1c0.9,0.5,1.8,1.1,2.3,2c0.6,1,0.8,2.2,0.9,3.3
			c1,13.7-6.2,27.6-17.9,34.7c-5,3-11.6,2.4-16.5-0.7c-4.9-3.1-8.3-8.2-10.3-13.6C262.5,179.5,261.7,173.5,263.9,168.4"/>
		<path d="M327.4,176.2c-1.1-4.1-1.5-8.6,0.6-12.3c1.6-2.8,4.4-4.8,7.3-6.2c8.3-3.8,17.8-3.5,26.8-2.1c2.5,0.4,5.1,0.9,6.9,2.6
			c2.4,2.1,3,5.6,3.3,8.8c0.7,7.5,0.1,15.4-3.5,22s-11,11.5-18.4,10.6c-3.6-0.4-6.9-2.1-9.8-4.2
			C334.3,190.7,329.5,183.8,327.4,176.2"/>
	</g>
	<g id="fill_5">
		<path fill="#FFFFFF" d="M330.4,172.8c2.6,6.1,5.6,12.2,10.6,16.4s12.4,6.3,18.3,3.3c6.8-3.4,9.1-11.9,9.8-19.5
			c0.2-2.5,0.3-5.2-0.9-7.4c-2.3-4.4-8.2-5.1-13.2-5.3c-7.6-0.3-16.1-0.3-21.9,4.7C331,167,329.3,170.1,330.4,172.8z M345.3,170
			c1-0.9,2.3-1.7,3.7-1.5c1.7,0.2,3.1,1.7,3.4,3.4c0.4,1.7,0,3.4-0.7,5c-0.5,1.2-1.2,2.5-2.3,3.2c-2.3,1.5-5.7-0.2-6.5-2.8
			C342.1,174.8,343.3,171.9,345.3,170z"/>
		<path fill="#FFFFFF" d="M278.5,194.8c2.6,1.4,5.9,2.4,8.6,1.1c10.8-5.2,18.3-16.8,18.6-28.8c0-2.2-2-3.7-3.9-4.7
			c-10.3-5.2-23.9-2.9-32,5.4c-1.2,1.3-2.4,2.7-3,4.3c-1.1,2.8-0.7,6,0.2,8.9C268.9,186.8,273.1,191.8,278.5,194.8z M290.1,181.6
			c-0.5,1.1-1.5,2.1-2.6,2c-0.5-0.1-1-0.4-1.4-0.8c-2.5-2-4.7-5.8-2.5-8.2c1.5-1.7,4.6-1.4,6.1,0.4
			C291.1,176.8,291.1,179.5,290.1,181.6z"/>
	</g>
</g>
<g id="Layer_6">
	<g id="line_6">
		<path d="M286.6,191.9c-3.9-5.8-5.2-13.4-2.6-19.9c2.6-6.5,9-11.4,16-11.5c4.4-0.1,8.4,2.9,10.4,6.7c2,3.8,2.3,8.4,1.8,12.7
			c-0.6,5.3-2.6,10.6-6.6,14.2c-4,3.6-10.2,4.9-14.8,2.1C289.1,195.1,287.7,193.5,286.6,191.9"/>
		<path d="M327.7,179.1c0.3-5,1.7-10.1,5.1-13.7c3.4-3.6,9.3-5.2,13.5-2.6c1.6,1,2.9,2.5,4,4.1c4.2,6,6.5,13.9,4,20.8
			c-2.5,6.9-10.7,11.8-17.5,9.1c-1.9-0.8-3.6-2.1-5-3.6c-1.7-1.9-2.9-4.2-3.6-6.7C327.6,184.1,327.5,181.6,327.7,179.1"/>
	</g>
	<g id="fill_6">
		<path fill="#FFFFFF" d="M306,168.9c-3-3.4-8.5-4.2-12.6-2.2s-6.8,6.5-7,11.1c-0.2,4.6,1.8,9.1,5,12.4c0.9,0.9,1.8,1.7,3,2.1
			c1.5,0.5,3.1,0.4,4.6-0.1c7.4-2.2,11.7-11.2,9.5-18.6C308,171.9,307.2,170.3,306,168.9z M295,182.4c-0.5-1.7,1.1-3.5,2.9-3.4
			c1.7,0,3.2,1.7,3.3,3.4c0.1,1.9-1.4,3.8-3.3,3.8C296,186.3,294.4,184.2,295,182.4L295,182.4z"/>
		<path fill="#FFFFFF" d="M334.9,188.6c1.6,1.9,3.7,3.6,6.2,3.9c2.2,0.3,4.5-0.7,6.3-1.9c1.3-0.9,2.4-1.9,3.2-3.3
			c2.8-4.7,0-10.6-2.7-15.3c-0.9-1.6-1.9-3.2-3.5-4.2c-2.1-1.2-4.7-0.9-6.8,0.2c-3.5,1.8-5.8,5.6-6.2,9.5
			C331,181.5,332.4,185.5,334.9,188.6z M341.3,182.7c-0.5,0.8-1.5,1.3-2.4,1.2c-1.6-0.8-2.6-2.8-2-4.5c0.6-1.7,2.9-2.6,4.4-1.6
			c1.5,1,1.5,3.7-0.2,4.5L341.3,182.7z"/>
	</g>
</g>
<g id="Layer_7">
	<g id="line_7">
		<path d="M350.5,204.6c-4.3,0.9-9.1,0.8-12.9-1.5c-2-1.2-3.7-3-5.2-4.8c-1.8-2.1-3.5-4.6-3.8-7.4c-0.1-1.7,0.3-3.4,0.8-5
			c2.9-9.3,8.4-17.7,15.9-23.8c7.6-6,17.2-9.5,26.9-9.3c1.4,0,2.9,0.2,4.1,1c1.8,1.2,2.3,3.5,2.7,5.6c1.4,9.7-0.3,20-5.4,28.4
			C368.6,196.2,360.1,202.7,350.5,204.6"/>
		<path d="M287.5,204.6c-9.6-1.9-18.1-8.4-23.2-16.8c-5-8.4-6.7-18.7-5.4-28.4c0.3-2.1,0.9-4.4,2.7-5.6c1.2-0.8,2.7-0.9,4.1-1
			c9.7-0.2,19.3,3.3,26.9,9.3c7.6,6,13.1,14.5,15.9,23.8c0.5,1.6,0.9,3.3,0.8,5c-0.2,2.8-2,5.2-3.8,7.4c-1.5,1.8-3.2,3.6-5.2,4.8
			C296.6,205.4,291.9,205.5,287.5,204.6"/>
	</g>
	<g id="fill_7">
		<path fill="#FFFFFF" d="M356.8,197.3c11.5-5.7,19.3-18.2,19.4-31c0-1.5-0.1-3.1-0.7-4.5c-1.1-2.3-3.5-3.7-6-4
			c-2.5-0.3-5,0.2-7.4,1c-10.8,3.4-20.2,10.9-26,20.7c-1.9,3.3-3.5,7.2-2.8,11c0.9,4.7,5.1,8.2,9.8,9.2
			C347.7,200.6,352.6,199.4,356.8,197.3z M348.4,190.2c-0.7,0.2-1.4,0.3-2.2,0.2c-3.5-0.5-5.2-5.7-2.6-8.1c1.9-1.8,5.4-1.5,7,0.5
			c1.2,1.5,1.3,3.9,0.2,5.5C350.3,189.2,349.4,189.9,348.4,190.2z"/>
		<path fill="#FFFFFF" d="M295,199.6c4.6-1,8.9-4.5,9.8-9.2c0.7-3.8-0.9-7.6-2.8-11c-5.7-9.8-15.2-17.3-26-20.7
			c-2.4-0.8-4.9-1.3-7.4-1c-2.5,0.3-5,1.7-6,4c-0.7,1.4-0.8,3-0.7,4.5c0.1,12.8,7.9,25.3,19.4,31C285.4,199.4,290.3,200.6,295,199.6
			z M287.2,188.3c-1.1-1.6-1-4,0.2-5.5c1.6-2.1,5.1-2.3,7-0.5c2.6,2.4,0.9,7.7-2.6,8.1c-0.7,0.1-1.5,0-2.2-0.2
			C288.6,189.9,287.7,189.2,287.2,188.3z"/>
	</g>
</g>
<g id="Layer_8">
	<g id="line_8">
		<path d="M309.2,189.4c-0.6,4.7-4.4,8.4-8.4,11c-5.8,3.7-12.8,5.9-19.6,4.5c-8.5-1.7-15.2-8.8-18.2-17c-3-8.1-2.7-17.1-1.2-25.7
			c0.2-1.3,0.5-2.6,1.2-3.7c0.9-1.4,2.4-2.2,3.9-2.8c5.7-2.5,12.1-3.7,18.3-2.8c6.2,1,12.1,4.2,15.6,9.4c1.9,2.8,3.1,6,4.2,9.2
			c1.2,3.6,2.3,7.3,3.2,11C309,184.8,309.5,187.1,309.2,189.4"/>
		<path d="M328.8,189.4c-0.3-2.3,0.2-4.6,0.8-6.9c0.9-3.7,2-7.4,3.2-11c1.1-3.2,2.3-6.4,4.2-9.2c3.6-5.1,9.5-8.4,15.6-9.4
			c6.2-1,12.6,0.2,18.3,2.8c1.5,0.7,3,1.5,3.9,2.8c0.7,1.1,1,2.4,1.2,3.7c1.5,8.5,1.8,17.5-1.2,25.7c-3,8.1-9.7,15.3-18.2,17
			c-6.7,1.3-13.8-0.8-19.6-4.5C333.2,197.8,329.4,194.1,328.8,189.4"/>
	</g>
	<g id="fill_8">
		<path fill="#FFFFFF" d="M265.5,165c-2,7.1-1.7,14.9,1.4,21.6c3.2,6.6,9.4,11.9,16.7,13.2c7.2,1.3,15.3-1.7,19.3-7.8
			c2.8-4.2,1.5-9.7,0.1-14.5c-1.2-3.9-2.4-7.9-4.8-11.2c-6.3-8.7-19.5-10.6-29.1-5.7c-0.9,0.4-1.7,1-2.4,1.7
			C266.1,163,265.8,164,265.5,165z M287.9,180.9c0.5-0.5,1-1,1.7-1.2c2.3-0.6,3.7,2.6,3.4,5c-0.3,3-2.6,6.4-5.4,5.7
			c-1.9-0.5-2.9-2.7-2.6-4.6C285.3,183.9,286.6,182.3,287.9,180.9z"/>
		<path fill="#FFFFFF" d="M371.2,162.2c-0.6-0.8-1.5-1.3-2.4-1.7c-9.6-4.9-22.8-3-29.1,5.7c-2.4,3.3-3.7,7.3-4.8,11.2
			c-1.4,4.8-2.7,10.3,0.1,14.5c4.1,6.2,12.1,9.2,19.3,7.8c7.2-1.3,13.5-6.6,16.7-13.2c3.2-6.6,3.4-14.5,1.4-21.6
			C372.2,164,371.9,163,371.2,162.2z M353,185.8c0.3,1.9-0.7,4.1-2.6,4.6c-2.9,0.8-5.1-2.7-5.4-5.7c-0.2-2.4,1.1-5.6,3.4-5
			c0.7,0.2,1.2,0.7,1.7,1.2C351.4,182.3,352.7,183.9,353,185.8z"/>
	</g>
</g>
<g id="Layer_9">
	<g id="line_9">
		<path d="M306.3,184.3c-3.9,7.8-10.2,14.8-18.5,17.9c-8.2,3-18.5,1.3-24-5.6c-3.7-4.5-4.9-10.6-5.2-16.4c-0.3-6.3,0.4-12.7,2-18.8
			c0.8-3.1,2.5-6.7,5.7-7c1.6-0.2,3.2,0.6,4.7,1.4c10.9,5.8,21.8,11.5,32.7,17.3c1.2,0.6,2.4,1.3,3.2,2.4
			C308.8,178,307.7,181.5,306.3,184.3"/>
		<path d="M330.5,191c-2.5-2.4-5.2-5.6-4.4-9c0.8-3.3,4.3-4.9,7.4-6.3c9.6-4.2,18.8-9.6,27.1-16c1.7-1.3,3.5-2.7,5.6-3.5
			c2.1-0.7,4.6-0.7,6.3,0.7c1.1,0.9,1.8,2.3,2.4,3.6c1.7,3.8,3.4,7.7,4.2,11.8c1.6,8.8-1.9,18.4-8.8,24.2
			c-6.9,5.8-16.9,7.5-25.4,4.4C339.4,198.9,334.8,195.1,330.5,191"/>
	</g>
	<g id="fill_9">
		<path fill="#FFFFFF" d="M302.7,180c-0.4-1.1-1.4-1.8-2.3-2.6c-9-7-19.8-11.5-30.3-15.9c-1-0.4-2.1-0.9-3.3-0.7
			c-2.7,0.4-3.7,3.8-4,6.5c-0.6,5.2-1.2,10.5-0.3,15.7c0.9,5.2,3.4,10.3,7.8,13.2c4.8,3.1,11.2,3.1,16.5,1c5.3-2.1,9.7-6,13.5-10.3
			C302,184.9,303.7,182.4,302.7,180z M288.8,181.3c0.5,1.9,0.8,4,0.2,5.9c-0.6,1.9-2.2,3.6-4.2,3.7c-2.9,0.2-5.1-3.3-4.4-6.1
			s3.5-4.8,6.4-5.3C287.8,179.1,288.5,180.3,288.8,181.3z"/>
		<path fill="#FFFFFF" d="M331.5,183.5c-0.1,0.6,0.2,1.2,0.5,1.7c4.7,7,12.7,11.9,21.1,12.2s17-4.4,20.7-12
			c3.6-7.2,2.4-16.5-2.9-22.6c-0.6-0.7-1.3-1.4-2.2-1.3c-0.6,0-1.1,0.3-1.6,0.6c-11.5,6.7-22.9,13.4-34.4,20.1
			C332.2,182.5,331.6,182.8,331.5,183.5z M353.8,189.3c-1,0.3-2.1,0.1-3-0.3c-2.3-1.2-3-4.7-1.2-6.6c1.8-1.9,5.4-1.5,6.7,0.7
			C357.7,185.3,356.4,188.6,353.8,189.3z"/>
	</g>
</g>
<g id="Layer_10">
	<g id="line_10">
		<path d="M282.7,204.2c-1.5-0.4-2.9-0.9-4.2-1.6c-4.6-2.5-7.3-7.4-8.4-12.5s-0.7-10.3-0.3-15.5c0.3-3.8,0.6-7.6,0.9-11.4
			c0.2-2.9,0.7-6.3,3.1-7.8c1.3-0.8,2.9-1,4.4-1.1c4.5-0.4,9-0.7,13.5-1.1c5.5-0.4,10.5,3.9,12.6,9c2.1,5.1,2,10.8,1.9,16.3
			c-0.1,4.7-0.2,9.5-0.4,14.2c-0.1,3.6-0.4,7.6-3.1,10c-1.5,1.3-3.5,1.9-5.5,2.2C292.4,205.6,287.4,205.4,282.7,204.2"/>
		<path d="M365.8,191.4c-4.2,8-14.2,10.7-23.1,12.4c-2.4,0.5-4.9,1-7.3,0.6c-2.4-0.4-4.9-1.8-5.7-4.2c-0.4-1.1-0.4-2.2-0.4-3.4
			c-0.1-4.3-0.2-8.5-0.3-12.8c-0.1-4.5-0.2-9.1,1-13.5c2.2-8.1,9-14.9,17.2-16.9c4.9-1.3,10.1-0.9,15.2-0.6c1.4,0.1,3,0.3,3.9,1.4
			c0.6,0.7,0.7,1.5,0.9,2.4c1.7,8.4,2,17,1.1,25.4C367.8,185.4,367.3,188.5,365.8,191.4"/>
	</g>
	<g id="fill_10">
		<path fill="#FFFFFF" d="M275.1,161.8c-0.9,1.3-1.1,2.9-1.2,4.5c-0.2,1.8-0.4,3.7-0.5,5.5c-0.5,4.9-1,9.8,0,14.6
			c1,4.8,3.6,9.5,7.9,11.8c3.5,1.9,7.6,2,11.6,1.9c1.9,0,3.9-0.1,5.6-1.1c3.4-2,3.9-6.6,4-10.5c0.1-2.9,0.2-5.9,0.2-8.8
			c0.1-3.8,0.2-7.6-0.7-11.3c-0.9-3.7-3-7.2-6.3-9.1c-4.3-2.4-9.6-1.4-14.4-0.4C278.9,159.3,276.4,159.9,275.1,161.8z M284.9,186.1
			c-1.2-2.3-1.7-5.3-0.1-7.3c1.5-2.1,5.5-2.1,6.3,0.4c0.3,0.9,0.2,1.8,0,2.7c-0.3,1.6-0.7,3.4-1.9,4.5
			C288,187.5,285.7,187.6,284.9,186.1z"/>
		<path fill="#FFFFFF" d="M333.4,196.2c1,2,3.2,3.1,5.5,3.3c2.2,0.2,4.4-0.4,6.6-0.9c4.9-1.3,10.1-2.6,13.8-6.1
			c3.6-3.3,5.4-8.2,6-13c0.6-4.9,0-9.8-0.6-14.6c-0.2-1.9-0.5-3.9-1.7-5.3c-1.8-2.2-4.9-2.5-7.7-2.3c-9,0.5-18.6,5.2-21.4,13.8
			c-1,3.2-1.1,6.6-1.1,10c0,3.6,0,7.2,0,10.9C332.8,193.3,332.8,194.9,333.4,196.2z M342.5,182.4c0.6-1.9,1.6-3.9,3.4-4.8
			c1.8-0.9,4.5-0.2,5.1,1.7c0.2,0.8,0.1,1.7-0.1,2.5c-0.4,1.9-1,4-2.4,5.3c-1.4,1.4-4,1.8-5.4,0.4
			C341.8,186.2,342,184.1,342.5,182.4z"/>
	</g>
</g>
</svg>
