<?xml version="1.0" encoding="utf-8"?>
<!-- Generator: Adobe Illustrator 18.1.1, SVG Export Plug-In . SVG Version: 6.00 Build 0)  -->
<!DOCTYPE svg PUBLIC "-//W3C//DTD SVG 1.1//EN" "http://www.w3.org/Graphics/SVG/1.1/DTD/svg11.dtd">
<svg version="1.1" xmlns="http://www.w3.org/2000/svg" xmlns:xlink="http://www.w3.org/1999/xlink" x="0px" y="0px"
	 viewBox="0 0 512 512" enable-background="new 0 0 512 512" xml:space="preserve">
<g id="Layer_0">
	<path id="line_0" d="M147.1,341c-1.7,3.3-5.7,6.8-8.5,4.4c-0.8-0.7-1.2-1.9-1.5-2.9c-4.1-13.6-5.2-28.1-3.1-42.2
		c-8,6.7-16,13.4-24,20.1c-1,0.8-2,1.7-3.3,1.9c-3.7,0.6-5.8-4.1-6.4-7.8c-2.5-16.6-1.5-33.6,2.8-49.8c-4.3-1.9-7.4,6.1-12.1,5.8
		c-4-0.2-4.9-5.8-4.3-9.8c1.4-9.1,4.5-18,8.9-26.1c4.9-9,11.5-16.9,18.2-24.6c23-26.6,48-52.2,78.2-70.2s66.4-28.1,101-21.6
		c42,7.8,76.1,38.3,103.5,71.2c8.3,9.9,16.1,20.2,22.5,31.4c4,7.1,7.5,15.2,5.8,23.2c-4.1-2.7-9.5-3.2-14.1-1.4
		c8,8.4,12.7,19.8,13,31.4c0.1,4.7-7.1,5.1-11.4,3.3c-4.4-1.8-11-3.1-12.5,1.4c2.6,10.2,1.6,21.2-2.7,30.8
		c-4.3-4.5-8.8-9.2-14.5-11.7s-13-2.6-17.7,1.6c-27.1,24.8-57.4,49-93.6,54.9c-35.9,5.9-72.8-7.5-102.7-28.2
		c-4.1-2.8-10-1.2-13.6,2.3C151.4,331.8,149.5,336.5,147.1,341"/>
	<path id="fill_0" fill="#EFEFEF" d="M139.3,324.2c0.4,2.2,1.1,4.4,2.8,5.9c1.7,1.4,4.7,1.5,5.8-0.3c2.3-3.8,4.7-7.7,8.3-10.2
		c3.6-2.6,8.8-3.5,12.4-1c31.1,21.2,69.3,36,106.2,28.6c20.7-4.2,39.5-14.9,56.6-27.3c11-7.9,21.5-16.5,31.4-25.8
		c8.2-7.7,23.3-5.9,29.4,3.6c4.5-1.4,5-7.6,3.9-12.1c-1.1-4.6-2.8-9.8,0.1-13.6c3.4-4.5,10.4-3.1,15.8-1.3c1.6,0.5,3.6,1,4.8-0.1
		c1.8-1.6,0.5-4.4-0.8-6.4c-5.5-7.9-11-15.9-16.5-23.8c-1.7-2.4,1.4-5.6,4.3-5.6c2.9-0.1,5.7,1.4,8.6,1.5s6.3-2.7,5-5.3
		c-22.6-46.7-64-84.1-112.8-101.7c-8.8-3.2-17.9-5.8-27.2-6.9c-32-3.7-63.5,10.4-90.4,28.1c-39.3,25.9-73.4,60.7-94,103
		c-1.7,3.4-2.1,9.1,1.6,9.5c4.6-5.2,11.7-8.1,18.6-7.7c-9,17.6-11.6,38.4-7.2,57.7c6.4-2.8,11.3-8.1,16.6-12.5
		c5.4-4.4,12.1-8.2,19-7C138.1,303.3,137.3,314,139.3,324.2z"/>
</g>
<g id="Layer_1">
	<path id="line_1" d="M363.9,297.3c-0.9,18-8.5,35.5-21,48.5c-0.6-3.2-1.3-6.6-3.7-8.8c-2.4-2.1-7.1-1.8-8,1.3
		c-2.3,7.7-6.9,14.8-13.1,20c-1.1,0.9-2.3,1.8-3.7,1.8c-4.3-0.1-4.6-7.6-8.7-8.6c-2.3-0.6-4.4,1.1-6.2,2.6
		c-14.6,12.2-34.2,17.5-53.2,17c-19-0.5-37.6-6.5-54.6-14.9c-2.9-1.4-5.9-3-9.2-3s-6.8,2-7.3,5.2c-0.3,2-3.4,1.2-4.9-0.2
		c-10.3-9.7-16.8-23.2-18-37.3c-0.2-3.1-0.3-6.4-2.2-8.9c-1.9-2.5-6.4-3.1-7.8-0.3c-1,2-4,2.2-5.8,0.9c-1.8-1.3-2.6-3.6-3.2-5.7
		c-2.5-8.9-2.4-18.6,0.1-27.5c0.5-1.9-2.4-2.9-4.1-2c-1.7,0.9-2.9,2.7-4.7,3.3c-2.6,0.9-5.4-1.1-6.5-3.5s-0.9-5.3-0.6-8
		c4.6-40.2,25.9-76.9,53.2-106.7c14.7-16,32.7-31,54.3-33.1c4.3-0.4,10.3-2.4,9.2-6.5c-1.3-4.7,5.6-6.9,10.4-6.8
		c6.2,0.2,12.4,0.3,18.6,0.5c-3.6-4.3-7.1-8.6-10.5-13c6.1-4.1,14.2-2.2,21.2-0.1c22.8,6.8,46.4,14.6,63.2,31.4
		c6.5,6.5,11.7,14.1,16.6,21.8c20.8,32.6,37.4,68.9,40.8,107.5c1.3,15.4,0.3,31.7-7.9,44.7c-4.5-3.8-8.9-7.6-13.4-11.4
		c-1.5-1.2-3-2.5-5-2.8S364,295.4,363.9,297.3"/>
	<path id="fill_1" fill="#DDDDDD" d="M122.2,266.6c-0.2,1.2-0.3,2.6,0.4,3.5c1.3,1.6,3.8,0.9,5.6,0c5.4-2.5,10.9-5,16.3-7.5
		c-5.3,9.9-8,21.3-7.6,32.6c0.1,3.4,1.1,7.6,4.4,8.5c4.7,1.3,9.7-5.3,13.7-2.5c0.9,17.9,2.9,38.1,17.1,49.1c0.7-2.2,1.4-4.5,3.1-6.1
		c1.6-1.6,4.5-2.2,6.2-0.7c10.4,9.1,24.1,13.5,37.5,16.7c13.6,3.2,27.7,5.4,41.6,4c13.9-1.4,27.8-6.7,37.6-16.7
		c3.7-3.8,9.5-8.4,13.3-4.7c-3.3,2.9,1.8,8.6,6,7.2s6.2-6,7.6-10.1c1.4-3.9,2.8-7.8,4.2-11.6c0.9-2.6,2.7-5.7,5.4-5.4
		c4.5,0.6,4.1,9.5,8.6,9.5c1.7,0,2.9-1.4,3.9-2.7c8.2-10.8,12.3-24.5,11.4-38c-0.3-4.4,5.4-7.1,9.6-5.6s6.8,5.4,9.2,9.1
		c1.9,2.9,6.6,2.5,9,0c2.4-2.5,3.1-6.1,3.5-9.6c3.8-33.6-9.6-66.7-24.1-97.3c-4.9-10.4-10.1-20.8-16.7-30.2
		c-19.2-27.6-51.1-45.9-84.6-48.7c3.3,4.2,4.2,10.3,2.2,15.3c-7.7-3.5-16.8-4-24.7-1.2c3.5,0.6,4.9,5.2,3.6,8.4
		c-5.5,0-9.1,4.1-10.7,5.5c-2.7,2.4-3.7,6-6.9,8c-1.9,1.2-4.2,2.2-5,0.1c2.4-5.1,5.9-9.2,10.7-12.3c-29.3,1.2-53.3,23.6-71.2,46.9
		C143.1,205.6,127.1,234.8,122.2,266.6z"/>
</g>
<g id="Layer_2">
	<path id="line_2" d="M361.3,300.9c-2.1,9-4.1,17.9-6.2,26.9c-4.8-3.1-9.5-6.2-14.3-9.2c-2.5-1.6-6.9-2.6-7.6,0.3
		c-4.7,19.7-21,35.6-40.1,42.2c-19.1,6.7-40.6,4.9-59.5-2.4s-35.4-19.7-49.9-34c-2.2-2.2-4.8-4.6-7.9-4.3c-3.2,0.2-5.5,3.2-8.1,5.1
		c-2.6,1.9-7.4,2-8.1-1.2c-1.1-4.9-1.6-9.9-1.6-14.9c-3.1-2.5-6.1,3.4-9.7,4.9c-2.9,1.2-6.3-1-7.6-3.9c-1.3-2.9-1-6.2-0.6-9.3
		c0.2-2,0.5-4.2-0.7-5.9s-4.3-1.9-4.9,0c-0.8,2.5-4.8,2.4-6.4,0.3c-1.7-2-1.7-4.9-1.6-7.5c0.8-31,4.1-62.6,16.1-91.2
		c12-28.7,33.6-54.4,62.6-65.6c15.4-6,32.2-7.6,48.7-8.3c27.1-1,55.9,1.1,78,16.8c8.3,5.9,15.3,13.5,21.4,21.6
		c21.9,28.9,33.5,65.6,32.2,101.9c-4.2-1.9-9.1-2.3-13.5-0.9c3.3,11.3,5,23,5,34.7c0,2.1-0.4,4.8-2.3,5.6c-4.4,1.8-9.1-7.5-12.4-4.1
		C361.7,299.2,361.5,300.1,361.3,300.9"/>
	<path id="fill_2" fill="#CCCCCC" d="M334.4,307.5c3.9,2.7,7.8,5.3,11.7,8c3.7,2.5,8.7-1.8,9.3-6.2s-1-8.9-0.5-13.4s5.2-9,9-6.8
		c2.6,1.5,5.2,5.6,7.4,3.5c1.5-8.1,0.5-16.6-2.8-24.2c-1.4-3.3-3.3-6.7-2.9-10.3c0.5-3.6,5-6.6,7.7-4.3c2.2,1.9,6,0.5,7.4-2.2
		c1.4-2.6,1.1-5.8,0.7-8.7c-3.5-25.4-13-50-27.4-71.3c-9.4-13.8-21.2-26.4-36.4-33.4c-8.6-3.9-17.9-5.9-27.2-7.4
		c-32.6-5.3-67.9-4.8-96.4,11.9c-22.9,13.4-39.3,36.2-48.8,61c-9.6,24.8-12.8,51.5-14.1,78c-0.1,2.7,1.1,6.5,3.7,5.8
		c1.9-0.6,2.1-3.1,3.5-4.5c2.4-2.4,6.7,0.3,7.4,3.7c0.7,3.3-0.7,6.6-1.2,10s0.7,7.5,4,8.3c5.3,1.2,10.6-7.4,14.8-4
		c-1.2,3.4-2.4,7.1-1.4,10.5c0.9,3.5,5,6.3,8.2,4.6c4.1-2.2,8.2-4.3,12.3-6.5c1.2-0.6,2.6-1.3,3.9-1c1.3,0.3,2.2,2.2,1.2,3.1
		c-3,2.5-0.6,7.3,2.1,10.2c17.1,18.8,40.8,31.5,65.9,35.2c16.2,2.4,33.4,1.1,47.6-6.9c14.2-8,24.9-23.5,24.1-39.8
		c-0.1-1.5-0.2-3.2,0.9-4.2C329.8,305,332.5,306.2,334.4,307.5z"/>
</g>
<g id="Layer_3">
	<path id="line_3" d="M351.3,150.7c11.8,13.8,17.6,31.6,21.2,49.4c5,25.3,5.7,52.6-5.4,75.9c-4.7,9.9-11.5,18.8-18.7,27.1
		c-15.9,18.1-35,33.8-57.6,42.2c-22.6,8.3-48.8,8.5-69.9-3.1c-1.6-0.9-3.4-1.9-5.2-1.4c-1.8,0.4-2.8,3.2-1.2,4.1
		c-17.9-11.4-35.3-23.6-52.1-36.6c-5.3-4.1-10.6-8.3-14.4-13.7c-3.9-5.4-6.2-11.7-7.9-18.1c-8.5-31.6-3.4-66.3,12.1-95.2
		s40.9-51.9,70.3-66.4c18-8.9,39.2-10,58.8-5.5c19.6,4.5,37.6,14.4,53.6,26.5C340.8,140.3,346.5,145.1,351.3,150.7"/>
	<path id="fill_3" fill="#E0E0E0" d="M224,337.5c8,3.4,16.2,6.5,24.8,7.6c6.7,0.9,13.5,0.5,20.2-0.5c36.5-5.7,67.6-31.2,88-62
		c4.7-7.1,9-14.7,11.3-22.9c2.6-9.6,2.4-19.7,2-29.6c-1-25.9-4-53.5-20.6-73.3c-5.8-6.9-13-12.5-20.4-17.6
		c-26.9-18.6-60.6-32.1-92-23c-12.5,3.6-23.7,10.5-34.2,18.1c-15.8,11.3-30.6,24.4-41.1,40.7c-12.2,19-18,41.6-20.8,64
		c-0.7,5.8-1.3,11.7-0.8,17.6c1.1,14.1,7.9,27.4,17.2,38c9.3,10.6,21.1,18.9,33.3,26.1C201.5,327,212.6,332.7,224,337.5z"/>
</g>
<g id="Layer_4">
	<path id="line_4" d="M293.4,122.7c14.6,1.6,34.3,3.8,49,12.8c15,9.2,25.4,24.6,30.8,41.3c5.4,16.7,6.2,34.6,5,52
		c-2.2,31.3-11,62.5-28.5,88.6c-17.5,26-44.2,46.5-74.8,53.3c-5.5,1.2-11.2,1.8-16.8,1.8c-5.5,0-12.8-0.5-18.3-1.6
		c-30.7-6.4-57.7-26.4-75.6-52.2c-17.9-25.8-27.2-56.9-29.9-88.1c-1.5-17.5-1-35.4,4.2-52.1c5.2-16.8,15.4-32.4,30.2-41.8
		c14.6-9.2,30-11.3,50.2-13.5C239,121,278.7,121.1,293.4,122.7z"/>
	<path id="fill_4" fill="#EAEAEA" d="M233.7,128.8c-21.2,1.1-44.1,1.8-62.1,13.7c-13.4,8.9-22.6,23.3-27.3,38.7
		c-4.7,15.4-5.2,31.8-3.9,47.9c2.4,29.8,11,59.6,27.8,84.3c16.8,24.8,42.1,44.3,71.2,51.3c5.8,1.4,12,2.3,17.8,2.1
		c5.8,0.1,13.1-0.9,18.9-2.4c29-7.4,54-27.3,70.4-52.3c16.4-25,24.6-54.9,26.5-84.7c1-16.1,0.3-32.5-4.6-47.8
		c-4.9-15.3-14.3-29.6-27.9-38.3c-18.1-11.6-41-12-62.8-12.8L233.7,128.8z"/>
</g>
<g id="Layer_5">
	<path id="line_5" d="M342,360.3c-1.1,2.9-5.3,5.9-6.5,3c-1.1-2.8-5.1-3.3-7.8-1.9c-2.6,1.5-4.2,4.2-5.8,6.8
		c-13,21-36.2,38.1-60.7,34.9c-10.6-1.4-20.4-6.4-29.5-11.9c-17.8-10.7-34.3-23.4-49.1-37.9c-2.6-2.5-6.9-5.1-9.3-2.4
		c-2.3,2.6-6.4-0.6-8.2-3.6c-12-20.1-19.6-42.8-22.2-66.1c-0.3-2.5-4-2.5-6-1c-2,1.5-3.6,3.8-6.1,4c-3.9,0.2-5.5-4.9-5.6-8.8
		c-1.8-37.6,8-75.7,27.8-107.7c0.7-1.2,1.5-2.5,1.4-3.9s-1.6-2.8-2.9-2.2c-2.1,1-4.5-1.7-4.1-4c0.3-2.3,2.2-4.1,4.1-5.5
		c7.3-6,15.2-11.1,23.6-15.4c2.7-1.4,0.1-5.6-2.7-6.7s-6.7-2.7-6.1-5.7c7.7-5.9,17.9-7.5,27.6-8.4c49.8-4.4,99.9,5.6,148.1,19
		c4.4,1.2,9,2.7,11.6,6.4c2.6,3.7,1.3,10.2-3.1,10.9c13.7,13.1,25.3,28.4,34.4,45c2,3.7,3.8,8.6,1.1,11.8c-3.9-3-8.9-4.4-13.7-3.9
		c6.7,25.2,9.1,51.5,7,77.5c-0.2,2.2-0.5,4.6-2,6.1s-4.8,1.3-5.4-0.8c-1-3.6-6.4-3.9-9.1-1.3s-3.2,6.5-3.7,10.2
		C355.8,318.4,350.1,339.8,342,360.3"/>
	<path id="fill_5" fill="#999999" d="M173.7,339.4c-0.1-1.7,2-2.8,3.6-2.4s2.8,1.8,3.9,3.2c17,20.7,38.5,37.7,62.6,49.5
		c6.2,3,12.6,5.7,19.4,6.7c12.6,1.8,25.5-2.7,35.7-10.4c10.2-7.6,17.8-18.2,24-29.3c1.8-3.2,5.7-7,8.4-4.5c2,1.8,5.4,1.2,7.4-0.7
		c2-1.9,3-4.6,3.8-7.2c6-18.4,10.2-37.3,12.6-56.5c0.5-3.9,1-8.1,3.7-10.9s8.4-3,9.9,0.6c0.7,1.6,3.2,1.5,4.3,0.3
		c1.2-1.2,1.4-3.1,1.5-4.8c1.8-23.4-1.2-47.1-8.7-69.3c-1-2.9-1.4-7,1.4-8c1.9-0.7,3.9,0.8,5.8,1.7c1.9,0.9,4.9,0.6,5-1.5
		c0.1-0.8-0.4-1.6-0.9-2.3c-7.6-11.1-15.3-22.2-25.3-31.2c-2.9-2.6-6.1-5.1-7.5-8.7c-1.5-3.6-0.3-8.6,3.3-9.8
		c-17.2-9-36.7-12.4-55.8-15.6c-33.8-5.7-68.2-11.4-102.2-6.6c-4,0.6-8.2,1.3-11.5,3.6c0.9,2.3,3.7,2.9,6,3.7c2.3,0.8,4.8,3,3.8,5.2
		c-0.4,0.9-1.3,1.5-2.2,2c-9.7,6.1-19.4,12.2-29.1,18.2c-0.8,0.6-0.1,1.9,0.9,2.2c1,0.3,2,0,2.9,0.2c3.6,0.8,2.3,6.3,0.2,9.4
		c-20.4,29.9-31.4,66.2-30.9,102.4c0,2.8,0.9,6.4,3.7,6.5c1.3,0.1,2.5-0.8,3.6-1.6c3.4-2.7,6.8-5.3,10.3-8
		c-0.1,25.1,6.3,50.1,18.4,72.1c0.9,1.7,2,3.5,3.8,4.1S173.8,341.3,173.7,339.4z"/>
</g>
<g id="Layer_6">
	<path id="line_6" d="M364.5,270.5c-0.6,11.7-3.4,23.2-8.1,33.9c-1.1,2.5-3.2,5.4-5.8,4.6c-0.8-2.7-1.7-5.6-4-7.3
		c-2.3-1.7-6.2-1.2-7.1,1.4c-7.3,23.7-29.3,41.3-53.5,46.2c-24.3,4.9-50.1-2-70.5-16c-3.1-2.2-6.4-4.5-10.1-5s-8.2,1.8-8.5,5.6
		c-0.4,5.1-8.4,6.3-12,2.7s-4.1-9.3-4.2-14.4c-0.1-5.3-1.3-12.1-6.5-13.3c-4.5-1-8.3,3.1-12,6c-3.7,2.8-10.5,3.6-11.6-0.9
		c-0.3-1.4,0.1-2.8,0.5-4.1c2.2-7.5,4.4-15.1,6.6-22.6c-3.1-1.5-6.9-0.1-9.7,1.9c-2.8,2-5.5,4.5-8.8,5.4c-3.4,0.9-7.7-1-7.9-4.4
		c-2.9-57,17.7-113.5,50.4-160.2c13.2-18.9,29-37,49.9-46.8c5.9-2.8,12.3-4.9,18.8-5.6c23.4-2.4,44.5,13.5,61.7,29.6
		c25.7,24,49.5,51.5,61.3,84.6c9.3,25.9,10.7,54.5,4.2,81.2c-1.7-2.3-3.5-4.8-6.2-5.7C368.3,266.1,364.6,267.6,364.5,270.5"/>
	<path id="fill_6" fill="#E5E5E5" d="M335.4,299.6c0.7-2.5,1.4-5.1,3.4-6.8c1.9-1.7,5.6-1.5,6.5,0.9c0.9,2.5,4.5,3,6.8,1.6
		c2.3-1.4,3.4-4.1,4.2-6.6c2.4-7.4,3.5-15.3,3.1-23.2c-0.2-3.7,0.5-8.9,4.2-8.9c3.2,0,5.6,4.5,8.6,3.5c1.8-0.6,2.5-2.8,2.8-4.7
		c4.6-27.6-2.3-56.3-15.4-81c-13.2-24.7-32.4-45.7-53.1-64.4c-16.3-14.8-36.3-29.1-58.2-26.6c-17.4,2-31.8,14.2-43.7,27.1
		c-42.4,46-67.5,107.6-69.2,170.1c-0.1,4.3,5.9,6,9.9,4.4c4-1.6,7.2-5,11.3-5.9c4.2-1,9.7,3,7.6,6.8c-4.1,7.3-6.6,15.5-7.3,23.9
		c6.5-2.5,13.1-5.1,19.6-7.6c3.8-1.5,7.7,2.5,8.4,6.5c0.7,4-0.5,8.1-0.3,12.1s3,8.6,7,8.4c5.5-0.3,7.6-8.7,13-9.4
		c3.1-0.4,5.8,1.8,8.1,3.8c18.9,15.8,44.3,24.6,68.7,20.8C305.8,340.6,328.3,323.2,335.4,299.6z"/>
</g>
<g id="Layer_7">
	<path id="line_7" d="M149.9,241.7c-3.3,0.2-6.6,1.2-9.4,2.9c-4.4-3.1-4.6-9.4-4.1-14.7c2.4-29.6,11.7-59.8,32.8-80.7
		c19.4-19.2,46.3-28.3,72.5-35.7c6.5-1.8,13.3-1.7,20-1.5c11.3,0.3,22.6,0.5,33.6,3c24.9,5.7,46.3,23.1,59.9,44.8
		c13.5,21.7,19.7,47.4,20.8,73c0.1,2,0,4.2-1.4,5.5c-2.3,2-5.8,0.2-8.7-0.9c-2.9-1.1-7.6,0.3-6.7,3.2c3.4,11.4,5.8,23.1,7,35
		c0.2,1.8,0.3,3.8-0.6,5.4c-0.9,1.6-3.3,2.4-4.6,1.2c-1.4-1.4-4-0.2-4.7,1.6c-0.7,1.8-0.3,3.9,0.2,5.8c3.3,13.5,4.5,27.5,3.8,41.4
		c-0.1,2.4-0.4,5.1-2.1,6.8c-1.7,1.8-5.3,1.7-6.1-0.6c-1.4-4-7.5-4.3-10.7-1.6c-3.3,2.7-4.6,7.1-6.1,11.1
		c-9.7,24.9-35.9,41.3-62.6,43.2c-26.7,1.9-53.2-9-73.9-26c-1.8-1.4-3.6-3-5.8-3.4c-2.2-0.5-4.9,0.6-5.4,2.8c-0.7,3-5.2,0.8-6.8-1.8
		c-11.9-19.6-18.1-42.5-17.7-65.4c0-2.4-0.2-5.4-2.4-6.2c-4.2-1.6-8.2,7-11.9,4.3C144.6,276.9,145.1,258.7,149.9,241.7"/>
	<path id="fill_7" fill="#F4F4F4" d="M158.6,283.8c1.6-0.9,2.6-2.6,4.1-3.8s4-1.5,4.9,0.2c-2.2,23.1,1.7,46.7,11.3,67.9
		c1.6,3.5,6,7.4,8.5,4.5c2.2-2.6,6.4-0.3,8.9,2c17,15.1,37.9,26.6,60.5,29.1s46.8-4.9,61.7-22.1c5.2-6,9.2-13,12.2-20.3
		c1.8-4.5,3.5-9.3,7.2-12.4c3.7-3.1,10.3-3.4,12.7,0.8c0.8,1.4,3.1,1.2,4.2-0.1c1-1.2,1.2-3,1.2-4.6c0.5-14-1.4-28.2-5.7-41.6
		c-0.8-2.4-1.6-5-0.6-7.4c1-2.3,4.7-3.4,6-1.2c1.3,2.2,5,1.2,6-1.1s0.4-4.9-0.4-7.3c-3.2-10.7-6.4-21.4-9.6-32.2
		c-0.8-2.7,3.2-4.5,5.9-3.8c2.8,0.8,5.3,2.8,8.1,2.5c5.8-0.5,6.6-8.7,5.4-14.4c-3.9-19.8-10.1-39.4-20.9-56.4
		c-10.8-17-26.4-31.5-45.3-38.5c-10.2-3.8-21.1-5.3-31.9-5.7c-32.9-1.3-66.7,7.9-92.1,28.7s-41.6,53.8-38.8,86.5
		c-0.5,3.1,4.8,3.1,7,0.9c2.2-2.2,4.7-5.5,7.7-4.4c-2.3,13.1-4.7,26.2-7,39.4c-0.6,3.6-1.3,7.4,0.1,10.7
		C151.3,283,155.4,285.5,158.6,283.8z"/>
</g>
<g id="Layer_8">
	<path id="line_8" d="M275,114.3c51.8-0.5,102.2,33.6,121,81.9c3.6,9.3,6.1,19.7,3.3,29.3c-2.3,1.9-5.6-0.3-8.2-1.8
		c-2.6-1.5-7.5-0.7-6.7,2.2c6.3,25,5.7,51.6-1.6,76.2c-0.1-4.8-7.6-6-11.1-2.7c-3.5,3.3-4.3,8.4-5.4,13.1
		c-1.4,5.6-3.7,10.9-6.7,15.8c-2.9,0.4-4.6-3-5.9-5.6s-5-5-6.8-2.6c-15.4,20.8-40.2,33.9-66,36.9c-25.8,2.9-52.2-3.9-74.4-17.1
		c-2.6-1.6-5.3-3.3-8.4-3.5c-3.1-0.2-6.5,1.6-6.9,4.6c-0.3,2.3-3.9,1.5-5.8,0c-7-5.8-12.7-13.1-16.7-21.3c-1.3-2.7-2.6-5.7-5.3-7
		c-2.7-1.3-6.9,0.7-6.2,3.6c0.5,2-2.2,3.7-4.2,3.1c-2-0.6-3.3-2.6-4.3-4.4c-8.9-15.4-14.9-32.6-17.4-50.3c-0.5-3.3-4.4-5.1-7.6-4.6
		s-6,2.7-8.6,4.8c-7-17.9-2.6-38.3,4.4-56.3c21.1-54.3,66-98.7,120.5-119.2c4-1.5,10-1.7,10.7,2.4c0.4,2.5-1.7,4.6-3,6.9
		c-1.3,2.2-0.6,6.2,1.9,5.9c0.7-0.1,1.4-0.5,2-0.9c4.8-3.3,9.6-6.5,14.4-9.8c3,0.6,3.1,5,1.7,7.7c-1.4,2.7-3.6,5.6-2.6,8.5
		C266.2,113.9,271.1,114.3,275,114.3"/>
	<path id="fill_8" fill="#898989" d="M117.6,253.3c3.8,3.8,10.3-4.1,15.1-1.6c3.2,16.5,7.8,32.7,13.8,48.4c1.1,2.7,2.3,5.7,4.9,7.1
		c2.6,1.4,6.7,0.2,6.9-2.7c0.2-2.4,3.6-3.4,5.7-2.2c2.1,1.2,3.2,3.6,4.2,5.8c3.8,8.1,8.5,15.6,14.2,22.5c1.2,1.4,2.8,3,4.6,2.6
		c3.8-0.8,5-9,8.1-6.8c22.3,15.9,49.1,26.3,76.5,25.6s55-13.2,70.5-35.8c2.1-3,5.2-6.6,8.6-5.2c3.2,1.3,4.8,6.8,8,5.5
		c1.3-0.5,1.9-1.9,2.4-3.3c2.8-8.1,5.1-16.4,6.7-24.7c0.4-2,3.4-1.7,4.9-0.4c1.5,1.3,2.8,3.3,4.8,3.3c2.6,0,3.8-3.1,4.2-5.7
		c3.6-20.3,2.8-41.4-2.3-61.4c-0.7-2.8-1.2-6.6,1.4-8c2.9-1.7,6.5,1.6,9.8,1.1c4.8-0.8,4.8-7.6,3.3-12.2
		c-8.3-25.5-25.2-48.1-47.2-63.3c-22-15.3-49.1-23.1-75.9-22c-4.7,0.2-11.2-0.9-11.3-5.6c0-1.9,1.2-3.6,1.9-5.4
		c0.6-1.8,0.3-4.4-1.6-4.9c-5.8,3.4-10.9,8.1-14.6,13.8c-2.8-0.9-3.7-4.5-3.2-7.4c0.5-2.9,1.9-5.7,1.7-8.6c-0.1-2.9-2.8-6.1-5.6-5.1
		c-41,14.2-74.6,45.6-97.9,82.2c-13.3,20.9-23.9,44.6-24,69.4C116.2,250.2,116.4,252.1,117.6,253.3z"/>
</g>
<g id="Layer_9">
	<path id="line_9" d="M187.7,311.4c-2.8,3.1-1.4,8-1.5,12.2c-0.2,4.2-5.2,8.9-7.9,5.8c-14.8-16.7-27.5-35.3-37.7-55.2
		c-5.2,1.4-9.6,5.7-11,10.9c-0.7,2.8-4.9,3.1-7.1,1.2c-2.1-1.9-2.7-4.9-3.2-7.7c-1.3-7.6-2.6-15.2-3.9-22.7
		c-5.9,1.6-11.5,4-16.8,7.2c-4.6-5.1-3-13-1-19.6c8.1-26.6,18.2-53,34.6-75.5s39.4-41.1,66.5-47.3c3.4-0.8,7.1-1.5,9.3-4.2
		c2.2-2.7,1.1-7.9-2.4-8c-3.7-0.1-4.8-5.7-2.3-8.5c2.5-2.7,6.5-3.2,10.1-3.5c11.8-0.9,23.5-1.9,35.3-2.8c0.8-2.7-2.1-4.8-4.4-6.4
		c-2.3-1.6-4.4-5-2.2-6.8c1-0.8,2.3-0.8,3.6-0.7c63.9,4.2,124.8,40.4,159,94.6c1.6,2.5,3.1,5.2,2.8,8.1c-0.3,2.9-3.3,5.7-6,4.6
		c-1.8-0.8-3.8,1.3-3.9,3.2c-0.1,2,1.1,3.8,2.2,5.4c7.8,11.9,13.4,25.2,16.5,39.1c0.6,2.7-3,4.6-5.6,3.9c-2.7-0.7-4.6-2.9-6.8-4.5
		c-2.2-1.6-5.6-2.5-7.6-0.6c3.2,15.6,3.9,31.7,2,47.6c-0.4,3-4.6,3.9-7.2,2.5c-2.7-1.4-4.4-4-6.7-6c-2.3-1.9-6-2.9-8.1-0.8
		c-22.1,22.6-51.1,38.4-82.1,44.5c-31,6.2-63.8,2.7-92.9-9.8C196.9,309.6,191,307.7,187.7,311.4"/>
	<path id="fill_9" fill="#D1D1D1" d="M345.4,294.2c6.5-4.1,12.7-8.8,17.2-15c2.3-3.1,4-6.7,6.8-9.4s6.9-4.5,10.5-3.1
		c3.3,1.3,5.2,4.7,8.1,6.7c2.9,2,8.4,1,8-2.5c-1.3-13.4-2.5-26.8-3.8-40.3c-0.1-1-0.2-2,0.2-3c1-2.5,4.5-2.7,6.9-1.7
		c2.5,1,4.6,2.9,7.3,3.1c3.5-3,1.5-8.6-0.8-12.6c-4.9-8.5-9.8-17.1-14.8-25.6c-2.2-3.8-3.5-10.2,0.8-11.4c1.7-0.5,3.5,0.4,5.3,0.6
		c1.8,0.2,4.1-0.8,3.9-2.5c-31.7-49.6-86.4-83.9-144.9-90.9c-1.8-0.2-2.2,2.8-1,4.2c1.2,1.4,3.2,2,4.2,3.6c1.6,2.6-0.6,6.1-3.4,7.1
		c-2.8,1-5.9,0.4-8.9-0.2c-10.8-1.9-22-1.5-32.7,1.2c-3.1,0.8-2.4,5.6-0.2,8c2.2,2.4,5.3,4.7,4.9,7.9c-0.5,3.8-5.3,4.9-9.1,5.4
		c-29,3.5-54.6,22.3-72.1,45.7s-28,51.3-37,79.1c-1,3.1,3.6,5.3,6.7,4.2c3.1-1.1,5.4-3.9,8.5-5c3.1-1.1,7.7,1.2,6.6,4.3
		c-3.1,8.7-1.6,18.9,4,26.3c3.7-4,7.4-8,11-12c1.4-1.6,4.4-2.9,5.2-1c8.9,19.9,20.9,38.5,35.4,54.8c3.7-2.6,3.5-7.9,4.2-12.4
		s4.7-9.6,8.7-7.5C238.7,325.5,299.8,323,345.4,294.2z"/>
</g>
</svg>
