<?xml version="1.0" encoding="utf-8"?>
<!-- Generator: Adobe Illustrator 18.1.1, SVG Export Plug-In . SVG Version: 6.00 Build 0)  -->
<!DOCTYPE svg PUBLIC "-//W3C//DTD SVG 1.1//EN" "http://www.w3.org/Graphics/SVG/1.1/DTD/svg11.dtd">
<svg version="1.1" id="Layer_Groups" xmlns="http://www.w3.org/2000/svg" xmlns:xlink="http://www.w3.org/1999/xlink" x="0px"
	 y="0px" viewBox="0 0 512 512" enable-background="new 0 0 512 512" xml:space="preserve">
<g id="Layer_0">
	<path id="line_0" d="M144.3,339.3c-1.8,3.4-5.8,7-8.8,4.5c-0.8-0.7-1.1-2-1.5-3c-4.1-14-5.4-28.8-3.2-43.4
		c-8.2,6.9-16.4,13.8-24.6,20.6c-0.9,0.7-2.2,1.8-3.4,2c-3.9,0.7-5.9-4.1-6.6-8c-2.5-17.1-1.5-34.5,2.8-51.2
		c-4.3-2-7.5,6.3-12.4,5.9c-4.1-0.2-5.1-5.9-4.3-10.1c1.4-9.3,4.6-18.6,9.1-26.9c5.1-9.2,11.9-17.3,18.8-25.4
		c23.7-27.2,49.3-53.6,80.3-72.1s68.3-28.8,103.8-22.1c43.2,8,78.2,39.4,106.3,73.2c8.5,10.1,16.5,20.7,23.1,32.2
		c4.1,7.3,7.6,15.6,5.9,23.9c-4.1-2.7-9.8-3.3-14.5-1.4c8.2,8.7,13.1,20.4,13.3,32.2c0.1,4.8-7.3,5.3-11.7,3.4
		c-4.5-1.9-11.3-3.2-12.9,1.4c2.6,10.5,1.6,21.9-2.7,31.7c-4.3-4.6-9-9.5-14.8-12.1c-5.8-2.5-13.3-2.6-18.1,1.6
		c-27.8,25.5-59,50.3-96.3,56.4c-36.9,6-74.9-7.6-105.6-28.9c-4.1-2.8-10.3-1.1-14,2.4C148.8,329.9,146.9,334.7,144.3,339.3"/>
	<path id="fill_0" fill="#EFEFEF" d="M136.4,322c0.5,2.3,1,4.5,2.8,6s4.8,1.5,5.9-0.3c2.4-3.9,4.8-7.9,8.5-10.5
		c3.8-2.6,9-3.6,12.8-0.9c32,21.9,71.2,37,109.2,29.4c21.2-4.2,40.6-15.4,58.2-28c11.3-8.1,22.2-17,32.2-26.6
		c8.5-7.9,23.9-6,30.2,3.8c4.6-1.4,5.2-7.8,4-12.4c-1-4.7-2.8-10.1,0.1-14c3.5-4.6,10.7-3.2,16.3-1.3c1.6,0.6,3.8,0.9,4.9-0.1
		c1.9-1.6,0.6-4.5-0.8-6.6c-5.7-8.1-11.3-16.3-17-24.4c-1.8-2.4,1.4-5.7,4.3-5.7c3-0.1,5.8,1.4,8.9,1.5s6.5-2.7,5.2-5.5
		c-23.2-48-65.8-86.4-116-104.4c-9-3.3-18.5-5.9-27.9-7.1c-32.9-3.9-65.3,10.7-93,28.8c-40.3,26.7-75.4,62.4-96.6,106
		c-1.8,3.5-2.3,9.3,1.6,9.8c4.7-5.4,12.1-8.4,19.1-7.9c-9.2,18-12,39.4-7.4,59.4c6.6-2.8,11.5-8.4,17.1-12.9
		c5.6-4.5,12.4-8.5,19.5-7.2C135.2,300.5,134.3,311.6,136.4,322z"/>
</g>
<g id="Layer_1">
	<path id="line_1" d="M367.1,282.3c-0.8,18.6-8.8,36.5-21.5,49.9c-0.7-3.3-1.3-6.8-3.9-9c-2.4-2.3-7.3-1.9-8.2,1.3
		c-2.4,7.9-7.1,15.3-13.5,20.6c-1,0.8-2.4,1.9-3.9,1.9c-4.3-0.1-4.7-7.8-9-8.9c-2.4-0.7-4.5,1-6.4,2.6c-15,12.5-35.2,17.9-54.8,17.4
		c-19.5-0.6-38.6-6.7-56.2-15.4c-3-1.4-6-3.1-9.5-3.1c-3.5,0-7,2.2-7.4,5.5c-0.3,2.2-3.5,1.1-5.1-0.2c-10.6-10-17.3-23.9-18.6-38.4
		c-0.2-3.2-0.3-6.6-2.3-9.1c-2-2.5-6.6-3.2-8-0.3c-0.9,2.2-4.1,2.3-5.9,0.8c-1.9-1.3-2.6-3.8-3.3-5.8c-2.5-9.1-2.4-19.1,0.1-28.4
		c0.6-2-2.4-3-4.1-2.2c-1.8,0.8-3,2.7-4.8,3.4c-2.6,0.8-5.6-1-6.7-3.6c-1-2.4-0.8-5.5-0.7-8.2c4.7-41.3,26.7-79.1,54.8-109.6
		c15.2-16.4,33.6-31.9,55.8-34c4.3-0.5,10.6-2.4,9.5-6.7c-1.3-4.8,5.7-7.1,10.7-7c6.4,0.2,12.8,0.3,19.1,0.6
		c-3.8-4.3-7.3-8.9-10.7-13.3c6.3-4.1,14.6-2.4,21.9-0.1c23.5,7,47.6,15,65,32.2c6.7,6.7,12.1,14.5,17.1,22.4
		c21.3,33.5,38.5,70.8,41.9,110.5c1.3,15.8,0.3,32.6-8.1,45.9c-4.6-3.9-9.1-7.8-13.8-11.7c-1.5-1.1-3.1-2.5-5.2-2.8
		C369.5,279.3,367.1,280.4,367.1,282.3"/>
	<path id="fill_1" fill="#DDDDDD" d="M118.7,250.7c-0.2,1.1-0.3,2.6,0.5,3.6c1.3,1.6,3.9,0.8,5.7,0c5.6-2.5,11.2-5.2,16.8-7.6
		c-5.5,10.1-8.2,22-7.8,33.5c0.1,3.5,1,7.8,4.5,8.8c4.8,1.3,10-5.5,14-2.5c0.8,18.5,3,39.2,17.5,50.4c0.8-2.3,1.4-4.6,3.2-6.3
		c1.6-1.6,4.6-2.3,6.4-0.8c10.7,9.3,24.7,13.9,38.6,17.2c14,3.3,28.6,5.6,42.7,4.1s28.7-6.9,38.6-17.2c3.9-3.9,9.8-8.7,13.7-4.8
		c-3.4,3,1.9,8.9,6.2,7.4c4.2-1.4,6.4-6.2,7.8-10.4c1.4-4,2.8-8,4.2-12c0.8-2.6,2.7-5.8,5.6-5.6c4.6,0.7,4.1,9.8,8.9,9.8
		c1.8,0,3-1.4,4-2.7c8.5-11.1,12.6-25.3,11.7-39.1c-0.3-4.5,5.6-7.3,9.9-5.7c4.2,1.5,7,5.6,9.5,9.3c2,3,6.8,2.5,9.2,0
		s3.2-6.3,3.6-9.9c3.9-34.5-9.9-68.6-24.7-100c-5.1-10.6-10.4-21.3-17.2-31c-19.7-28.5-52.5-47.2-87-50.1c3.4,4.2,4.2,10.6,2.3,15.7
		c-7.9-3.6-17.3-4.1-25.5-1.1c3.6,0.7,5.1,5.4,3.8,8.7c-5.7,0-9.3,4.1-10.9,5.7c-2.7,2.4-3.9,6.2-7.1,8.2c-2,1.1-4.2,2.3-5.2,0.1
		c2.4-5.3,6-9.5,10.9-12.6c-30.2,1.1-54.9,24.2-73.3,48.3C140.2,188.2,123.8,218.1,118.7,250.7z"/>
</g>
<g id="Layer_2">
	<path id="line_2" d="M364.6,289.3c-2.3,9.2-4.1,18.5-6.4,27.6c-4.9-3.2-9.8-6.4-14.6-9.5c-2.5-1.6-7.1-2.6-7.8,0.3
		c-4.8,20.3-21.5,36.6-41.2,43.4c-19.6,6.9-41.8,5.1-61.1-2.4c-19.4-7.4-36.4-20.3-51.3-35c-2.3-2.3-4.9-4.7-8.1-4.3
		c-3.3,0.2-5.7,3.3-8.4,5.3c-2.6,2-7.5,2.2-8.4-1.1c-1-5.1-1.6-10.1-1.6-15.4c-3.2-2.5-6.3,3.5-10,5.1c-3,1.1-6.5-0.9-7.8-4
		c-1.3-3.1-0.9-6.4-0.7-9.6c0.2-2.2,0.6-4.2-0.8-6c-1.1-1.8-4.3-2-5.1,0c-0.8,2.5-4.9,2.4-6.6,0.3c-1.8-2.2-1.8-5.1-1.6-7.6
		c0.8-31.9,4.1-64.3,16.5-93.7c12.3-29.5,34.5-56,64.3-67.4c15.8-6.2,33.2-7.8,50.1-8.6c27.8-0.9,57.4,1,80.1,17.3
		c8.5,6,15.7,13.9,22.1,22.2c22.5,29.7,34.4,67.4,33.2,104.7c-4.2-2-9.3-2.4-13.9-0.8c3.4,11.5,5.2,23.7,5.2,35.7
		c0,2.3-0.5,4.9-2.4,5.7c-4.5,1.9-9.3-7.6-12.8-4.1C365,287.5,364.8,288.5,364.6,289.3"/>
	<path id="fill_2" fill="#CCCCCC" d="M337,296.1c4,2.7,8,5.5,12.1,8.2c3.9,2.5,9-1.9,9.6-6.4c0.7-4.5-0.9-9.1-0.6-13.8
		c0.5-4.7,5.4-9.2,9.2-7c2.6,1.5,5.4,5.7,7.5,3.6c1.5-8.4,0.6-17.1-2.8-24.8c-1.4-3.4-3.4-6.9-3-10.6c0.6-3.8,5.2-6.8,7.9-4.3
		c2.3,2,6.2,0.6,7.5-2.3c1.4-2.6,1-5.9,0.8-9c-3.6-26.1-13.3-51.5-28.3-73.3c-9.7-14.1-21.9-27-37.4-34.3c-8.9-4-18.5-6-27.9-7.5
		c-33.5-5.5-69.9-4.9-99.1,12.3c-23.6,13.8-40.3,37.2-50.3,62.7c-9.9,25.5-13.2,53-14.5,80.1c-0.1,2.7,1,6.7,3.9,5.9
		c2-0.7,2.3-3.2,3.6-4.6c2.4-2.4,6.9,0.3,7.5,3.9c0.8,3.4-0.8,6.8-1.1,10.3c-0.6,3.5,0.8,7.6,4.1,8.5c5.5,1.1,10.8-7.5,15.3-4.1
		c-1.1,3.5-2.4,7.3-1.4,10.7c0.8,3.6,5.2,6.5,8.5,4.7c4.1-2.3,8.5-4.3,12.6-6.7c1.1-0.7,2.6-1.3,4-0.9c1.3,0.3,2.3,2.3,1.1,3.2
		c-3.1,2.5-0.7,7.4,2.3,10.5c17.5,19.4,41.9,32.4,67.7,36.2c16.6,2.4,34.3,1,48.9-7.1c14.5-8.1,25.6-24.1,24.7-40.9
		c-0.1-1.5-0.2-3.3,0.8-4.2C332.2,293.5,334.9,294.9,337,296.1z"/>
</g>
<g id="Layer_3">
	<path id="line_3" d="M355.1,131.7c12.3,14.3,18.3,32.9,22.1,51.3c5.2,26.3,5.9,54.6-5.7,78.9c-4.8,10.3-11.9,19.5-19.4,28.2
		c-16.6,18.8-36.4,35.1-59.9,43.9c-23.5,8.6-50.7,8.9-72.6-3.2c-1.7-0.9-3.5-2-5.4-1.4c-1.9,0.5-2.8,3.3-1.2,4.3
		c-18.7-11.8-36.7-24.5-54.2-38.1c-5.6-4.3-11-8.6-15-14.2c-4.1-5.7-6.4-12.2-8.2-18.8c-8.9-32.9-3.5-69,12.5-98.9
		s42.5-54.1,73.1-69c18.7-9.2,40.8-10.4,61.2-5.8c20.3,4.6,39,15,55.7,27.6C344.2,120.8,350.1,125.7,355.1,131.7"/>
	<path id="fill_3" fill="#E0E0E0" d="M222.9,325.8c8.3,3.5,16.8,6.7,25.8,7.9c7,0.9,14.1,0.6,20.9-0.6c38-5.9,70.3-32.4,91.4-64.5
		c4.8-7.5,9.3-15.3,11.7-23.9c2.6-9.9,2.5-20.5,2.1-30.9c-0.9-27-4.3-55.7-21.4-76.2c-6-7.2-13.5-13-21.2-18.3
		c-27.9-19.3-62.9-33.4-95.6-23.9c-13,3.8-24.6,10.9-35.6,18.8c-16.4,11.7-31.8,25.4-42.7,42.3c-12.7,19.8-18.7,43.3-21.6,66.5
		c-0.8,6-1.3,12.2-0.9,18.3c1.1,14.7,8.2,28.5,17.9,39.5c9.7,11,22,19.6,34.5,27.2C199.4,314.9,210.9,320.8,222.9,325.8z"/>
</g>
<g id="Layer_4">
	<path id="line_4" d="M289.9,108.6c13.2,1.4,31.1,3.5,44.3,11.5c13.6,8.4,23,22.4,27.9,37.4c4.9,15.2,5.6,31.3,4.5,47.2
		c-2.1,28.4-10,56.6-25.8,80.3c-15.9,23.6-40,42.2-67.7,48.4c-5.1,1-10.1,1.6-15.3,1.6c-5.1,0-11.5-0.5-16.6-1.4
		c-27.8-5.8-52.3-23.9-68.6-47.2c-16.3-23.4-24.6-51.6-27-79.8c-1.3-15.9-0.8-32.1,3.8-47.2c4.7-15.3,13.9-29.4,27.3-37.9
		c13.2-8.4,27.1-10.2,45.6-12.3C240.6,107.1,276.5,107.2,289.9,108.6z"/>
	<path id="fill_4" fill="#EAEAEA" d="M235.8,114.2c-19.3,0.9-39.9,1.6-56.3,12.4c-12.2,8-20.5,21-24.7,35.1
		c-4.2,13.9-4.7,28.8-3.6,43.4c2.2,27,10,54,25.3,76.4c15.3,22.5,38.1,40.1,64.4,46.5c5.3,1.2,10.8,2.2,16.2,2
		c5.3,0.1,11.9-0.8,17.1-2.2C300.4,321,323,303,338,280.4s22.4-49.8,23.9-76.7c0.8-14.6,0.3-29.5-4.1-43.3
		c-4.4-13.8-13-26.9-25.4-34.7c-16.4-10.5-37.1-10.8-56.9-11.5L235.8,114.2z"/>
</g>
<g id="Layer_5">
	<path id="line_5" d="M333.7,325c-0.9,2.6-4.8,5.4-5.9,2.7c-0.9-2.5-4.6-3-7-1.8c-2.3,1.3-3.8,3.8-5.3,6.2
		c-11.8,19.1-32.8,34.5-55,31.7c-9.6-1.2-18.5-5.8-26.8-10.8c-16.2-9.7-31.1-21.1-44.4-34.3c-2.3-2.3-6.3-4.6-8.5-2.2
		c-2.2,2.3-5.8-0.6-7.4-3.3c-10.8-18.1-17.7-38.8-20.1-59.9c-0.3-2.3-3.7-2.3-5.5-0.8c-1.8,1.3-3.3,3.5-5.5,3.7
		c-3.6,0.2-5.1-4.4-5.1-7.9c-1.6-34.1,7.2-68.7,25.3-97.6c0.7-1,1.3-2.3,1.2-3.6c-0.1-1.2-1.4-2.5-2.6-2.1c-2,0.8-4-1.5-3.7-3.7
		c0.3-2.2,2.1-3.7,3.7-5.1c6.6-5.4,13.7-10,21.3-13.9c2.4-1.2,0.1-5.2-2.4-6.1c-2.5-0.9-6.1-2.4-5.5-5.2c7-5.4,16.3-6.8,25.1-7.6
		c45.2-3.9,90.5,5.1,134.1,17.2c3.9,1,8.1,2.4,10.5,5.8c2.4,3.4,1.1,9.3-2.8,9.9c12.4,11.9,22.9,25.7,31.1,40.8
		c1.9,3.4,3.5,7.8,0.9,10.7c-3.6-2.7-8-3.9-12.4-3.6c6.1,22.8,8.2,46.7,6.4,70.3c-0.2,2.1-0.5,4.1-1.9,5.5c-1.3,1.3-4.3,1.1-4.9-0.7
		c-0.8-3.3-5.8-3.6-8.2-1.1c-2.4,2.3-2.9,5.9-3.4,9.3C346.3,287,341.1,306.5,333.7,325"/>
	<path id="fill_5" fill="#999999" d="M181.1,306.1c-0.1-1.5,1.9-2.5,3.3-2.2c1.4,0.3,2.5,1.6,3.6,2.9c15.4,18.8,34.9,34.1,56.7,44.9
		c5.6,2.7,11.4,5.2,17.6,6.1c11.4,1.6,23.1-2.4,32.4-9.5c9.3-6.9,16.2-16.5,21.8-26.6c1.6-2.9,5.2-6.4,7.6-4c1.9,1.6,4.9,1,6.7-0.7
		c1.9-1.8,2.7-4.1,3.5-6.6c5.4-16.6,9.3-33.8,11.4-51.2c0.5-3.6,0.8-7.3,3.4-9.9c2.4-2.5,7.6-2.7,9,0.6c0.7,1.4,2.9,1.3,3.9,0.3
		c1-1,1.2-2.8,1.3-4.3c1.6-21.1-1-42.7-7.9-62.8c-0.8-2.6-1.2-6.4,1.2-7.2c1.8-0.7,3.6,0.8,5.3,1.5c1.8,0.8,4.4,0.6,4.5-1.3
		c0.1-0.8-0.4-1.4-0.7-2.2c-6.9-10.1-13.8-20.1-22.9-28.3c-2.6-2.3-5.5-4.6-6.8-7.9c-1.3-3.3-0.3-7.8,3-8.9
		c-15.6-8.1-33.2-11.2-50.5-14.1c-30.6-5.2-61.8-10.3-92.6-6c-3.7,0.6-7.4,1.1-10.4,3.3c0.8,2.2,3.4,2.6,5.4,3.4
		c2.2,0.8,4.3,2.7,3.5,4.7c-0.4,0.8-1.1,1.3-2.1,1.9c-8.8,5.5-17.6,11-26.4,16.5c-0.8,0.6-0.1,1.8,0.8,2.1c0.8,0.3,1.9,0,2.6,0.2
		c3.3,0.8,2.2,5.7,0.2,8.6c-18.5,27-28.5,60-28,92.8c0,2.5,0.8,5.8,3.4,5.9c1.1,0.1,2.3-0.7,3.3-1.4c3.1-2.4,6.2-4.8,9.4-7.2
		c-0.1,22.7,5.7,45.5,16.6,65.4c0.8,1.5,1.9,3.2,3.5,3.7C179.1,308.6,181.2,307.8,181.1,306.1z"/>
</g>
<g id="Layer_6">
	<path id="line_6" d="M368.8,280.9c-0.7,12.2-3.6,24.2-8.4,35.3c-1.1,2.6-3.3,5.7-6,4.7c-0.8-2.7-1.8-5.8-4.3-7.6
		c-2.5-1.8-6.4-1.2-7.5,1.4c-7.6,24.7-30.6,43-55.8,48.1c-25.4,5.1-52.3-2.1-73.5-16.7c-3.2-2.4-6.6-4.6-10.6-5.2s-8.5,1.9-8.9,5.8
		c-0.5,5.3-8.8,6.5-12.4,2.7c-3.8-3.8-4.3-9.7-4.4-15.1c-0.1-5.6-1.3-12.6-6.8-13.9c-4.6-0.9-8.7,3.2-12.4,6.2
		c-3.9,2.8-10.9,3.8-12.1-0.8c-0.4-1.4,0.1-2.8,0.6-4.3c2.4-7.8,4.5-15.8,6.9-23.6c-3.2-1.5-7.2-0.1-10.1,2
		c-2.8,2.1-5.8,4.6-9.1,5.7c-3.6,0.9-8.1-0.9-8.2-4.5c-3-59.4,18.5-118.2,52.5-166.9c13.8-19.7,30.2-38.5,52-48.8
		c6.2-2.8,12.8-5.1,19.6-5.8c24.3-2.5,46.4,14.1,64.3,30.9c26.8,25,51.6,53.7,63.9,88.1c9.7,27,11.1,56.8,4.4,84.5
		c-1.8-2.5-3.7-5-6.4-5.9C372.7,276.3,368.8,277.8,368.8,280.9"/>
	<path id="fill_6" fill="#E5E5E5" d="M338.4,311.1c0.8-2.6,1.4-5.3,3.6-7.1c2-1.8,5.8-1.5,6.8,0.9c0.9,2.6,4.6,3.1,7.1,1.7
		c2.5-1.4,3.6-4.3,4.4-6.9c2.5-7.7,3.7-15.9,3.2-24.2c-0.2-3.9,0.6-9.2,4.4-9.2c3.3,0,5.8,4.6,9,3.7c1.9-0.7,2.6-2.8,2.8-4.9
		c4.7-28.8-2.5-58.7-16-84.4c-13.8-25.8-33.8-47.5-55.4-67.1c-17-15.4-37.8-30.4-60.7-27.6c-18.1,2.1-33.1,14.8-45.5,28.2
		C158,162.1,131.8,226.4,130,291.5c-0.1,4.5,6.2,6.3,10.3,4.5c4.3-1.7,7.6-5.2,11.7-6.2c4.4-0.9,10.1,3.1,7.9,7.1
		c-4.3,7.6-6.9,16.1-7.6,24.9c6.8-2.6,13.6-5.3,20.4-7.9c4-1.5,7.9,2.6,8.8,6.8c0.8,4.3-0.6,8.4-0.4,12.6c0.2,4.3,3.1,9,7.4,8.8
		c5.8-0.4,7.9-9.1,13.5-9.7c3.2-0.5,6,1.9,8.4,4c19.7,16.5,46.1,25.7,71.6,21.7C307.6,353.8,331.1,335.8,338.4,311.1z"/>
</g>
<g id="Layer_7">
	<path id="line_7" d="M144.4,216.5c-3.5,0.2-6.9,1-9.9,2.6c-4.5-2.8-4.8-8.5-4.2-13.3c2.4-26.9,12.3-54.2,34.5-73.2
		c20.4-17.4,48.6-25.6,76.1-32.4c6.9-1.6,14-1.5,21-1.3c11.9,0.3,23.7,0.5,35.3,2.7c26.1,5.2,48.6,20.9,62.9,40.6
		c14.2,19.6,20.7,42.9,21.9,66.1c0.1,1.9,0,3.8-1.4,5.1c-2.4,1.9-6.1,0.2-9.2-0.8c-3-0.9-7.9,0.3-7,2.9c3.6,10.3,6.1,20.9,7.3,31.7
		c0.2,1.6,0.3,3.5-0.7,4.9c-1,1.4-3.5,2.2-4.8,1c-1.4-1.2-4.2-0.2-4.9,1.4c-0.7,1.6-0.3,3.6,0.2,5.3c3.5,12.3,4.7,25,4,37.5
		c-0.1,2.2-0.5,4.6-2.3,6.2c-1.9,1.6-5.6,1.5-6.4-0.6c-1.4-3.7-7.8-3.9-11.2-1.4c-3.5,2.4-4.8,6.5-6.4,10.1
		c-10.1,22.5-37.7,37.4-65.7,39.2s-55.9-8.1-77.5-23.6c-2-1.2-3.8-2.7-6.1-3.1c-2.3-0.5-5.2,0.6-5.7,2.5c-0.8,2.7-5.5,0.7-7.1-1.6
		c-12.6-17.7-19.1-38.5-18.6-59.3c0-2.2-0.2-4.9-2.4-5.6c-4.3-1.4-8.6,6.4-12.6,3.9C139,248.5,139.4,231.9,144.4,216.5"/>
	<path id="fill_7" fill="#F4F4F4" d="M153.6,254.7c1.6-0.7,2.7-2.3,4.2-3.5c1.5-1.1,4.2-1.3,5.2,0.2c-2.3,20.9,1.9,42.4,11.9,61.6
		c1.6,3.2,6.3,6.7,9,4c2.3-2.3,6.7-0.3,9.3,1.9c17.7,13.7,39.7,24,63.4,26.4c23.7,2.3,49.1-4.4,64.6-20c5.5-5.4,9.7-11.8,12.8-18.4
		c2-4,3.7-8.5,7.6-11.2c3.9-2.8,10.8-3.1,13.3,0.7c0.8,1.2,3.3,1,4.3-0.1c0.9-1,1.2-2.7,1.2-4.1c0.6-12.7-1.4-25.6-5.9-37.7
		c-0.8-2.2-1.6-4.5-0.7-6.7c0.9-2.2,4.9-3.1,6.3-1c1.3,2.1,5.3,1,6.3-0.9c0.9-2.2,0.5-4.4-0.5-6.6c-3.4-9.7-6.7-19.4-10-29.2
		c-0.8-2.4,3.4-4,6.2-3.5c2.9,0.8,5.6,2.5,8.5,2.3c6.1-0.5,7-7.9,5.7-13.1c-4.1-17.9-10.6-35.7-22-51.1
		c-11.3-15.4-27.6-28.6-47.5-34.9c-10.7-3.5-22.2-4.8-33.4-5.2c-34.5-1.1-69.9,7.1-96.6,26s-43.6,48.7-40.7,78.4
		c-0.6,2.8,5.1,2.8,7.3,0.8c2.3-2.1,4.9-5.1,8-3.9c-2.4,11.9-4.9,23.8-7.3,35.7c-0.7,3.3-1.3,6.7,0.1,9.7
		C145.9,253.9,150.2,256.3,153.6,254.7z"/>
</g>
<g id="Layer_8">
	<path id="line_8" d="M273.4,103.1c47-0.5,92.6,30.4,109.6,74.2c3.3,8.5,5.5,17.8,3,26.6c-2.2,1.8-5.2-0.3-7.4-1.6
		c-2.3-1.3-6.8-0.7-6.1,2.1c5.7,22.6,5.2,46.8-1.4,69c-0.1-4.3-6.9-5.5-10.1-2.4c-3.2,3-3.9,7.6-4.9,11.9c-1.2,5.1-3.4,9.9-6.1,14.3
		c-2.6,0.4-4.1-2.7-5.4-5.2c-1.1-2.3-4.5-4.5-6.2-2.3c-13.9,18.9-36.4,30.7-59.8,33.4c-23.4,2.6-47.2-3.6-67.4-15.5
		c-2.3-1.4-4.8-3-7.6-3.2c-2.8-0.2-5.9,1.4-6.3,4.1c-0.3,2.2-3.6,1.3-5.3,0c-6.4-5.3-11.5-11.9-15.2-19.4c-1.1-2.4-2.3-5.2-4.8-6.4
		c-2.4-1.1-6.3,0.7-5.6,3.3c0.5,1.9-2.1,3.4-3.8,2.8s-3-2.3-3.9-3.9c-8-13.9-13.5-29.6-15.8-45.6c-0.5-3-3.9-4.6-6.9-4.1
		c-3,0.5-5.4,2.4-7.8,4.3c-6.4-16.3-2.3-34.7,3.9-51c19.2-49.2,59.8-89.4,109.2-108c3.7-1.3,9.1-1.5,9.7,2.2
		c0.4,2.3-1.5,4.1-2.7,6.3c-1.1,2.1-0.6,5.6,1.8,5.4c0.7-0.1,1.2-0.5,1.9-0.8c4.3-3,8.7-5.9,13.1-8.9c2.7,0.6,2.8,4.5,1.5,6.9
		c-1.2,2.4-3.3,5.1-2.3,7.7C265.5,102.7,269.9,103.1,273.4,103.1"/>
	<path id="fill_8" fill="#898989" d="M130.7,229.1c3.5,3.5,9.4-3.7,13.7-1.4c2.9,15,7,29.7,12.5,43.9c0.9,2.4,2.2,5.2,4.4,6.5
		c2.3,1.2,6.1,0.2,6.3-2.4c0.2-2.2,3.3-3.1,5.2-2.1c2,1,2.9,3.3,3.8,5.3c3.5,7.3,7.7,14.1,12.9,20.4c1,1.2,2.5,2.7,4.1,2.3
		c3.5-0.7,4.5-8.1,7.3-6.2c20.2,14.4,44.4,23.9,69.3,23.2s49.9-12,63.9-32.5c2-2.7,4.7-6,7.8-4.7c2.9,1.1,4.3,6.2,7.2,5.1
		c1.1-0.5,1.8-1.8,2.2-3c2.5-7.3,4.6-14.8,6.1-22.5c0.4-1.9,3.1-1.5,4.4-0.4s2.5,3,4.3,3c2.3,0,3.5-2.8,3.8-5.2
		c3.3-18.4,2.5-37.5-2.2-55.7c-0.7-2.5-1-6,1.2-7.2c2.6-1.5,5.9,1.4,8.9,0.9c4.3-0.8,4.3-6.9,3-11c-7.5-23.1-22.8-43.6-42.8-57.3
		c-19.9-13.8-44.4-20.9-68.9-19.9c-4.2,0.2-10.1-0.8-10.2-5.1c0-1.8,1-3.3,1.8-4.9c0.6-1.6,0.3-3.9-1.4-4.4
		c-5.3,3.1-9.9,7.3-13.2,12.5c-2.5-0.8-3.4-4-2.9-6.7c0.5-2.6,1.8-5.2,1.5-7.8c-0.1-2.6-2.5-5.5-5.1-4.6
		c-37.1,12.9-67.5,41.2-88.8,74.5c-12.1,19-21.7,40.4-21.8,62.9C129.5,226.2,129.7,227.9,130.7,229.1z"/>
</g>
<g id="Layer_9">
	<path id="line_9" d="M186.4,317.3c-2.8,3.1-1.4,8.1-1.5,12.4c-0.2,4.3-5.3,9.1-8,5.9c-15.1-17.1-28.1-36-38.5-56.5
		c-5.3,1.4-9.8,5.8-11.3,11.2c-0.8,2.8-5,3.1-7.3,1.2c-2.2-2-2.7-5-3.3-7.9c-1.3-7.8-2.6-15.5-4.1-23.2c-6,1.6-11.7,4.1-17.2,7.3
		c-4.6-5.2-3-13.3-0.9-20c8.3-27.1,18.6-54.2,35.3-77.2c16.6-23,40.2-42,67.9-48.2c3.5-0.9,7.3-1.5,9.5-4.3c2.3-2.7,1-8-2.4-8.1
		c-3.8-0.1-4.9-5.8-2.4-8.7c2.6-2.7,6.6-3.3,10.3-3.6c12.1-0.9,23.9-2,36-2.8c0.8-2.7-2.2-4.9-4.4-6.5c-2.3-1.6-4.4-5.1-2.3-7
		c0.9-0.9,2.4-0.9,3.7-0.8c65.3,4.3,127.5,41.3,162.5,96.7c1.6,2.6,3.1,5.3,2.8,8.3c-0.3,2.9-3.4,5.8-6.2,4.6
		c-1.9-0.9-4,1.3-4.1,3.3c-0.1,2.1,1,4,2.3,5.6c7.9,12.2,13.7,25.7,16.9,40c0.7,2.7-3,4.6-5.8,4.1c-2.7-0.8-4.6-2.9-7-4.5
		c-2.3-1.6-5.7-2.6-7.8-0.7c3.3,15.9,4.1,32.3,2.1,48.6c-0.5,3-4.6,4.1-7.4,2.6c-2.7-1.4-4.4-4.2-6.9-6.2c-2.4-2-6-2.9-8.3-0.8
		c-22.6,23.1-52.2,39.3-83.9,45.4c-31.7,6.3-65.2,2.7-95-10C195.8,315.5,189.7,313.6,186.4,317.3"/>
	<path id="fill_9" fill="#D1D1D1" d="M347.5,299.8c6.6-4.2,13-9,17.6-15.3c2.4-3.1,4.2-6.9,7-9.5c2.8-2.7,7.1-4.5,10.7-3.1
		c3.4,1.3,5.3,4.8,8.3,6.9c2.9,2.1,8.6,0.9,8.1-2.6c-1.3-13.7-2.6-27.3-4-41.1c-0.1-0.9-0.2-2.1,0.2-3c0.9-2.6,4.5-2.7,7.1-1.7
		c2.6,0.9,4.6,2.9,7.4,3.1c3.6-3,1.5-8.8-0.8-12.9c-5-8.7-10-17.4-15.1-26.2c-2.3-4-3.6-10.5,0.8-11.6c1.7-0.6,3.6,0.5,5.5,0.7
		c1.9,0.2,4.2-0.9,4.1-2.6c-32.3-50.7-88.2-85.8-148-92.9c-1.9-0.2-2.3,2.8-0.9,4.3c1.2,1.4,3.3,2.1,4.3,3.7
		c1.6,2.6-0.7,6.2-3.5,7.3c-2.8,0.9-6,0.5-9.1-0.2c-11-2-22.4-1.5-33.5,1.2c-3.1,0.9-2.4,5.7-0.2,8.1c2.2,2.6,5.5,4.8,5,8
		c-0.6,4-5.5,5-9.3,5.6c-29.6,3.6-55.8,22.8-73.7,46.6s-28.6,52.4-37.8,80.9c-0.9,3.1,3.7,5.5,6.9,4.3s5.6-4.1,8.7-5.1
		c3.1-1,7.9,1.2,6.7,4.4c-3.1,9-1.6,19.3,4.2,27c3.8-4.2,7.6-8.1,11.3-12.2c1.4-1.6,4.4-2.9,5.3-0.9c9.1,20.3,21.4,39.3,36.2,56
		c3.8-2.6,3.6-8,4.3-12.7c0.8-4.5,4.8-9.8,9-7.7C238.4,331.8,300.9,329.2,347.5,299.8z"/>
</g>
</svg>
