<?xml version="1.0" encoding="utf-8"?>
<!-- Generator: Adobe Illustrator 18.1.1, SVG Export Plug-In . SVG Version: 6.00 Build 0)  -->
<!DOCTYPE svg PUBLIC "-//W3C//DTD SVG 1.1//EN" "http://www.w3.org/Graphics/SVG/1.1/DTD/svg11.dtd">
<svg version="1.1" id="Layer_Group" xmlns="http://www.w3.org/2000/svg" xmlns:xlink="http://www.w3.org/1999/xlink" x="0px"
	 y="0px" viewBox="0 0 640 480" enable-background="new 0 0 640 480" xml:space="preserve">
<g id="Layer_0">
	<g id="line_0">
		<path d="M463.6,292.5c-2.8-0.7-5.4-2.2-7.9-3.6c-30.7-17-64.7-27.8-99.6-31.5c-1.6-0.2-1.7-2.7-0.5-3.7s3-0.8,4.6-0.6
			c34.3,4.4,67.8,15.2,98.2,31.7C461.4,286.3,464.9,289.3,463.6,292.5z"/>
		<path d="M334.1,220.7c3.8,1.3,5.9,5.5,5.7,9.5c-0.2,4-2.2,7.6-4.7,10.7c-0.6,0.8-1.3,1.6-1.5,2.5c-0.2,1,0.2,2.2,1.2,2.4
			c4,1.1,6.7,5.8,5.6,9.8c-0.6,0.2-1.3,0.3-1.9,0.5c-2.3-6-9.2-9.4-15.6-8.9s-12.1,4.6-16,9.8c-0.8,1.1-2.9,0.3-3.2-1.1
			c-0.3-1.4,0.5-2.7,1.4-3.8c2.6-3.2,6-5.7,9.9-7c1.6-0.6,2-2.8,1.2-4.3s-2.2-2.5-3.6-3.6c-2.4-2-4.5-4.5-5.7-7.3
			c-0.5-1.1-0.9-2.4-0.6-3.6c0.6-2.9,4.2-3.8,7.2-4.2c4.6-0.6,9.3-1.1,13.9-1.7C329.7,220.2,332,220,334.1,220.7"/>
		<path d="M274.8,242.7c2-0.2,4.1-0.2,5.6,1c1.5,1.3,1.1,4.4-0.9,4.5c-31.3,1-62.6,3.4-93.8,7.1c-3.5,0.4-7.9,0.5-9.7-2.6
			c0.7-1.9,3.1-2.3,5.1-2.5C212.4,247.7,243.6,245.2,274.8,242.7z"/>
		<path d="M456.8,244.1c-21.5,3.4-43.5-1.1-65.3-0.3c-11.7,0.5-23.3,2.4-35,3.1c-1.9,0.1-4.7-1.1-3.7-2.7c0.4-0.6,1.1-0.8,1.8-1
			c33.1-8.3,68.1,0.2,102-3.5c1.4-0.1,3.1-0.1,3.6,1.2C461,242.6,458.6,243.8,456.8,244.1z"/>
		<path d="M349.9,233.1c6.6-4.4,14.9-5.3,22.9-6.1c28-2.7,56-5.5,84-8.2c0.3,0,0.7-0.1,1,0c1.3,0.4,1.4,2.3,0.5,3.3
			c-0.9,0.9-2.4,1.1-3.7,1.3c-33.4,3.6-66.8,7.1-100.2,10.7C352.8,234.2,351,234.3,349.9,233.1z"/>
		<path d="M267.1,263.9c-24.3,8.8-49.7,18.4-66.7,38c-1.1,1.2-3.3-0.1-3.5-1.7s1-3.1,2.1-4.3c9.5-10.3,22-17.2,34.5-23.3
			c17-8.3,34.6-15.3,52.6-20.9c0.1,4.5-4.9,7-9.1,8.6C273.8,261.5,270.5,262.7,267.1,263.9z"/>
		<path d="M333.5,283.9c2.4-2.2,4.2-5.2,7.3-6.1c1.2,2.8,0.2,6.2-1.9,8.5s-4.9,3.6-7.8,4.7c-3.5,1.3-7.3,2.4-11,1.8
			c-5.7-0.8-10.2-5.1-14.2-9.2c-0.4-0.4-0.7-0.8-0.9-1.3c-0.5-1.6,1.7-2.9,3.3-2.4c1.6,0.5,2.7,2,3.8,3.2
			C317.5,288.9,327.7,289.3,333.5,283.9z"/>
		<path d="M181.7,221c0.7-0.5,1.7-0.4,2.5-0.2c30.6,5.3,61.5,8.5,92.5,9.5c4.2,0.1,9.8,1.6,9.7,5.8c-33.8-2.3-67.6-5-101-10.3
			c-1.3-0.2-2.7-0.5-3.6-1.3S180.6,221.8,181.7,221z"/>
	</g>
	<path id="fill_0" fill="#FFFFFF" d="M332.1,225.3c-1.3-0.5-2.8-0.3-4.2-0.1c-4.6,0.6-9.3,1.2-13.9,1.8c-1.3,0.2-1.9,1.8-1.6,3
		c0.4,1.2,1.4,2.2,2.4,3c1.7,1.5,3.5,3,5.2,4.5c1.6,1.4,3.4,2.9,5.5,3.2c2.9,0.4,5.6-1.4,7.5-3.6c1.5-1.8,2.6-3.9,2.6-6.2
		C335.6,228.4,334.3,226,332.1,225.3z"/>
</g>
<g id="Layer_1">
	<g id="line_1">
		<path d="M302.6,276.5c-2.3,2.8-5.4,6-8.8,5c0-4.4,3-8.2,6-11.4c4.9-5.3,10.4-10.1,16.4-14.2c1.7-1.2,3.5-2.4,4.7-4.2
			s1.4-4.3,0.1-5.9c-3.8-4.5-7.7-9.1-11.5-13.6c-2.2-2.6-4.5-5.4-5.1-8.8s1.6-7.5,5-7.7c12.3-0.9,24.6-1.8,36.9-2.8
			c1.4-0.1,3-0.2,4.1,0.6c2.7,1.9,1.1,6-0.8,8.7c-4,5.9-8,11.8-11.9,17.6c-1.9,2.8-3.7,7-1.1,9.2c9.5,8.1,18,17.3,25.2,27.4
			c1.1,1.5,2.2,3.3,1.9,5.1c-0.3,1.8-3,3.1-4.1,1.6c-6.8-8.9-14.5-17.2-22.9-24.7c-2.1-1.9-4.6-3.9-7.5-3.7c-1.8,0.1-3.5,1.2-5,2.2
			C316.1,262.4,308.8,269,302.6,276.5"/>
		<path d="M366.1,233.4c6.6-6.3,15.6-9.1,24.4-11.7c42.8-12.7,85.8-24.5,129-35.4c6.1-1.5,13.9-2.6,17.7,2.5
			c-3.9,1.5-8.1,2.4-12.2,3.3c-49.5,11.2-98.4,24.7-146.6,40.5C374.4,234,369.9,235.3,366.1,233.4L366.1,233.4z"/>
		<path d="M494.6,322.2c-5-14.8-16.8-26.5-30.3-34.3s-28.8-11.9-44.1-15.2c-14.9-3.3-30-5.9-45.2-7.8c-1.7-0.2-3.8-0.7-4.3-2.3
			c-1-2.9,3.3-4.4,6.3-4.2c13.3,0.9,26.4,3.7,39.4,6.6c19.4,4.4,39.1,9.4,55.9,20.2c16.7,10.8,30.3,28.5,30.9,48.4
			C498.2,333.2,496.2,327.1,494.6,322.2z"/>
		<path d="M497.3,241.6c10.6,2.3,22.5,6.5,26.3,16.6c-47.4-18.9-100.8-22.8-150.4-10.9c-2.2,0.5-3.6-2.8-2.4-4.7s3.7-2.5,5.9-2.9
			C416.4,232.2,457.7,232.8,497.3,241.6z"/>
		<path d="M130.8,206.4c44.4-8.1,90,2.6,133.5,14.7c1.8,0.5,3.6,1,5.2,1.7c2,0.9,4.2,2.8,3.5,4.9c-0.8,2.7-4.8,2.3-7.5,1.3
			c-43.9-15.9-91.6-21.5-138-16.2c-1.9,0.2-2.8-2.6-1.8-4.2C126.8,207.2,128.9,206.7,130.8,206.4z"/>
		<path d="M270.1,261.4c-24.9,1.5-48.8,11.8-68.8,26.7s-36.3,34.3-49.9,55.2c-0.7,1.1-1.7,2.4-3.1,2.4c-2.9,0-2.5-4.6-0.9-7.1
			c13.3-21,29.6-40.3,49.4-55.2s43.4-25.3,68.1-27.9c2.1-0.2,4.4-0.3,6,1.1C272.6,257.9,272.2,261.2,270.1,261.4z"/>
		<path d="M268.3,243.1c-45.2-5.5-92,3.4-131.9,25.2c-1.8,1-4.3,1.9-5.8,0.5c-2-2.1,0.8-5.3,3.4-6.6c38.5-20.7,83.1-30,126.6-26.6
			c2.2,0.2,4.5,0.4,6.3,1.7S269.7,241.4,268.3,243.1L268.3,243.1z"/>
	</g>
	<path id="fill_1" fill="#FFFFFF" d="M314.2,222c-1.4,0.2-3.1,0.8-3,2.2c0,0.7,0.5,1.2,0.9,1.7c3.6,4,7.2,8,10.7,12
		c1.4,1.6,3.3,3.3,5.4,3c1.7-0.3,2.8-1.8,3.8-3.3c3-4.4,5.9-8.8,8.9-13.2c0.8-1.2,1.6-2.9,0.6-4c-0.7-0.7-1.8-0.8-2.8-0.7
		C330.6,220,322.4,220.8,314.2,222z"/>
</g>
<g id="Layer_2">
	<g id="line_2">
		<path d="M335.7,240.1c-2.5,2.1-0.5,6.1,1.5,8.6c3,3.7,6,7.4,9,11.1c2,2.5,4,6.5,1.6,8.6c-4.1-3.4-7.6-7.5-10.3-12
			c-1.7-2.8-3.1-5.8-5.2-8.2s-5.2-4.3-8.4-4.1c-5.2,0.5-8.2,6-10.6,10.7c-2.6,5.1-5.5,10.1-8.8,14.9c-0.7,1-1.6,2.2-2.8,2.4
			c-1.2,0.2-2.7-1.1-2.1-2.2c4.5-7.5,9-15.1,13.5-22.6c1-1.7,1.9-4.2,0.3-5.4c-9.1-6.4-14.2-17.9-12.9-28.9c0.4-3.3,4.7-4.3,8-4.5
			c9.6-0.5,19.2-1,28.8-1.5c2.8-0.1,6-0.1,7.7,2.1c0.8,1.1,1.1,2.4,1.3,3.8C347.5,223,343.4,233.6,335.7,240.1"/>
		<path d="M358,258.2c5.2-0.3,10.4,0.2,15.4,1.4c-1.8,0.6-1.7,3.5-0.2,4.7s3.6,1.2,5.5,1.1c8.9-0.2,17.7-0.5,26.6-0.7
			c-2,2-0.8,5.6,1.5,7.2s5.3,1.6,8.1,1.6c10.1,0.1,20.2,0.1,30.3,0.2c2.3,0,5.5,1.1,4.9,3.3c-0.4,1.7-2.7,2-4.4,1.9
			c-11.3-0.4-22.6-0.8-33.9-1.2c-2.8-0.1-5.7-0.2-8.2-1.4c-2.5-1.2-4.6-3.8-4.3-6.6c-8,0.1-15.9,0.2-23.9,0.4
			c-3.6,0.1-8.4-0.8-8.7-4.4c-0.2-1.7-2.2-2.6-4-2.6s-3.6,0.5-5.2-0.1c-1.7-0.6-2.8-3-1.4-4.1C356.6,258.4,357.3,258.3,358,258.2z"
			/>
		<path d="M282.1,257.1c1.4,0,2.9,0.1,4.1,0.9s1.5,2.8,0.4,3.6c-0.6,0.4-1.4,0.4-2.1,0.4c-8.1-0.1-16.3-0.2-24.4-0.4
			c0.9,2.6-0.6,5.5-2.9,7c-2.3,1.5-5.1,1.8-7.8,2.2c-7.6,0.9-15.3,1.9-22.9,2.8c2.4,0.7,2.8,4.2,1.4,6.3s-4,3-6.3,3.8
			c-9,3-18,6.1-26.9,9.1c-1.4,0.5-2.9,0.9-4.2,0.3s-1.6-2.9-0.2-3.4c9.7-3.1,19.3-6.3,29-9.4c1.9-0.6,4.2-1.7,4.3-3.7
			c0-1.5-1.2-2.6-1.9-3.9s-0.5-3.5,0.9-3.6c8.5-0.8,17-1.6,25.5-2.4c1.8-0.2,3.7-0.4,5.1-1.4c1.5-1,2.3-3.2,1.3-4.7
			c-0.7-1.1,0-2.7,1.1-3.3c1.1-0.7,2.5-0.7,3.8-0.6C266.7,256.8,274.4,256.9,282.1,257.1z"/>
		<path d="M385.9,225.5c-1.9,0.4-4.5,0.5-5.3-1.3c1.2-1.5,0.7-3.9-1-4.8c-7.3,3.6-14.5,7.2-21.8,10.8c-1.9,1-5.1,1.4-5.5-0.7
			c8.5-5.5,17.4-10.2,26.7-14.2c2.1-0.9,5.5-1.1,5.7,1.2c0.3,3.6,5.4,3.8,8.8,2.8c7-2,13.8-4.6,20.4-7.8c1.9-0.9,2,2.9,3.5,4.4
			c1.2,1.3,3.4,0.7,5-0.1c7.9-3.5,15.8-7,23.7-10.5c1.3-0.6,2.5,1.3,2,2.6s-1.9,2-3.2,2.6c-8.3,3.6-16.6,7.2-24.9,10.8
			c-1.9,0.8-4.6,1.5-5.7-0.3c-0.9-1.5-1-4.4-2.6-3.8C403.4,220.7,394.8,223.5,385.9,225.5z"/>
		<path d="M350.4,244.6c5-3.2,10.7-5.2,16.3-7.2c2.2-0.8,4.6-1.6,6.8-0.7c2.1,0.9,3.2,4.3,1.2,5.5c0.6,2.3,3.9,2.2,6.3,1.5
			c10.2-3.1,20.4-6.2,30.6-9.3c1.7,0.6,0.5,3.1,0.9,4.8c0.4,2.4,3.6,2.9,6.1,2.8c10.3-0.4,20.5-1.2,30.7-2.3
			c1.5-0.2,2.2,2.2,1.2,3.4s-2.7,1.4-4.2,1.5c-9.4,0.7-18.8,1.3-28.2,2c-1.9,0.1-3.9,0.3-5.7-0.5c-1.8-0.7-3.3-2.6-2.9-4.5
			c0.3-1.4-2-1.7-3.3-1.2c-8.9,2.8-17.8,5.5-26.7,8.3c-1.5,0.5-3.2,1-4.7,0.6c-1.6-0.4-3-1.9-2.6-3.4c0.6-2.9-3-5-5.9-4.4
			s-5.1,2.7-7.8,4C355.8,246.8,352,247.1,350.4,244.6z"/>
		<path d="M265.5,226.8c-1.7,3.3-6.7,2.3-10.2,0.9c-5.6-2.4-11.2-4.8-16.8-7.2c-2.6-1.1-6.8-1.3-7,1.5c-0.1,1.9-1.9,3.2-3.8,3.5
			c-1.8,0.3-3.7-0.3-5.5-0.8c-7.7-2.3-15.4-4.7-23.1-7c-1.4-0.4-2.9-0.9-3.5-2.2c-0.7-1.3,0.4-3.3,1.7-2.9c8,2.4,16,4.9,24,7.3
			c1.4,0.4,3,0.9,4.4,0.4s2.5-2.3,1.6-3.5c-0.6-0.9,0.1-2.3,1.2-2.6c1-0.4,2.2-0.1,3.3,0.2c8.2,2.3,16.2,5.3,23.9,9
			c1.5,0.7,3.1,1.4,4.7,1s2.6-2.7,1.4-3.8c-0.9-0.7-0.3-2.3,0.7-2.7c1-0.5,2.2-0.2,3.3,0c8.4,2.2,16.3,6.1,23.1,11.4
			c0.1,1.9-2.9,1.8-4.6,1c-5.2-2.5-10.4-5-15.6-7.4C267.1,222,266.4,225.1,265.5,226.8z"/>
		<path d="M286.5,240.9c0.5,1.8-2.1,3.1-3.9,2.7c-1.9-0.4-3.5-1.6-5.4-1.6c-4.9,0.1-7.1,8.2-11.9,7.6c-6.3-0.8-12.6-1.6-18.9-2.3
			c-1.8-0.2-3.7-0.4-5.2,0.6c-1.4,0.9-2.1,2.6-3.4,3.7c-1.7,1.4-4.2,1.4-6.4,1.2c-11.1-0.6-22.2-1.2-33.3-1.7
			c-1.9-0.1-4-0.3-5.2-1.8c0.7-2.5,4-2.8,6.5-2.6c9.8,0.7,19.6,1.4,29.5,2c2.7,0.2,6.7-1.1,5.8-3.7c-0.8-2.3,2.8-3.3,5.2-2.9
			c6.4,0.9,12.8,1.9,19.3,2.8c2.9,0.4,6.8,0.3,7.8-2.5c1.1-3,4.3-4.8,7.4-5.1s6.3,0.6,9.3,1.5C284.8,239.1,286.2,239.7,286.5,240.9z
			"/>
		<path d="M346.7,292c-3.3,2.8-6.9,5.5-11,7.1c-8.8,3.4-19.5,1-25.9-5.9c-0.9-1-1.8-2.2-1.6-3.5c0.2-1.3,2-2.3,2.9-1.3
			c6.9,8.4,20.8,10,29.4,3.2c2.8-2.2,5.2-5.1,8.7-5.6C350.3,288.2,348.5,290.5,346.7,292z"/>
	</g>
	<path id="fill_2" fill="#FFFFFF" d="M342.3,221.1c0.7-2.4,1.4-5.2,0-7.2c-1.6-2.2-4.8-2.3-7.5-2.2c-9,0.4-18.1,0.8-27.1,1.2
		c-2.7,0.1-3.6,3.7-3.3,6.4c0.7,6.8,4,13.6,9.6,17.5s13.7,4.4,19.3,0.4C338.3,233.5,340.4,227.1,342.3,221.1z"/>
</g>
<g id="Layer_3">
	<g id="line_3">
		<path d="M344.9,283.3c-1.8-12.1-6.6-23.8-14-33.6c-0.8-1.1-1.8-2.3-3.2-2.5c-1.9-0.3-3.5,1.3-4.7,2.8c-7.9,9.8-14,21-18,32.9
			c-1.2,3.5-2.7,7.5-6.2,8.5c-1.7-2.8-0.4-6.3,0.9-9.3c5.1-11.7,11.2-22.9,18.2-33.6c2.1-3.2-1.6-6.9-4.2-9.6
			c-5.9-6-8.2-14.7-10.2-22.9c-0.6-2.2,1-4.6,3.1-5.6s4.5-1.1,6.8-1.2c9.8-0.2,19.7-0.5,29.5-0.7c3.5-0.1,6.1,3.6,6.1,7.1
			s-1.8,6.7-3.5,9.8c-3,5.3-6.1,10.6-9.1,15.9c-0.9,1.6-1.8,3.6-0.7,5.1c8.9,12.6,14.1,27.8,14.8,43.3
			C347.2,291,345.3,286.6,344.9,283.3"/>
		<path d="M471.9,247.1c-29-18.2-64.4-26-98.4-21.7c-3.4,0.4-7.8,0.5-9.4-2.5c0.7-1.7,2.8-2.1,4.6-2.4c32.8-4.3,66.9,1.5,96.5,16.2
			C469.4,238.8,474.1,243.1,471.9,247.1z"/>
		<path d="M189.4,259.2c24.3-22.7,56.8-36.5,90-38.2c1.6-0.1,3.5-0.1,4.6,1c1.2,1.1,0.8,3.7-0.8,3.7c-34.8,1.1-69,15.8-93.8,40.2
			c-1.5,0.3-2.8-1.5-2.6-3S188.2,260.3,189.4,259.2z"/>
		<path d="M288.6,248.3c1.8,1.7-0.2,4.6-2,6.3c-23.3,21.4-39.4,50.7-44.8,81.9c-1.2,1-3.2,0.1-3.8-1.4s-0.2-3.1,0.3-4.6
			C247.1,298.9,261.7,267,288.6,248.3z"/>
		<path d="M277.5,242c-4.9,0.6-9.3,2.8-13.6,5.3c-23.7,13.5-43.4,33.8-56.3,57.9c-1,1.9-3.8,3.9-4.8,2c-0.4-0.7-0.1-1.6,0.2-2.3
			c8.1-19.8,23.9-35.3,40.4-49c11.5-9.6,24.5-19.1,39.5-20.2c2.1,0.3,2.2,3.6,0.6,4.9C281.8,241.8,279.6,241.8,277.5,242z"/>
		<path d="M433.4,281.5c-15.5-19.9-37.7-34.5-62.2-40.6c-2.1-0.5-4.6-1.5-4.7-3.7c1.5-3,6-2.3,9.1-1.1c22.8,8.7,46.1,20.1,59.6,40.4
			c0.8,1.2,1.5,2.5,1.2,3.8C436.2,281.7,434.3,282.6,433.4,281.5z"/>
		<path d="M409.9,316.7c0.5,1.4,0.9,3,0.6,4.5s-1.6,2.9-3.2,2.7c-8.3-29.3-25.9-56-49.6-75.2c-1.3-1,0-3.3,1.6-3.5s3.1,1,4.3,2.1
			C385,265.8,401.1,290,409.9,316.7z"/>
	</g>
	<path id="fill_3" fill="#FFFFFF" d="M334.3,235.3c3.1-4.7,5.9-9.5,8.4-14.5c0.7-1.4,1.5-3.1,0.9-4.5c-0.8-2.2-3.7-2.5-6.1-2.4
		c-8,0.2-16.1,0.4-24.1,0.6c-2.2,0.1-5.2,1.1-4.7,3.2c1.9,8.3,6.5,15.9,12.9,21.4c1,0.9,2.2,1.8,3.5,2.1
		C328.9,242.2,332.1,238.6,334.3,235.3z"/>
</g>
<g id="Layer_4">
	<g id="line_4">
		<path d="M336.8,256c-4-5-8.4-11.8-14.7-10.8c-2.9,0.5-5.3,2.6-7.4,4.6c-3.2,3-6.4,6-9.5,9.1c-3.7,3.5-7.5,7.1-12.3,8.9
			s-10.8,1.2-14.1-2.8c-1-1.2-1.7-2.9-1.3-4.4c0.4-1.5,2.4-2.6,3.7-1.7c4.3,3,10.3,2.4,14.9,0s8.2-6.5,11.7-10.4
			c2.4-2.7,4.8-6.7,2.6-9.5c-3.3-4.2-6.6-8.5-9.9-12.7c-1.4-1.9-2.9-4.5-1.5-6.3c0.9-1.2,2.6-1.5,4.1-1.6c10-1,20-1.7,30.1-2
			c1.5,0,3.2,0,4.3,1.1c0.9,1,1,2.5,0.9,3.9c-0.3,6.1-2.3,12.1-5.7,17.3c-1,1.6,0.2,3.6,1.4,5.1c4.4,5.6,9,11.2,15.1,14.9
			c6.1,3.6,14.2,4.8,20.2,1c2,1.7,1.5,5.2-0.4,7c-2,1.8-4.8,2.2-7.5,2.2C351.9,268.7,342.8,263.5,336.8,256"/>
		<path d="M198.5,220c2.3-1.9,5.6-1.5,8.6-1c5.2,0.9,10.5,1.8,15.7,2.6c13.9,2.3,27.8,4.7,41.8,7c3.6,0.6,7.9,1.8,8.8,5.3
			c-2.9,2-6.8,1.5-10.3,0.9c-17.3-2.9-34.5-5.9-51.8-8.8C206.4,225.2,201.1,224,198.5,220z"/>
		<path d="M214.4,279.7c-1.4-0.9-1.4-3-0.5-4.3s2.4-2.1,3.8-2.8c12.4-6.1,24.9-12.1,37.4-18c4.4-2.1,9.2-4.3,14.1-3.8
			c1.7,1.4-0.5,4-2.5,4.9c-14.8,7.1-29.5,14.3-44.3,21.4C219.8,278.3,217.2,279.6,214.4,279.7z"/>
		<path d="M423.6,254c-0.5,0.2-1.1,0.2-1.7,0.2c-17.6-0.4-35.1-0.8-52.7-1.3c-1.8,0-3.6-0.1-5-1.2c-1.4-1.1-1.8-3.5-0.4-4.5
			c0.7-0.5,1.7-0.5,2.5-0.5c17.3,0.3,34.6,0.5,51.8,0.8c2,0,4.2,0.1,5.7,1.4C425.3,250.3,425.5,253.3,423.6,254z"/>
		<path d="M355.2,232c-0.9-1.9,1.4-3.6,3.2-4.5c15.6-7.2,31.1-14.4,46.7-21.6c2.5-1.2,6.5-1.7,7.1,1c0.5,2.1-1.8,3.6-3.8,4.5
			c-15.9,7-31.8,14.1-47.8,21.1C358.8,233.3,356,233.8,355.2,232z"/>
		<path d="M362.5,239.8c-0.9-1.6,1.2-3.3,3-4c16.1-6.1,33-9.6,49.9-13c1.8-0.4,4-0.5,5,1c1.4,2.4-2,4.6-4.7,5.2
			c-16.4,3.8-32.8,7.6-49.2,11.4C365,240.9,363.2,241.1,362.5,239.8z"/>
		<path d="M258.2,240.1c1.9-0.2,3.9-0.3,5.6,0.6s2.9,3,2.1,4.7c-15.7,1.4-31.5,2.9-47.2,4.3c-4.1,0.4-9.2,0.3-11.3-3.3
			c1.8-2.2,5-2.6,7.9-2.8c6.4-0.5,12.9-1,19.3-1.5C242.4,241.3,250.3,240.7,258.2,240.1z"/>
		<path d="M343.7,288.7c-7.1,4.1-15.2,7-23.4,6.6c-8.2-0.4-16.5-4.3-20.7-11.4c-0.4-0.6-0.7-1.3-0.7-2c0-1.9,2.6-2.8,4.4-2.1
			c1.8,0.7,2.9,2.4,4.3,3.7c4.6,4.7,11.9,6,18.4,4.9c6.5-1,12.5-4.1,18.4-7.1c1.7-0.9,3.6,1.4,3.2,3.3
			C347.1,286.5,345.3,287.7,343.7,288.7z"/>
	</g>
	<path id="fill_4" fill="#FFFFFF" d="M326,235.6c1.9-1.7,3.9-3.6,4.8-6s0.2-5.6-2.2-6.8c-1.3-0.6-2.9-0.5-4.3-0.3
		c-3.7,0.4-7.3,0.8-11,1.2c-1.7,0.2-3.8,0.7-4.3,2.3s0.9,3.2,2.1,4.3c1.8,1.6,3.5,3.2,5.3,4.9c1.5,1.4,3.3,2.9,5.3,2.7
		C323.4,237.8,324.7,236.7,326,235.6z"/>
</g>
<g id="Layer_5">
	<g id="line_5_2_">
		<path id="line_5_1_" d="M316.4,282.3c6,5.9,17,5.4,22.5-1c0.9-1.1,2.8,0,3,1.4c0.1,1.4-0.9,2.6-1.9,3.5
			c-6.5,5.9-17.1,6.5-24.2,1.3c-1.2-0.9-2.4-2-2.4-3.5C313.4,282.6,315.3,281.3,316.4,282.3z"/>
		<path id="line_5" d="M298.7,259.4c3.7,1.1,7.4-1.7,10.2-4.3c2.3-2.1,4.5-4.1,6.8-6.2c0.9-0.8,1.9-1.8,2-3c0.1-1.1-0.4-2.2-1-3.1
			c-2.7-4.8-5.3-9.5-8-14.3c-0.8-1.5,0.1-3.5,1.6-4.3c1.5-0.9,3.2-1,4.9-1c9.6-0.3,19.2-0.6,28.8-0.9c1,0,2,0,2.8,0.5
			c1.9,1.3,1,4.3-0.1,6.3c-2.8,4.9-6,9.5-9.6,13.9c-0.7,0.9,0,2.2,0.6,3.1c2.2,3,4.4,6.1,7.4,8.3c3,2.2,7,3.4,10.5,2.1
			c4.3-1.5,7.4-6.5,12-6.3c0.9,2.2-1.2,4.3-3.1,5.7c-3.7,2.7-7.8,5.2-12.3,5.8c-4.5,0.6-9.7-1.2-11.7-5.3c-2.8-5.7-10.2-8-16.4-6.5
			c-6.2,1.5-11.2,6-15.2,11c-3,3.7-8.7,4.4-13,2.5c-4.4-1.9-7.6-5.8-9.9-9.9c2-1.4,4.9-0.2,6.7,1.5
			C294.7,256.6,296.3,258.7,298.7,259.4"/>
	</g>
	<path id="fill_5" fill="#FFFFFF" d="M325.9,244.9c3.1,1.2,6-1.9,7.9-4.7c2.9-4.3,5.8-8.5,8.7-12.8c-8.5-1.1-17.2-0.8-25.6,1
		c-1.1,0.2-2.4,0.7-2.4,1.8c0,0.5,0.2,0.9,0.5,1.4c2.4,4,5.2,7.7,8.3,11.2C324,243.7,324.8,244.5,325.9,244.9z"/>
</g>
<g id="Layer_6">
	<g id="line_6">
		<path d="M167.2,307.7c20.8-30.2,57.1-47.1,93.5-51.8c9-1.2,18.3-1.6,26.9,1.2c0.9,0.3,1.9,0.8,2.1,1.7c0.4,1.8-2.3,2.5-4.2,2.3
			c-44.6-5.2-91.2,15.6-117.2,52.1c-1.2,0.5-2.5-0.7-2.6-2C165.8,309.9,166.5,308.7,167.2,307.7z"/>
		<path d="M342,231.6c24.6-28.8,64.8-41.4,102.5-38.5c5.6,0.4,11.4,1.2,16.3,4c1.9,1.1,3.9,3.4,2.7,5.3c-26.6-8.8-56.6-6.9-81.9,5.2
			c-15.4,7.3-28.9,18.1-41,30C339.1,235.9,340.5,233.3,342,231.6z"/>
		<path d="M323.6,244.5c-2,0.4-3.4,2.3-4.5,4c-4.6,7.3-8.2,15.3-10.6,23.6c-0.5,1.6-1.3,3.6-3,3.8c-1.2-2.4-0.7-5.3,0.1-7.8
			c1.8-6.4,4.5-12.4,8-18.1c0.9-1.4,1.8-2.9,2-4.5c0.3-2.7-1.3-5.1-2.8-7.3c-3.8-5.8-6.7-12.2-8.6-18.8c-0.3-1-0.5-2.1-0.2-3.1
			c0.7-1.8,2.9-2.3,4.8-2.6c7.9-0.9,15.9-1.4,23.8-1.4c2.4,0,5.7,1.2,5,3.4c-2.2,8.1-5.5,15.9-9.9,23.1c8.6,8.4,14.2,19.8,15.8,31.7
			c0.1,1,0.2,2.2-0.4,3s-2.3,0.8-2.5-0.2c-1.9-8.6-5.3-16.8-10.1-24.2C329.1,246.6,326.6,243.9,323.6,244.5"/>
		<path d="M290.2,233.8c-12.1-11.4-27.8-18.5-44.1-21.8s-33.1-3.1-49.6-1.1c-5.3,0.6-10.6,1.5-15.2,4.1c-3.2,1.8-6.5,4.6-10,3.4
			c2.7-6.1,9.8-8.7,16.3-10.2c30.4-7,63.3-3.1,91.2,11C284.7,222.1,291.3,227.2,290.2,233.8z"/>
		<path d="M284.3,241.6c2.7,1.1,5.7,4.8,3.2,6.3c-37.4-17.6-84.2-13.3-117.7,10.8c-2.4-1.6,0-5.3,2.5-6.9
			C205,230.8,248.2,226.8,284.3,241.6z"/>
		<path d="M473.7,285.7c-19.4-20.2-46.2-33.1-74-35.6c-6.3-0.6-12.8-0.6-19,0.8c-7.1,1.6-13.7,5.2-20.9,6.2
			c-0.8,0.1-1.9,0.1-2.2-0.7c-0.4-0.9,0.6-1.7,1.4-2.2c14.5-8.2,32-10.1,48.5-7.6s32.1,9.2,46.7,17.4c6.2,3.5,12.3,7.3,16.9,12.7
			C473.2,279.2,475.1,282.7,473.7,285.7z"/>
		<path d="M373.6,236.2c-7.6,2.8-15,6-22.2,9.6c-1.8-2.1,1.1-5.1,3.6-6.3c17-8.3,35.2-14.7,54-16.7s38.4,0.5,55.3,8.9
			c1.5,0.7,3.1,1.7,3.5,3.3s-1.3,3.6-2.7,2.7c-13.5-8.2-29.6-11.6-45.4-11.3C404,226.8,388.5,230.7,373.6,236.2z"/>
		<path d="M344,292c1,2.2-0.5,4.6-2.3,6.3c-6.6,6.2-17.8,6.5-24.7,0.7c-1.2-1-2.3-2.3-2.2-3.8s2.3-2.7,3.2-1.5
			c4.5,5.3,13.1,6.5,18.9,2.6C339.2,294.7,341.2,292.4,344,292z"/>
	</g>
	<path id="fill_6" fill="#FFFFFF" d="M315.9,235c0.7,1.3,1.4,2.7,2.6,3.6c1.2,0.8,3.1,1,4.1-0.2c4.3-5.1,7.4-11.3,8.7-17.8
		c0.2-0.7,0.3-1.5,0-2.2c-0.6-1.5-2.7-1.6-4.3-1.5c-4.6,0.3-9.3,0.6-13.9,0.9c-1.1,0.1-2.3,0.2-3.2,0.7c-0.9,0.6-1.6,1.8-1.1,2.8
		C311.2,225.8,313.6,230.4,315.9,235z"/>
</g>
<g id="Layer_7">
	<g id="line_7">
		<path d="M505.3,251.4c-51,4.2-102.1,5.2-153.2,6.1c-0.7,0-1.4,0-1.9-0.4c-1.7-1.4,1.1-3.6,3.3-3.8c51.8-6.3,105,1.4,156.1-9.1
			c2.3-0.5,3.5,3.1,2.1,4.9C510.2,250.8,507.6,251.2,505.3,251.4L505.3,251.4z"/>
		<path d="M359.2,266.9c47.7,10,95.4,19.9,143.1,29.9c2.1,0.4,4.2,0.9,6,2.1c1.3,0.9,2.3,2.1,2.9,3.5c-53.8-8.3-107.1-19.3-159.8-33
			C351.9,266.5,356.1,266.3,359.2,266.9z"/>
		<path d="M338.2,227.7c-2.8,7.5-6.4,14.8-10.7,21.6c-1.9,2.9-0.5,6.7,0.8,9.9c4,9.3,8.1,18.7,12.1,28c0.9,2.1,1.1,5.5-1.2,5.6
			c-1.4,0.1-2.3-1.3-2.9-2.6c-4.2-8.6-7.9-17.4-11-26.4c-0.5-1.4-2.4-1.8-3.8-1.2c-1.3,0.6-2.2,1.9-3,3.2c-3.9,6.3-7.3,13-10,19.9
			c-0.8,1.9-2.4,4.2-4.2,3.3c-1.7-0.8-1.2-3.3-0.4-5c3.5-7.7,7.6-15.2,12-22.4c2-3.3,4.1-7.8,1.4-10.6c-5.4-5.6-9.5-12.3-12.1-19.6
			c-0.6-1.6-1-3.6,0.1-4.9c0.6-0.8,1.7-1.1,2.6-1.3c9.1-2.5,18.6-3.5,28-3c0.5,0,1.1,0.1,1.5,0.3
			C339.3,223.3,338.9,225.8,338.2,227.7"/>
		<path d="M146.4,330c41.4-22.9,83.4-44.8,125.9-65.5c1.1-0.5,2.4-1,3.4-0.3c1.8,1.3-0.4,3.9-2.4,4.9
			c-43.1,22.5-86.2,44.9-129.3,67.4C141.3,335.4,143.9,331.4,146.4,330z"/>
		<path d="M135.7,218.2c2.7-2.7,7.1-2.4,10.8-2c35.8,4.5,71.4,10.7,107,16.9c7.3,1.3,14.6,2.6,21.9,3.8c4.6,0.8,10.5,3.3,9.7,7.9
			c-46.2-9.4-92.8-17.3-139.5-23.5C142.1,220.9,138.4,220.4,135.7,218.2z"/>
		<path d="M279.2,251.9c-1.8,1.7-4.4,2-6.8,2.2c-37.7,3.6-75.4,7.2-113.1,10.8c-8.7,0.8-17.6,1.7-26.3,0.4c1.2-3.3,5.3-4.1,8.8-4.4
			c42.4-4,84.8-7.9,127.3-11.9C272.8,248.7,277.3,248.7,279.2,251.9z"/>
		<path d="M348.2,240.6c1.8-3.8,6.4-5.1,10.5-6c42.7-9.6,85.5-19.2,128.2-28.8c2.6-0.6,5.5-1.1,7.8,0.3c0.9,2.1-1.9,3.7-4.1,4.2
			c-45.3,10.2-90.6,20.3-135.9,30.5C352.5,241.3,350.1,241.8,348.2,240.6z"/>
	</g>
	<path id="fill_7" fill="#FFFFFF" d="M311.8,233.9c2.4,5,5.9,9.5,10.3,12.8c4.3-4.5,7.6-9.9,9.7-15.7c0.5-1.3,0.7-3.1-0.6-3.6
		c-0.5-0.2-1-0.1-1.6-0.1c-5,0.7-10,1.4-15,2.1c-1.4,0.2-3,0.6-3.4,1.9C311,232.2,311.4,233.1,311.8,233.9z"/>
</g>
<g id="Layer_8">
	<g id="ine_8">
		<path d="M334.2,249.2c-2.4,2.5-5.4,5.7-4,8.9c2.1,5,4.2,10.1,6.3,15.1c0.7,1.6,1.4,3.5,0.7,5.1c-0.7,1.6-3.5,2.1-4.1,0.5
			c-1.3-3.9-2.7-7.7-4-11.6c-0.6-1.9-1.8-4.1-3.8-4c-1.5,0-2.6,1.5-3.4,2.8c-2.7,4.2-5.3,8.4-8,12.6c-0.5,0.9-1.3,1.8-2.3,1.9
			c-1.1,0-2-1.2-2-2.3c0-1.1,0.6-2.1,1.2-3.1c2.7-4.6,5.5-9.2,8.2-13.8c0.8-1.3,1.6-2.9,0.9-4.3c-2.2-4.6-4.4-9.3-6.6-13.9
			c-1.1-2.3-2.2-4.6-2.1-7.1s2-5.1,4.5-5.1c8.3-0.1,16.7-0.1,25-0.2c1.1,0,2.4,0.1,3.1,0.9c0.9,1.1,0.4,2.6-0.2,3.9
			C341.3,240.6,338.1,245.2,334.2,249.2"/>
		<path d="M220.9,231.5c-2.1-0.5-4.7-2.3-3.4-4c0.7-0.9,2.1-0.8,3.2-0.6c24.8,4.4,49.5,9.8,73.8,16.2c2.1,0.5,4.7,2.6,3.4,4.2
			c-0.8,0.9-2.2,0.7-3.3,0.5c-13.4-3-26.7-5.9-40.1-8.9C243.3,236.4,232.1,233.9,220.9,231.5z"/>
		<path d="M347.5,247.7c0.3-0.9,1.2-1.4,2.1-1.8c23.6-10.9,47.1-21.8,70.7-32.7c1.6-0.7,3.1,1.5,2.5,3.1s-2.3,2.5-3.8,3.2
			c-21.9,10-43.7,20-65.6,30.1c-1.2,0.5-2.5,1.1-3.8,0.9C348.3,250.2,347.1,249,347.5,247.7z"/>
		<path d="M415.2,244.2c1.3,0.3,1.6,2.3,0.8,3.4c-0.8,1.1-2.2,1.6-3.5,1.9c-16.9,4.9-33.9,8.9-51.2,12.2c-2.3,0.4-5.2,0.6-6.4-1.4
			c1.6-2.5,4.7-3.4,7.6-4c17.1-4,34.2-8,51.3-12C414.2,244.2,414.7,244.1,415.2,244.2z"/>
		<path d="M288.5,258.7c-14.4-0.3-28.8-0.5-43.1-0.8c-4.8-0.1-10.3-0.5-13.2-4.4c1.8-2.2,5.1-2.1,7.9-1.9
			c17.4,1.5,34.9,2.1,52.3,1.8c1.7,0,2.2,2.7,1,3.9C292.2,258.7,290.3,258.7,288.5,258.7z"/>
		<path d="M244.2,293c-1.3-0.1-1.9-1.9-1.4-3.1s1.8-1.9,2.9-2.6c14.4-7.9,29.3-15,44.5-21.3c1.4-0.6,3.5-0.9,4.1,0.5s-1,2.7-2.4,3.3
			c-15.4,7.6-30.8,15.1-46.2,22.7C245.2,292.8,244.7,293,244.2,293z"/>
		<path d="M393.9,276.3c1.8,0.5,3.6,1.1,5.1,2.3s2.5,3.1,2,4.9c-2.1,0.3-4.2-0.4-6.2-1c-11.1-3.4-22.3-6.9-33.4-10.3
			c-2.1-0.7-4.8-2.4-3.8-4.4c0.8-1.7,3.2-1.4,5-0.9C373,270.1,383.4,273.2,393.9,276.3z"/>
	</g>
	<path id="fill_8" fill="#FFFFFF" d="M317.3,241.2c1.3,2.7,2.9,5.2,4.7,7.6c0.7,1,1.7,2,2.9,2c1.2,0,2.1-0.9,2.9-1.8
		c2.3-2.5,4.6-4.9,6.9-7.4c1.4-1.5,2.7-4.3,1-5.4c-0.6-0.4-1.4-0.4-2.1-0.3c-4.5,0.1-9,0.3-13.5,0.4c-1.2,0-2.5,0.2-3.2,1.1
		C316.2,238.6,316.7,240.1,317.3,241.2z"/>
</g>
<g id="Layer_9">
	<g id="line_9_1_">
		<path d="M282.1,252.2c-9.1-8.9-24.2-6.1-35.9-1.2c-23.2,9.7-43.7,25.2-66.9,34.7c-9.8,4-21.8,6.7-30.4,0.5c-1.4-1-2.8-2.5-2.7-4.2
			c0-1.7,2.4-3.2,3.6-2c6.8,6.7,18.1,4.7,27,1.3c25.2-9.8,46.8-27.5,72.1-37c9.9-3.7,21.7-5.9,30.4,0
			C282,246,284.3,249.8,282.1,252.2z"/>
		<path d="M284.3,239.7c-11.9-11-30.2-11.2-46.2-8.6c-12.5,2-24.9,5.3-36.8,9.7c-8.7,3.2-17.2,7.1-26.4,8.5
			c-9.2,1.3-19.3-0.3-25.9-6.9c-1.6-1.6-2.9-4.6-1.1-6c7.2,5.7,16.6,8.5,25.8,7.7c9-0.8,17.4-4.8,25.8-8.2c13.7-5.4,28-9,42.6-10.7
			c13.1-1.5,27.2-1.3,38.5,5.5C283.9,232.6,287,237,284.3,239.7z"/>
		<path d="M353.2,242.4c-2.1-1.9-0.5-5.3,1.3-7.4c9.9-11.6,24.6-18.5,39.7-21.1s30.5-1.4,45.6,1c10.1,1.6,20.4,3.6,30.5,1.9
			c7.6-1.3,14.9-4.9,20.6-10.1c1.6,6.9-6.3,12.1-13.1,13.7c-23.8,5.7-48.7-4.4-73.1-2.8C385.2,218.9,366.4,228,353.2,242.4z"/>
		<path d="M302.5,273.2c-2.1-1.1-0.8-4.2,0.7-6.1c4-4.8,8-9.6,12-14.3c1.1-1.3,0.8-3.3-0.1-4.8c-1-1.4-2.4-2.4-3.8-3.4
			c-4.4-3.2-8.2-7.4-10.9-12.2c-1.4-2.5-2.6-5.6-1.1-8.1c1.5-2.7,5.2-3.1,8.3-3.3c12.1-0.5,24.2-0.9,36.2-1.4c1.1,0,2.3,0,3,0.9
			c0.4,0.5,0.5,1.2,0.5,1.9c0.4,9.3-3.3,18.6-9.8,25.2c-1.5,1.5-0.3,4,1,5.6c3.3,4.5,6.5,9,9.8,13.5c0.7,1,1.4,2,1.5,3.2
			s-0.7,2.6-1.9,2.6c-4.3-3.4-8-7.6-10.8-12.4c-1.6-2.7-3-5.7-5.7-7.3c-3.7-2.1-8.5-0.7-11.7,2s-5.3,6.5-7.7,10.1
			C309.5,268.5,306.5,272,302.5,273.2"/>
		<path d="M366.7,268.8c-2.1-1.8,0.5-5.2,3.1-6.2c6.1-2.5,13-2.2,19.4-0.9c17.5,3.5,32.6,14,48.8,21.6c16.1,7.6,35.7,12.2,51.4,3.8
			c1.9,4-3.2,7.7-7.5,8.7c-13.4,3.2-27.6-0.1-40.3-5.5c-12.7-5.4-24.4-12.8-37.1-18.3C392.6,266.8,378.6,263.4,366.7,268.8z"/>
		<path d="M489.4,246.2c1.2-1.7,4.2-0.2,4.3,1.9c0.1,2.1-1.5,3.8-3,5.1c-11.8,9.6-28.7,10.1-43.5,6.7s-28.8-10-43.7-13.1
			c-14.9-3.1-31.9-1.9-43.1,8.4c-1,0.9-2.8-0.3-2.8-1.7s1-2.5,2-3.4c13.5-12.5,34.8-11.4,52.5-6.3c17.7,5.1,35,13.5,53.5,13.1
			C474.6,256.6,484.3,253.7,489.4,246.2z"/>
		<path d="M213.4,323.5c-6,3.6-13.2,5.9-19.9,4.2c-1.8-0.4-3.6-1.3-4.3-3s0.9-4,2.6-3.4c8.7,3.1,18.3-1.1,25.5-6.9
			c10.4-8.5,17.7-20.2,25.8-30.9s18-21.1,30.8-25c2.4-0.7,5-1.2,7.3-0.3c2.3,0.9,4,3.6,3.1,5.9c-12.4-2.6-24.3,6.5-32.4,16.3
			C239.5,295.3,230.1,313.6,213.4,323.5z"/>
		<path d="M340.1,286.7c-3.4,3.9-8.8,6-13.9,5.6c-5.2-0.4-10.1-3.4-12.9-7.7c-0.2-0.4-0.5-0.8-0.5-1.3c-0.1-1.3,1.6-2.1,2.8-1.8
			c1.3,0.3,2.2,1.3,3.2,2.1c5.7,4.7,15.1,3.9,19.8-1.7c0.9-1,2.7-0.1,3,1.2S341,285.7,340.1,286.7z"/>
	</g>
	<path id="fill_9_1_" fill="#FFFFFF" d="M333.9,243.7c4.1-3.2,7-8,8-13.1c0.3-1.5,0.4-3.2-0.7-4.3c-1-1-2.5-1.1-3.9-1.1
		c-9.4-0.1-18.7,0.3-28,1c-1.4,0.1-3.1,0.3-3.9,1.5c-1.2,1.7,0.1,4,1.5,5.6c3.3,3.8,7.1,7.2,11.3,10.1c2.4,1.6,5,3.2,7.8,3.3
		C328.9,246.8,331.6,245.5,333.9,243.7z"/>
</g>
</svg>
